<svg xmlns="http://www.w3.org/2000/svg" xmlns:xlink="http://www.w3.org/1999/xlink" id="Слой_1" x="0px" y="0px" viewBox="0 0 1220 1172" style="enable-background:new 0 0 1220 1172;" xml:space="preserve"> <style type="text/css"> .st0{fill:#33ACE2;} .st1{fill:#EA168C;} .st2{fill:#6E185B;} .st3{fill:#5B5B5B;} </style> <g> <path class="st0" d="M577.5,975.4c-2.2-7.8-16.4-2.2-50.9,7.3c1.7,5.6,5.1,9.6,11.9,9.6c16.4,0.5,22,0.5,37.4-3.4 C577,982.7,578.5,977.6,577.5,975.4z"/> <path class="st0" d="M359.9,891.1c-32.8,26.6,6.8,19.8-14.2,53.1c-27.6,43.5-59.9,72.4-94.4,84.1c50.9,20.8,114.7-11.9,161.1-84.1 c20.8-32.8-15.2-27.1,15.2-52c-15.2-16.9-30.5-31.6-30.5-31.6S380.2,874.7,359.9,891.1z"/> <path class="st1" d="M789.3,983.7c-18.1-7.3-79.7-29.9-121-79.7C627,854.4,549.7,754.9,549.7,754.9s-24.2-35.7-62.6-24.2 c0.5-1.7-49.7-76.8-50.3-84.1c-1.2-10.8,5.1-3.4,15.2-10.8c10.8-6.8-12.5-27.1-4.4-38.9c7.8-11.9,37.4-71.2-19.8-106.1 c-27.1-16.9-56-13.5-56-13.5s-12.5,0-25.9,6.1c5.1,2.2,9.6,3.9,15.2,7.3c57.7,35.7,28.3,94.4,19.8,106.1 c-7.8,11.9,15.2,32.3,4.4,38.9c-10.8,6.8-16.9-0.5-15.2,10.8c1.7,7.8,51.4,83.1,50.9,84.8c38.4-10.8,62.6,24.2,62.6,24.2 S560.4,856,601.7,904.6c41.3,49.1,103.4,71.7,121,79.7c18.1,7.3,9.6,15.2,5.6,18.1c-2.2,1.7-43,12.5-81.4,18.6 c0.5,0.5,1.7,1.2,2.2,1.7c11.9,4.4,141.3-18.1,144.7-20.3C798.3,999.6,807.4,991.1,789.3,983.7z"/> <path class="st0" d="M312,677.1c0,0,52,55.3,54.8,49.7c3.4-5.6-28.8-54.8-29.4-56.5C317.6,656.6,312,677.1,312,677.1z"/> <path class="st0" d="M643.5,974.7c-2.2-7.8-16.4-2.2-49.7,7.8c-8.5,2.9-15.2,4.4-20.3,6.1c-1.7,11.9-2.9,27.1,10.8,34.5 c10.2,5.6,37.9,2.9,66.7-1.7C641.8,1012,645.8,981.5,643.5,974.7z"/> <path class="st0" d="M535.2,943.6c2.2-6.1-69.5-83.1-69.5-83.1s-17.6,14.2-38.4,30.5c-0.5,0.5,0.5,0.5,0,1.2 c19.8,22,42.3,48,40.6,52c-2.2,6.1-19.3,40.1,7.8,46.2c14.2,3.4,20.3,3.4,53.1-6.1c0.5,0,1.2-0.5,1.7-0.5 C527.2,970.2,533.5,948.2,535.2,943.6z"/> <path class="st0" d="M178.5,873.7c-9.6-201.2,115.2-242.3,139.6-252c15.2-6.1,10.8-22,5.1-33.3c-6.8-13.5-10.2-27.6-9.6-43 c0.5-38.4,20.3-55.3,37.4-62.6c-21.5-7.8-40.6-6.1-40.6-6.1s-62.1,0-63.3,68.9c-0.5,14.7,3.4,29.4,9.6,43 c5.6,10.8,10.2,27.1-5.1,33.3c-24.2,9.6-149.1,50.3-139.6,252c6.8,134.5,71.2,178.5,139.6,154.8 C211.3,1012,182.6,962.9,178.5,873.7z"/> <path class="st2" d="M725.4,983.7c-18.1-7.3-79.7-29.9-121-79.7c-41.3-49.7-118.1-149.1-118.1-149.1s-24.2-35.7-62.6-24.2 c0.5-1.7-49.7-76.8-50.3-84.1c-1.2-10.8,5.1-3.4,15.2-10.8c10.8-6.8-12.5-27.1-4.4-38.9c7.8-11.9,37.4-71.2-19.8-106.1 c-5.1-3.4-10.2-5.1-15.2-7.3c-16.9,7.8-36.7,24.2-37.4,62.6c-0.5,14.7,3.4,29.4,9.6,43c5.6,10.8,10.2,27.1-5.1,33.3 c-24.2,9.6-149.1,50.3-139.6,252c4.4,88.7,35.7,138.4,75.1,154.8c34.5-11.9,68.4-40.6,96.1-84.1c21.5-32.8-18.6-27.1,14.2-53.1 c20.3-16.4,36.2-30.5,36.2-30.5s15.2,14.7,30.5,31.6c0.5-0.5-0.5-0.5,0-1.2c20.3-16.4,38.4-30.5,38.4-30.5s71.7,76.8,69.5,83.1 c-1.7,4.4-9.6,26.6-5.6,39.6c31.6-9,44.7-14.2,46.2-6.8c0.5,2.2-0.5,7.3-1.2,13c5.1-1.2,11.3-3.4,19.8-5.6 c32.3-9.6,46.2-15.2,47.4-7.3c1.7,6.8-1.7,36.2,6.8,44.7c38.4-6.8,78.5-17.6,81.4-18.6C735.2,999.6,743.5,991.1,725.4,983.7z M366.2,726.7c-3.4,5.6-54.8-49.7-54.8-49.7s6.1-20.3,25.4-6.8C336.7,672,369,721.1,366.2,726.7z"/> </g> <g> <path class="st3" d="M678.9,331.3h-12.2v-31.2h-64.3V191.7h13.5V287h38.8v-95.3h13.5V287H679v44.4h-0.1V331.3z"/> <path class="st3" d="M751.5,262h-51.9c0,5.8,0.9,10.8,2.7,14.9c1.8,4,4.4,7.3,7.8,9.6c3.3,2.4,7.4,3.6,12.3,3.6 c7.2,0,13.3-2.4,18.2-7.1l5.3,11.4c-3.3,3-7,4.9-11.1,5.9c-4,1.1-8.9,1.5-14.9,1.5c-9.8,0-17.8-3.7-24-11.1 c-6.3-7.4-9.5-17.1-9.5-29c0-12.6,3.3-22.8,9.9-30.6c6.6-7.7,14.6-11.7,23.7-11.7c9.9,0,17.9,3.1,23.8,9.3 c5.9,6.2,8.8,14.4,8.8,24.7C752.6,255.3,752.2,258.3,751.5,262z M720.5,231.1c-5.6,0-10.3,2-14.1,6.1c-3.9,4-5.9,8.8-6.4,14.5h39.8 c0-6.1-1.7-10.9-5.3-14.7C731.1,233,726.3,231.1,720.5,231.1z"/> <path class="st3" d="M824.9,300.1H812v-35.8h-33.1v35.8h-12.8v-79.3h12.8v31.9H812v-31.9h12.8v79.3H824.9z"/> <path class="st3" d="M892.1,232.7h-20.6v67.4h-12.7v-67.4h-20.7v-11.9h54V232.7z"/> <path class="st3" d="M918.2,295.9v35.4h-12.8V220.8h12.8v6.5c4.9-5.4,10.7-8.1,17.5-8.1c10.1,0,18.1,3.6,23.8,10.6 c5.7,7.1,8.5,17.4,8.5,30.8c0,12.1-2.9,22-8.6,29.6c-5.7,7.6-14,11.3-24.8,11.3c-2.9,0-6.1-0.6-9.6-1.8 C921.4,298.7,919.2,297.3,918.2,295.9z M918.2,237.9v46.3c1,1.4,2.7,2.7,5.3,3.9c2.5,1.2,5,1.8,7.4,1.8c15.8,0,23.8-9.9,23.8-29.7 c0-10.2-1.9-17.7-5.8-22.2c-3.9-4.5-9.8-6.8-18-6.8c-1.7,0-4,0.7-6.7,2.3C921.5,234.8,919.5,236.4,918.2,237.9z"/> <path class="st3" d="M658.4,441.3h-12.7v-67.4h-31.4v67.4h-12.8V362h56.9V441.3z"/> <path class="st3" d="M689.4,436.9v35.4h-12.8V361.9h12.8v6.5c4.9-5.4,10.7-8.1,17.5-8.1c10.1,0,18.1,3.6,23.8,10.6 c5.7,7.1,8.5,17.4,8.5,30.8c0,12.1-2.9,22-8.6,29.6c-5.7,7.6-14,11.3-24.8,11.3c-2.9,0-6.1-0.6-9.6-1.8 C692.6,439.8,690.3,438.5,689.4,436.9z M689.4,379.1v46.3c1,1.4,2.7,2.7,5.3,3.9c2.5,1.2,5,1.8,7.4,1.8c15.8,0,23.8-9.9,23.8-29.7 c0-10.2-1.9-17.7-5.8-22.2c-3.9-4.5-9.8-6.8-18-6.8c-1.7,0-4,0.7-6.7,2.3C692.6,376,690.7,377.5,689.4,379.1z"/> <path class="st3" d="M781.1,360.4c10.3,0,18.3,3.7,23.9,10.9c5.7,7.4,8.5,17.4,8.5,30c0,13-2.9,23.2-8.8,30.5 c-5.9,7.3-13.8,10.9-23.6,10.9c-10.2,0-18.2-3.7-23.9-11.1s-8.6-17.5-8.6-30.3c0-12.3,3-22.1,8.9-29.6 C763.5,364.1,771.4,360.4,781.1,360.4z M781.1,431.3c6,0,10.7-2.7,14-8.2s5-12.7,5-21.8c0-19.6-6.4-29.4-19-29.4 c-6,0-10.7,2.6-14.1,8c-3.4,5.4-5.2,12.5-5.2,21.4C761.8,421.3,768.3,431.3,781.1,431.3z"/> <path class="st3" d="M833.3,384.1c3-5.7,6.8-10.1,11.3-13.1s9.4-4.5,14.6-4.5c9.4,0,16.7,3.3,22.1,9.9s8.1,15.5,8.1,26.6 c0,11.9-2.9,21.5-8.8,28.9c-5.8,7.4-13.9,11.1-23.9,11.1c-10.5,0-18.7-4.2-24.6-12.6c-5.9-8.4-8.8-19.9-8.8-34.1 c0-9.6,0.8-18.1,2.3-25.5s3.8-13.4,6.7-18.1c2.9-4.6,6.7-8.4,11.2-11.3s10.6-5.4,17.9-7.1l23.1-5.8l2.8,13.1 c-16.7,4-27,6.5-30.9,7.7s-7.5,3-10.9,5.4c-3.3,2.5-5.9,6.1-7.9,10.6C835.4,369.5,834.1,375.9,833.3,384.1z M857.1,431.2 c5.9,0,10.6-2.4,13.7-7.3c3.2-4.9,4.9-11.3,4.9-19.5c0-8.6-1.6-15.1-4.7-19.6s-7.8-6.8-13.7-6.8c-6,0-11,2.6-14.8,7.7 s-5.7,11.4-5.7,18.7c0,7.9,1.8,14.4,5.5,19.3C846,428.7,851,431.2,857.1,431.2z"/> <path class="st3" d="M962.4,441.3h-12.7v-68.2h-19.3c-0.2,11.2-1.3,21.5-3.1,30.9c-1.8,9.5-4.3,17.2-7.4,23.4 c-3.1,6.2-6.6,10.1-10.2,12c-3.7,1.8-8.1,2.7-13.3,2.7v-12.8c8,0,13.7-6.9,17-20.6s5-26.9,5-39.4v-7.4h44v79.2V441.3L962.4,441.3z"/> <path class="st3" d="M1040.7,403.1h-51.9c0,5.8,0.9,10.8,2.7,14.9c1.8,4,4.4,7.3,7.8,9.6c3.3,2.4,7.4,3.6,12.3,3.6 c7.2,0,13.3-2.4,18.2-7.1l5.3,11.4c-3.3,3-7,4.9-11.1,5.9c-4,1.1-8.9,1.5-14.9,1.5c-9.8,0-17.8-3.7-24-11.1 c-6.3-7.4-9.5-17.1-9.5-29c0-12.6,3.3-22.8,9.9-30.6c6.6-7.7,14.6-11.7,23.7-11.7c9.9,0,17.9,3.1,23.8,9.3 c5.9,6.2,8.8,14.4,8.8,24.7C1041.8,396.5,1041.5,399.3,1040.7,403.1z M1009.8,372.2c-5.6,0-10.3,2-14.1,6.1 c-3.9,4-5.9,8.8-6.4,14.5h39.8c0-6.1-1.7-10.9-5.3-14.7C1020.3,374.1,1015.6,372.2,1009.8,372.2z"/> <path class="st3" d="M1123.9,441.3l-7.5-47.8l-21.7,49.1h-3.4l-21.7-48.4l-7.3,47.1H1050l13.8-80.8h3.4l26.6,59.2l26.3-59.2h3.3 l13.5,80.8H1123.9z"/> <path class="st3" d="M641.3,573.4c-5.2,7-12.9,10.6-23.4,10.6c-5.7,0-10.6-2.3-14.7-6.8c-4.1-4.5-6.1-10.1-6.1-16.8 c0-8.1,3.1-14.9,9.5-20.3c6.4-5.6,14.4-8.3,24.4-8.3c2.7,0,5.8,0.6,9.3,1.8c0-12.8-5.3-19.3-15.7-19.3c-7.9,0-14,2.4-18.4,7.1 l-5.4-11.7c2.2-2,5.4-3.9,9.8-5.6c4.3-1.7,8.6-2.5,12.6-2.5c10.1,0,17.6,2.5,22.4,7.6c4.9,5.1,7.2,13.6,7.2,25.3V563 c0,7,1.8,11.7,5.6,13.9v7c-5.6,0-9.6-1-12.1-2.7C644,579.2,642.2,576.7,641.3,573.4z M640.2,543.5c-4.5-1.1-7.4-1.5-8.5-1.5 c-6.5,0-11.8,1.9-15.7,5.6c-4.1,3.7-6.1,8-6.1,13c0,8.3,4.4,12.5,13.3,12.5c6.4,0,12.1-3.3,17.1-10.1L640.2,543.5L640.2,543.5z"/> <path class="st3" d="M699.8,595.5c-1.6,5-5.2,9.2-10.5,12.6c-5.3,3.3-11.2,5.1-17.8,5.1v-12.6c5.3,0,9.8-1.4,13.6-4.2 c3.9-2.7,5.8-6.1,5.8-10c0-4.6-0.6-9-2-12.8L664,502.7h13l21,61.3l19.2-61.3h12.9L699.8,595.5z"/> <path class="st3" d="M789.5,515h-20.6v67.6h-12.7v-67.4h-20.7v-11.9h54V515z"/> <path class="st3" d="M863.3,582.5h-12.7v-54.4l-44.8,56.5h-2.9v-81.5h12.8v54.4l44.7-56.5h2.9V582.5L863.3,582.5z"/> <path class="st3" d="M916.7,541c8.9,3.6,13.5,10.1,13.5,19.4c0,7.4-2.5,13.1-7.5,17.2c-5.1,4.2-11.9,6.2-20.5,6.2 c-9.5,0-18.3-3-26.4-8.9l6.5-11.3c5.7,5.8,12.5,8.7,20.6,8.7c4.3,0,7.8-1.1,10.3-3.3c2.6-2.1,3.9-5.1,3.9-8.7 c0-9.5-5.4-14.3-16.2-14.3c-3,0-5.7,0.1-8,0.5v-11.3c0.8,0.1,3.6,0.1,8.4,0.1c4.4,0,7.8-1,10.2-2.9c2.4-1.9,3.7-4.5,3.7-7.9 c0-3.7-1.1-6.5-3.3-8.7c-2.3-2.1-5.3-3.1-9.3-3.1c-6,0-12.3,2-18.9,6.1l-4.7-11.4c8.2-4.2,16.3-6.2,24.3-6.2c7.1,0,13,2,17.8,6.2 c4.7,4.2,7.2,9.6,7.2,16.5C928,532.4,924.3,538,916.7,541z"/> <path class="st3" d="M1012.2,582.5l-7.5-47.8L983,583.8h-3.4l-21.7-48.4l-7.4,47.1h-12.3l13.8-80.8h3.4l26.6,59.2l26.3-59.2h3.3 l13.5,80.8H1012.2L1012.2,582.5z"/> <path class="st3" d="M1077.5,573.4c-5.2,7-12.9,10.6-23.4,10.6c-5.7,0-10.6-2.3-14.7-6.8s-6.1-10.1-6.1-16.8 c0-8.1,3.1-14.9,9.5-20.3c6.4-5.6,14.4-8.3,24.4-8.3c2.7,0,5.8,0.6,9.3,1.8c0-12.8-5.3-19.3-15.7-19.3c-7.9,0-14,2.4-18.4,7.1 l-5.4-11.7c2.2-2,5.4-3.9,9.8-5.6s8.6-2.5,12.6-2.5c10.1,0,17.6,2.5,22.4,7.6c4.9,5.1,7.2,13.6,7.2,25.3V563c0,7,1.8,11.7,5.6,13.9 v7c-5.5,0-9.6-1-12.1-2.7C1080.2,579.2,1078.4,576.7,1077.5,573.4z M1076.4,543.5c-4.5-1.1-7.4-1.5-8.5-1.5 c-6.5,0-11.8,1.9-15.7,5.6c-4.1,3.7-6.1,8-6.1,13c0,8.3,4.4,12.5,13.3,12.5c6.4,0,12.1-3.3,17.1-10.1L1076.4,543.5L1076.4,543.5z"/> </g> </svg>