<svg width="256" height="94" viewBox="0 0 256 94" fill="none" xmlns="http://www.w3.org/2000/svg" class="_3ly8g">
    <path d="M226.495 72.2018C226.471 70.7876 225.887 69.4407 224.871 68.4571C223.854 67.4734 222.489 66.9334 221.075 66.9557V66.9557C219.661 66.9334 218.296 67.4736 217.28 68.4573C216.265 69.4411 215.681 70.788 215.658 72.2018V88.7512C215.68 90.1661 216.263 91.5143 217.279 92.4995C218.295 93.4847 219.66 94.0261 221.075 94.0049V94.0049C222.49 94.0272 223.856 93.4867 224.872 92.5022C225.889 91.5177 226.472 90.1699 226.495 88.755V72.2018Z"
          fill="#A1A1A4"></path>
    <path d="M209.263 72.1179C209.252 71.4175 209.102 70.7262 208.824 70.0835C208.545 69.4407 208.143 68.8592 207.639 68.372C207.136 67.8849 206.542 67.5016 205.89 67.2442C205.239 66.9868 204.543 66.8603 203.842 66.8718V66.8718C202.429 66.8495 201.064 67.3896 200.048 68.3734C199.032 69.3572 198.449 70.704 198.426 72.1179V88.6673C198.449 90.0812 199.032 91.4281 200.048 92.4118C201.064 93.3956 202.429 93.9357 203.842 93.9134V93.9134C205.257 93.9357 206.622 93.3957 207.638 92.4121C208.655 91.4284 209.239 90.0815 209.263 88.6673V72.1179Z"
          fill="#A1A1A4"></path>
    <path d="M252.539 20.6471C252.539 23.725 249.95 26.2192 246.759 26.2192H178.04C176.536 26.2436 175.084 25.6708 174.001 24.6265C172.918 23.5821 172.294 22.1512 172.264 20.6471C172.295 19.1438 172.92 17.7138 174.002 16.6703C175.085 15.6267 176.537 15.0545 178.04 15.0789H246.762C249.954 15.0789 252.543 17.573 252.543 20.6471H252.539Z"
          fill="#A1A1A4"></path>
    <path d="M221.928 9.52557C221.928 11.4096 221.369 13.2512 220.323 14.8177C219.276 16.3842 217.788 17.6051 216.048 18.3261C214.307 19.047 212.392 19.2357 210.544 18.8681C208.696 18.5006 206.999 17.5933 205.667 16.2612C204.335 14.929 203.428 13.2317 203.06 11.3839C202.692 9.53614 202.881 7.62086 203.602 5.88029C204.323 4.13972 205.544 2.65203 207.11 1.60535C208.677 0.558665 210.519 0 212.402 0C214.929 0 217.352 1.00358 219.138 2.78998C220.924 4.57637 221.928 6.99923 221.928 9.52557Z"
          fill="#A1A1A4"></path>
    <path d="M256 19.1797H0V84.5282H256V19.1797Z" fill="#BA0C2F"></path>
    <path d="M182.897 20.5899C182.897 21.6395 182.585 22.6655 182.002 23.5382C181.419 24.4109 180.59 25.091 179.621 25.4927C178.651 25.8943 177.584 25.9994 176.555 25.7947C175.525 25.5899 174.58 25.0845 173.838 24.3423C173.095 23.6002 172.59 22.6546 172.385 21.6252C172.18 20.5958 172.286 19.5288 172.687 18.5591C173.089 17.5895 173.769 16.7607 174.642 16.1775C175.514 15.5944 176.54 15.2832 177.59 15.2832C178.997 15.2832 180.347 15.8423 181.342 16.8375C182.338 17.8327 182.897 19.1825 182.897 20.5899V20.5899Z"
          fill="#A1A1A4"></path>
    <path d="M212.961 29.2589C213.484 26.0523 211.309 23.0289 208.102 22.5061C204.895 21.9833 201.872 24.159 201.349 27.3657C200.826 30.5723 203.002 33.5957 206.209 34.1185C209.415 34.6413 212.439 32.4656 212.961 29.2589Z"
          fill="white"></path>
    <path d="M223.334 28.3146C223.335 29.4783 222.991 30.6161 222.345 31.584C221.699 32.5519 220.78 33.3066 219.705 33.7524C218.63 34.1982 217.447 34.3153 216.306 34.0887C215.164 33.8622 214.116 33.3022 213.293 32.4796C212.47 31.657 211.909 30.6088 211.682 29.4675C211.454 28.3262 211.571 27.1432 212.016 26.068C212.461 24.9928 213.215 24.0738 214.183 23.4273C215.15 22.7807 216.288 22.4355 217.451 22.4355C219.011 22.4355 220.507 23.0548 221.61 24.1573C222.713 25.2597 223.333 26.7551 223.334 28.3146V28.3146Z"
          fill="white"></path>
    <path d="M221.685 32.3984L212.307 41.7761L202.934 32.3984L212.251 27.2168L221.685 32.3984Z" fill="white"></path>
    <path d="M252.531 20.5977C252.531 21.6473 252.22 22.6733 251.637 23.546C251.054 24.4187 250.225 25.0989 249.255 25.5005C248.286 25.9022 247.219 26.0073 246.189 25.8025C245.16 25.5977 244.214 25.0923 243.472 24.3502C242.73 23.608 242.225 22.6624 242.02 21.633C241.815 20.6036 241.92 19.5366 242.322 18.5669C242.724 17.5973 243.404 16.7685 244.276 16.1854C245.149 15.6022 246.175 15.291 247.225 15.291C248.632 15.291 249.982 15.8501 250.977 16.8453C251.972 17.8405 252.531 19.1903 252.531 20.5977V20.5977Z"
          fill="#A1A1A4"></path>
    <path d="M21.8566 72.5385C21.015 72.5497 20.1794 72.3965 19.3965 72.0874C18.683 71.8082 18.037 71.3805 17.5013 70.8327C16.9773 70.2781 16.5689 69.6249 16.2997 68.9109C16.0014 68.1282 15.8535 67.2961 15.8638 66.4585C15.8552 65.5868 15.991 64.7197 16.2656 63.8923C16.5107 63.1346 16.9109 62.4363 17.4406 61.8416C17.9667 61.2602 18.6136 60.8009 19.3359 60.496C20.153 60.16 21.0302 59.9949 21.9135 60.0108C22.6014 60.0098 23.2863 60.1029 23.949 60.2875C24.5779 60.4622 25.1708 60.7471 25.7002 61.129C26.2192 61.5046 26.6521 61.9866 26.97 62.5429C27.3024 63.1532 27.4916 63.8311 27.5234 64.5253H24.3204C24.1082 63.1607 23.3008 62.4747 21.9059 62.4747C21.4417 62.4593 20.9835 62.5834 20.5906 62.831C20.2322 63.0683 19.9317 63.3831 19.7112 63.7521C19.486 64.1413 19.3271 64.5653 19.2411 65.0067C19.151 65.4471 19.1041 65.8952 19.1009 66.3448C19.1033 66.7855 19.1503 67.2249 19.2411 67.6563C19.3328 68.0817 19.4914 68.4898 19.7112 68.8654C19.9164 69.2198 20.2021 69.5211 20.5451 69.7449C20.932 69.9827 21.3799 70.1026 21.8338 70.0898C22.1642 70.1111 22.4953 70.0639 22.8065 69.951C23.1176 69.8381 23.4021 69.6621 23.6419 69.434C24.0857 68.9446 24.3642 68.328 24.4379 67.6714H27.5916C27.3743 69.2508 26.7603 70.4562 25.7495 71.2876C24.6398 72.1504 23.2611 72.5934 21.8566 72.5385V72.5385Z"
          fill="white"></path>
    <path d="M34.4947 72.5385C33.6309 72.551 32.7726 72.3979 31.9664 72.0875C31.2475 71.8079 30.6 71.3715 30.0712 70.8101C29.5404 70.239 29.1315 69.5657 28.8696 68.8314C28.575 68.0199 28.4262 67.1627 28.4299 66.2993C28.4238 65.4497 28.5715 64.606 28.8658 63.809C29.1386 63.0688 29.559 62.3917 30.1015 61.8189C30.6372 61.2542 31.282 60.8042 31.9967 60.4961C32.7864 60.1618 33.6373 59.9965 34.4947 60.0109C35.3643 59.9938 36.2264 60.1753 37.0154 60.5415C37.7181 60.8739 38.3392 61.3565 38.8348 61.9554C39.329 62.566 39.7009 63.2661 39.9303 64.0174C40.1791 64.8074 40.3069 65.6304 40.3093 66.4585V66.7694C40.309 66.8734 40.3014 66.9772 40.2866 67.0802H31.6897C31.7352 68.1377 32.0043 68.9072 32.4971 69.381C33.0346 69.8049 33.6895 70.0533 34.3729 70.0926C35.0563 70.1319 35.7353 69.9603 36.3179 69.6009C36.7192 69.3607 37.0278 68.9921 37.1935 68.5547H40.0705C39.6131 69.9799 38.9068 71.0009 37.9516 71.6175C36.914 72.2556 35.7122 72.5758 34.4947 72.5385V72.5385ZM37.004 65.0068C36.9128 64.3118 36.6307 63.6558 36.189 63.1115C35.954 62.8839 35.6733 62.7088 35.3655 62.5977C35.0578 62.4866 34.7299 62.4421 34.4037 62.4671C33.9505 62.4507 33.4998 62.5416 33.0884 62.7325C32.774 62.8918 32.4964 63.1152 32.2734 63.3882C32.0764 63.6368 31.9297 63.9213 31.8413 64.2259C31.765 64.4804 31.7154 64.7421 31.6935 65.0068H37.004Z"
          fill="white"></path>
    <path d="M41.7988 60.3336H44.9071V61.8498H44.9525C45.3096 61.2439 45.8369 60.7562 46.4687 60.4473C47.1019 60.1506 47.7937 60.0003 48.4929 60.0076C49.3301 59.9857 50.1601 60.1679 50.9112 60.5383C51.5676 60.8762 52.141 61.3551 52.5904 61.9408C53.0492 62.5505 53.3864 63.2429 53.5835 63.9801C53.7992 64.7719 53.9076 65.5891 53.9057 66.4098C53.9074 67.1881 53.7989 67.9628 53.5835 68.7107C53.3825 69.4191 53.0508 70.0838 52.6056 70.6704C52.1459 71.2704 51.55 71.7525 50.8672 72.0768C50.1844 72.4011 49.4342 72.5582 48.6786 72.5353C47.9734 72.542 47.2759 72.3877 46.6393 72.0842C46.0261 71.7847 45.503 71.3283 45.1231 70.7613H45.0776V76.4016H41.8102L41.7988 60.3336ZM47.8182 70.098C48.2901 70.1149 48.7577 70.0036 49.1714 69.7758C49.5258 69.5672 49.8268 69.2791 50.0508 68.9343C50.282 68.568 50.4427 68.1618 50.5246 67.7365C50.6168 67.2709 50.6626 66.7973 50.661 66.3226C50.6614 65.85 50.6119 65.3786 50.5132 64.9163C50.4203 64.4794 50.2509 64.0624 50.0129 63.6844C49.788 63.3286 49.4845 63.0291 49.1259 62.8088C48.7216 62.5772 48.2612 62.4617 47.7954 62.4753C47.3223 62.4599 46.854 62.5753 46.4422 62.8088C46.0863 63.0284 45.7855 63.3267 45.5628 63.6806C45.3309 64.0589 45.1704 64.4764 45.089 64.9126C44.9982 65.3796 44.9525 65.8544 44.9525 66.3302C44.951 66.8054 45.0005 67.2795 45.1004 67.7441C45.1895 68.169 45.3538 68.5747 45.5856 68.9419C45.8095 69.2867 46.1106 69.5748 46.465 69.7834C46.8793 70.0085 47.347 70.1172 47.8182 70.098V70.098Z"
          fill="white"></path>
    <path d="M54.3223 69.7762H55.7513C55.949 69.3652 56.1212 68.9424 56.2668 68.5101C56.4585 67.9505 56.6204 67.3811 56.752 66.8044C56.9054 66.1286 57.0244 65.4454 57.1083 64.7575C57.2013 63.9852 57.2469 63.208 57.2448 62.4301V60.334H66.721V69.7762H68.2638V75.5074H65.1973V72.24H57.385V75.5074H54.3223V69.7762ZM63.4877 69.7762V62.7751H60.2696V63.0745C60.2732 64.4196 60.1193 65.7605 59.8109 67.0697C59.6707 67.6459 59.5266 68.1652 59.3712 68.6238C59.2448 69.0099 59.0993 69.3894 58.9353 69.761L63.4877 69.7762Z"
          fill="white"></path>
    <path d="M78.639 72.24H69.3105V60.334H72.559V69.7762H76.9788V60.334H80.2272V69.7762H81.698V75.5074H78.639V72.24Z"
          fill="white"></path>
    <path d="M87.4215 72.5379C86.8826 72.5408 86.3458 72.4706 85.8257 72.3294C85.3564 72.2025 84.917 71.9834 84.5332 71.685C84.1624 71.3888 83.8664 71.0097 83.6689 70.5782C83.4497 70.0781 83.3436 69.5358 83.3581 68.99C83.3356 68.413 83.4581 67.8396 83.7144 67.3222C83.9356 66.9041 84.2525 66.5443 84.6393 66.2722C85.0337 66.0052 85.4708 65.8078 85.9319 65.6884C86.4145 65.5569 86.9043 65.4532 87.3988 65.3776C87.8916 65.298 88.3768 65.2374 88.8544 65.1919C89.2823 65.1548 89.7068 65.0851 90.1242 64.9834C90.4423 64.9163 90.7415 64.7791 90.9998 64.5816C91.1069 64.4886 91.1901 64.3711 91.2422 64.2392C91.2943 64.1072 91.3139 63.9646 91.2992 63.8235C91.3103 63.5383 91.2517 63.2547 91.1287 62.9972C91.0223 62.7929 90.8624 62.6213 90.6662 62.5006C90.461 62.3817 90.2343 62.3044 89.9991 62.2732C89.7281 62.2327 89.4544 62.2124 89.1803 62.2125C88.643 62.1825 88.1105 62.3289 87.6641 62.6295C87.4642 62.7999 87.3032 63.0113 87.192 63.2493C87.0808 63.4874 87.0221 63.7465 87.0197 64.0092H83.7485C83.7638 63.371 83.9435 62.7475 84.2702 62.199C84.5969 61.6506 85.0595 61.1956 85.6135 60.8783C86.1563 60.5631 86.7483 60.3414 87.3647 60.2225C88.0161 60.0917 88.6789 60.0256 89.3433 60.0254C89.9508 60.0253 90.5576 60.0684 91.159 60.1543C91.7399 60.2293 92.3054 60.3956 92.8344 60.647C93.3258 60.8841 93.7495 61.2414 94.0663 61.6856C94.4069 62.1944 94.5756 62.7988 94.5477 63.4103V69.6041C94.5463 70.1197 94.5767 70.6349 94.6387 71.1468C94.6685 71.534 94.7782 71.9109 94.9609 72.2536H91.6669C91.6061 72.0686 91.5568 71.88 91.5191 71.6888C91.4809 71.4948 91.4543 71.2986 91.4395 71.1013C90.9308 71.6329 90.2938 72.0246 89.5897 72.2385C88.8856 72.4439 88.155 72.5448 87.4215 72.5379V72.5379ZM88.6269 70.3735C89.1521 70.404 89.6758 70.2927 90.1431 70.0513C90.4662 69.8699 90.7376 69.6089 90.9316 69.2932C91.0959 69.0139 91.2028 68.7046 91.2462 68.3835C91.2794 68.1397 91.2984 67.8942 91.303 67.6481L91.2803 66.4276C91.1319 66.5566 90.9592 66.6546 90.7724 66.7157C90.5531 66.7886 90.3289 66.8456 90.1014 66.8862C89.8551 66.9355 89.6011 66.9734 89.3433 67.0038C89.0856 67.0341 88.8202 67.072 88.5587 67.1175C88.3082 67.1614 88.0611 67.2235 87.8195 67.3032C87.5993 67.3728 87.3919 67.4778 87.2055 67.614C87.0271 67.7436 86.8807 67.9121 86.7771 68.1068C86.6606 68.342 86.6045 68.6026 86.6142 68.8649C86.6002 69.1276 86.6565 69.3892 86.7771 69.623C86.884 69.8118 87.0364 69.9708 87.2206 70.0854C87.4207 70.204 87.6401 70.2861 87.8688 70.328C88.1197 70.3657 88.3734 70.3809 88.6269 70.3735V70.3735Z"
          fill="white"></path>
    <path d="M22.0199 55.2454C21.1559 55.2576 20.2971 55.1085 19.4878 54.8057C18.759 54.5325 18.0981 54.1045 17.5509 53.551C17.0002 52.9905 16.574 52.3202 16.3 51.5838C15.9987 50.7584 15.8509 49.8848 15.8641 49.0062C15.8515 48.124 15.9992 47.2468 16.3 46.4173C16.5707 45.6765 16.9943 45.0011 17.5433 44.4349C18.093 43.8817 18.753 43.4503 19.4802 43.1688C20.2881 42.8598 21.1475 42.708 22.0123 42.7215C22.8808 42.7087 23.7438 42.8604 24.5557 43.1688C25.2867 43.4474 25.9497 43.8791 26.5003 44.4349C27.0505 45.0001 27.4743 45.6758 27.7436 46.4173C28.0457 47.2465 28.1946 48.1237 28.1833 49.0062C28.1952 49.885 28.0462 50.7586 27.7436 51.5838C27.4733 52.3202 27.0495 52.9908 26.5003 53.551C25.9523 54.1072 25.2883 54.5356 24.5557 54.8057C23.7447 55.1069 22.885 55.256 22.0199 55.2454ZM22.0199 52.8043C22.5075 52.8214 22.9911 52.7103 23.4224 52.4821C23.7925 52.2752 24.1042 51.9779 24.3283 51.6179C24.5566 51.247 24.7182 50.8391 24.8059 50.4125C24.8974 49.9545 24.9432 49.4885 24.9424 49.0214C24.9428 48.5493 24.8971 48.0783 24.8059 47.6151C24.7213 47.1829 24.5596 46.7694 24.3283 46.3945C24.1009 46.0383 23.7899 45.7429 23.4224 45.5341C22.9935 45.2985 22.5089 45.1833 22.0199 45.2005C21.5688 45.179 21.1202 45.2784 20.7204 45.4883C20.3205 45.6982 19.984 46.0111 19.7456 46.3945C19.5128 46.7686 19.3509 47.1824 19.268 47.6151C19.1755 48.0782 19.1286 48.5492 19.1277 49.0214C19.1244 49.4882 19.1676 49.9542 19.2566 50.4125C19.3409 50.8448 19.5027 51.2583 19.7342 51.633C19.9557 51.9899 20.2616 52.2867 20.625 52.4973C21.0546 52.7211 21.536 52.8271 22.0199 52.8043V52.8043Z"
          fill="white"></path>
    <path d="M35.51 55.2466C34.5188 55.283 33.5352 55.0609 32.6557 54.6023C31.9315 54.1976 31.3193 53.6193 30.8742 52.9193C30.4214 52.21 30.1063 51.4217 29.9455 50.5957C29.7789 49.7377 29.6951 48.8656 29.6953 47.9916C29.6953 46.9505 29.7408 45.9498 29.8318 44.9895C29.9081 44.0889 30.1269 43.2061 30.48 42.3741C30.8147 41.5977 31.3139 40.9032 31.9431 40.3385C32.6995 39.7047 33.5961 39.2603 34.5585 39.0422C34.9467 38.9401 35.3442 38.8779 35.745 38.8565C36.1998 38.8261 36.6357 38.7882 37.0489 38.7427C37.404 38.7077 37.7553 38.6418 38.0989 38.5456C38.3832 38.4622 38.5348 38.3182 38.55 38.1211H41.4308C41.4027 38.7312 41.241 39.3278 40.9569 39.8685C40.6958 40.3073 40.3161 40.6634 39.8615 40.8958C39.3106 41.1714 38.7195 41.3582 38.1103 41.4492C37.4204 41.5629 36.5941 41.6652 35.6616 41.7562C35.01 41.8093 34.3751 41.9896 33.7929 42.2869C33.3069 42.5438 32.8817 42.9018 32.5458 43.3368C32.2169 43.7627 31.9701 44.246 31.818 44.7621C31.6515 45.307 31.5385 45.8668 31.4806 46.4337H31.5527C31.6997 46.0123 31.8969 45.6101 32.1402 45.2359C32.3984 44.8256 32.7209 44.4596 33.0954 44.1518C33.9797 43.4167 35.0994 43.0251 36.2491 43.0488C36.9818 43.0443 37.7074 43.1927 38.3794 43.4847C39.04 43.7708 39.6319 44.1947 40.1154 44.728C40.6215 45.2891 41.0164 45.9412 41.2791 46.6498C41.5722 47.4494 41.7161 48.2961 41.7037 49.1477C41.717 50.0105 41.5731 50.8685 41.2791 51.6798C41.0144 52.404 40.5938 53.0614 40.0472 53.6053C39.489 54.1461 38.8223 54.5621 38.0913 54.8259C37.2626 55.1182 36.3886 55.2606 35.51 55.2466V55.2466ZM35.7526 52.8055C36.1341 52.8196 36.5133 52.7411 36.8578 52.5767C37.2024 52.4123 37.502 52.167 37.7312 51.8617C38.2164 51.2325 38.459 50.319 38.459 49.1212C38.5155 48.1585 38.2646 47.2028 37.7426 46.392C37.5113 46.0727 37.204 45.8161 36.8486 45.6454C36.4932 45.4746 36.1009 45.3951 35.7071 45.414C35.3212 45.3986 34.9378 45.4817 34.593 45.6555C34.2482 45.8292 33.9532 46.0879 33.736 46.4072C33.2153 47.2213 32.9646 48.179 33.0196 49.1439C33.0196 50.3417 33.2622 51.2514 33.7474 51.8731C33.9825 52.1777 34.2874 52.4214 34.6363 52.5837C34.9853 52.7459 35.3681 52.822 35.7526 52.8055V52.8055Z"
          fill="white"></path>
    <path d="M43.3652 43.0449H46.6251V47.3813H51.2988V43.0449H54.5472V54.9623H51.2988V49.9512H46.6251V54.9623H43.3652V43.0449Z"
          fill="white"></path>
    <path d="M60.1383 55.247C59.5993 55.252 59.0622 55.1818 58.5425 55.0385C58.0732 54.9116 57.6338 54.6926 57.25 54.3942C56.8797 54.099 56.5837 53.7212 56.3857 53.2911C56.1672 52.7908 56.0611 52.2486 56.0749 51.7029C56.0524 51.1247 56.1749 50.55 56.4312 50.0313C56.6525 49.6144 56.9695 49.2558 57.3561 48.9851C57.7492 48.715 58.1867 48.5162 58.6487 48.3975C59.1313 48.266 59.6211 48.1623 60.1156 48.0867C60.6084 48.0109 61.0935 47.9465 61.5674 47.901C61.9963 47.8634 62.4219 47.795 62.841 47.6963C63.1588 47.6263 63.4576 47.4879 63.7166 47.2907C63.8242 47.1981 63.9077 47.0807 63.9599 46.9486C64.0121 46.8166 64.0313 46.6738 64.016 46.5326C64.0269 46.2462 63.9684 45.9614 63.8455 45.7025C63.739 45.4992 63.5791 45.3289 63.383 45.2097C63.1788 45.0879 62.9517 45.0092 62.7159 44.9785C62.4447 44.9394 62.1711 44.9204 61.8971 44.9216C61.3604 44.8918 60.8284 45.0368 60.3809 45.3348C60.1823 45.5063 60.0222 45.718 59.9112 45.9558C59.8001 46.1935 59.7406 46.4521 59.7365 46.7146H56.4805C56.5031 46.0432 56.7018 45.3896 57.0566 44.8193C57.3849 44.3143 57.8261 43.8926 58.3454 43.5874C58.8888 43.2732 59.4806 43.0516 60.0966 42.9316C60.7482 42.802 61.411 42.7373 62.0753 42.7383C62.6826 42.7388 63.2893 42.7806 63.891 42.8634C64.4714 42.9373 65.0359 43.105 65.5626 43.3599C66.0563 43.5933 66.4818 43.9497 66.7983 44.3948C67.1389 44.9049 67.3076 45.5105 67.2797 46.1232V52.3094C67.2784 52.8237 67.3088 53.3377 67.3706 53.8483C67.4005 54.2356 67.5102 54.6124 67.6928 54.9552H64.3989C64.3381 54.7701 64.2887 54.5815 64.251 54.3904C64.2126 54.1963 64.186 54.0001 64.1714 53.8028C63.6628 54.3345 63.0257 54.7261 62.3217 54.94C61.6134 55.1513 60.8774 55.2548 60.1383 55.247V55.247ZM61.3437 53.0826C61.8688 53.1127 62.3924 53.0015 62.8599 52.7604C63.183 52.579 63.4544 52.3181 63.6484 52.0023C63.8132 51.7233 63.9202 51.4139 63.963 51.0926C63.9965 50.8488 64.0154 50.6033 64.0198 50.3572L63.9971 49.1367C63.8497 49.267 63.6767 49.3651 63.4892 49.4248C63.2695 49.4973 63.0454 49.5555 62.8182 49.5991C62.5718 49.6446 62.3179 49.6825 62.0601 49.7129C61.8024 49.7432 61.537 49.7811 61.2755 49.8266C61.0184 49.8692 60.765 49.9313 60.5174 50.0123C60.2978 50.0834 60.0907 50.1883 59.9033 50.3231C59.7248 50.4541 59.5784 50.6239 59.475 50.8197C59.3573 51.0545 59.3012 51.3154 59.312 51.5778C59.2981 51.8405 59.3543 52.1021 59.475 52.3359C59.5796 52.5264 59.7326 52.6859 59.9185 52.7983C60.1178 52.9183 60.3375 53.0005 60.5667 53.0409C60.8243 53.0734 61.0844 53.0823 61.3437 53.0675V53.0826Z"
          fill="white"></path>
    <path d="M72.5595 47.6239L68.462 43.0449H72.0743L75.9217 47.7869V43.0449H79.0072V47.7869L82.8508 43.0449H86.4669L82.2973 47.6959L86.9256 54.9623H83.135L80.2126 50.0119L78.992 51.3916V54.9623H75.9065V51.3916L74.686 50.0119L71.7749 54.9623H67.9844L72.5595 47.6239Z"
          fill="white"></path>
    <path d="M93.0737 55.246C92.2103 55.2578 91.3524 55.1061 90.5454 54.7988C89.8263 54.5179 89.1788 54.0802 88.6502 53.5176C88.1182 52.9474 87.7092 52.2739 87.4486 51.5389C87.1602 50.7263 87.0178 49.8691 87.0278 49.0069C87.0202 48.1587 87.1666 47.3162 87.46 46.5203C87.7277 45.7833 88.1442 45.1092 88.6835 44.54C89.2227 43.9707 89.8733 43.5184 90.5947 43.2112C91.3765 42.8818 92.2179 42.7179 93.0661 42.7298C93.9355 42.7115 94.7976 42.8917 95.5868 43.2567C96.2904 43.5894 96.9117 44.0734 97.4063 44.6743C97.9016 45.2842 98.2736 45.9845 98.5017 46.7363C98.7505 47.525 98.8783 48.3467 98.8808 49.1736V49.4845C98.8806 49.5885 98.873 49.6924 98.8581 49.7953H90.265C90.3104 50.8566 90.5796 51.6223 91.0723 52.0999C91.6108 52.5222 92.2657 52.7693 92.9488 52.8079C93.632 52.8465 94.3106 52.6748 94.8932 52.316C95.2945 52.0758 95.603 51.7072 95.7688 51.2698H98.6458C98.1859 52.6976 97.4796 53.7185 96.5269 54.3325C95.4895 54.9673 94.2892 55.2848 93.0737 55.246ZM95.5831 47.7181C95.4936 47.0227 95.2113 46.3661 94.7681 45.8228C94.5336 45.5944 94.253 45.4188 93.9451 45.3076C93.6372 45.1965 93.3091 45.1524 92.9828 45.1784C92.531 45.1604 92.0815 45.25 91.6712 45.44C91.3549 45.5997 91.0758 45.8244 90.8525 46.0995C90.653 46.3434 90.5036 46.6242 90.4128 46.9259C90.336 47.1815 90.2865 47.4445 90.265 47.7105L95.5831 47.7181Z"
          fill="white"></path>
    <path d="M100.373 43.0449H103.618V47.3813H108.291V43.0449H111.54V54.9623H108.291V49.9512H103.618V54.9623H100.373V43.0449Z"
          fill="white"></path>
    <path d="M113.588 43.0449H116.836V47.3813H121.51V43.0449H124.755V54.9623H121.51V49.9512H116.836V54.9623H113.588V43.0449Z"
          fill="white"></path>
    <path d="M126.805 43.0448H130.049V47.1424H133.214C133.789 47.1381 134.362 47.2199 134.913 47.3849C135.42 47.5326 135.893 47.7829 136.3 48.1203C136.695 48.4554 137.013 48.8717 137.232 49.3409C137.474 49.8709 137.594 50.4488 137.581 51.0314C137.594 51.6251 137.479 52.2145 137.244 52.7599C137.035 53.2373 136.712 53.6564 136.304 53.9805C135.879 54.3119 135.393 54.5577 134.875 54.7044C134.295 54.8716 133.693 54.9533 133.089 54.947H126.805V43.0448ZM132.29 52.6879C132.8 52.715 133.306 52.5825 133.738 52.3088C133.925 52.1579 134.073 51.9631 134.167 51.7417C134.262 51.5202 134.3 51.2789 134.28 51.039C134.299 50.7943 134.257 50.5487 134.155 50.3252C134.054 50.1016 133.897 49.9077 133.7 49.7616C133.283 49.4839 132.79 49.341 132.29 49.3522H130.065V52.6879H132.29ZM138.976 43.041H142.224V54.9622H138.976V43.041Z"
          fill="white"></path>
    <path d="M149.726 55.2458C148.861 55.2575 148.002 55.1058 147.194 54.7985C146.475 54.5172 145.827 54.0796 145.298 53.5174C144.766 52.9472 144.357 52.2737 144.097 51.5387C143.807 50.7263 143.663 49.8691 143.672 49.0066C143.666 48.1582 143.814 47.3157 144.108 46.5201C144.377 45.7803 144.795 45.1038 145.337 44.5331C145.879 43.9624 146.533 43.5097 147.258 43.2034C148.04 42.8736 148.881 42.7097 149.73 42.722C150.599 42.7037 151.461 42.8839 152.25 43.2488C152.953 43.5823 153.574 44.0663 154.07 44.6665C154.565 45.2759 154.936 45.9765 155.161 46.7285C155.412 47.5167 155.54 48.3388 155.54 49.1658V49.4767C155.54 49.5807 155.533 49.6846 155.518 49.7875H146.928C146.974 50.8488 147.243 51.6145 147.732 52.0921C148.316 52.6 149.078 52.8561 149.851 52.8047C150.457 52.8218 151.054 52.6481 151.557 52.3082C151.958 52.068 152.266 51.6994 152.432 51.262H155.309C154.847 52.6898 154.14 53.7107 153.19 54.3247C152.151 54.9643 150.946 55.2845 149.726 55.2458V55.2458ZM152.235 47.7179C152.146 47.0216 151.862 46.3646 151.416 45.8226C151.183 45.5935 150.903 45.4173 150.596 45.3061C150.288 45.1949 149.961 45.1513 149.635 45.1782C149.182 45.1603 148.731 45.2499 148.319 45.4398C148.004 45.5994 147.726 45.8242 147.504 46.0993C147.305 46.3432 147.156 46.624 147.065 46.9256C146.988 47.1813 146.938 47.4443 146.917 47.7103L152.235 47.7179Z"
          fill="white"></path>
    <path d="M23.2296 34.823H23.1576C22.8744 35.1507 22.5206 35.4099 22.1228 35.5812C21.679 35.7986 21.1918 35.9126 20.6976 35.9147C19.9542 35.9503 19.2149 35.7862 18.5564 35.4396C17.8979 35.093 17.3441 34.5765 16.9526 33.9436C16.5617 33.3151 16.2858 32.622 16.1376 31.8968C15.9661 31.106 15.8809 30.2989 15.8836 29.4898C15.872 28.6341 15.9844 27.7812 16.2172 26.9577C16.41 26.2663 16.7259 25.6153 17.1497 25.0359C17.5333 24.5185 18.0349 24.1 18.6128 23.8154C19.2114 23.5253 19.8694 23.3787 20.5346 23.387C21.1247 23.3689 21.7099 23.4992 22.2365 23.7661C22.6239 23.958 22.9447 24.2617 23.1576 24.6379H23.2296V19.1758H26.4743V24.6379H26.5463C26.7643 24.2704 27.0843 23.9741 27.4674 23.7851C27.9956 23.5186 28.5819 23.3883 29.1732 23.406C29.838 23.3964 30.496 23.5418 31.095 23.8305C31.6722 24.1162 32.1736 24.5344 32.5581 25.0511C32.9819 25.6305 33.2977 26.2815 33.4906 26.9729C33.7234 27.7964 33.8357 28.6492 33.8241 29.5049C33.8268 30.3141 33.7417 31.1212 33.5702 31.9119C33.4225 32.6379 33.1451 33.3313 32.7514 33.9588C32.3789 34.5469 31.8706 35.037 31.2693 35.3878C30.574 35.7703 29.7881 35.9576 28.995 35.9299C28.5008 35.9278 28.0136 35.8137 27.5698 35.5963C27.1715 35.4241 26.8166 35.1651 26.5312 34.8382H26.463V39.8H23.2296V34.823ZM21.4443 33.4888C21.8762 33.5059 22.3024 33.3851 22.6611 33.1438C22.9469 32.9573 23.1503 32.6684 23.2296 32.3365V27.1321C23.1714 26.9241 23.0715 26.7302 22.936 26.5621C22.8004 26.3939 22.6321 26.2551 22.4412 26.1541C22.1054 25.9776 21.7327 25.8828 21.3533 25.8774C21.0038 25.8568 20.656 25.9397 20.3533 26.1157C20.0506 26.2916 19.8065 26.5528 19.6514 26.8667C19.2663 27.7124 19.0871 28.6373 19.1283 29.5656C19.1289 30.0477 19.1643 30.5291 19.2344 31.006C19.2959 31.4411 19.4237 31.8643 19.6135 32.2607C19.7752 32.6078 20.0168 32.9118 20.3185 33.1476C20.6463 33.3816 21.0418 33.5014 21.4443 33.4888V33.4888ZM28.2672 33.4888C28.6727 33.5062 29.0726 33.3889 29.4044 33.1552C29.7061 32.9194 29.9477 32.6154 30.1094 32.2682C30.2975 31.8712 30.4252 31.4483 30.4885 31.0136C30.5573 30.5365 30.5915 30.0551 30.5908 29.5732C30.6342 28.639 30.4563 27.7078 30.0715 26.8554C29.9164 26.5415 29.6723 26.2802 29.3696 26.1043C29.0669 25.9283 28.7191 25.8455 28.3696 25.866C27.9902 25.8714 27.6175 25.9662 27.2817 26.1428C27.0897 26.245 26.9206 26.3856 26.785 26.5557C26.6494 26.7259 26.5501 26.9221 26.4933 27.1321V32.3365C26.5711 32.6691 26.7749 32.9585 27.0619 33.1438C27.415 33.3817 27.8341 33.5024 28.2597 33.4888H28.2672Z"
          fill="white"></path>
    <path d="M41.2915 35.9307C40.4274 35.943 39.5687 35.7938 38.7594 35.491C38.032 35.2173 37.3725 34.7892 36.8262 34.2364C36.2774 33.6758 35.8537 33.0053 35.5829 32.2691C35.2803 31.4439 35.1313 30.5703 35.1432 29.6915C35.1318 28.8078 35.2808 27.9293 35.5829 27.0988C35.8478 26.3613 36.2688 25.6897 36.817 25.1297C37.3651 24.5697 38.0277 24.1346 38.7594 23.8541C39.5669 23.5437 40.4264 23.3906 41.2915 23.403C42.1602 23.3914 43.0232 23.5444 43.8349 23.8541C44.5695 24.1319 45.235 24.5659 45.7854 25.1262C46.3358 25.6864 46.7579 26.3594 47.0227 27.0988C47.3249 27.9293 47.4738 28.8078 47.4624 29.6915C47.4744 30.5703 47.3253 31.4439 47.0227 32.2691C46.752 33.0053 46.3283 33.6758 45.7794 34.2364C45.2303 34.7911 44.5667 35.2193 43.8349 35.491C43.0215 35.7932 42.1591 35.9423 41.2915 35.9307V35.9307ZM41.2915 33.4896C41.7789 33.5048 42.262 33.3938 42.694 33.1674C43.0613 32.9595 43.3703 32.6622 43.5923 32.3032C43.8243 31.9279 43.9885 31.5148 44.0775 31.0826C44.169 30.6246 44.2147 30.1586 44.214 29.6915C44.2147 29.2194 44.169 28.7484 44.0775 28.2852C43.9912 27.8523 43.8268 27.4387 43.5923 27.0647C43.3636 26.7085 43.053 26.4121 42.6864 26.2004C42.2568 25.9666 41.7727 25.8515 41.2839 25.8669C40.8325 25.8462 40.3838 25.9462 39.984 26.1568C39.5842 26.3674 39.2478 26.6808 39.0096 27.0647C38.7777 27.4392 38.6159 27.8528 38.532 28.2852C38.4405 28.7484 38.3948 29.2194 38.3955 29.6915C38.3947 30.1586 38.4404 30.6246 38.532 31.0826C38.6186 31.5143 38.7802 31.9274 39.0096 32.3032C39.2315 32.661 39.5389 32.9579 39.9041 33.1674C40.3305 33.394 40.8088 33.5051 41.2915 33.4896V33.4896Z"
          fill="white"></path>
    <path d="M49.1191 23.7246H52.3676V28.0496H57.0413V23.7246H60.2709V35.6306H57.0262V30.6309H52.3676V35.6306H49.1191V23.7246Z"
          fill="white"></path>
    <path d="M61.252 33.1668H62.681C62.8785 32.7552 63.0519 32.3325 63.2003 31.9008C63.3906 31.341 63.5513 30.7717 63.6817 30.195C63.837 29.5196 63.9559 28.8363 64.038 28.1481C64.1342 27.3761 64.181 26.5988 64.1782 25.8208V23.7246H73.6545V33.1668H75.1973V38.8981H72.1345V35.6306H64.3147V38.8981H61.252V33.1668ZM70.4174 33.1668V26.1543H67.2182V26.4538C67.2187 27.1621 67.1757 27.8697 67.0893 28.5727C67.0151 29.2104 66.9037 29.8432 66.7558 30.4679C66.6193 31.0441 66.4715 31.5634 66.3199 32.0221C66.1924 32.4082 66.0456 32.7877 65.8802 33.1592L70.4174 33.1668Z"
          fill="white"></path>
    <path d="M96.415 40.0464C96.415 40.2775 96.3465 40.5033 96.218 40.6954C96.0896 40.8875 95.907 41.0371 95.6935 41.1254C95.4799 41.2136 95.245 41.2365 95.0184 41.1911C94.7918 41.1458 94.5838 41.0342 94.4207 40.8706C94.2576 40.7069 94.1467 40.4985 94.1021 40.2718C94.0574 40.0451 94.0811 39.8102 94.17 39.597C94.259 39.3837 94.4092 39.2016 94.6017 39.0738C94.7942 38.946 95.0203 38.8782 95.2514 38.8789C95.5603 38.8799 95.8563 39.0034 96.0744 39.2222C96.2926 39.441 96.415 39.7374 96.415 40.0464V40.0464Z"
          fill="white"></path>
    <path d="M91.6553 40.0464C91.6553 40.2773 91.5868 40.503 91.4585 40.695C91.3302 40.887 91.1479 41.0366 90.9346 41.125C90.7212 41.2134 90.4865 41.2365 90.26 41.1914C90.0336 41.1464 89.8255 41.0352 89.6623 40.8719C89.499 40.7086 89.3878 40.5006 89.3427 40.2741C89.2977 40.0477 89.3208 39.8129 89.4092 39.5996C89.4975 39.3863 89.6472 39.2039 89.8392 39.0757C90.0312 38.9474 90.2569 38.8789 90.4878 38.8789C90.6411 38.8789 90.7929 38.9091 90.9346 38.9678C91.0762 39.0264 91.2049 39.1124 91.3133 39.2209C91.4217 39.3293 91.5077 39.458 91.5664 39.5996C91.6251 39.7413 91.6553 39.8931 91.6553 40.0464Z"
          fill="white"></path>
</svg>