<svg id="Layer_2" data-name="Layer 2" xmlns="http://www.w3.org/2000/svg" viewBox="0 0 640.3 289.11"><polygon points="125.95 194.64 125.95 257.62 125.95 289.11 157.44 257.62 188.93 257.62 188.93 194.64 125.95 194.64" style="fill:#ffce7b"/><rect x="125.96" y="131.66" width="62.98" height="62.98" style="fill:#8dc63f"/><rect x="188.93" y="131.66" width="62.98" height="62.98" style="fill:#59aa47"/><path d="M251.91,226.13V194.64h-63v63h31.49C239.55,257.62,251.91,245.26,251.91,226.13Z" style="fill:#fcaf17"/><rect x="125.96" y="68.68" width="62.98" height="62.98" style="fill:#f05b7d"/><rect x="188.93" y="68.68" width="62.98" height="62.98" style="fill:#91538a"/><rect x="188.93" y="5.7" width="62.98" height="62.98" style="fill:#89292d"/><polygon points="141.7 5.71 125.95 21.45 125.95 68.68 188.93 68.68 188.93 5.71 141.7 5.71" style="fill:#ed1b2f"/><path d="M110.21,5.7H0V226.13c0,19.13,12.36,31.49,31.49,31.49h63L126,289.11V21.45Z" style="fill:#006cb7"/><path d="M69.7,41.67v69.56h-.11A15.59,15.59,0,0,1,54,95.65V26.09h.1A15.6,15.6,0,0,1,69.7,41.67ZM93.92,29.36A15.59,15.59,0,0,0,78.33,44.94v34.7h.11A15.57,15.57,0,0,0,94,64.25h0V29.37Zm-64.15,0h-.1V64.25h0A15.59,15.59,0,0,0,45.26,79.64h.1V44.94A15.58,15.58,0,0,0,29.77,29.36Z" style="fill:#fff"/><path d="M283.79,7.26h5.46L295.3,17l6-9.73h5.46v23h-5v-15l-6.47,9.83h-.13l-6.41-9.73V30.27h-5Z" style="fill:#006cb7"/><path d="M310.63,18.77a12.23,12.23,0,1,1,12.2,11.89A11.9,11.9,0,0,1,310.63,18.77Zm19.17,0a7,7,0,0,0-7-7.23,6.89,6.89,0,0,0-6.9,7.23,7,7,0,0,0,7,7.23A6.9,6.9,0,0,0,329.8,18.77Z" style="fill:#006cb7"/><path d="M338,18.77a11.7,11.7,0,0,1,12-11.9,11.57,11.57,0,0,1,8.91,3.75l-3,3.48A7.94,7.94,0,0,0,350,11.54c-3.88,0-6.67,3.22-6.67,7.23S346,26,350,26c2.63,0,4.24-1.05,6-2.7l3.22,3.45c-2.37,2.54-5,3.91-9.44,3.91A11.62,11.62,0,0,1,338,18.77Z" style="fill:#006cb7"/><path d="M362.79,7.26h5.06V17.32l9.34-10.06h6.11L373.93,17l9.8,13.24h-6.08l-7.14-9.79-2.66,2.76v7h-5.06Z" style="fill:#006cb7"/><path d="M383.81,18.77A12.23,12.23,0,1,1,396,30.66,11.9,11.9,0,0,1,383.81,18.77Zm19.16,0a7,7,0,0,0-7-7.23,6.89,6.89,0,0,0-6.9,7.23,7,7,0,0,0,7,7.23A6.9,6.9,0,0,0,403,18.77Z" style="fill:#006cb7"/><path d="M412.16,7.26h10.68a8.35,8.35,0,0,1,6,2,5.32,5.32,0,0,1,1.57,4,5.35,5.35,0,0,1-3,5c2.66,1,4.31,2.56,4.31,5.72,0,4.21-3.42,6.31-8.62,6.31H412.16Zm9.6,9.3c2.23,0,3.65-.72,3.65-2.49,0-1.52-1.19-2.37-3.32-2.37h-5v4.86Zm1.34,9.27c2.24,0,3.59-.79,3.59-2.56,0-1.55-1.15-2.5-3.75-2.5h-5.85v5.06Z" style="fill:#006cb7"/><path d="M434.35,18.77a11.7,11.7,0,0,1,12-11.9,11.54,11.54,0,0,1,8.9,3.75l-3,3.48c-1.78-1.61-3.29-2.56-5.92-2.56-3.88,0-6.67,3.22-6.67,7.23S442.37,26,446.31,26c2.63,0,4.24-1.05,6.05-2.7l3.22,3.45c-2.36,2.54-5,3.91-9.43,3.91A11.62,11.62,0,0,1,434.35,18.77Z" style="fill:#006cb7"/><path d="M459.48,7.26h5.06V17.32l9.33-10.06H480L470.62,17l9.79,13.24h-6.08l-7.13-9.79-2.66,2.76v7h-5.06Z" style="fill:#006cb7"/><path d="M503.6,30.27h-5V15.18L488.55,30.27h-4.77v-23h5V22.35L498.9,7.26h4.7Z" style="fill:#006cb7"/><path d="M528.57,30.27h-5V15.18L513.52,30.27h-4.77v-23h5V22.35L523.87,7.26h4.7ZM513.22.53,516.15,0a2.65,2.65,0,0,0,2.6,2.2A2.66,2.66,0,0,0,521.34,0l2.93.53c-.46,3.15-2.5,5-5.52,5S513.68,3.68,513.22.53Z" style="fill:#006cb7"/><path d="M288.86,69.71h-5.07v-23h16.08v4.57h-11Z" style="fill:#006cb7"/><path d="M301.25,58.2a12.23,12.23,0,1,1,12.19,11.9A11.89,11.89,0,0,1,301.25,58.2Zm19.16,0a7,7,0,0,0-7-7.23,6.9,6.9,0,0,0-6.9,7.23,7,7,0,0,0,7,7.23A6.9,6.9,0,0,0,320.41,58.2Z" style="fill:#006cb7"/><path d="M328.48,58.2a12.15,12.15,0,0,1,20.91-8.15l-3,3.49c-1.77-1.61-3.28-2.57-5.91-2.57-3.88,0-6.67,3.22-6.67,7.23s2.72,7.23,6.67,7.23c2.63,0,4.24-1.05,6-2.69l3.22,3.45c-2.36,2.53-5,3.91-9.43,3.91A11.63,11.63,0,0,1,328.48,58.2Z" style="fill:#006cb7"/><path d="M369.3,46.7h5.49l-8.85,17.78c-2,4-4.3,5.59-7.52,5.59a9.69,9.69,0,0,1-5-1.35l2-3.71a5.1,5.1,0,0,0,2.72.75,3.43,3.43,0,0,0,2.9-1.84L351.84,46.7h5.66l6.24,12.16Z" style="fill:#006cb7"/><path d="M409.61,46.54h4.67l9.86,23.17h-5.3l-2.1-5.16H407l-2.1,5.16h-5.16Zm5.32,13.54-3.05-7.46-3.06,7.46Z" style="fill:#006cb7"/><path d="M426.89,46.7h9.4c5.49,0,8.81,3.25,8.81,8,0,5.32-4.14,8.08-9.3,8.08H432v6.91h-5.06ZM436,58.3c2.54,0,4-1.51,4-3.55,0-2.27-1.57-3.48-4.1-3.48H432v7Z" style="fill:#006cb7"/><path d="M447.64,58.2a12.15,12.15,0,0,1,20.91-8.15l-3,3.49c-1.77-1.61-3.28-2.57-5.91-2.57-3.88,0-6.68,3.22-6.68,7.23s2.73,7.23,6.68,7.23c2.63,0,4.24-1.05,6-2.69l3.22,3.45c-2.36,2.53-5,3.91-9.43,3.91A11.63,11.63,0,0,1,447.64,58.2Z" style="fill:#006cb7"/><path d="M478.09,51.37h-7V46.7h19.06v4.67h-7V69.71h-5.06Z" style="fill:#006cb7"/><path d="M494.18,46.7h10.68a8.31,8.31,0,0,1,6,2,5.66,5.66,0,0,1-1.45,8.94c2.66,1,4.31,2.56,4.31,5.72,0,4.2-3.42,6.31-8.61,6.31H494.18Zm9.6,9.3c2.23,0,3.65-.72,3.65-2.5,0-1.51-1.19-2.36-3.32-2.36h-5V56Zm1.35,9.27c2.23,0,3.58-.79,3.58-2.56,0-1.55-1.15-2.5-3.75-2.5h-5.85v5.06Z" style="fill:#006cb7"/><path d="M517.59,46.7H535v4.5H522.62v4.67h10.85v4.5H522.62V65.2h12.49v4.51H517.59Z" style="fill:#006cb7"/><path d="M539.71,46.7h5.06v9.1h9.34V46.7h5.06v23h-5.06V60.47h-9.34v9.24h-5.06Z" style="fill:#006cb7"/><path d="M564.58,46.7h5.06v9.1H579V46.7H584v23H579V60.47h-9.33v9.24h-5.06Z" style="fill:#006cb7"/><path d="M589.32,46.7h5.07v7.82h4.89c5.33,0,8.42,3,8.42,7.46,0,4.74-3.36,7.73-8.75,7.73h-9.63Zm5.07,12.16v6.28h4.5c2.5,0,3.78-1.09,3.78-3.22,0-1.94-1.28-3.06-3.82-3.06ZM610.26,46.7h5.06v23h-5.06Z" style="fill:#006cb7"/><path d="M640.3,69.71h-5V54.62l-10,15.09h-4.77v-23h5V61.79L635.6,46.7h4.7ZM625,40l2.93-.52a2.63,2.63,0,0,0,5.19,0L636,40c-.47,3.16-2.5,5-5.53,5S625.41,43.12,625,40Z" style="fill:#006cb7"/><path d="M283.79,86.14H303v23h-5.06V90.71h-9.07v18.43h-5.07Z" style="fill:#006cb7"/><path d="M306.72,97.64a12.14,12.14,0,0,1,20.91-8.15l-3,3.48a7.94,7.94,0,0,0-5.91-2.56c-3.88,0-6.67,3.22-6.67,7.23s2.72,7.23,6.67,7.23c2.63,0,4.24-1.05,6.05-2.69l3.22,3.45c-2.37,2.53-5,3.91-9.44,3.91A11.63,11.63,0,0,1,306.72,97.64Z" style="fill:#006cb7"/><path d="M351.21,109.14h-5V94.06l-10.06,15.08H331.4v-23h5v15.08l10.13-15.08h4.69Z" style="fill:#006cb7"/><path d="M363,97.44l-7.69-11.3h5.91l4.84,7.46,4.86-7.46h5.75L369,97.38l8,11.76h-5.91l-5.16-7.88-5.2,7.88H355Z" style="fill:#006cb7"/><path d="M377.83,97.64a12.23,12.23,0,1,1,12.2,11.9A11.91,11.91,0,0,1,377.83,97.64Zm19.17,0a7,7,0,0,0-7-7.23,6.89,6.89,0,0,0-6.9,7.23,7,7,0,0,0,7,7.23A6.9,6.9,0,0,0,397,97.64Z" style="fill:#006cb7"/><path d="M424.91,86.14v23h-5.06V90.71h-6.64v1.74c0,13.54-2.2,17-7.46,17a12.49,12.49,0,0,1-2.66-.3l.33-4.17a5.36,5.36,0,0,0,.78.07c2.73,0,4.28-1.75,4.28-14.14V86.14Z" style="fill:#006cb7"/><path d="M428.58,97.64a12.23,12.23,0,1,1,12.2,11.9A11.9,11.9,0,0,1,428.58,97.64Zm19.16,0a7,7,0,0,0-7-7.23,6.9,6.9,0,0,0-6.91,7.23,7,7,0,0,0,7,7.23A6.89,6.89,0,0,0,447.74,97.64Z" style="fill:#006cb7"/><path d="M461.89,109.14h-5.06v-23H472.9v4.57h-11Z" style="fill:#006cb7"/><path d="M473.5,97.64a12.23,12.23,0,1,1,12.2,11.9A11.91,11.91,0,0,1,473.5,97.64Zm19.17,0a7,7,0,0,0-7-7.23,6.89,6.89,0,0,0-6.9,7.23,7,7,0,0,0,7,7.23A6.9,6.9,0,0,0,492.67,97.64Z" style="fill:#006cb7"/><path d="M502.53,96.56h10.13v4.8H502.53Z" style="fill:#006cb7"/><path d="M283.79,125.57H303v23h-5.06V130.14h-9.07v18.44h-5.07Z" style="fill:#006cb7"/><path d="M308.11,125.57h17.35v4.51H313.14v4.66H324v4.51H313.14v4.83h12.49v4.5H308.11Z" style="fill:#006cb7"/><path d="M328.51,144h2.17c1.7-4,2.53-7.89,2.53-15.74v-2.7h16.73V144h2.76l-.66,9.37H347.8v-4.8H333.4l-.32,4.8h-4.57Zm9.56-13.87v2.34A28.9,28.9,0,0,1,336,144h8.87V130.14Z" style="fill:#006cb7"/><path d="M364.19,125.41h4.67l9.86,23.17h-5.29l-2.11-5.16h-9.73l-2.1,5.16h-5.16ZM369.51,139l-3.05-7.46L363.4,139Z" style="fill:#006cb7"/><path d="M386.46,148.58H381.4v-23h16.07v4.57h-11Z" style="fill:#006cb7"/><path d="M398.15,137.08A12.23,12.23,0,1,1,410.34,149,11.9,11.9,0,0,1,398.15,137.08Zm19.16,0a7,7,0,0,0-7-7.23,6.9,6.9,0,0,0-6.9,7.23,7,7,0,0,0,7,7.23A6.89,6.89,0,0,0,417.31,137.08Z" style="fill:#006cb7"/><path d="M431.46,148.58h-5.07v-23h16.08v4.57h-11Z" style="fill:#006cb7"/><path d="M465.89,148.58h-5V133.5l-10.06,15.08h-4.77v-23h5v15.09l10.12-15.09h4.7Z" style="fill:#006cb7"/><path d="M484.45,140a14.22,14.22,0,0,1-6.08,1.71c-4.57,0-7.73-2.4-7.73-7.72v-8.42h5.06v6.94c0,2.86,1.12,4.47,3.72,4.47a8.71,8.71,0,0,0,5-1.48v-9.93h5.06v23h-5.06Z" style="fill:#006cb7"/><path d="M495,125.57h17.36v4.51H500v4.66h10.85v4.51H500v4.83h12.49v4.5H495Z" style="fill:#006cb7"/><path d="M515.21,137.08a11.69,11.69,0,0,1,12-11.9,11.57,11.57,0,0,1,8.91,3.75l-3,3.48c-1.78-1.61-3.29-2.56-5.92-2.56-3.88,0-6.67,3.22-6.67,7.23s2.73,7.23,6.67,7.23c2.63,0,4.24-1.05,6.05-2.7l3.22,3.46c-2.37,2.53-5,3.91-9.44,3.91A11.63,11.63,0,0,1,515.21,137.08Z" style="fill:#006cb7"/><path d="M539.7,125.57h5.06v10.06l9.33-10.06h6.12l-9.37,9.77,9.8,13.24h-6.08l-7.14-9.79-2.66,2.76v7H539.7Z" style="fill:#006cb7"/><path d="M583.26,148.58h-5V133.5L568.2,148.58h-4.76v-23h5v15.09l10.13-15.09h4.7Z" style="fill:#006cb7"/><path d="M608.48,148.58h-5V133.5l-10.06,15.08h-4.76v-23h5v15.09l10.12-15.09h4.7Zm-15.35-29.74,2.93-.53a2.63,2.63,0,0,0,5.19,0l2.93.53c-.46,3.15-2.5,5-5.52,5S593.59,122,593.13,118.84Z" style="fill:#006cb7"/><path d="M299.08,165h5.49l-8.85,17.78c-2,4-4.3,5.59-7.52,5.59a9.69,9.69,0,0,1-5-1.35l2-3.71a5.13,5.13,0,0,0,2.73.76,3.43,3.43,0,0,0,2.89-1.85L281.62,165h5.66l6.24,12.16Z" style="fill:#006cb7"/><path d="M307.57,165h5.06v9.11H322V165H327v23H322v-9.24h-9.33V188h-5.06Z" style="fill:#006cb7"/><path d="M352.46,188h-5V172.93l-10,15.09h-4.77V165h5V180.1L347.76,165h4.7Z" style="fill:#006cb7"/><path d="M358.18,165h10.68a8.26,8.26,0,0,1,6,2,5.29,5.29,0,0,1,1.58,4,5.36,5.36,0,0,1-3,5c2.66,1,4.3,2.56,4.3,5.72,0,4.21-3.41,6.31-8.61,6.31H358.18Zm9.59,9.3c2.24,0,3.65-.72,3.65-2.49,0-1.52-1.18-2.37-3.32-2.37h-5v4.86Zm1.35,9.27c2.24,0,3.58-.79,3.58-2.56,0-1.55-1.15-2.5-3.74-2.5h-5.85v5.06Z" style="fill:#006cb7"/><path d="M381.87,165h17.36v4.5H386.9v4.67h10.85v4.5H386.9v4.84h12.49V188H381.87Z" style="fill:#006cb7"/><path d="M404.21,165h9.4c5.49,0,8.81,3.26,8.81,8,0,5.33-4.15,8.09-9.31,8.09h-3.84V188h-5.06Zm9.07,11.6c2.53,0,4-1.51,4-3.55,0-2.26-1.58-3.48-4.11-3.48h-3.91v7Z" style="fill:#006cb7"/><path d="M425.16,176.52a12.14,12.14,0,0,1,20.91-8.16l-3,3.49a8,8,0,0,0-5.91-2.56c-3.88,0-6.68,3.22-6.68,7.23s2.73,7.23,6.68,7.23c2.62,0,4.24-1.06,6-2.7l3.22,3.45c-2.36,2.53-5,3.91-9.43,3.91A11.62,11.62,0,0,1,425.16,176.52Z" style="fill:#006cb7"/><path d="M469.5,188h-5V172.93L454.44,188h-4.76V165h5V180.1L464.8,165h4.7Z" style="fill:#006cb7"/><path d="M480,169.68h-7V165h19.07v4.67h-7V188H480Z" style="fill:#006cb7"/><path d="M495.54,165h17.35v4.5H500.57v4.67h10.85v4.5H500.57v4.84h12.49V188H495.54Z" style="fill:#006cb7"/><path d="M522.85,169.68h-7V165h19.06v4.67h-7V188h-5.06Z" style="fill:#006cb7"/><path d="M373.83,65.14H376c1.7-4,2.53-7.89,2.53-15.74V46.7h16.73V65.14H398l-.66,9.37h-4.24v-4.8h-14.4l-.32,4.8h-4.57Zm9.56-13.87V53.6a28.78,28.78,0,0,1-2.07,11.54h8.87V51.27Z" style="fill:#006cb7"/></svg>