<svg xmlns="http://www.w3.org/2000/svg" id="Layer_1" data-name="Layer 1" width="50" height="50" viewBox="0 0 50 50"><title>mgt-logo-square</title><path d="M0,0H50V50H0V0Z" style="fill:#f16742;fill-rule:evenodd"/><path d="M50,50V33.33H33.33V50H50ZM0,50H16.67V33.33H0V50ZM16.67,16.67V33.33H33.33V16.67H16.67ZM50,0H33.33V16.67H50V0Z" style="fill:#f5873e;fill-rule:evenodd"/><path d="M41.45,5.79A2.8,2.8,0,0,0,38.6,8.53a2.8,2.8,0,0,0,2.86,2.74A2.87,2.87,0,0,0,44,9.82l1.92,0.34a4.76,4.76,0,0,1-4.44,2.93,4.67,4.67,0,0,1-4.76-4.57A4.67,4.67,0,0,1,41.45,4a4.77,4.77,0,0,1,4.35,2.72l-2,.35A2.89,2.89,0,0,0,41.45,5.79Zm-10,18.49h2.38v1.6H31.45v-1.6Zm-2.39-4.16,1.68-1.61,1.18,1.13-1.68,1.61Zm-4-7a4.67,4.67,0,0,1-4.76-4.57,4.77,4.77,0,0,1,9.52,0A4.67,4.67,0,0,1,25,13.1Zm0-7.31a2.8,2.8,0,0,0-2.86,2.74,2.86,2.86,0,0,0,5.71,0A2.8,2.8,0,0,0,25,5.79ZM20,21.09l-1.68-1.61,1.18-1.13L21.15,20ZM18.6,25.88H16.21v-1.6H18.6v1.6ZM10.26,45.74H8.12V38.89H5.26V37.07h7.86v1.83H10.26v6.85ZM6,29.31V20.63h6.67v1.83H8.12v6.85H6Zm5-21.4-1.9,2.22L7.17,7.91v5H5V4.19H6.21L9.07,7.62l2.86-3.42h1.19v8.68H11v-5ZM21.15,30l-1.68,1.61-1.18-1.13L20,28.84Zm4.21,10.37h0.07l1.47-3.27h2.41V37.3l-3.14,6.28c-0.87,1.95-1.9,2.68-4.31,1.8l0.3-1.57c0.82,0.29,1.33.3,1.75-.6l0.3-.61-3-5.26V37.07h2.5ZM26,33.41H24.31V31.13H26v2.28ZM24.31,16.52H26V18.8H24.31V16.52ZM29.79,25A4.77,4.77,0,1,1,25,20.4,4.67,4.67,0,0,1,29.79,25ZM25,22.23A2.74,2.74,0,1,0,27.88,25,2.8,2.8,0,0,0,25,22.23Zm5.22,6.45,1.68,1.61-1.18,1.13-1.68-1.61Zm9.54-8.05h2.5a3.08,3.08,0,1,1,0,6.16h-2.5v2.51H37.64V20.63h2.14Zm0,4.34H42a1.26,1.26,0,1,0,0-2.51H39.79V25Zm0,12.1h2.5a3.08,3.08,0,1,1,0,6.16h-2.5v2.51H37.64V37.07h2.14Zm0,4.34H42a1.26,1.26,0,1,0,0-2.51H39.79v2.51Z" style="fill:#fff;fill-rule:evenodd"/></svg>