<svg width="597" height="415" viewBox="0 0 597 415" fill="none" xmlns="http://www.w3.org/2000/svg">
<path d="M118.226 104.175L97.9991 346.311C97.7611 349.171 99.4291 351.862 102.051 352.849L261.921 414.345C266.075 415.946 270.535 412.881 270.638 408.386L278.402 67.8762C278.505 63.5512 274.52 60.3162 270.4 61.3722L122.993 98.4882C120.371 99.1692 118.464 101.45 118.226 104.175Z" fill="url(#paint0_linear_705_73)"/>
<path d="M90.1332 347.606C90.0652 347.606 89.9972 347.606 89.9292 347.606C88.6352 347.503 87.6822 346.345 87.7832 345.051L107.805 102.914C107.907 101.62 109.031 100.633 110.325 100.735C111.619 100.837 112.572 101.995 112.471 103.289L92.4492 345.426C92.3472 346.686 91.3262 347.606 90.1332 347.606Z" fill="#80A0B1"/>
<path d="M95.1052 348.695C95.0712 348.695 95.0372 348.695 95.0022 348.695C94.3562 348.628 93.8792 348.049 93.9462 347.401L114.241 101.552C114.309 100.905 114.854 100.394 115.501 100.463C116.148 100.531 116.625 101.11 116.557 101.757L96.2622 347.606C96.2292 348.219 95.7182 348.695 95.1052 348.695Z" fill="#80A0B1"/>
<path d="M280.649 407.74C279.798 407.74 278.947 407.365 278.299 406.684C277.346 405.731 276.801 404.233 276.835 402.632L282.658 70.0887C282.691 67.3647 284.394 65.2188 286.471 65.2188C286.948 65.2188 287.424 65.3218 287.832 65.5598C290.42 66.8538 294.336 68.5218 298.082 69.1348C299.988 69.4748 301.351 71.5517 301.351 74.1397L298.252 393.301C298.218 395.447 297.162 397.353 295.63 398C292.735 399.191 287.288 401.915 283.1 406.58C282.215 407.536 281.296 407.74 280.649 407.74Z" fill="#CAD7E4"/>
<path d="M286.472 63.9941C283.747 63.9941 281.534 66.6501 281.466 70.0211L275.644 402.564C275.61 404.504 276.256 406.276 277.449 407.467C278.334 408.386 279.492 408.897 280.649 408.897C281.876 408.897 283.067 408.319 283.986 407.331C288.005 402.837 293.282 400.215 296.074 399.058C298.084 398.206 299.411 395.958 299.445 393.303L302.544 74.1421C302.578 70.9751 300.773 68.3881 298.288 67.9451C294.679 67.3321 290.898 65.6981 288.379 64.4721C287.766 64.1651 287.119 63.9941 286.472 63.9941ZM286.472 66.3781C286.744 66.3781 287.051 66.4461 287.323 66.5831C290.048 67.9111 294.031 69.6131 297.913 70.2941C299.241 70.5321 300.228 72.2011 300.194 74.1081L297.095 393.303C297.095 394.971 296.312 396.436 295.189 396.912C292.294 398.138 286.608 400.93 282.25 405.799C281.773 406.344 281.229 406.582 280.684 406.582C279.288 406.582 278.028 404.948 278.062 402.667L283.885 70.1241C283.884 67.9441 285.076 66.3781 286.472 66.3781Z" fill="#90B0C3"/>
<path d="M331.521 370.795L335.335 79.2501C335.335 78.5351 334.756 77.9561 334.041 77.9561L317.321 78.024C316.606 78.024 316.061 78.6031 316.027 79.2841L311.158 370.829C311.158 371.544 311.737 372.123 312.452 372.123L330.226 372.055C330.943 372.054 331.521 371.51 331.521 370.795Z" fill="#90B0C3"/>
<path d="M339.387 352.918C337.991 352.918 336.867 351.794 336.867 350.364L338.297 87.0473C338.297 85.6513 339.421 84.5273 340.817 84.5273C342.213 84.5273 343.338 85.6853 343.338 87.0813L341.907 350.398C341.907 351.794 340.783 352.918 339.387 352.918Z" fill="#9CBBCD"/>
<path d="M419.747 14.9268L414.231 33.0078L439.77 26.2998" fill="#6586A0"/>
<path d="M419.747 14.9268L414.231 33.0078L439.77 26.2998L419.747 14.9268Z" stroke="#3E6B8A" stroke-width="1.6001" stroke-linejoin="round"/>
<path d="M419.509 14.8242L383.62 37.6732L402.892 71.2132" fill="#6586A0"/>
<path d="M419.509 14.8242L383.62 37.6732L402.892 71.2132L419.509 14.8242Z" stroke="#3E6B8A" stroke-width="1.6001" stroke-linejoin="round"/>
<path d="M367.786 12.0664L340.306 109.452L402.892 71.2134" fill="#6586A0"/>
<path d="M367.786 12.0664L340.306 109.452L402.892 71.2134L367.786 12.0664Z" stroke="#3E6B8A" stroke-width="1.6001" stroke-linejoin="round"/>
<path d="M367.786 12.066L355.527 53.2L324.677 1" fill="#6586A0"/>
<path d="M367.786 12.066L355.527 53.2L324.677 1L367.786 12.066Z" stroke="#3E6B8A" stroke-width="1.6001" stroke-linejoin="round"/>
<path d="M314.019 92.3588L340.306 109.452L346.844 86.8428" fill="#6586A0"/>
<path d="M314.019 92.3588L340.306 109.452L346.844 86.8428L314.019 92.3588Z" stroke="#3E6B8A" stroke-width="1.6001" stroke-linejoin="round"/>
<path d="M311.227 112.347L340.306 109.452L325.869 100.667" fill="#6586A0"/>
<path d="M311.227 112.347L340.306 109.452L325.869 100.667L311.227 112.347Z" stroke="#3E6B8A" stroke-width="1.6001" stroke-linejoin="round"/>
<path d="M312.044 170.097L328.661 169.893L341.293 147.726" fill="#6586A0"/>
<path d="M312.044 170.097L328.661 169.893L341.293 147.726L312.044 170.097Z" stroke="#3E6B8A" stroke-width="1.6001" stroke-linejoin="round"/>
<path d="M347.423 154.4L328.661 169.893L341.293 147.726" fill="#6586A0"/>
<path d="M347.423 154.4L328.661 169.893L341.293 147.726L347.423 154.4Z" stroke="#3E6B8A" stroke-width="1.6001" stroke-linejoin="round"/>
<path d="M332.883 141.801L330.806 155.455L341.293 147.726" fill="#6586A0"/>
<path d="M332.883 141.801L330.806 155.455L341.293 147.726L332.883 141.801Z" stroke="#3E6B8A" stroke-width="1.6001" stroke-linejoin="round"/>
<path d="M332.883 141.801L357.502 113.913L341.293 147.726" fill="#6586A0"/>
<path d="M332.883 141.801L357.502 113.913L341.293 147.726L332.883 141.801Z" stroke="#3E6B8A" stroke-width="1.6001" stroke-linejoin="round"/>
<path d="M399.93 169.995L357.502 113.913L341.293 147.726" fill="#6586A0"/>
<path d="M399.93 169.995L357.502 113.913L341.293 147.726L399.93 169.995Z" stroke="#3E6B8A" stroke-width="1.6001" stroke-linejoin="round"/>
<path d="M393.562 171.324L347.423 154.4L341.293 147.726" fill="#6586A0"/>
<path d="M393.562 171.324L347.423 154.4L341.293 147.726L393.562 171.324Z" stroke="#3E6B8A" stroke-width="1.6001" stroke-linejoin="round"/>
<path d="M368.399 128.147L357.502 113.913L374.936 103.426" fill="#6586A0"/>
<path d="M368.399 128.147L357.502 113.913L374.936 103.426L368.399 128.147Z" stroke="#3E6B8A" stroke-width="1.6001" stroke-linejoin="round"/>
<path d="M373.131 110.951L385.39 110.746L374.936 103.426" fill="#6586A0"/>
<path d="M373.131 110.951L385.39 110.746L374.936 103.426L373.131 110.951Z" stroke="#3E6B8A" stroke-width="1.6001" stroke-linejoin="round"/>
<path d="M456.386 136.659L461.528 111.359L478.928 120.825" fill="#6586A0"/>
<path d="M456.386 136.659L461.528 111.359L478.928 120.825L456.386 136.659Z" stroke="#3E6B8A" stroke-width="1.6001" stroke-linejoin="round"/>
<path d="M480.529 99.1006L461.528 111.359L478.928 120.825" fill="#6586A0"/>
<path d="M480.529 99.1006L461.528 111.359L478.928 120.825L480.529 99.1006Z" stroke="#3E6B8A" stroke-width="1.6001" stroke-linejoin="round"/>
<path d="M480.529 99.1006L490.812 105.026L480.121 106.218" fill="#6586A0"/>
<path d="M480.529 99.1006L490.812 105.026L480.121 106.218L480.529 99.1006Z" stroke="#3E6B8A" stroke-width="1.6001" stroke-linejoin="round"/>
<path d="M456.386 136.659L461.528 111.359L444.741 122.221" fill="#6586A0"/>
<path d="M456.386 136.659L461.528 111.359L444.741 122.221L456.386 136.659Z" stroke="#3E6B8A" stroke-width="1.6001" stroke-linejoin="round"/>
<path d="M458.362 140.337L441.779 156.647L444.741 122.221" fill="#6586A0"/>
<path d="M458.362 140.337L441.779 156.647L444.741 122.221L458.362 140.337Z" stroke="#3E6B8A" stroke-width="1.6001" stroke-linejoin="round"/>
<path d="M440.859 87.2168L461.528 111.359L444.741 122.221" fill="#6586A0"/>
<path d="M440.859 87.2168L461.528 111.359L444.741 122.221L440.859 87.2168Z" stroke="#3E6B8A" stroke-width="1.6001" stroke-linejoin="round"/>
<path d="M440.859 87.2166L412.393 84.5605L444.741 122.221" fill="#6586A0"/>
<path d="M440.859 87.2166L412.393 84.5605L444.741 122.221L440.859 87.2166Z" stroke="#3E6B8A" stroke-width="1.6001" stroke-linejoin="round"/>
<path d="M307.413 394.358C307.719 394.358 307.991 394.086 307.991 393.779L312.044 75.0954C312.044 74.5504 311.601 74.1084 311.056 74.1414L307.004 74.1754C306.493 74.1754 306.051 74.6184 306.051 75.1294L302.203 393.847C302.203 394.187 302.475 394.459 302.815 394.459" fill="#CAD7E4"/>
<path d="M287.323 66.9912L282.964 404.607" stroke="#90B0C3" stroke-width="1.6001" stroke-linecap="round"/>
<path d="M292.056 69.2383L287.698 400.555" stroke="#90B0C3" stroke-width="1.6001" stroke-linecap="round"/>
<path d="M296.823 70.9414L292.464 396.809" stroke="#90B0C3" stroke-width="1.6001" stroke-linecap="round"/>
<path d="M550.061 261.184L552.786 251.786C551.832 251.582 550.776 251.445 549.653 251.445C546.997 251.445 545.055 252.092 543.864 253.352C542.673 254.646 542.059 255.974 542.059 257.404C542.059 259.959 544.136 261.218 548.256 261.218C548.801 261.219 549.38 261.219 550.061 261.184ZM557.518 250.185L551.763 269.765C551.593 270.343 551.525 270.752 551.525 270.956C551.525 271.501 551.763 271.773 552.274 271.773C553.194 271.773 554.59 270.581 556.531 268.164L557.484 268.776C554.726 272.658 552.003 274.565 549.346 274.565C548.529 274.565 547.95 274.361 547.541 273.918C547.132 273.51 546.928 273.033 546.928 272.522C546.928 272.011 547.132 271.024 547.61 269.492L549.653 262.545C549.142 262.478 548.767 262.478 548.563 262.478C547.711 262.478 546.997 262.716 546.349 263.227C545.703 263.704 544.578 264.862 542.945 266.7L536.407 274.021H529.903L530.175 273C531.094 272.932 532.014 272.626 532.933 272.047C533.853 271.468 535.147 270.242 536.747 268.335C540.117 264.351 542.365 262.24 543.488 261.934C539.505 261.355 537.496 259.653 537.496 256.827C537.496 255.09 538.381 253.557 540.185 252.229C541.99 250.902 544.918 250.254 548.97 250.254H557.517L557.518 250.185ZM522.922 251.854C521.662 251.854 520.334 252.365 518.904 253.386C516.894 254.85 515.09 257.03 513.523 259.89C511.956 262.75 511.173 265.372 511.173 267.688C511.173 268.845 511.514 269.798 512.229 270.446C512.911 271.127 513.728 271.467 514.613 271.467C516.86 271.467 519.278 270.071 521.9 267.313C525.101 263.635 526.668 259.856 526.565 255.974C526.565 254.51 526.224 253.454 525.578 252.807C524.931 252.195 524.046 251.854 522.922 251.854ZM532.933 250.595L527.69 268.438L527.043 270.822C526.975 271.06 526.94 271.264 526.94 271.4C526.94 271.638 527.008 271.877 527.111 272.047C527.213 272.183 527.349 272.251 527.485 272.251C527.656 272.251 527.86 272.114 528.132 271.876C528.643 271.399 529.289 270.378 530.141 268.777L531.061 269.424C530.005 271.195 528.915 272.488 527.791 273.34C526.668 274.192 525.645 274.6 524.692 274.6C524.046 274.6 523.535 274.43 523.16 274.021C522.786 273.647 522.615 273.102 522.615 272.386C522.615 271.535 522.819 270.411 523.228 269.016L523.841 267.006C521.219 270.003 518.835 272.08 516.621 273.272C515.056 274.124 513.489 274.566 511.99 274.566C510.526 274.566 509.266 274.055 508.211 273C507.155 271.979 506.61 270.515 506.61 268.71C506.61 265.985 507.563 263.091 509.436 260.061C511.309 257.031 513.693 254.579 516.587 252.774C518.834 251.344 520.98 250.595 522.988 250.595C524.179 250.595 525.167 250.867 525.984 251.378C526.767 251.889 527.38 252.739 527.789 253.932L528.675 251.276L532.933 250.595ZM480.767 251.82L489.11 250.219H490.097L486.794 261.252H496.226L499.325 250.798H503.479L497.997 269.186C497.725 270.207 497.555 270.821 497.555 271.025C497.555 271.365 497.725 271.536 498.032 271.536C498.679 271.536 499.803 270.378 501.336 268.097L502.289 268.574C499.667 272.593 497.317 274.601 495.274 274.601C493.98 274.601 493.333 273.784 493.333 272.183C493.333 271.4 493.674 269.833 494.355 267.518L495.853 262.547H486.42L483.015 274.022H478.895L484.139 256.554C484.547 255.226 484.718 254.374 484.718 254C484.718 253.046 484.139 252.569 482.947 252.569C482.675 252.569 481.96 252.637 480.801 252.739V251.82H480.767ZM460.268 263.704C459.723 265.27 459.485 266.938 459.485 268.744C459.485 270.412 459.894 271.638 460.745 272.387C461.597 273.137 462.618 273.511 463.844 273.511C465.547 273.511 466.943 272.83 468.032 271.502C469.121 270.174 469.667 268.573 469.667 266.769C469.667 265.578 469.259 264.59 468.476 263.773C467.693 262.99 466.671 262.581 465.411 262.581C463.877 262.58 462.175 262.955 460.268 263.704ZM460.779 262.137C465.104 261.116 468.27 259.89 470.246 258.493C472.186 257.063 473.174 255.531 473.174 253.862C473.174 253.249 472.936 252.705 472.493 252.16C472.051 251.649 471.336 251.377 470.416 251.377C466.602 251.378 463.401 254.953 460.779 262.137ZM467.283 261.457C469.633 261.559 471.403 262.138 472.596 263.193C473.787 264.249 474.367 265.543 474.367 267.075C474.367 269.084 473.346 270.854 471.336 272.319C469.327 273.817 466.842 274.532 463.947 274.532C458.192 274.532 455.299 271.706 455.299 266.019C455.299 261.899 456.864 258.221 459.93 254.987C463.029 251.752 466.672 250.151 470.894 250.151C472.971 250.151 474.503 250.526 475.491 251.241C476.479 251.99 476.956 252.91 476.956 254.033C476.954 256.826 473.752 259.277 467.283 261.457ZM452.538 250.799L447.566 266.735C446.817 269.119 446.477 270.617 446.477 271.23C446.477 271.502 446.511 271.741 446.613 271.876C446.716 272.013 446.817 272.081 446.988 272.081C447.226 272.081 447.499 271.978 447.771 271.706C448.043 271.468 448.758 270.412 449.916 268.505L450.733 269.118C449.473 271.229 448.179 272.762 446.851 273.715C445.966 274.328 445.115 274.635 444.331 274.635C443.718 274.635 443.207 274.464 442.867 274.056C442.492 273.681 442.322 273.17 442.322 272.592C442.322 272.013 442.458 271.23 442.663 270.242C443.003 269.05 443.854 266.258 445.25 261.933C442.05 266.802 439.359 270.139 437.215 271.944C435.069 273.749 433.061 274.634 431.256 274.634C430.404 274.634 429.69 274.362 429.076 273.817C428.497 273.272 428.19 272.557 428.19 271.706C428.19 270.412 428.668 268.369 429.621 265.679L432.447 257.575C433.162 255.634 433.503 254.408 433.503 253.931C433.503 253.727 433.4 253.556 433.231 253.386C433.061 253.249 432.856 253.148 432.618 253.148C432.176 253.148 431.699 253.284 431.257 253.556C430.814 253.828 429.758 254.782 428.158 256.485L427.306 255.906C428.77 253.863 430.336 252.365 432.005 251.412C433.265 250.662 434.422 250.288 435.478 250.288C436.193 250.288 436.806 250.526 437.249 251.037C437.727 251.514 437.931 252.161 437.931 252.944C437.931 253.863 437.522 255.565 436.671 257.949L433.708 266.326C432.891 268.607 432.482 270.038 432.482 270.65C432.482 270.991 432.584 271.263 432.823 271.433C433.061 271.637 433.367 271.74 433.776 271.74C434.389 271.74 435.206 271.468 436.194 270.854C437.181 270.276 438.543 268.982 440.177 267.006C441.846 264.997 443.207 263.158 444.297 261.388C445.387 259.652 446.511 256.86 447.736 253.045L448.382 250.832H452.536V250.799H452.538ZM409.498 250.185H410.451C410.588 250.901 410.996 251.275 411.677 251.275C411.915 251.275 412.324 251.207 412.869 251.037C414.605 250.458 416.24 250.185 417.704 250.185C419.644 250.185 421.279 250.696 422.607 251.717C423.935 252.738 424.582 253.965 424.582 255.361C424.582 258.665 421.518 260.605 415.354 261.184C419.644 262.341 421.79 264.317 421.79 267.143C421.79 268.334 421.348 269.526 420.462 270.684C419.543 271.875 418.317 272.795 416.683 273.476C415.082 274.191 413.278 274.532 411.337 274.532C407.387 274.532 404.458 272.897 402.552 269.629L403.471 269.255C404.05 270.14 404.935 270.923 406.127 271.604C407.318 272.286 408.612 272.592 409.94 272.592C411.983 272.592 413.719 271.945 415.15 270.651C416.58 269.357 417.296 267.893 417.296 266.157C417.296 264.795 416.751 263.705 415.73 262.786C414.674 261.9 413.142 261.458 411.167 261.458C410.997 261.458 410.725 261.458 410.384 261.492L410.691 260.3C413.961 260.3 416.343 259.858 417.841 258.904C419.374 257.984 420.123 256.69 420.123 255.055C420.123 254.068 419.782 253.217 419.067 252.57C418.352 251.924 417.364 251.583 416.104 251.583C412.733 251.583 410.213 253.319 408.544 256.793H407.489L409.498 250.185ZM397.41 256.962C397.41 253.353 395.912 251.548 392.916 251.548C390.26 251.548 387.809 253.387 385.561 257.065C383.314 260.742 382.156 264.385 382.156 268.029C382.156 269.732 382.599 271.026 383.451 271.945C384.302 272.865 385.426 273.307 386.822 273.307C389.409 273.307 391.827 271.4 394.041 267.655C396.287 263.908 397.41 260.333 397.41 256.962ZM378.716 261.219C380.044 257.949 382.121 255.294 384.982 253.25C387.808 251.207 390.702 250.186 393.63 250.186C396.048 250.186 398.023 250.969 399.589 252.501C401.121 254.033 401.87 256.043 401.87 258.494C401.87 262.614 400.236 266.326 397.001 269.629C393.767 272.932 390.123 274.567 386.07 274.567C383.482 274.567 381.473 273.75 379.975 272.115C378.477 270.481 377.728 268.608 377.728 266.531C377.728 265.544 377.898 264.216 378.306 262.513H373.301L369.896 273.988H365.81L371.394 255.396C371.598 254.715 371.701 254.239 371.701 253.932C371.701 253.08 371.054 252.638 369.76 252.638C369.079 252.638 368.399 252.706 367.683 252.808V251.889L376.162 250.22H377.013L373.744 261.253H378.716V261.219ZM346.878 250.799H362.746L357.433 268.608C357.059 269.97 356.82 270.822 356.82 271.196C356.82 271.673 357.058 271.911 357.467 271.911C357.841 271.911 358.25 271.673 358.693 271.162C359.136 270.685 359.783 269.766 360.634 268.404L361.587 268.983C360.259 270.923 359.033 272.354 358.012 273.239C356.956 274.159 355.866 274.601 354.675 274.601C353.244 274.601 352.529 273.852 352.529 272.32C352.529 271.537 352.904 269.936 353.619 267.518L358.113 252.4H354.709C353.313 252.4 352.461 252.467 352.121 252.638C351.78 252.774 351.474 253.183 351.167 253.795C350.895 254.408 350.418 255.906 349.771 258.324C347.864 265.168 346.263 269.629 344.969 271.603C343.675 273.613 342.211 274.6 340.542 274.6C338.737 274.6 337.853 273.918 337.853 272.591C337.853 272.046 338.023 271.57 338.398 271.16C338.738 270.786 339.214 270.581 339.794 270.581C340.339 270.581 340.918 270.819 341.497 271.263C341.871 271.57 342.212 271.705 342.518 271.705C343.063 271.705 343.641 271.263 344.289 270.343C344.935 269.458 345.957 266.632 347.353 261.899C348.783 257.166 349.464 254.476 349.464 253.76C349.464 252.637 348.51 251.989 346.604 251.854L346.878 250.799ZM315.858 251.82L324.235 250.219H325.29L321.886 261.626C322.567 261.66 322.941 261.694 323.009 261.694C325.972 261.694 328.253 259.889 329.955 256.314C330.875 254.338 331.521 253.01 331.896 252.398C332.27 251.785 332.781 251.24 333.394 250.866C334.007 250.457 334.722 250.253 335.54 250.253C336.527 250.253 337.345 250.56 337.991 251.139C338.673 251.751 338.978 252.433 338.978 253.249C338.978 253.931 338.74 254.51 338.263 255.02C337.786 255.497 337.242 255.735 336.629 255.735C335.879 255.735 335.164 255.293 334.585 254.441C334.177 253.828 333.803 253.521 333.462 253.521C332.951 253.521 332.338 254.304 331.589 255.905C330.125 259.344 328.49 261.387 326.651 262.102C327.434 262.477 328.115 263.089 328.694 263.907C329.273 264.725 330.431 266.699 332.133 269.798C332.882 271.229 333.631 272.113 334.313 272.386C334.994 272.693 335.811 272.897 336.798 272.999L336.457 274.02H329.92C328.319 270.717 326.991 268.164 325.867 266.359C324.744 264.52 323.961 263.499 323.483 263.226C323.006 262.954 322.292 262.817 321.406 262.817L318.069 274.02H313.983L319.296 256.28C319.636 255.19 319.807 254.407 319.807 253.965C319.807 253.045 319.16 252.569 317.866 252.569C317.458 252.569 316.776 252.637 315.755 252.773V251.82H315.858ZM288.447 251.82L296.79 250.219H297.777L294.474 261.252H303.906L307.005 250.798H311.159L305.677 269.186C305.37 270.207 305.235 270.821 305.235 271.025C305.235 271.365 305.405 271.536 305.712 271.536C306.359 271.536 307.483 270.378 309.015 268.097L309.969 268.574C307.347 272.593 304.997 274.601 302.954 274.601C301.66 274.601 301.013 273.784 301.013 272.183C301.013 271.4 301.354 269.833 302.034 267.518L303.533 262.547H294.1L290.661 274.022H286.542L291.785 256.554C292.16 255.226 292.364 254.374 292.364 254C292.364 253.046 291.751 252.569 290.593 252.569C290.321 252.569 289.605 252.637 288.447 252.739V251.82ZM284.463 250.799L279.491 266.735C278.742 269.119 278.401 270.617 278.401 271.23C278.401 271.502 278.435 271.741 278.537 271.876C278.64 272.013 278.742 272.081 278.912 272.081C279.15 272.081 279.423 271.978 279.695 271.706C279.967 271.468 280.682 270.412 281.841 268.505L282.658 269.118C281.397 271.229 280.103 272.762 278.776 273.715C277.924 274.328 277.073 274.635 276.255 274.635C275.643 274.635 275.132 274.464 274.791 274.056C274.416 273.681 274.246 273.17 274.246 272.592C274.246 272.013 274.383 271.23 274.587 270.242C274.927 269.05 275.778 266.258 277.175 261.933C273.974 266.802 271.284 270.139 269.139 271.944C266.994 273.749 264.985 274.634 263.18 274.634C262.328 274.634 261.614 274.362 261 273.817C260.388 273.272 260.115 272.557 260.115 271.706C260.115 270.412 260.592 268.369 261.545 265.679L264.371 257.575C265.053 255.634 265.427 254.408 265.427 253.931C265.427 253.727 265.325 253.556 265.155 253.386C264.985 253.249 264.781 253.148 264.543 253.148C264.1 253.148 263.623 253.284 263.181 253.556C262.739 253.828 261.683 254.782 260.082 256.485L259.23 255.906C260.694 253.863 262.26 252.365 263.929 251.412C265.189 250.662 266.347 250.288 267.403 250.288C268.118 250.288 268.73 250.526 269.174 251.037C269.651 251.514 269.855 252.161 269.855 252.944C269.855 253.863 269.447 255.565 268.595 257.949L265.632 266.326C264.816 268.607 264.406 270.038 264.406 270.65C264.406 270.991 264.509 271.263 264.747 271.433C264.985 271.637 265.292 271.74 265.7 271.74C266.313 271.74 267.131 271.468 268.118 270.854C269.105 270.276 270.433 268.982 272.101 267.006C273.77 264.997 275.132 263.158 276.221 261.388C277.311 259.652 278.435 256.86 279.66 253.045L280.307 250.832H284.461V250.799H284.463ZM234.51 261.184L237.234 251.786C236.281 251.582 235.225 251.445 234.101 251.445C231.446 251.445 229.504 252.092 228.313 253.352C227.121 254.646 226.508 255.974 226.508 257.404C226.508 259.959 228.585 261.218 232.705 261.218C233.25 261.219 233.829 261.219 234.51 261.184ZM241.967 250.185L236.212 269.765C236.042 270.343 235.974 270.752 235.974 270.956C235.974 271.501 236.212 271.773 236.723 271.773C237.609 271.773 239.038 270.581 240.98 268.164L241.933 268.776C239.175 272.658 236.451 274.565 233.795 274.565C232.978 274.565 232.399 274.361 231.989 273.918C231.581 273.51 231.377 273.033 231.377 272.522C231.377 272.011 231.615 271.024 232.058 269.492L234.101 262.545C233.59 262.478 233.216 262.478 233.012 262.478C232.16 262.478 231.446 262.716 230.798 263.227C230.152 263.704 229.027 264.862 227.393 266.7L220.856 274.021H214.352L214.624 273C215.543 272.932 216.463 272.626 217.382 272.047C218.301 271.468 219.562 270.242 221.195 268.335C224.566 264.351 226.814 262.24 227.937 261.934C223.954 261.355 221.944 259.653 221.944 256.827C221.944 255.09 222.864 253.557 224.634 252.229C226.439 250.902 229.367 250.254 233.419 250.254H241.966L241.967 250.185ZM207.337 251.854C206.077 251.854 204.749 252.365 203.318 253.386C201.309 254.85 199.505 257.03 197.938 259.89C196.371 262.75 195.588 265.372 195.588 267.688C195.588 268.845 195.929 269.798 196.644 270.446C197.359 271.127 198.142 271.467 199.028 271.467C201.275 271.467 203.693 270.071 206.315 267.313C209.515 263.635 211.082 259.856 210.98 255.974C210.98 254.51 210.639 253.454 209.993 252.807C209.346 252.195 208.461 251.854 207.337 251.854ZM217.382 250.595L212.138 268.438L211.492 270.822C211.424 271.06 211.389 271.264 211.389 271.4C211.389 271.638 211.457 271.877 211.56 272.047C211.662 272.183 211.798 272.251 211.968 272.251C212.138 272.251 212.342 272.114 212.614 271.876C213.125 271.399 213.772 270.378 214.624 268.777L215.543 269.424C214.487 271.195 213.397 272.488 212.274 273.34C211.15 274.192 210.128 274.6 209.175 274.6C208.528 274.6 208.017 274.43 207.643 274.021C207.268 273.647 207.098 273.102 207.098 272.386C207.098 271.535 207.302 270.411 207.71 269.016L208.323 267.006C205.701 270.003 203.317 272.08 201.104 273.272C199.538 274.124 197.971 274.566 196.473 274.566C195.009 274.566 193.748 274.055 192.727 273C191.671 271.979 191.127 270.515 191.127 268.71C191.127 265.985 192.08 263.091 193.953 260.061C195.825 257.031 198.209 254.579 201.103 252.774C203.35 251.344 205.496 250.595 207.504 250.595C208.696 250.595 209.684 250.867 210.501 251.378C211.284 251.889 211.897 252.739 212.306 253.932L213.191 251.276L217.382 250.595ZM187.791 268.948C185.203 272.693 182.649 274.566 180.13 274.566C178.666 274.566 177.95 273.817 177.95 272.285C177.95 270.991 178.972 267.483 180.981 261.763C175.805 270.31 171.242 274.567 167.36 274.567C166.509 274.567 165.828 274.295 165.317 273.681C164.806 273.103 164.534 272.32 164.534 271.331C164.534 269.697 165.42 266.496 167.259 261.729C162.049 270.276 157.452 274.532 153.468 274.532C152.447 274.532 151.697 274.191 151.255 273.545C150.778 272.898 150.54 272.149 150.54 271.331C150.54 269.833 151.561 266.292 153.672 260.64C155.034 256.86 155.716 254.647 155.716 253.966C155.716 253.353 155.444 253.046 154.864 253.046C153.944 253.046 152.48 254.17 150.437 256.417L149.517 255.838C151.594 253.353 153.229 251.786 154.387 251.14C155.544 250.493 156.634 250.152 157.656 250.152C159.325 250.152 160.141 251.106 160.141 253.081C160.141 253.762 159.971 254.579 159.664 255.499C159.357 256.418 158.03 260.231 155.681 266.906C155.102 268.574 154.829 269.664 154.829 270.209C154.829 271.094 155.271 271.537 156.123 271.537C157.485 271.537 159.63 269.8 162.559 266.395C165.488 262.956 167.871 258.665 169.709 253.456L170.663 250.8H174.783L169.301 267.553C168.824 268.984 168.586 269.937 168.586 270.413C168.586 271.265 168.994 271.707 169.846 271.707C170.595 271.707 171.481 271.366 172.502 270.651C173.523 269.936 174.953 268.37 176.826 265.85C178.665 263.364 180.129 261.048 181.219 258.937C182.309 256.861 183.33 254.102 184.386 250.765H188.54L182.887 268.165C182.445 269.493 182.241 270.446 182.241 270.991C182.241 271.603 182.513 271.91 183.093 271.91C183.467 271.91 184.046 271.57 184.829 270.854C185.612 270.139 186.327 269.322 186.975 268.334L187.791 268.948ZM123.776 251.65L131.471 250.185H132.492L129.87 259.107C129.496 260.367 129.292 261.184 129.292 261.558C129.292 263.023 130.348 263.738 132.492 263.738C134.229 263.738 136.204 263.023 138.417 261.627L141.652 250.765H145.84L140.323 269.288C140.016 270.309 139.881 270.957 139.881 271.161C139.881 271.603 140.051 271.808 140.426 271.808C141.004 271.808 142.094 270.65 143.695 268.369L144.581 268.914C141.754 272.693 139.473 274.566 137.668 274.566C136.34 274.566 135.659 273.817 135.659 272.319C135.659 271.399 135.966 269.935 136.545 267.926L137.941 263.295C135.591 264.827 133.276 265.61 130.926 265.61C129.394 265.61 128.066 265.235 126.943 264.452C125.819 263.669 125.274 262.716 125.274 261.523C125.274 260.808 125.478 259.787 125.887 258.424L126.636 256.007C126.908 255.054 127.078 254.338 127.078 253.896C127.078 252.943 126.466 252.466 125.239 252.466C124.694 252.466 124.116 252.499 123.503 252.602L123.776 251.65ZM105.287 250.185C105.899 251.206 106.308 252.161 106.547 253.045C106.785 253.931 107.024 255.667 107.262 258.255L108.453 271.16C109.543 269.9 111.143 267.891 113.221 265.167C114.208 263.84 115.468 262.034 116.933 259.719C117.818 258.323 118.363 257.336 118.567 256.791C118.67 256.519 118.738 256.212 118.738 255.939C118.738 255.735 118.67 255.598 118.567 255.462C118.431 255.359 118.09 255.19 117.58 255.02C117.035 254.849 116.593 254.542 116.252 254.1C115.911 253.658 115.707 253.147 115.707 252.568C115.707 251.853 115.945 251.274 116.354 250.832C116.796 250.39 117.341 250.185 117.988 250.185C118.771 250.185 119.453 250.492 120.032 251.139C120.61 251.785 120.883 252.671 120.883 253.76C120.883 255.156 120.406 256.723 119.419 258.493C118.432 260.263 116.524 263.022 113.732 266.666C110.94 270.343 107.535 274.361 103.585 278.72C100.861 281.716 98.8181 283.589 97.4901 284.372C96.1621 285.155 95.0381 285.53 94.0851 285.53C93.5061 285.53 93.0291 285.325 92.6211 284.917C92.1781 284.509 91.9741 284.031 91.9741 283.487C91.9741 282.805 92.2811 282.193 92.8601 281.648C93.4381 281.103 94.0861 280.796 94.7661 280.796C95.1411 280.796 95.4131 280.864 95.6521 281.034C95.7881 281.137 95.9591 281.375 96.1291 281.783C96.2991 282.192 96.4361 282.464 96.6061 282.6C96.7091 282.703 96.8101 282.736 96.9471 282.736C97.0491 282.736 97.2541 282.634 97.5261 282.464C98.5131 281.852 99.6711 280.899 100.999 279.605C102.735 277.868 103.996 276.438 104.847 275.314L103.315 258.731C103.077 255.973 102.669 254.338 102.192 253.726C101.681 253.147 100.83 252.84 99.6371 252.84C99.2631 252.84 98.5821 252.908 97.5941 253.01L97.3561 252.057L105.287 250.185ZM71.6441 238.302H100.894L100.622 239.256C99.0561 239.289 97.7961 239.596 96.9441 240.209C96.0581 240.788 95.2081 242.49 94.3901 245.248L88.1591 266.326C87.5121 268.505 87.1721 270.004 87.1721 270.821C87.1721 272.182 88.5331 272.897 91.2921 273L90.9511 273.953H76.8871L77.2281 273C79.1011 272.897 80.3271 272.523 81.0071 271.843C81.6541 271.161 82.4031 269.425 83.2551 266.633L91.1891 240.107H78.1481C77.4661 243.887 75.9341 249.54 73.4831 257.099C71.0651 264.658 69.0901 269.425 67.5911 271.4C66.0931 273.376 64.3221 274.363 62.2791 274.363C60.6441 274.363 59.3161 273.921 58.2951 273.001C57.2741 272.115 56.7631 271.061 56.7631 269.868C56.7631 269.153 57.0011 268.54 57.5461 268.063C58.0571 267.552 58.7041 267.314 59.4531 267.314C61.0191 267.314 62.0411 268.335 62.4491 270.378C62.6871 271.468 63.0961 272.047 63.6751 272.047C64.5611 272.047 65.5141 271.23 66.6041 269.595C67.6941 267.961 69.4301 263.296 71.8821 255.6C74.2991 247.905 75.5261 243.274 75.5261 241.639C75.5261 240.823 75.2881 240.243 74.8101 239.903C74.3331 239.529 73.2101 239.324 71.4731 239.222L71.6441 238.302ZM57.5121 249.811L48.3531 262.341L51.3491 274.77H50.1921L43.5171 262.341L56.0821 249.811H57.5121ZM47.2631 249.811L38.0351 262.341L40.9631 274.77H39.8061L33.0981 262.341L45.8331 249.811H47.2631Z" fill="#3E6B8A"/>
<path d="M438.646 324.621L447.635 310.831L444.74 297.108H445.864L452.47 310.831L440.074 324.621M448.793 324.621L457.782 310.831L454.887 297.108H456.011L462.616 310.831L450.221 324.621H448.793ZM436.705 298.198L431.869 315.768C431.154 318.389 430.779 320.024 430.779 320.706C430.779 321.012 430.813 321.25 430.916 321.421C431.019 321.557 431.12 321.625 431.257 321.625C431.495 321.625 431.734 321.488 432.006 321.217C432.278 320.945 432.993 319.786 434.117 317.709L434.9 318.356C433.673 320.671 432.414 322.374 431.12 323.395C430.268 324.042 429.452 324.382 428.669 324.382C428.056 324.382 427.579 324.178 427.238 323.736C426.864 323.327 426.693 322.782 426.693 322.101C426.693 321.455 426.796 320.603 427.034 319.513C427.341 318.185 428.191 315.12 429.519 310.354C426.387 315.734 423.798 319.377 421.688 321.386C419.577 323.361 417.669 324.382 415.899 324.382C415.047 324.382 414.367 324.076 413.788 323.463C413.209 322.85 412.903 322.101 412.903 321.148C412.903 319.717 413.38 317.47 414.299 314.508L417.058 305.552C417.739 303.406 418.079 302.079 418.079 301.569C418.079 301.33 417.976 301.126 417.807 300.956C417.636 300.786 417.432 300.718 417.228 300.718C416.786 300.718 416.342 300.854 415.9 301.16C415.458 301.466 414.47 302.522 412.904 304.395L412.087 303.748C413.517 301.501 415.049 299.866 416.65 298.81C417.876 297.993 419 297.55 420.055 297.55C420.77 297.55 421.349 297.822 421.791 298.367C422.234 298.912 422.473 299.627 422.473 300.478C422.473 301.499 422.064 303.338 421.246 305.994L418.352 315.223C417.569 317.743 417.16 319.309 417.16 319.99C417.16 320.365 417.263 320.637 417.501 320.876C417.739 321.115 418.046 321.217 418.42 321.217C419.033 321.217 419.816 320.91 420.804 320.263C421.757 319.617 423.085 318.22 424.686 316.007C426.287 313.793 427.649 311.75 428.705 309.81C429.76 307.903 430.85 304.838 432.042 300.616L432.688 298.199H436.705V298.198ZM409.6 298.198L404.765 315.768C404.05 318.389 403.675 320.024 403.675 320.706C403.675 321.012 403.709 321.25 403.812 321.421C403.914 321.557 404.016 321.625 404.152 321.625C404.39 321.625 404.63 321.488 404.935 321.217C405.207 320.945 405.923 319.786 407.046 317.709L407.829 318.356C406.603 320.671 405.344 322.374 404.084 323.395C403.232 324.042 402.415 324.382 401.632 324.382C401.02 324.382 400.542 324.178 400.202 323.736C399.827 323.327 399.657 322.782 399.657 322.101C399.657 321.455 399.759 320.603 399.998 319.513C400.304 318.185 401.155 315.12 402.483 310.354C399.35 315.734 396.762 319.377 394.651 321.386C392.54 323.361 390.633 324.382 388.863 324.382C388.011 324.382 387.331 324.076 386.752 323.463C386.173 322.85 385.9 322.101 385.9 321.148C385.9 319.717 386.342 317.47 387.296 314.508L390.054 305.552C390.735 303.406 391.075 302.079 391.075 301.569C391.075 301.33 390.972 301.126 390.803 300.956C390.634 300.786 390.429 300.718 390.224 300.718C389.782 300.718 389.339 300.854 388.896 301.16C388.454 301.467 387.432 302.522 385.866 304.395L385.049 303.748C386.48 301.501 388.012 299.866 389.612 298.81C390.838 297.993 391.962 297.55 393.017 297.55C393.732 297.55 394.311 297.822 394.753 298.367C395.195 298.912 395.434 299.627 395.434 300.478C395.434 301.499 395.026 303.338 394.208 305.994L391.313 315.223C390.53 317.743 390.122 319.309 390.122 319.99C390.122 320.365 390.224 320.637 390.462 320.876C390.7 321.115 391.007 321.217 391.382 321.217C391.995 321.217 392.778 320.91 393.766 320.263C394.719 319.617 396.047 318.22 397.648 316.007C399.248 313.793 400.61 311.75 401.666 309.81C402.722 307.903 403.812 304.838 405.003 300.616L405.65 298.199H409.6V298.198ZM380.35 317.368C378.512 319.786 376.639 321.556 374.766 322.681C372.893 323.806 370.918 324.383 368.841 324.383C366.321 324.383 364.346 323.6 362.95 322.068C361.554 320.536 360.839 318.459 360.839 315.871C360.839 312.909 361.588 310.015 363.12 307.154C364.618 304.294 366.661 301.978 369.215 300.208C371.77 298.403 374.255 297.518 376.74 297.518C378.681 297.518 380.111 297.961 381.065 298.846C382.018 299.732 382.495 300.787 382.495 302.081C382.495 303.272 382.154 304.294 381.508 305.145C381.031 305.791 380.418 306.132 379.703 306.132C379.158 306.132 378.716 305.928 378.341 305.553C377.967 305.179 377.796 304.701 377.796 304.123C377.796 303.748 377.864 303.407 378 303.102C378.137 302.795 378.409 302.42 378.817 302.012C379.226 301.57 379.499 301.263 379.566 301.059C379.669 300.854 379.703 300.65 379.703 300.446C379.703 300.037 379.533 299.697 379.192 299.459C378.681 299.084 377.932 298.88 376.978 298.88C375.242 298.88 373.505 299.526 371.769 300.889C370.066 302.217 368.602 304.09 367.376 306.541C365.911 309.504 365.196 312.466 365.196 315.429C365.196 317.404 365.707 318.936 366.762 320.094C367.783 321.251 369.213 321.796 370.985 321.796C372.346 321.796 373.709 321.422 375.071 320.673C376.432 319.924 377.931 318.596 379.599 316.654L380.35 317.368ZM356.277 317.368C354.438 319.786 352.565 321.556 350.692 322.681C348.819 323.806 346.844 324.383 344.767 324.383C342.247 324.383 340.306 323.6 338.876 322.068C337.48 320.536 336.765 318.459 336.765 315.871C336.765 312.909 337.514 310.015 339.046 307.154C340.544 304.294 342.587 301.978 345.142 300.208C347.696 298.403 350.215 297.518 352.666 297.518C354.607 297.518 356.037 297.961 356.991 298.846C357.944 299.732 358.421 300.787 358.421 302.081C358.421 303.272 358.08 304.294 357.434 305.145C356.957 305.791 356.344 306.132 355.629 306.132C355.084 306.132 354.642 305.928 354.267 305.553C353.893 305.179 353.722 304.701 353.722 304.123C353.722 303.748 353.79 303.407 353.927 303.102C354.063 302.795 354.335 302.42 354.743 302.012C355.152 301.57 355.425 301.263 355.492 301.059C355.595 300.854 355.629 300.65 355.629 300.446C355.629 300.037 355.459 299.697 355.118 299.459C354.607 299.084 353.858 298.88 352.938 298.88C351.167 298.88 349.465 299.526 347.728 300.889C346.026 302.217 344.562 304.09 343.335 306.541C341.871 309.504 341.122 312.466 341.122 315.429C341.122 317.404 341.633 318.936 342.688 320.094C343.709 321.251 345.139 321.796 346.911 321.796C348.272 321.796 349.635 321.422 350.997 320.673C352.325 319.924 353.857 318.596 355.525 316.654L356.277 317.368ZM328.899 304.531C328.899 302.726 328.491 301.364 327.673 300.411C326.855 299.458 325.834 298.981 324.54 298.981C321.918 298.981 319.535 301.024 317.355 305.11C315.176 309.162 314.086 313.214 314.086 317.232C314.086 319.071 314.494 320.501 315.346 321.489C316.198 322.476 317.253 322.987 318.547 322.987C321.032 322.987 323.382 320.944 325.595 316.891C327.81 312.84 328.899 308.72 328.899 304.531ZM333.258 306.574C333.258 309.469 332.542 312.329 331.147 315.155C329.751 317.981 327.776 320.228 325.29 321.897C322.77 323.565 320.352 324.382 317.97 324.382C315.552 324.382 313.577 323.531 312.045 321.862C310.513 320.16 309.763 317.98 309.763 315.324C309.763 312.498 310.513 309.637 312.011 306.811C313.509 303.951 315.484 301.704 318.004 300.069C320.489 298.401 322.907 297.584 325.257 297.584C327.572 297.584 329.513 298.436 331.011 300.104C332.475 301.739 333.258 303.919 333.258 306.574ZM290.421 302.761C292.397 303.306 293.963 303.578 295.189 303.578C297.095 303.578 298.798 303.136 300.365 302.284C301.931 301.398 303.123 300.138 304.009 298.368C304.894 296.632 305.337 294.827 305.337 292.954C305.337 291.013 304.792 289.48 303.736 288.323C302.646 287.199 301.046 286.62 298.833 286.62C297.641 286.62 296.211 286.791 294.542 287.098L290.421 302.761ZM285.416 284.441H299.581C303.292 284.441 306.085 285.326 307.924 287.063C309.762 288.799 310.682 290.945 310.682 293.464C310.682 295.439 310.103 297.38 308.911 299.253C307.753 301.125 306.016 302.657 303.701 303.816C301.386 304.973 298.899 305.552 296.244 305.552C294.575 305.552 292.464 305.245 289.91 304.599L286.914 315.938C286.233 318.253 285.893 319.82 285.893 320.535C285.893 321.114 286.131 321.556 286.608 321.931C287.085 322.305 288.243 322.543 290.013 322.646L289.741 323.702H275.644L275.916 322.646C277.788 322.646 279.082 322.272 279.831 321.59C280.547 320.875 281.364 318.934 282.215 315.768L288.106 293.396C288.821 290.707 289.162 288.902 289.162 288.016C289.162 287.335 288.924 286.79 288.413 286.347C287.902 285.905 286.812 285.632 285.076 285.531L285.416 284.441ZM253.34 299.389C252.114 299.389 250.82 299.968 249.424 301.091C247.449 302.692 245.712 305.075 244.18 308.242C242.648 311.408 241.899 314.268 241.899 316.823C241.899 318.117 242.24 319.138 242.92 319.887C243.602 320.636 244.385 321.01 245.235 321.01C247.415 321.01 249.798 319.478 252.318 316.447C255.451 312.395 256.949 308.241 256.846 303.95C256.846 302.35 256.54 301.192 255.893 300.443C255.315 299.73 254.43 299.389 253.34 299.389ZM263.113 297.96L258.006 317.573L257.393 320.195C257.326 320.433 257.291 320.672 257.291 320.841C257.291 321.113 257.358 321.352 257.461 321.556C257.564 321.693 257.699 321.794 257.836 321.794C258.006 321.794 258.21 321.658 258.482 321.386C258.959 320.875 259.606 319.717 260.423 317.981L261.342 318.696C260.321 320.637 259.265 322.067 258.175 322.987C257.085 323.906 256.098 324.383 255.179 324.383C254.532 324.383 254.021 324.179 253.681 323.771C253.34 323.362 253.136 322.75 253.136 321.966C253.136 321.012 253.34 319.786 253.714 318.254L254.293 316.074C251.739 319.378 249.424 321.659 247.278 322.987C245.746 323.94 244.248 324.417 242.75 324.417C241.354 324.417 240.128 323.838 239.072 322.715C238.051 321.557 237.54 319.99 237.54 317.982C237.54 314.952 238.46 311.785 240.265 308.448C242.07 305.111 244.418 302.421 247.211 300.412C249.424 298.811 251.501 298.028 253.442 298.028C254.599 298.028 255.587 298.3 256.37 298.88C257.119 299.459 257.732 300.378 258.141 301.672L258.993 298.743L263.113 297.96ZM218.404 298.198H233.829L228.653 317.811C228.279 319.309 228.075 320.262 228.075 320.637C228.075 321.148 228.279 321.42 228.721 321.42C229.096 321.42 229.47 321.148 229.913 320.603C230.321 320.058 230.968 319.037 231.785 317.573L232.705 318.219C231.411 320.365 230.219 321.931 229.197 322.918C228.175 323.905 227.086 324.416 225.963 324.416C224.567 324.416 223.886 323.564 223.886 321.896C223.886 321.044 224.227 319.274 224.942 316.618L229.3 299.968H225.963C224.601 299.968 223.783 300.07 223.443 300.206C223.102 300.376 222.796 300.818 222.523 301.466C222.251 302.147 221.808 303.816 221.161 306.438C219.289 313.997 217.757 318.867 216.496 321.08C215.236 323.294 213.807 324.383 212.206 324.383C210.47 324.383 209.584 323.634 209.584 322.136C209.584 321.523 209.754 321.012 210.095 320.57C210.436 320.162 210.878 319.924 211.457 319.924C212.002 319.924 212.547 320.162 213.125 320.673C213.5 321.013 213.841 321.15 214.113 321.15C214.658 321.15 215.202 320.673 215.849 319.652C216.462 318.664 217.45 315.565 218.845 310.356C220.207 305.146 220.888 302.183 220.888 301.366C220.888 300.14 219.969 299.426 218.096 299.255L218.404 298.198ZM206.962 304.531C206.962 302.726 206.554 301.364 205.736 300.411C204.918 299.458 203.897 298.981 202.603 298.981C199.981 298.981 197.598 301.024 195.418 305.11C193.238 309.162 192.149 313.214 192.149 317.232C192.149 319.071 192.591 320.501 193.409 321.489C194.26 322.476 195.349 322.987 196.643 322.987C199.129 322.987 201.479 320.944 203.692 316.891C205.873 312.84 206.962 308.72 206.962 304.531ZM211.288 306.574C211.288 309.469 210.572 312.329 209.177 315.155C207.781 317.981 205.806 320.228 203.32 321.897C200.835 323.565 198.382 324.382 196 324.382C193.582 324.382 191.607 323.531 190.075 321.862C188.543 320.16 187.793 317.98 187.793 315.324C187.793 312.498 188.543 309.637 190.041 306.811C191.539 303.951 193.514 301.704 196.034 300.069C198.554 298.401 200.937 297.584 203.286 297.584C205.602 297.584 207.543 298.436 209.041 300.104C210.538 301.739 211.288 303.919 211.288 306.574ZM165.59 299.321L173.729 297.55H174.75L171.447 310.115C172.093 310.148 172.468 310.182 172.57 310.182C175.43 310.182 177.678 308.207 179.312 304.257C180.232 302.078 180.844 300.648 181.219 299.967C181.593 299.285 182.071 298.707 182.683 298.264C183.296 297.822 183.977 297.583 184.76 297.583C185.713 297.583 186.531 297.924 187.178 298.57C187.824 299.252 188.165 300.001 188.165 300.885C188.165 301.634 187.927 302.281 187.484 302.826C187.006 303.371 186.496 303.609 185.883 303.609C185.134 303.609 184.487 303.132 183.907 302.178C183.499 301.497 183.124 301.157 182.818 301.157C182.307 301.157 181.728 302.043 181.013 303.779C179.582 307.558 178.016 309.806 176.211 310.624C176.96 311.032 177.642 311.713 178.22 312.599C178.799 313.518 179.923 315.663 181.591 319.103C182.341 320.669 183.056 321.657 183.702 321.963C184.384 322.303 185.167 322.508 186.12 322.609L185.779 323.733H179.446C177.914 320.089 176.586 317.297 175.496 315.289C174.406 313.279 173.623 312.122 173.146 311.85C172.669 311.578 171.989 311.408 171.137 311.408L167.867 323.734H163.884L169.06 304.188C169.401 302.962 169.571 302.112 169.571 301.634C169.571 300.613 168.958 300.102 167.698 300.102C167.324 300.102 166.642 300.17 165.655 300.34V299.319H165.59V299.321ZM160.925 318.185C158.405 322.305 155.92 324.382 153.468 324.382C152.038 324.382 151.357 323.531 151.357 321.862C151.357 320.432 152.345 316.584 154.286 310.285C149.247 319.683 144.82 324.382 141.04 324.382C140.223 324.382 139.542 324.076 139.031 323.429C138.52 322.782 138.282 321.931 138.282 320.841C138.282 319.036 139.168 315.529 140.904 310.285C135.83 319.683 131.37 324.382 127.488 324.382C126.501 324.382 125.785 324.008 125.342 323.293C124.865 322.577 124.661 321.76 124.661 320.875C124.661 319.24 125.682 315.324 127.691 309.127C129.019 304.973 129.7 302.522 129.7 301.773C129.7 301.091 129.428 300.752 128.883 300.752C127.998 300.752 126.568 301.978 124.593 304.463L123.707 303.817C125.717 301.092 127.316 299.356 128.44 298.641C129.564 297.926 130.62 297.551 131.607 297.551C133.241 297.551 134.024 298.607 134.024 300.752C134.024 301.501 133.854 302.386 133.547 303.441C133.24 304.462 131.946 308.651 129.699 315.972C129.154 317.811 128.882 319.002 128.882 319.616C128.882 320.569 129.291 321.08 130.142 321.08C131.47 321.08 133.547 319.174 136.373 315.393C139.199 311.614 141.549 306.846 143.319 301.125L144.239 298.197H148.257L142.945 316.652C142.468 318.253 142.23 319.308 142.23 319.785C142.23 320.738 142.638 321.216 143.456 321.216C144.171 321.216 145.022 320.841 146.044 320.058C147.031 319.275 148.428 317.538 150.232 314.78C152.037 312.022 153.466 309.503 154.488 307.187C155.544 304.872 156.565 301.874 157.552 298.164H161.571L156.054 317.335C155.646 318.799 155.408 319.82 155.408 320.434C155.408 321.115 155.68 321.455 156.225 321.455C156.565 321.455 157.144 321.046 157.893 320.263C158.642 319.48 159.357 318.561 159.97 317.505L160.925 318.185Z" fill="#3E6B8A"/>
<path d="M551.269 226.929C552.358 228.223 553.846 228.87 555.698 228.87C556.623 228.87 557.549 228.632 558.508 228.12C559.466 227.61 560.391 226.86 561.317 225.874C562.242 224.886 563.07 223.728 563.796 222.435C564.524 221.14 565.184 219.609 565.745 217.837C566.308 216.066 566.605 214.33 566.605 212.593C566.605 211.197 566.274 210.109 565.614 209.359C564.952 208.61 564.192 208.235 563.3 208.235C561.383 208.235 559.466 209.325 557.582 211.504C555.698 213.683 554.343 216.237 553.483 219.132M557.317 205.953L555.566 211.98C557.483 209.733 559.168 208.167 560.688 207.281C562.175 206.396 563.729 205.953 565.283 205.953C566.837 205.953 568.158 206.566 569.282 207.792C570.373 209.018 570.934 210.652 570.934 212.592C570.934 216.441 569.348 220.356 566.207 224.34C563.068 228.324 559.398 230.299 555.234 230.299C554.374 230.299 553.581 230.197 552.92 230.028C552.259 229.857 551.467 229.516 550.64 229.04L548.69 235.816C548.294 237.144 548.127 238.029 548.127 238.438C548.127 238.812 548.227 239.153 548.426 239.425C548.623 239.697 548.954 239.902 549.416 240.071C549.88 240.242 550.771 240.31 552.127 240.31L551.896 241.263H539.501L539.766 240.31C541.385 240.242 542.476 239.969 543.071 239.458C543.634 238.947 544.228 237.619 544.856 235.372L551.5 212.388C551.896 210.923 552.128 210.004 552.128 209.663C552.128 209.186 551.996 208.811 551.732 208.573C551.468 208.302 551.039 208.165 550.476 208.165C549.98 208.165 549.253 208.233 548.36 208.335V207.314L557.317 205.953ZM530.842 205.953C531.437 206.974 531.833 207.928 532.065 208.813C532.296 209.699 532.528 211.435 532.758 214.023L533.915 226.928C534.973 225.668 536.494 223.659 538.509 220.936C539.469 219.608 540.657 217.803 542.112 215.487C542.972 214.091 543.501 213.104 543.7 212.559C543.799 212.287 543.865 211.98 543.865 211.674C543.865 211.469 543.799 211.332 543.7 211.196C543.567 211.06 543.237 210.924 542.742 210.754C542.213 210.584 541.782 210.277 541.452 209.834C541.121 209.392 540.956 208.881 540.956 208.303C540.956 207.587 541.155 207.009 541.584 206.566C542.014 206.124 542.511 205.919 543.171 205.919C543.931 205.919 544.592 206.259 545.154 206.873C545.716 207.52 545.98 208.405 545.98 209.495C545.98 210.891 545.517 212.457 544.558 214.227C543.599 215.998 541.782 218.722 539.071 222.4C536.362 226.077 533.09 230.095 529.256 234.454C526.612 237.451 524.662 239.357 523.372 240.141C522.084 240.924 520.992 241.299 520.1 241.299C519.572 241.299 519.076 241.095 518.68 240.686C518.283 240.278 518.051 239.801 518.051 239.256C518.051 238.574 518.349 237.962 518.911 237.417C519.472 236.872 520.099 236.6 520.761 236.6C521.125 236.6 521.39 236.668 521.621 236.838C521.753 236.941 521.918 237.179 522.084 237.587C522.248 237.995 522.414 238.268 522.546 238.404C522.646 238.507 522.744 238.54 522.877 238.54C522.976 238.54 523.174 238.438 523.439 238.268C524.398 237.656 525.521 236.736 526.777 235.409C528.43 233.672 529.686 232.242 530.512 231.118L529.025 214.535C528.794 211.777 528.397 210.109 527.934 209.529C527.439 208.951 526.613 208.644 525.455 208.644C525.091 208.644 524.43 208.712 523.504 208.814L523.307 207.861L530.842 205.953ZM499.74 207.554L507.804 205.954H508.828L505.556 217.361C506.184 217.395 506.581 217.429 506.648 217.429C509.49 217.429 511.738 215.624 513.325 212.049C514.216 210.073 514.845 208.745 515.208 208.133C515.571 207.52 516.068 207.009 516.663 206.601C517.257 206.192 517.951 205.988 518.744 205.988C519.703 205.988 520.497 206.295 521.125 206.874C521.785 207.487 522.084 208.168 522.084 208.984C522.084 209.666 521.853 210.245 521.39 210.755C520.928 211.232 520.399 211.47 519.803 211.47C519.075 211.47 518.415 211.028 517.82 210.176C517.424 209.564 517.06 209.257 516.729 209.257C516.233 209.257 515.639 210.04 514.944 211.64C513.556 215.079 511.97 217.122 510.185 217.837C510.945 218.212 511.606 218.825 512.167 219.642C512.729 220.46 513.854 222.435 515.506 225.533C516.233 226.964 516.927 227.849 517.588 228.121C518.249 228.428 519.042 228.633 519.968 228.734L519.638 229.755H513.325C511.804 226.452 510.482 223.899 509.391 222.094C508.333 220.255 507.54 219.234 507.078 218.961C506.616 218.688 505.92 218.552 505.061 218.552L501.822 229.755H497.888L503.012 212.015C503.342 210.892 503.507 210.142 503.507 209.7C503.507 208.781 502.879 208.304 501.655 208.304C501.259 208.304 500.597 208.371 499.606 208.507V207.554H499.74ZM473.264 207.554L481.328 205.954H482.255L479.081 216.986H488.203L491.212 206.567H495.211L489.923 224.955C489.657 225.976 489.493 226.59 489.493 226.794C489.493 227.135 489.657 227.271 489.955 227.271C490.584 227.271 491.641 226.114 493.128 223.833L494.055 224.31C491.51 228.328 489.262 230.336 487.279 230.336C486.023 230.336 485.395 229.519 485.395 227.919C485.395 227.136 485.726 225.569 486.385 223.253L487.84 218.282H478.718L475.412 229.757H471.446L476.503 212.289C476.867 210.961 477.065 210.11 477.065 209.735C477.065 208.782 476.503 208.305 475.346 208.305C475.082 208.305 474.388 208.372 473.265 208.475L473.264 207.554ZM464.009 212.287C464.009 210.652 463.613 209.392 462.82 208.542C462.026 207.656 461.002 207.248 459.713 207.248C457.136 207.248 454.755 209.086 452.574 212.798C450.392 216.509 449.302 220.187 449.302 223.83C449.302 225.499 449.732 226.793 450.558 227.679C451.417 228.598 452.475 229.04 453.764 229.04C456.243 229.04 458.556 227.201 460.739 223.524C462.919 219.812 464.009 216.1 464.009 212.287ZM468.34 214.159C468.34 216.782 467.645 219.37 466.256 221.958C464.869 224.511 462.919 226.554 460.441 228.053C457.961 229.551 455.548 230.3 453.201 230.3C450.789 230.3 448.84 229.551 447.318 228.019C445.797 226.487 445.038 224.511 445.038 222.06C445.038 219.506 445.798 216.918 447.253 214.331C448.74 211.743 450.69 209.7 453.169 208.202C455.648 206.704 458.061 205.955 460.374 205.955C462.688 205.955 464.605 206.704 466.093 208.236C467.58 209.766 468.34 211.742 468.34 214.159ZM422.958 207.554L431.023 205.954H432.047L428.775 217.361C429.403 217.395 429.799 217.429 429.866 217.429C432.709 217.429 434.956 215.624 436.543 212.049C437.435 210.073 438.064 208.745 438.426 208.133C438.79 207.52 439.286 207.009 439.882 206.601C440.476 206.192 441.169 205.988 441.963 205.988C442.922 205.988 443.715 206.295 444.343 206.874C445.004 207.487 445.302 208.168 445.302 208.984C445.302 209.666 445.071 210.245 444.609 210.755C444.145 211.232 443.617 211.47 443.022 211.47C442.294 211.47 441.633 211.028 441.039 210.176C440.643 209.564 440.278 209.257 439.947 209.257C439.452 209.257 438.857 210.04 438.163 211.64C436.775 215.079 435.188 217.122 433.403 217.837C434.164 218.212 434.825 218.825 435.385 219.642C435.948 220.46 437.072 222.435 438.725 225.533C439.452 226.964 440.179 227.849 440.84 228.121C441.5 228.428 442.294 228.633 443.253 228.734L442.922 229.755H436.609C435.088 226.452 433.766 223.899 432.674 222.094C431.616 220.255 430.824 219.234 430.361 218.961C429.898 218.689 429.205 218.552 428.344 218.552L425.106 229.755H421.172L426.296 212.015C426.625 210.892 426.792 210.142 426.792 209.7C426.792 208.781 426.163 208.304 424.939 208.304C424.543 208.304 423.881 208.371 422.89 208.507V207.554H422.958ZM405.506 206.532L400.846 222.434C400.153 224.817 399.788 226.282 399.788 226.827C399.788 227.304 399.953 227.542 400.283 227.542C400.514 227.542 400.78 227.405 401.111 227.099C401.44 226.793 402.135 225.738 403.257 223.899L404.051 224.511C401.804 228.427 399.655 230.368 397.607 230.368C397.111 230.368 396.681 230.198 396.317 229.823C395.954 229.448 395.789 228.938 395.789 228.291C395.789 227.134 396.715 223.524 398.532 217.53C393.41 226.112 389.012 230.402 385.41 230.402C384.452 230.402 383.692 230.095 383.163 229.516C382.635 228.938 382.369 228.188 382.369 227.303C382.369 226.076 382.833 224.136 383.724 221.412L386.402 213.308C387.063 211.332 387.394 210.175 387.394 209.801C387.394 209.188 387.063 208.915 386.467 208.915C385.675 208.915 384.32 210.005 382.336 212.252L381.51 211.674C384.121 207.928 386.732 206.055 389.343 206.055C390.037 206.055 390.599 206.293 391.062 206.804C391.525 207.281 391.723 207.928 391.723 208.711C391.723 209.63 391.326 211.299 390.533 213.682L387.69 222.093C386.897 224.374 386.501 225.838 386.501 226.417C386.501 227.166 386.931 227.507 387.757 227.507C388.385 227.507 389.244 227.166 390.269 226.486C391.294 225.805 392.748 224.205 394.632 221.719C396.483 219.233 397.772 217.19 398.566 215.555C399.326 213.92 400.153 211.606 401.011 208.643L401.607 206.634H405.506V206.532ZM403.955 193.423H405.211C403.194 197.986 400.284 200.267 396.583 200.267C394.865 200.267 393.443 199.858 392.319 199.007C391.196 198.156 390.633 197.134 390.633 195.908C390.633 195.227 390.831 194.648 391.228 194.172C391.625 193.695 392.155 193.457 392.814 193.457C393.443 193.457 393.939 193.627 394.335 193.968C394.731 194.308 395.161 194.955 395.624 195.875C396.284 197.271 397.243 197.952 398.532 197.952C399.689 197.952 400.812 197.475 401.838 196.453C402.796 195.466 403.524 194.444 403.955 193.423ZM378.965 206.532L374.172 222.468C373.479 224.818 373.115 226.316 373.115 226.963C373.115 227.235 373.147 227.474 373.247 227.61C373.347 227.746 373.445 227.814 373.61 227.814C373.841 227.814 374.107 227.711 374.371 227.44C374.636 227.201 375.329 226.145 376.453 224.239L377.246 224.852C376.024 226.962 374.801 228.495 373.511 229.448C372.653 230.061 371.86 230.368 371.067 230.368C370.471 230.368 370.009 230.198 369.644 229.789C369.282 229.415 369.116 228.903 369.116 228.325C369.116 227.746 369.249 226.963 369.447 225.975C369.778 224.784 370.604 221.991 371.925 217.666C368.82 222.535 366.24 225.873 364.158 227.678C362.077 229.483 360.159 230.367 358.407 230.367C357.581 230.367 356.886 230.095 356.325 229.515C355.73 228.97 355.467 228.255 355.467 227.404C355.467 226.111 355.929 224.068 356.855 221.377L359.597 213.273C360.259 211.332 360.589 210.107 360.589 209.629C360.589 209.425 360.49 209.255 360.325 209.084C360.159 208.948 359.961 208.846 359.762 208.846C359.332 208.846 358.869 208.982 358.44 209.255C358.011 209.526 357.019 210.481 355.466 212.183L354.639 211.605C356.061 209.562 357.58 208.063 359.167 207.11C360.39 206.361 361.514 205.986 362.539 205.986C363.232 205.986 363.827 206.225 364.257 206.736C364.72 207.213 364.918 207.86 364.918 208.643C364.918 209.563 364.522 211.265 363.695 213.649L360.819 222.025C360.026 224.307 359.629 225.737 359.629 226.35C359.629 226.69 359.729 226.962 359.96 227.133C360.191 227.336 360.489 227.439 360.853 227.439C361.448 227.439 362.241 227.167 363.2 226.553C364.158 225.975 365.447 224.681 367.068 222.705C368.686 220.697 370.009 218.857 371.067 217.088C372.091 215.351 373.214 212.559 374.371 208.744L375 206.531L378.965 206.532ZM330.478 207.554L338.576 205.954H339.6L336.328 217.361C336.989 217.395 337.353 217.429 337.42 217.429C340.262 217.429 342.51 215.624 344.096 212.049C344.989 210.073 345.617 208.745 345.981 208.133C346.343 207.52 346.84 207.009 347.435 206.601C348.029 206.192 348.724 205.988 349.517 205.988C350.476 205.988 351.269 206.295 351.897 206.874C352.557 207.487 352.855 208.168 352.855 208.984C352.855 209.666 352.625 210.245 352.161 210.755C351.698 211.232 351.17 211.47 350.574 211.47C349.847 211.47 349.186 211.028 348.592 210.176C348.196 209.564 347.831 209.257 347.501 209.257C347.006 209.257 346.411 210.04 345.717 211.64C344.327 215.079 342.741 217.122 340.957 217.837C341.717 218.212 342.378 218.825 342.94 219.642C343.502 220.46 344.626 222.435 346.278 225.533C347.006 226.964 347.699 227.849 348.36 228.121C349.021 228.428 349.814 228.633 350.741 228.734L350.41 229.755H344.097C342.576 226.452 341.254 223.899 340.164 222.094C339.072 220.255 338.311 219.234 337.85 218.961C337.387 218.689 336.694 218.552 335.834 218.552L332.595 229.755H328.661L333.784 212.015C334.115 210.892 334.28 210.142 334.28 209.7C334.28 208.781 333.652 208.304 332.429 208.304C332.032 208.304 331.37 208.371 330.38 208.507V207.554H330.478ZM324.759 223.966C322.941 226.146 321.091 227.746 319.206 228.768C317.355 229.789 315.372 230.3 313.323 230.3C310.81 230.3 308.893 229.585 307.472 228.189C306.084 226.793 305.39 224.92 305.39 222.537C305.39 219.848 306.15 217.225 307.637 214.638C309.124 212.051 311.14 209.939 313.686 208.338C316.231 206.704 318.709 205.921 321.156 205.921C323.073 205.921 324.495 206.33 325.452 207.113C326.412 207.896 326.875 208.884 326.875 210.042C326.875 211.132 326.544 212.051 325.883 212.834C325.388 213.446 324.792 213.72 324.098 213.72C323.57 213.72 323.108 213.549 322.743 213.175C322.381 212.834 322.215 212.392 322.215 211.88C322.215 211.54 322.281 211.234 322.413 210.961C322.546 210.689 322.81 210.349 323.207 209.974C323.637 209.566 323.868 209.292 323.967 209.122C324.067 208.952 324.099 208.747 324.099 208.577C324.099 208.202 323.935 207.896 323.604 207.658C323.075 207.317 322.381 207.147 321.423 207.147C319.67 207.147 317.984 207.76 316.266 208.952C314.58 210.143 313.126 211.88 311.903 214.094C310.449 216.784 309.722 219.474 309.722 222.163C309.722 223.934 310.217 225.364 311.275 226.386C312.299 227.442 313.688 227.952 315.472 227.952C316.827 227.952 318.182 227.612 319.538 226.931C320.86 226.25 322.381 225.025 324.033 223.253L324.759 223.966ZM302.582 206.532L297.921 222.434C297.227 224.817 296.863 226.282 296.863 226.827C296.863 227.304 297.028 227.542 297.358 227.542C297.589 227.542 297.853 227.405 298.184 227.099C298.515 226.793 299.208 225.738 300.333 223.899L301.125 224.511C298.878 228.427 296.73 230.368 294.681 230.368C294.185 230.368 293.755 230.198 293.391 229.823C293.028 229.448 292.863 228.938 292.863 228.291C292.863 227.134 293.788 223.524 295.606 217.53C290.483 226.112 286.087 230.402 282.484 230.402C281.526 230.402 280.766 230.095 280.236 229.516C279.707 228.938 279.443 228.188 279.443 227.303C279.443 226.076 279.905 224.136 280.798 221.412L283.475 213.308C284.136 211.332 284.467 210.175 284.467 209.801C284.467 209.188 284.136 208.915 283.541 208.915C282.748 208.915 281.393 210.005 279.41 212.252L278.583 211.674C281.195 207.928 283.806 206.055 286.417 206.055C287.111 206.055 287.673 206.293 288.135 206.804C288.598 207.281 288.797 207.928 288.797 208.711C288.797 209.63 288.4 211.299 287.606 213.682L284.764 222.093C283.971 224.374 283.575 225.838 283.575 226.417C283.575 227.166 284.005 227.507 284.831 227.507C285.458 227.507 286.318 227.166 287.343 226.486C288.367 225.805 289.822 224.205 291.673 221.719C293.524 219.233 294.847 217.19 295.607 215.555C296.367 213.92 297.193 211.606 298.052 208.643L298.647 206.634H302.582V206.532ZM301.028 193.423H302.252C300.235 197.986 297.327 200.267 293.626 200.267C291.907 200.267 290.486 199.858 289.362 199.007C288.237 198.156 287.675 197.134 287.675 195.908C287.675 195.227 287.873 194.648 288.271 194.172C288.667 193.695 289.196 193.457 289.857 193.457C290.485 193.457 290.98 193.627 291.377 193.968C291.774 194.308 292.204 194.955 292.633 195.875C293.295 197.271 294.253 197.952 295.543 197.952C296.699 197.952 297.824 197.475 298.847 196.453C299.871 195.466 300.597 194.444 301.028 193.423ZM276.041 206.532L271.249 222.468C270.554 224.818 270.191 226.316 270.191 226.963C270.191 227.235 270.224 227.474 270.323 227.61C270.422 227.746 270.522 227.814 270.687 227.814C270.918 227.814 271.183 227.711 271.447 227.44C271.712 227.201 272.405 226.145 273.53 224.239L274.322 224.852C273.099 226.962 271.843 228.495 270.587 229.448C269.729 230.061 268.935 230.368 268.142 230.368C267.547 230.368 267.051 230.198 266.721 229.789C266.357 229.415 266.192 228.903 266.192 228.325C266.192 227.746 266.323 226.963 266.523 225.975C266.82 224.784 267.646 221.991 269.002 217.666C265.895 222.535 263.316 225.873 261.235 227.678C259.152 229.483 257.236 230.367 255.483 230.367C254.658 230.367 253.963 230.095 253.401 229.515C252.839 228.97 252.541 228.255 252.541 227.404C252.541 226.111 253.003 224.068 253.93 221.377L256.673 213.273C257.334 211.332 257.665 210.107 257.665 209.629C257.665 209.425 257.565 209.255 257.4 209.084C257.235 208.948 257.036 208.846 256.838 208.846C256.408 208.846 255.946 208.982 255.516 209.255C255.086 209.526 254.062 210.481 252.508 212.183L251.682 211.605C253.103 209.562 254.623 208.063 256.21 207.11C257.433 206.361 258.556 205.986 259.581 205.986C260.275 205.986 260.871 206.225 261.3 206.736C261.729 207.247 261.961 207.86 261.961 208.643C261.961 209.563 261.564 211.265 260.738 213.649L257.862 222.025C257.069 224.307 256.672 225.737 256.672 226.35C256.672 226.69 256.771 226.962 257.002 227.133C257.234 227.336 257.531 227.439 257.895 227.439C258.49 227.439 259.283 227.167 260.242 226.553C261.2 225.975 262.49 224.681 264.108 222.705C265.728 220.697 267.049 218.857 268.074 217.088C269.132 215.351 270.223 212.559 271.379 208.744L272.007 206.531L276.041 206.532ZM246.987 223.966C245.17 226.146 243.319 227.746 241.467 228.768C239.617 229.789 237.634 230.3 235.584 230.3C233.105 230.3 231.155 229.585 229.734 228.189C228.346 226.793 227.651 224.92 227.651 222.537C227.651 219.848 228.411 217.225 229.899 214.638C231.387 212.05 233.436 209.939 235.948 208.338C238.46 206.704 240.972 205.921 243.419 205.921C245.335 205.921 246.756 206.33 247.714 207.113C248.641 207.896 249.136 208.884 249.136 210.042C249.136 211.132 248.806 212.051 248.145 212.834C247.649 213.446 247.054 213.72 246.327 213.72C245.798 213.72 245.335 213.549 244.971 213.175C244.608 212.834 244.442 212.392 244.442 211.88C244.442 211.54 244.508 211.234 244.641 210.961C244.773 210.689 245.037 210.349 245.467 209.974C245.864 209.566 246.128 209.292 246.195 209.122C246.293 208.952 246.327 208.747 246.327 208.577C246.327 208.202 246.162 207.896 245.831 207.658C245.302 207.317 244.608 207.147 243.65 207.147C241.899 207.147 240.212 207.76 238.493 208.952C236.807 210.143 235.354 211.88 234.163 214.094C232.709 216.784 231.982 219.474 231.982 222.163C231.982 223.934 232.478 225.364 233.536 226.386C234.561 227.442 235.949 227.952 237.734 227.952C239.089 227.952 240.443 227.612 241.799 226.931C243.121 226.25 244.642 225.025 246.294 223.253L246.987 223.966ZM223.123 223.966C221.306 226.146 219.455 227.746 217.603 228.768C215.752 229.789 213.77 230.3 211.72 230.3C209.241 230.3 207.291 229.585 205.869 228.189C204.482 226.793 203.787 224.92 203.787 222.537C203.787 219.848 204.547 217.225 206.035 214.638C207.523 212.051 209.539 209.939 212.083 208.338C214.628 206.704 217.106 205.921 219.553 205.921C221.47 205.921 222.89 206.33 223.85 207.113C224.775 207.896 225.271 208.884 225.271 210.042C225.271 211.132 224.94 212.051 224.28 212.834C223.784 213.446 223.189 213.72 222.462 213.72C221.933 213.72 221.47 213.549 221.106 213.175C220.743 212.834 220.578 212.392 220.578 211.88C220.578 211.54 220.644 211.234 220.777 210.961C220.908 210.689 221.173 210.349 221.57 209.974C221.999 209.566 222.231 209.292 222.33 209.122C222.429 208.952 222.462 208.747 222.462 208.577C222.462 208.202 222.297 207.896 221.966 207.658C221.47 207.317 220.743 207.147 219.784 207.147C218.033 207.147 216.314 207.76 214.628 208.952C212.942 210.143 211.488 211.88 210.266 214.094C208.811 216.784 208.083 219.474 208.083 222.163C208.083 223.934 208.579 225.364 209.637 226.386C210.661 227.442 212.05 227.952 213.834 227.952C215.19 227.952 216.545 227.612 217.867 226.931C219.222 226.25 220.71 225.025 222.362 223.253L223.123 223.966ZM195.921 212.287C195.921 210.652 195.524 209.392 194.732 208.542C193.939 207.656 192.914 207.248 191.625 207.248C189.046 207.248 186.667 209.086 184.485 212.798C182.304 216.509 181.213 220.187 181.213 223.83C181.213 225.499 181.644 226.793 182.469 227.679C183.328 228.598 184.386 229.04 185.676 229.04C188.155 229.04 190.468 227.201 192.65 223.524C194.864 219.812 195.921 216.1 195.921 212.287ZM200.251 214.159C200.251 216.782 199.556 219.37 198.169 221.958C196.78 224.511 194.83 226.554 192.351 228.053C189.872 229.551 187.46 230.3 185.113 230.3C182.7 230.3 180.75 229.551 179.229 228.019C177.708 226.487 176.948 224.511 176.948 222.06C176.948 219.506 177.677 216.918 179.163 214.331C180.65 211.743 182.633 209.7 185.112 208.202C187.591 206.704 190.004 205.955 192.318 205.955C194.631 205.955 196.548 206.704 198.035 208.236C199.492 209.766 200.251 211.742 200.251 214.159ZM154.242 226.929C155.333 228.223 156.821 228.87 158.671 228.87C159.597 228.87 160.523 228.632 161.481 228.12C162.439 227.61 163.365 226.86 164.291 225.874C165.216 224.886 166.042 223.728 166.77 222.435C167.497 221.14 168.157 219.609 168.72 217.837C169.282 216.066 169.579 214.33 169.579 212.593C169.579 211.197 169.248 210.109 168.588 209.359C167.926 208.61 167.166 208.235 166.274 208.235C164.357 208.235 162.44 209.325 160.556 211.504C158.672 213.683 157.317 216.237 156.457 219.132L154.242 226.929ZM160.291 205.953L158.54 211.98C160.457 209.733 162.142 208.167 163.662 207.281C165.149 206.396 166.704 205.953 168.257 205.953C169.811 205.953 171.133 206.566 172.256 207.792C173.381 209.018 173.909 210.652 173.909 212.592C173.909 216.441 172.323 220.356 169.182 224.34C166.042 228.324 162.374 230.299 158.209 230.299C157.35 230.299 156.557 230.197 155.895 230.028C155.234 229.857 154.441 229.516 153.614 229.04L151.664 235.816C151.268 237.144 151.102 238.029 151.102 238.438C151.102 238.812 151.202 239.153 151.399 239.425C151.597 239.697 151.928 239.902 152.391 240.071C152.854 240.242 153.746 240.31 155.101 240.31L154.87 241.263H142.476L142.741 240.31C144.36 240.242 145.45 239.969 146.046 239.458C146.607 238.947 147.202 237.619 147.83 235.372L154.474 212.388C154.87 210.923 155.101 210.004 155.101 209.663C155.101 209.186 154.969 208.811 154.672 208.573C154.407 208.302 153.978 208.165 153.416 208.165C152.92 208.165 152.193 208.233 151.268 208.335V207.314L160.291 205.953ZM130.874 218.552C133.518 218.246 135.7 217.736 137.352 217.021C139.566 216.067 141.219 214.91 142.31 213.547C143.401 212.219 143.963 210.925 143.963 209.734C143.963 208.984 143.732 208.406 143.27 207.929C142.806 207.486 142.112 207.248 141.22 207.248C139.402 207.248 137.452 208.201 135.403 210.109C133.353 212.014 131.832 214.806 130.874 218.552ZM130.676 219.812C130.576 220.698 130.51 221.413 130.51 221.991C130.51 223.557 131.072 224.852 132.197 225.941C133.32 227.031 134.709 227.576 136.295 227.576C137.584 227.576 138.807 227.304 139.998 226.793C141.187 226.282 142.939 225.158 145.286 223.388L145.814 224.137C141.649 228.257 137.684 230.3 133.916 230.3C131.338 230.3 129.421 229.484 128.132 227.882C126.843 226.282 126.182 224.478 126.182 222.536C126.182 219.915 126.975 217.259 128.594 214.534C130.214 211.81 132.23 209.699 134.676 208.167C137.122 206.668 139.634 205.885 142.212 205.885C144.063 205.885 145.451 206.26 146.343 207.009C147.236 207.758 147.665 208.643 147.665 209.699C147.665 211.163 147.07 212.559 145.913 213.887C144.36 215.623 142.079 217.02 139.071 218.11C137.121 218.858 134.311 219.437 130.676 219.812ZM122.182 223.966C120.364 226.146 118.513 227.746 116.662 228.768C114.811 229.79 112.828 230.3 110.779 230.3C108.267 230.3 106.35 229.585 104.928 228.189C103.54 226.793 102.846 224.92 102.846 222.537C102.846 219.848 103.606 217.225 105.094 214.638C106.581 212.05 108.597 209.939 111.142 208.338C113.686 206.704 116.166 205.921 118.612 205.921C120.529 205.921 121.95 206.33 122.909 207.113C123.834 207.896 124.33 208.884 124.33 210.042C124.33 211.132 123.999 212.051 123.339 212.834C122.843 213.446 122.248 213.72 121.521 213.72C120.992 213.72 120.529 213.549 120.167 213.175C119.803 212.834 119.638 212.392 119.638 211.88C119.638 211.54 119.704 211.234 119.836 210.961C119.968 210.689 120.232 210.349 120.663 209.974C121.059 209.566 121.323 209.292 121.39 209.122C121.489 208.952 121.522 208.747 121.522 208.577C121.522 208.202 121.357 207.896 121.026 207.658C120.497 207.317 119.803 207.147 118.845 207.147C117.093 207.147 115.407 207.76 113.688 208.952C112.002 210.143 110.549 211.88 109.326 214.094C107.871 216.784 107.145 219.474 107.145 222.163C107.145 223.934 107.641 225.364 108.698 226.386C109.722 227.442 111.111 227.952 112.896 227.952C114.25 227.952 115.606 227.612 116.961 226.931C118.283 226.25 119.804 225.025 121.457 223.253L122.182 223.966ZM76.635 227.439C78.552 227.678 80.073 227.814 81.131 227.814C83.907 227.814 86.353 226.997 88.502 225.329C90.65 223.66 91.708 221.413 91.708 218.587C91.708 216.407 91.047 214.739 89.691 213.513C88.369 212.287 86.188 211.708 83.213 211.708C82.651 211.708 81.924 211.742 81.097 211.81L76.635 227.439ZM81.692 209.835C82.849 209.869 83.642 209.903 84.171 209.903C87.807 209.903 90.484 209.12 92.269 207.553C94.021 205.987 94.913 204.012 94.913 201.628C94.913 199.823 94.384 198.427 93.294 197.44C92.203 196.452 90.451 195.941 88.072 195.941C87.444 195.941 86.617 196.043 85.658 196.248L81.692 209.835ZM76.272 195.023L76.635 194.07H89.427C91.576 194.07 93.492 194.41 95.178 195.057C96.865 195.738 98.12 196.658 98.979 197.849C99.805 199.04 100.235 200.3 100.235 201.628C100.235 203.671 99.442 205.544 97.888 207.178C96.335 208.846 93.757 210.039 90.22 210.855C92.567 211.672 94.319 212.728 95.409 214.056C96.534 215.384 97.096 216.848 97.096 218.449C97.096 220.22 96.633 221.922 95.741 223.523C94.815 225.123 93.658 226.382 92.237 227.302C90.816 228.187 89.097 228.868 87.081 229.277C85.626 229.584 83.412 229.72 80.371 229.72H67.314L67.645 228.766C69 228.732 69.959 228.596 70.421 228.357C71.115 228.051 71.61 227.677 71.908 227.166C72.338 226.52 72.9 224.987 73.594 222.603L79.807 200.98C80.336 199.175 80.634 197.881 80.634 197.132C80.634 196.485 80.369 195.974 79.907 195.6C79.411 195.225 78.519 195.021 77.164 195.021C76.833 195.057 76.537 195.057 76.272 195.023Z" fill="#3E6B8A"/>
<path d="M593.885 223.966C592.012 226.146 590.105 227.746 588.198 228.768C586.291 229.789 584.248 230.3 582.136 230.3C579.582 230.3 577.573 229.585 576.109 228.189C574.679 226.793 573.964 224.92 573.964 222.537C573.964 219.848 574.747 217.225 576.279 214.638C577.811 212.051 579.888 209.939 582.51 208.338C585.131 206.704 587.686 205.921 590.205 205.921C592.18 205.921 593.644 206.33 594.632 207.113C595.585 207.896 596.096 208.884 596.096 210.042C596.096 211.132 595.755 212.051 595.075 212.834C594.564 213.446 593.951 213.72 593.202 213.72C592.657 213.72 592.181 213.549 591.806 213.175C591.431 212.834 591.261 212.392 591.261 211.88C591.261 211.54 591.328 211.234 591.465 210.961C591.601 210.689 591.873 210.349 592.317 209.974C592.725 209.566 592.998 209.292 593.066 209.122C593.168 208.952 593.202 208.747 593.202 208.577C593.202 208.202 593.032 207.896 592.691 207.658C592.18 207.317 591.397 207.147 590.444 207.147C588.639 207.147 586.869 207.76 585.131 208.952C583.395 210.143 581.897 211.88 580.637 214.094C579.139 216.784 578.39 219.474 578.39 222.163C578.39 223.934 578.901 225.364 579.99 226.386C581.046 227.442 582.476 227.952 584.315 227.952C585.711 227.952 587.107 227.612 588.469 226.931C589.83 226.25 591.397 225.025 593.1 223.253" fill="#3E6B8A"/>
<path d="M31.293 193.899H43.313L43.041 194.853C41.339 195.091 39.875 195.602 38.614 196.385C37.354 197.168 35.618 198.7 33.438 201.05L24.21 210.482L26.798 219.982C27.036 220.901 27.513 222.297 28.16 224.205C28.568 225.431 29.012 226.282 29.42 226.793C29.828 227.304 30.373 227.679 31.021 227.95C31.667 228.222 32.622 228.393 33.916 228.427L33.644 229.381H19.682L19.954 228.427C21.384 228.36 22.405 228.12 23.053 227.611C23.53 227.27 23.768 226.794 23.768 226.249C23.768 225.772 23.53 224.683 23.086 223.014L20.601 214.093L12.258 222.504C10.624 224.172 9.67 225.262 9.364 225.773C9.159 226.079 9.092 226.385 9.092 226.692C9.092 227.203 9.364 227.645 9.875 227.986C10.113 228.122 10.862 228.258 12.088 228.428L11.816 229.382H0L0.272 228.428C1.77 228.292 2.961 227.951 3.916 227.407C5.277 226.591 7.185 224.956 9.636 222.505L19.954 212.118L17.128 201.869C16.276 198.737 15.527 196.796 14.88 196.08C14.234 195.365 13.144 194.956 11.543 194.82L11.815 193.866H24.516L24.209 194.82C23.052 194.82 22.234 194.888 21.825 195.058C21.417 195.194 21.11 195.433 20.872 195.739C20.668 196.045 20.531 196.386 20.531 196.76C20.531 197.169 20.736 198.156 21.144 199.688L23.562 208.439L29.146 202.888C31.359 200.675 32.858 198.904 33.675 197.576C33.981 197.099 34.117 196.69 34.117 196.316C34.117 195.907 33.946 195.601 33.606 195.363C33.129 195.056 32.244 194.852 30.95 194.818L31.293 193.899Z" fill="#3F6C8B"/>
<path d="M50.9858 228.476L50.6998 229.448H36.1948L36.5588 228.476C38.0148 228.441 38.9758 228.319 39.4448 228.109C40.2068 227.811 40.7708 227.4 41.1338 226.875C41.7058 226.052 42.2948 224.582 42.9018 222.463L49.0368 200.983C49.5568 199.197 49.8168 197.85 49.8168 196.939C49.8168 196.484 49.7038 196.099 49.4788 195.784C49.2528 195.469 48.9108 195.228 48.4518 195.062C47.9928 194.895 47.0958 194.812 45.7618 194.812L46.0738 193.84H59.6948L59.4088 194.812C58.2998 194.795 57.4758 194.917 56.9388 195.18C56.1588 195.53 55.5648 196.029 55.1578 196.677C54.7508 197.325 54.2258 198.76 53.5848 200.984L47.4758 222.464C46.9208 224.443 46.6438 225.703 46.6438 226.245C46.6438 226.683 46.7518 227.056 46.9688 227.361C47.1858 227.668 47.5318 227.904 48.0088 228.07C48.4858 228.236 49.4778 228.372 50.9858 228.476Z" fill="#3B6D8B"/>
<defs>
<linearGradient id="paint0_linear_705_73" x1="97.9751" y1="237.968" x2="278.397" y2="237.968" gradientUnits="userSpaceOnUse">
<stop offset="0.1145" stop-color="#D8D8D8"/>
<stop offset="0.1518" stop-color="#D8D8D8"/>
<stop offset="0.3939" stop-color="#E3E3E3"/>
<stop offset="1" stop-color="white"/>
</linearGradient>
</defs>
</svg>
