<svg id="Слой_1" data-name="Слой 1" xmlns="http://www.w3.org/2000/svg" xmlns:xlink="http://www.w3.org/1999/xlink" viewBox="0 0 1750.44 1215.91">
  <defs>
    <style>
      .cls-1 {
        fill: url(#Безымянный_градиент_18);
      }

      .cls-2 {
        fill: #80a0b1;
      }

      .cls-2, .cls-3, .cls-4, .cls-5, .cls-6, .cls-9 {
        fill-rule: evenodd;
      }

      .cls-3 {
        fill: #cad7e4;
      }

      .cls-4 {
        fill: #90b0c3;
      }

      .cls-5 {
        fill: #9cbbcd;
      }

      .cls-6 {
        fill: #6586a0;
      }

      .cls-10, .cls-7, .cls-8 {
        fill: none;
      }

      .cls-7 {
        stroke: #3e6b8a;
        stroke-linejoin: round;
      }

      .cls-7, .cls-8 {
        stroke-width: 1.6px;
      }

      .cls-8 {
        stroke: #90b0c3;
        stroke-linecap: round;
      }

      .cls-12, .cls-9 {
        fill: #3e6b8a;
      }

      .cls-11 {
        fill: #3f6c8b;
      }
    </style>
    <linearGradient id="Безымянный_градиент_18" data-name="Безымянный градиент 18" x1="221.74" y1="230.25" x2="884.16" y2="230.25" gradientTransform="matrix(0.8, 0, 0, -0.8, 136.11, 880.85)" gradientUnits="userSpaceOnUse">
      <stop offset="0.11" stop-color="#d8d8d8"/>
      <stop offset="0.15" stop-color="#d8d8d8"/>
      <stop offset="0.39" stop-color="#e3e3e3"/>
      <stop offset="1" stop-color="#fff"/>
    </linearGradient>
  </defs>
  <path class="cls-1" d="M373,303.84l-59.43,711.09a18.88,18.88,0,0,0,11.93,19.23L795,1214.65c12.2,4.68,25.32-4.29,25.61-17.54l22.82-1000A19,19,0,0,0,819.94,178L387,287.14a18.77,18.77,0,0,0-14,16.7" transform="translate(-25.83)"/>
  <path class="cls-2" d="M290.47,1018.7c-.19,0-.37,0-.58,0a6.94,6.94,0,0,1-6.26-7.54l58.81-711.09a6.86,6.86,0,1,1,13.67,1.16l-58.8,711.11a6.91,6.91,0,0,1-6.84,6.38" transform="translate(-25.83)"/>
  <path class="cls-2" d="M305.1,1021.93l-.3,0a3.47,3.47,0,0,1-3.13-3.76l59.6-722A3.43,3.43,0,0,1,365,293a3.48,3.48,0,0,1,3.13,3.76l-59.6,722a3.46,3.46,0,0,1-3.41,3.2" transform="translate(-25.83)"/>
  <path class="cls-3" d="M850,1195.29a9.82,9.82,0,0,1-6.94-3.11,16.53,16.53,0,0,1-4.27-12l17.1-976.61c.14-8,5.05-14.33,11.18-14.33a9.2,9.2,0,0,1,4,1c7.64,3.77,19.06,8.67,30.11,10.55,5.61.95,9.64,7.14,9.58,14.7l-9.13,937.34c-.07,6.33-3.16,11.86-7.72,13.77-8.47,3.54-24.5,11.54-36.75,25.22a9.53,9.53,0,0,1-7.2,3.45" transform="translate(-25.83)"/>
  <path class="cls-4" d="M867.08,185.82c-8.05,0-14.5,7.79-14.67,17.73l-17.1,976.63a20,20,0,0,0,5.28,14.44,12.7,12.7,0,0,0,19.21-.47c11.8-13.17,27.3-20.89,35.5-24.31,5.93-2.47,9.79-9.12,9.87-16.95l9.12-937.35c.09-9.29-5.15-16.93-12.49-18.17-10.61-1.8-21.71-6.55-29.12-10.23a12.61,12.61,0,0,0-5.6-1.32m0,7a5.69,5.69,0,0,1,2.5.62c8,3.93,19.65,8.91,31,10.85,3.88.67,6.76,5.57,6.69,11.23l-9.12,937.35c-.05,4.93-2.32,9.22-5.58,10.58-8.51,3.56-25.24,11.83-38,26.1a6.16,6.16,0,0,1-4.59,2.3c-4,0-7.84-4.76-7.72-11.5l17.1-976.64C859.49,197.4,863,192.77,867.08,192.77Z" transform="translate(-25.83)"/>
  <path class="cls-4" d="M999.4,1086.8l11.25-856.18a3.79,3.79,0,0,0-3.8-3.83l-49.07.15a3.76,3.76,0,0,0-3.76,3.71l-14.34,856.19a3.78,3.78,0,0,0,3.79,3.84l52.17-.15a3.78,3.78,0,0,0,3.76-3.73" transform="translate(-25.83)"/>
  <path class="cls-5" d="M1022.54,1034.33h0a7.41,7.41,0,0,1-7.37-7.45l4.2-773.34a7.4,7.4,0,0,1,7.4-7.37h0a7.37,7.37,0,0,1,7.36,7.45L1029.94,1027a7.4,7.4,0,0,1-7.4,7.37" transform="translate(-25.83)"/>
  <polyline class="cls-6" points="1232.63 41.67 1216.52 94.81 1291.5 75.14"/>
  <polygon class="cls-7" points="1232.63 41.67 1216.52 94.81 1291.5 75.14 1232.63 41.67"/>
  <polyline class="cls-6" points="1231.98 41.45 1126.58 108.52 1183.2 206.97"/>
  <polygon class="cls-7" points="1231.98 41.45 1126.58 108.52 1183.2 206.97 1231.98 41.45"/>
  <polyline class="cls-6" points="1080.11 33.31 999.37 319.35 1183.2 206.97"/>
  <polygon class="cls-7" points="1080.11 33.31 999.37 319.35 1183.2 206.97 1080.11 33.31"/>
  <polyline class="cls-6" points="1080.11 33.31 1044.11 154.12 953.5 0.8"/>
  <polygon class="cls-7" points="1080.11 33.31 1044.11 154.12 953.5 0.8 1080.11 33.31"/>
  <polyline class="cls-6" points="922.15 269.1 999.37 319.35 1018.55 252.85"/>
  <polygon class="cls-7" points="922.15 269.1 999.37 319.35 1018.55 252.85 922.15 269.1"/>
  <polyline class="cls-6" points="914.01 327.77 999.37 319.35 956.99 293.5"/>
  <polygon class="cls-7" points="914.01 327.77 999.37 319.35 956.99 293.5 914.01 327.77"/>
  <polyline class="cls-6" points="916.33 497.35 965.13 496.77 1002.28 431.73"/>
  <polygon class="cls-7" points="916.33 497.35 965.13 496.77 1002.28 431.73 916.33 497.35"/>
  <polyline class="cls-6" points="1020.29 451.33 965.13 496.77 1002.28 431.73"/>
  <polygon class="cls-7" points="1020.29 451.33 965.13 496.77 1002.28 431.73 1020.29 451.33"/>
  <polyline class="cls-6" points="977.6 414.31 971.51 454.37 1002.28 431.73"/>
  <polygon class="cls-7" points="977.6 414.31 971.51 454.37 1002.28 431.73 977.6 414.31"/>
  <polyline class="cls-6" points="977.6 414.31 1049.91 332.41 1002.28 431.73"/>
  <polygon class="cls-7" points="977.6 414.31 1049.91 332.41 1002.28 431.73 977.6 414.31"/>
  <polyline class="cls-6" points="1174.49 497.06 1049.91 332.41 1002.28 431.73"/>
  <polygon class="cls-7" points="1174.49 497.06 1049.91 332.41 1002.28 431.73 1174.49 497.06"/>
  <polyline class="cls-6" points="1155.76 500.98 1020.29 451.33 1002.28 431.73"/>
  <polygon class="cls-7" points="1155.76 500.98 1020.29 451.33 1002.28 431.73 1155.76 500.98"/>
  <polyline class="cls-6" points="1081.85 374.22 1049.91 332.41 1101.02 301.63"/>
  <polygon class="cls-7" points="1081.85 374.22 1049.91 332.41 1101.02 301.63 1081.85 374.22"/>
  <polyline class="cls-6" points="1095.8 323.7 1131.8 323.12 1101.02 301.63"/>
  <polygon class="cls-7" points="1095.8 323.7 1131.8 323.12 1101.02 301.63 1095.8 323.7"/>
  <polyline class="cls-6" points="1340.3 399.2 1355.39 324.86 1406.5 352.73"/>
  <polygon class="cls-7" points="1340.3 399.2 1355.39 324.86 1406.5 352.73 1340.3 399.2"/>
  <polyline class="cls-6" points="1411.15 288.86 1355.39 324.86 1406.5 352.73"/>
  <polygon class="cls-7" points="1411.15 288.86 1355.39 324.86 1406.5 352.73 1411.15 288.86"/>
  <polyline class="cls-6" points="1411.15 288.86 1441.34 306.28 1409.99 309.77"/>
  <polygon class="cls-7" points="1411.15 288.86 1441.34 306.28 1409.99 309.77 1411.15 288.86"/>
  <polyline class="cls-6" points="1340.3 399.2 1355.39 324.86 1306.03 356.79"/>
  <polygon class="cls-7" points="1340.3 399.2 1355.39 324.86 1306.03 356.79 1340.3 399.2"/>
  <polyline class="cls-6" points="1346.1 409.95 1297.32 457.86 1306.03 356.79"/>
  <polygon class="cls-7" points="1346.1 409.95 1297.32 457.86 1306.03 356.79 1346.1 409.95"/>
  <polyline class="cls-6" points="1294.7 254.01 1355.39 324.86 1306.03 356.79"/>
  <polygon class="cls-7" points="1294.7 254.01 1355.39 324.86 1306.03 356.79 1294.7 254.01"/>
  <polyline class="cls-6" points="1294.7 254.01 1211.07 246.17 1306.03 356.79"/>
  <polygon class="cls-7" points="1294.7 254.01 1211.07 246.17 1306.03 356.79 1294.7 254.01"/>
  <path class="cls-3" d="M928.59,1156a1.75,1.75,0,0,0,1.69-1.72l11.88-935.9a2.84,2.84,0,0,0-2.87-2.84l-11.88.13a2.84,2.84,0,0,0-2.81,2.83l-11.29,936a1.71,1.71,0,0,0,1.75,1.75" transform="translate(-25.83)"/>
  <line class="cls-8" x1="843.74" y1="194.63" x2="830.96" y2="1186.14"/>
  <line class="cls-8" x1="857.68" y1="201.16" x2="844.9" y2="1174.22"/>
  <line class="cls-8" x1="871.63" y1="206.23" x2="858.84" y2="1163.2"/>
  <path class="cls-9" d="M1641.2,764.87l8-27.6a41.23,41.23,0,0,0-9.17-1c-7.82,0-13.47,1.87-17,5.65s-5.25,7.74-5.25,11.93q0,11.17,18.19,11.19c1.51,0,3.23-.07,5.18-.17m21.92-32.22-16.9,57.47a15.68,15.68,0,0,0-.73,3.51c0,1.58.73,2.38,2.23,2.38q4,0,12.51-10.6l2.79,1.77c-8.14,11.35-16.08,17-23.89,17a7,7,0,0,1-5.29-1.86,5.87,5.87,0,0,1-1.77-4.13c0-1.48.64-4.42,2-8.88l6-20.43c-1.52-.16-2.61-.24-3.18-.24a10.35,10.35,0,0,0-6.51,2.16q-2.77,2.16-10,10.19l-19.21,21.45H1582l.82-3a18.18,18.18,0,0,0,8.13-2.79c2.71-1.67,6.45-5.29,11.16-10.91q14.82-17.5,19.75-18.77c-11.72-1.68-17.59-6.72-17.59-15q0-7.71,7.91-13.51t25.8-5.81Zm-101.64,4.9c-3.73,0-7.64,1.51-11.83,4.54-5.92,4.3-11.18,10.65-15.79,19.11s-6.91,16.06-6.91,22.88a10.83,10.83,0,0,0,3.08,8.13,9.82,9.82,0,0,0,7,3q9.86,0,21.43-12.18,14.1-16.26,13.66-33.3,0-6.43-2.86-9.32A10.49,10.49,0,0,0,1561.48,737.55Zm29.43-3.8-15.38,52.36-1.86,7a6.34,6.34,0,0,0-.3,1.7,3.41,3.41,0,0,0,.54,1.93,1.39,1.39,0,0,0,1.14.61,3.47,3.47,0,0,0,1.92-1.07c1.47-1.38,3.44-4.41,5.86-9.09l2.74,1.86c-3.12,5.17-6.31,9-9.58,11.48s-6.32,3.71-9.09,3.71a6,6,0,0,1-4.51-1.65,6.59,6.59,0,0,1-1.58-4.76,38.16,38.16,0,0,1,1.77-9.91l1.79-5.85q-11.52,13.17-21.19,18.41a28.5,28.5,0,0,1-13.61,3.76,15.13,15.13,0,0,1-11.06-4.58q-4.66-4.56-4.66-12.64,0-12,8.27-25.44a65.92,65.92,0,0,1,21-21.44c6.62-4.23,12.9-6.36,18.77-6.36a16,16,0,0,1,8.79,2.27c2.32,1.49,4.09,4,5.31,7.47l2.57-7.85Zm-153.22,3.62,24.47-4.72H1465L1455.37,765h27.7l9.14-30.66h12.16l-16.13,54a34.57,34.57,0,0,0-1.27,5.36,1.28,1.28,0,0,0,1.44,1.46c1.95,0,5.16-3.37,9.7-10.09l2.77,1.42q-11.58,17.7-20.62,17.69c-3.79,0-5.71-2.37-5.71-7.1,0-2.34,1-6.91,3-13.69l4.37-14.6h-27.73l-10,33.65h-12.07l15.37-51.31a36.83,36.83,0,0,0,1.71-7.45c0-2.79-1.73-4.17-5.24-4.17-.83,0-2.91.17-6.26.53Zm-60.23,34.94a45.63,45.63,0,0,0-2.33,14.77c0,4.9,1.24,8.47,3.73,10.66a13.21,13.21,0,0,0,9.14,3.32,15.17,15.17,0,0,0,12.3-5.87,21.4,21.4,0,0,0,4.81-13.91,12,12,0,0,0-3.52-8.77,12.12,12.12,0,0,0-8.95-3.52A41.59,41.59,0,0,0,1377.46,772.31Zm1.59-4.6q19.11-4.46,27.75-10.68c5.74-4.17,8.62-8.66,8.62-13.56a7.67,7.67,0,0,0-2-5c-1.34-1.54-3.37-2.34-6.09-2.34Q1390.47,736.12,1379.05,767.71Zm19-2c6.92.32,12.13,2,15.6,5.14a14.71,14.71,0,0,1,5.19,11.38c0,5.94-3,11.11-8.9,15.45s-13.19,6.5-21.73,6.5q-25.37,0-25.37-25,0-18.18,13.65-32.38t32.18-14.22q9.15,0,13.52,3.23a9.81,9.81,0,0,1,4.34,8.17Q1426.55,756.14,1398.07,765.74Zm-43.24-31.36-14.59,46.79q-3.24,10.44-3.25,13.17a3.39,3.39,0,0,0,.38,1.87,1.26,1.26,0,0,0,1.06.58,3.66,3.66,0,0,0,2.33-1.07c.82-.72,3-3.85,6.33-9.37l2.4,1.75c-3.71,6.23-7.49,10.7-11.35,13.46a13.25,13.25,0,0,1-7.43,2.65,5.64,5.64,0,0,1-4.34-1.69,5.9,5.9,0,0,1-1.6-4.34,31.76,31.76,0,0,1,1-6.89c1-3.53,3.45-11.7,7.55-24.45q-14.11,21.46-23.6,29.42t-17.52,8a9,9,0,0,1-6.37-2.43,8.12,8.12,0,0,1-2.62-6.18c0-3.84,1.4-9.77,4.2-17.75l8.33-23.82c2-5.71,3.06-9.27,3.06-10.67a2,2,0,0,0-.82-1.58,2.82,2.82,0,0,0-1.75-.66,8,8,0,0,0-4,1.15c-1.35.81-4.37,3.65-9.09,8.6l-2.48-1.72q6.51-9,13.78-13.19,5.57-3.32,10.23-3.31a6.86,6.86,0,0,1,5.24,2.18,7.81,7.81,0,0,1,2,5.58c0,2.74-1.23,7.67-3.71,14.73l-8.73,24.62q-3.6,10-3.6,12.71a2.87,2.87,0,0,0,1,2.35,4,4,0,0,0,2.76.9c1.82,0,4.2-.85,7.14-2.57s6.86-5.46,11.75-11.32a150,150,0,0,0,12.11-16.48q4.76-7.71,10.07-24.49l1.94-6.48Zm-126.41-1.73h2.77c.44,2.11,1.63,3.16,3.61,3.16a14.32,14.32,0,0,0,3.48-.7,46.6,46.6,0,0,1,14.23-2.46q8.63,0,14.43,4.47c3.91,3,5.83,6.55,5.83,10.72q0,14.56-27.12,17.11,19,5.12,18.94,17.5a17,17,0,0,1-3.95,10.45,27.09,27.09,0,0,1-11.06,8.23,38.85,38.85,0,0,1-15.65,3.08q-17.46,0-25.83-14.38l2.74-1.1a21.35,21.35,0,0,0,7.79,6.85,22.55,22.55,0,0,0,11.23,2.95,22.2,22.2,0,0,0,15.33-5.67q6.3-5.65,6.3-13.15a12.48,12.48,0,0,0-4.63-9.89q-4.65-3.9-13.41-3.91c-.54,0-1.31,0-2.31.07l.86-3.47q14.37,0,21-4c4.46-2.69,6.67-6.47,6.67-11.3a9.56,9.56,0,0,0-3.15-7.33c-2.09-1.94-5-2.91-8.73-2.91q-14.77,0-22.19,15.31h-3.11Zm-35.55,19.87c0-10.6-4.39-15.93-13.15-15.93-7.78,0-15,5.4-21.58,16.22s-10,21.54-10,32.21c0,5,1.3,8.84,3.83,11.53a13,13,0,0,0,9.9,4q11.46,0,21.24-16.63T1192.87,752.52ZM1138,765a53,53,0,0,1,18.36-23.39q12.43-9,25.39-9c7.14,0,12.94,2.26,17.46,6.82s6.73,10.4,6.73,17.59q0,18.12-14.29,32.65t-32.09,14.5q-11.35,0-17.93-7.18a23.68,23.68,0,0,1-6.59-16.44,57.15,57.15,0,0,1,1.67-11.77h-14.68l-10,33.65h-12l16.35-54.61a16.9,16.9,0,0,0,.87-4.31q0-3.79-5.68-3.79a40,40,0,0,0-6.13.48v-2.69l24.87-4.9h2.54L1123.21,765Zm-93.49-30.66h46.57l-15.61,52.27c-1.13,4-1.75,6.53-1.75,7.55,0,1.4.66,2.12,1.94,2.12,1.12,0,2.33-.72,3.58-2.16a73,73,0,0,0,5.71-8.11l2.78,1.69q-5.92,8.55-10.55,12.5a14.8,14.8,0,0,1-9.79,4q-6.3,0-6.29-6.71c0-2.29,1-7,3.2-14.12l13.2-44.42h-10c-4.06,0-6.62.23-7.64.7s-1.94,1.56-2.75,3.38-2.2,6.21-4.14,13.27q-8.43,30.23-14,39.05c-3.76,5.9-8.07,8.85-13,8.85-5.28,0-7.92-2-7.92-5.94a6,6,0,0,1,1.55-4.18,5.25,5.25,0,0,1,4.1-1.72,8.38,8.38,0,0,1,5,2,5.12,5.12,0,0,0,3,1.29c1.62,0,3.33-1.31,5.24-4s4.88-10.89,9-24.75,6.19-21.83,6.19-23.93c0-3.29-2.77-5.17-8.4-5.65Zm-91.13,3L978,732.65h3.08l-10,33.48c2,.12,3.08.17,3.35.17q13,0,20.37-15.82c2.72-5.85,4.64-9.66,5.75-11.49a13.66,13.66,0,0,1,4.42-4.53,11.11,11.11,0,0,1,6.31-1.81,10.32,10.32,0,0,1,7.25,2.63,8,8,0,0,1,3,6.18,7.15,7.15,0,0,1-2.06,5.17,6.59,6.59,0,0,1-4.82,2.13c-2.23,0-4.25-1.26-6-3.79-1.23-1.79-2.32-2.7-3.27-2.7-1.53,0-3.34,2.34-5.46,7-4.25,10.08-9.09,16.13-14.46,18.23a16.35,16.35,0,0,1,6,5.27q2.56,3.62,10.14,17.32,3.36,6.33,6.39,7.64a23.83,23.83,0,0,0,7.29,1.77l-1,3H995.11q-7-14.49-11.94-22.51c-3.29-5.37-5.64-8.42-7-9.19a13.21,13.21,0,0,0-6.09-1.15l-9.81,32.85h-12l15.58-52.13a27.78,27.78,0,0,0,1.5-6.79c0-2.73-1.89-4.08-5.68-4.08a52.81,52.81,0,0,0-6.23.6Zm-80.46,0,24.47-4.72h2.87L890.63,765h27.69l9.14-30.66h12.18l-16.12,54a32.65,32.65,0,0,0-1.3,5.36,1.28,1.28,0,0,0,1.45,1.46c1.94,0,5.15-3.37,9.7-10.09l2.77,1.42q-11.58,17.7-20.62,17.69-5.7,0-5.7-7.1c0-2.34,1-6.91,3-13.69l4.35-14.6H889.48l-10.05,33.65H867.37l15.38-51.31a37.92,37.92,0,0,0,1.72-7.45c0-2.79-1.75-4.17-5.24-4.17-.85,0-2.93.17-6.28.53Zm-11.8-3-14.59,46.79q-3.24,10.44-3.25,13.17a3.41,3.41,0,0,0,.37,1.87,1.24,1.24,0,0,0,1.07.58,3.64,3.64,0,0,0,2.32-1.07c.82-.72,2.94-3.85,6.33-9.37l2.41,1.75c-3.72,6.23-7.48,10.7-11.36,13.46a13.17,13.17,0,0,1-7.42,2.65,5.66,5.66,0,0,1-4.34-1.69,5.91,5.91,0,0,1-1.62-4.34,31.76,31.76,0,0,1,1-6.89c.95-3.53,3.47-11.7,7.57-24.45q-14.13,21.46-23.61,29.42t-17.51,8a9,9,0,0,1-6.37-2.43,8,8,0,0,1-2.61-6.18c0-3.84,1.39-9.77,4.2-17.75L802.1,754q3.06-8.56,3.06-10.67a2,2,0,0,0-.82-1.58,2.82,2.82,0,0,0-1.75-.66,8.07,8.07,0,0,0-4,1.15c-1.33.81-4.36,3.65-9.09,8.6L787,749.15q6.51-9,13.78-13.19,5.57-3.32,10.24-3.31a6.84,6.84,0,0,1,5.24,2.18,7.81,7.81,0,0,1,2,5.58c0,2.74-1.22,7.67-3.71,14.73l-8.74,24.62q-3.6,10-3.59,12.71a2.85,2.85,0,0,0,1,2.35,4,4,0,0,0,2.75.9c1.82,0,4.21-.85,7.15-2.57s6.84-5.46,11.74-11.32a148.7,148.7,0,0,0,12.11-16.48q4.76-7.71,10.06-24.49l1.94-6.48ZM714.46,764.87l8-27.6a41.23,41.23,0,0,0-9.17-1c-7.84,0-13.49,1.87-17,5.65s-5.28,7.74-5.28,11.93q0,11.17,18.21,11.19C710.76,765,712.48,765,714.46,764.87Zm21.89-32.22-16.87,57.47a15.51,15.51,0,0,0-.75,3.51c0,1.58.75,2.38,2.24,2.38,2.64,0,6.83-3.54,12.49-10.6l2.79,1.77q-12.19,17-23.87,17a6.93,6.93,0,0,1-5.29-1.86,5.85,5.85,0,0,1-1.79-4.13c0-1.48.66-4.42,2-8.88l6-20.43c-1.53-.16-2.62-.24-3.2-.24a10.27,10.27,0,0,0-6.48,2.16q-2.79,2.16-10,10.19l-19.23,21.45H655.21l.82-3a18.27,18.27,0,0,0,8.13-2.79c2.69-1.67,6.43-5.29,11.16-10.91q14.8-17.5,19.75-18.77c-11.73-1.68-17.6-6.72-17.6-15,0-5.14,2.65-9.64,7.91-13.51s13.87-5.81,25.79-5.81Zm-101.64,4.9q-5.57,0-11.81,4.54c-5.92,4.3-11.19,10.65-15.81,19.11s-6.9,16.06-6.9,22.88a10.83,10.83,0,0,0,3.08,8.13,9.87,9.87,0,0,0,7,3q9.87,0,21.42-12.18,14.14-16.26,13.68-33.3,0-6.43-2.87-9.32A10.51,10.51,0,0,0,634.71,737.55Zm29.45-3.8-15.4,52.36-1.85,7a6.85,6.85,0,0,0-.31,1.7,3.5,3.5,0,0,0,.55,1.93,1.39,1.39,0,0,0,1.15.61,3.39,3.39,0,0,0,1.91-1.07q2.22-2.07,5.87-9.09L658.8,789c-3.11,5.17-6.29,9-9.58,11.48s-6.29,3.71-9.08,3.71a5.92,5.92,0,0,1-4.49-1.65,6.46,6.46,0,0,1-1.59-4.76,38.16,38.16,0,0,1,1.77-9.91L637.6,782q-11.51,13.17-21.18,18.41a28.47,28.47,0,0,1-13.61,3.76,15.1,15.1,0,0,1-11-4.58q-4.68-4.56-4.68-12.64,0-12,8.27-25.44a66.19,66.19,0,0,1,20.95-21.44c6.64-4.23,12.92-6.36,18.79-6.36a16,16,0,0,1,8.78,2.27c2.32,1.49,4.1,4,5.32,7.47l2.57-7.85Zm-86.86,54c-7.62,11-15.09,16.47-22.49,16.47-4.29,0-6.41-2.23-6.41-6.74q0-5.64,8.86-30.86-22.85,37.62-40,37.6a7.78,7.78,0,0,1-6-2.55,9.83,9.83,0,0,1-2.31-6.89q0-7.2,8-28.16-23,37.62-40.5,37.6c-3,0-5.15-1-6.51-2.89a10.71,10.71,0,0,1-2.07-6.47q0-6.55,9.16-31.37,6-16.59,6-19.59c0-1.82-.82-2.72-2.48-2.72q-4,0-13,9.89l-2.65-1.69c6.09-7.33,10.87-11.93,14.27-13.85a19.73,19.73,0,0,1,9.62-2.87c4.88,0,7.3,2.84,7.3,8.55a23.05,23.05,0,0,1-1.38,7.13q-1.41,4.11-11.66,33.46c-1.67,4.86-2.48,8.11-2.48,9.71,0,2.59,1.26,3.86,3.76,3.86q6,0,18.85-15.14t21-38l2.75-7.83h12.15L523,783.61c-1.41,4.23-2.13,7-2.13,8.37,0,2.52,1.24,3.79,3.69,3.79,2.18,0,4.79-1,7.81-3.06S539.61,786,545,778.65a152.06,152.06,0,0,0,12.88-20.26,148.87,148.87,0,0,0,9.28-24h12.16l-16.6,51.11c-1.3,3.9-2,6.67-2,8.27,0,1.79.82,2.71,2.46,2.71,1.07,0,2.75-1,5.07-3.13a40.87,40.87,0,0,0,6.31-7.37Zm-188-50.82L412,732.65h3l-7.72,26.2a33,33,0,0,0-1.67,7.16c0,4.29,3.12,6.45,9.39,6.45q7.63,0,17.43-6.19l9.53-31.89h12.28l-16.23,54.43a30.47,30.47,0,0,0-1.3,5.48c0,1.26.53,1.87,1.57,1.87q2.6,0,9.58-10.14l2.62,1.55Q438,804.21,430.09,804.21c-3.89,0-5.85-2.18-5.85-6.55q0-4.06,2.6-12.88l4.07-13.58C424,775.73,417.2,778,410.34,778a20.07,20.07,0,0,1-11.65-3.4c-3.31-2.27-4.94-5.12-4.94-8.58a34.18,34.18,0,0,1,1.82-9.08l2.2-7.06a24.24,24.24,0,0,0,1.26-6.16c0-2.79-1.81-4.19-5.45-4.19a37.55,37.55,0,0,0-5.12.39ZM335,732.65a32.45,32.45,0,0,1,3.73,8.37c.68,2.58,1.39,7.69,2.07,15.29l3.49,37.93q4.85-5.57,14-17.59,4.41-5.85,10.94-16a53.49,53.49,0,0,0,4.81-8.62,7,7,0,0,0,.48-2.54,1.92,1.92,0,0,0-.55-1.4,9.48,9.48,0,0,0-2.9-1.26,7.87,7.87,0,0,1-3.94-2.69,7.17,7.17,0,0,1-1.56-4.52,6.91,6.91,0,0,1,1.94-5.09,6.48,6.48,0,0,1,4.81-1.92,7.76,7.76,0,0,1,6,2.8c1.67,1.88,2.49,4.46,2.49,7.74q0,6.13-4.34,13.94t-16.73,24q-12.36,16.22-29.83,35.37-12.06,13.2-17.86,16.65c-3.91,2.29-7.23,3.42-10,3.42a6,6,0,0,1-4.33-1.82,5.56,5.56,0,0,1-1.9-4.19,7.49,7.49,0,0,1,2.59-5.45,8.07,8.07,0,0,1,5.63-2.45,4.79,4.79,0,0,1,2.64.69,5.35,5.35,0,0,1,1.4,2.19,6.84,6.84,0,0,0,1.39,2.41,1.28,1.28,0,0,0,1,.4,4,4,0,0,0,1.68-.79,59.07,59.07,0,0,0,10.21-8.4,134.76,134.76,0,0,0,11.33-12.61l-4.48-48.74c-.73-8.07-1.85-13-3.33-14.7s-4-2.61-7.5-2.61a60,60,0,0,0-6,.48l-.66-2.84Zm-98.8-34.92h85.86l-.79,2.84q-7,.16-10.83,2.76T303,718.12L284.65,780c-1.9,6.37-2.87,10.8-2.87,13.22,0,4,4,6.14,12.15,6.39l-1,2.84H251.58l.95-2.84c5.46-.25,9.14-1.39,11.06-3.38s4.08-7.12,6.55-15.28l23.28-77.88h-38.3q-3,16.59-13.67,49.94t-17.3,42q-6.66,8.67-15.61,8.69c-4.83,0-8.74-1.33-11.7-4a11.92,11.92,0,0,1-4.48-9.19,7.1,7.1,0,0,1,2.27-5.34,7.66,7.66,0,0,1,5.58-2.22c4.65,0,7.57,3,8.84,9,.69,3.23,1.9,4.86,3.62,4.86q3.84,0,8.58-7.21t15.46-41.07q10.66-33.87,10.66-41c0-2.39-.71-4.09-2.11-5.14s-4.67-1.72-9.81-2Zm-41.5,33.81L167.8,768.38l8.76,36.48h-3.44l-19.57-36.48,36.93-36.84Zm-30.13,0-27.09,36.84,8.59,36.48h-3.44l-19.73-36.48,37.41-36.84Z" transform="translate(-25.83)"/>
  <path class="cls-10" d="M1641.2,764.87l8-27.6a41.23,41.23,0,0,0-9.17-1c-7.82,0-13.47,1.87-17,5.65s-5.25,7.74-5.25,11.93q0,11.17,18.19,11.19C1637.53,765,1639.25,765,1641.2,764.87Zm21.92-32.22-16.9,57.47a15.68,15.68,0,0,0-.73,3.51c0,1.58.73,2.38,2.23,2.38q4,0,12.51-10.6l2.79,1.77c-8.14,11.35-16.08,17-23.89,17a7,7,0,0,1-5.29-1.86,5.87,5.87,0,0,1-1.77-4.13c0-1.48.64-4.42,2-8.88l6-20.43c-1.52-.16-2.61-.24-3.18-.24a10.35,10.35,0,0,0-6.51,2.16q-2.77,2.16-10,10.19l-19.21,21.45H1582l.82-3a18.18,18.18,0,0,0,8.13-2.79c2.71-1.67,6.45-5.29,11.16-10.91q14.82-17.5,19.75-18.77c-11.72-1.68-17.59-6.72-17.59-15q0-7.71,7.91-13.51t25.8-5.81Zm-101.64,4.9c-3.73,0-7.64,1.51-11.83,4.54-5.92,4.3-11.18,10.65-15.79,19.11s-6.91,16.06-6.91,22.88a10.83,10.83,0,0,0,3.08,8.13,9.82,9.82,0,0,0,7,3q9.86,0,21.43-12.18,14.1-16.26,13.66-33.3,0-6.43-2.86-9.32A10.49,10.49,0,0,0,1561.48,737.55Zm29.43-3.8-15.38,52.36-1.86,7a6.34,6.34,0,0,0-.3,1.7,3.41,3.41,0,0,0,.54,1.93,1.39,1.39,0,0,0,1.14.61,3.47,3.47,0,0,0,1.92-1.07c1.47-1.38,3.44-4.41,5.86-9.09l2.74,1.86c-3.12,5.17-6.31,9-9.58,11.48s-6.32,3.71-9.09,3.71a6,6,0,0,1-4.51-1.65,6.59,6.59,0,0,1-1.58-4.76,38.16,38.16,0,0,1,1.77-9.91l1.79-5.85q-11.52,13.17-21.19,18.41a28.5,28.5,0,0,1-13.61,3.76,15.13,15.13,0,0,1-11.06-4.58q-4.66-4.56-4.66-12.64,0-12,8.27-25.44a65.92,65.92,0,0,1,21-21.44c6.62-4.23,12.9-6.36,18.77-6.36a16,16,0,0,1,8.79,2.27c2.32,1.49,4.09,4,5.31,7.47l2.57-7.85Zm-153.22,3.62,24.47-4.72H1465L1455.37,765h27.7l9.14-30.66h12.16l-16.13,54a34.57,34.57,0,0,0-1.27,5.36,1.28,1.28,0,0,0,1.44,1.46c1.95,0,5.16-3.37,9.7-10.09l2.77,1.42q-11.58,17.7-20.62,17.69c-3.79,0-5.71-2.37-5.71-7.1,0-2.34,1-6.91,3-13.69l4.37-14.6h-27.73l-10,33.65h-12.07l15.37-51.31a36.83,36.83,0,0,0,1.71-7.45c0-2.79-1.73-4.17-5.24-4.17-.83,0-2.91.17-6.26.53Zm-60.23,34.94a45.63,45.63,0,0,0-2.33,14.77c0,4.9,1.24,8.47,3.73,10.66a13.21,13.21,0,0,0,9.14,3.32,15.17,15.17,0,0,0,12.3-5.87,21.4,21.4,0,0,0,4.81-13.91,12,12,0,0,0-3.52-8.77,12.12,12.12,0,0,0-8.95-3.52A41.59,41.59,0,0,0,1377.46,772.31Zm1.59-4.6q19.11-4.46,27.75-10.68c5.74-4.17,8.62-8.66,8.62-13.56a7.67,7.67,0,0,0-2-5c-1.34-1.54-3.37-2.34-6.09-2.34Q1390.47,736.12,1379.05,767.71Zm19-2c6.92.32,12.13,2,15.6,5.14a14.71,14.71,0,0,1,5.19,11.38c0,5.94-3,11.11-8.9,15.45s-13.19,6.5-21.73,6.5q-25.37,0-25.37-25,0-18.18,13.65-32.38t32.18-14.22q9.15,0,13.52,3.23a9.81,9.81,0,0,1,4.34,8.17Q1426.55,756.14,1398.07,765.74Zm-43.24-31.36-14.59,46.79q-3.24,10.44-3.25,13.17a3.39,3.39,0,0,0,.38,1.87,1.26,1.26,0,0,0,1.06.58,3.66,3.66,0,0,0,2.33-1.07c.82-.72,3-3.85,6.33-9.37l2.4,1.75c-3.71,6.23-7.49,10.7-11.35,13.46a13.25,13.25,0,0,1-7.43,2.65,5.64,5.64,0,0,1-4.34-1.69,5.9,5.9,0,0,1-1.6-4.34,31.76,31.76,0,0,1,1-6.89c1-3.53,3.45-11.7,7.55-24.45q-14.11,21.46-23.6,29.42t-17.52,8a9,9,0,0,1-6.37-2.43,8.12,8.12,0,0,1-2.62-6.18c0-3.84,1.4-9.77,4.2-17.75l8.33-23.82c2-5.71,3.06-9.27,3.06-10.67a2,2,0,0,0-.82-1.58,2.82,2.82,0,0,0-1.75-.66,8,8,0,0,0-4,1.15c-1.35.81-4.37,3.65-9.09,8.6l-2.48-1.72q6.51-9,13.78-13.19,5.57-3.32,10.23-3.31a6.86,6.86,0,0,1,5.24,2.18,7.81,7.81,0,0,1,2,5.58c0,2.74-1.23,7.67-3.71,14.73l-8.73,24.62q-3.6,10-3.6,12.71a2.87,2.87,0,0,0,1,2.35,4,4,0,0,0,2.76.9c1.82,0,4.2-.85,7.14-2.57s6.86-5.46,11.75-11.32a150,150,0,0,0,12.11-16.48q4.76-7.71,10.07-24.49l1.94-6.48Zm-126.41-1.73h2.77c.44,2.11,1.63,3.16,3.61,3.16a14.32,14.32,0,0,0,3.48-.7,46.6,46.6,0,0,1,14.23-2.46q8.63,0,14.43,4.47c3.91,3,5.83,6.55,5.83,10.72q0,14.56-27.12,17.11,19,5.12,18.94,17.5a17,17,0,0,1-3.95,10.45,27.09,27.09,0,0,1-11.06,8.23,38.85,38.85,0,0,1-15.65,3.08q-17.46,0-25.83-14.38l2.74-1.1a21.35,21.35,0,0,0,7.79,6.85,22.55,22.55,0,0,0,11.23,2.95,22.2,22.2,0,0,0,15.33-5.67q6.3-5.65,6.3-13.15a12.48,12.48,0,0,0-4.63-9.89q-4.65-3.9-13.41-3.91c-.54,0-1.31,0-2.31.07l.86-3.47q14.37,0,21-4c4.46-2.69,6.67-6.47,6.67-11.3a9.56,9.56,0,0,0-3.15-7.33c-2.09-1.94-5-2.91-8.73-2.91q-14.77,0-22.19,15.31h-3.11Zm-35.55,19.87c0-10.6-4.39-15.93-13.15-15.93-7.78,0-15,5.4-21.58,16.22s-10,21.54-10,32.21c0,5,1.3,8.84,3.83,11.53a13,13,0,0,0,9.9,4q11.46,0,21.24-16.63T1192.87,752.52ZM1138,765a53,53,0,0,1,18.36-23.39q12.43-9,25.39-9c7.14,0,12.94,2.26,17.46,6.82s6.73,10.4,6.73,17.59q0,18.12-14.29,32.65t-32.09,14.5q-11.35,0-17.93-7.18a23.68,23.68,0,0,1-6.59-16.44,57.15,57.15,0,0,1,1.67-11.77h-14.68l-10,33.65h-12l16.35-54.61a16.9,16.9,0,0,0,.87-4.31q0-3.79-5.68-3.79a40,40,0,0,0-6.13.48v-2.69l24.87-4.9h2.54L1123.21,765Zm-93.49-30.66h46.57l-15.61,52.27c-1.13,4-1.75,6.53-1.75,7.55,0,1.4.66,2.12,1.94,2.12,1.12,0,2.33-.72,3.58-2.16a73,73,0,0,0,5.71-8.11l2.78,1.69q-5.92,8.55-10.55,12.5a14.8,14.8,0,0,1-9.79,4q-6.3,0-6.29-6.71c0-2.29,1-7,3.2-14.12l13.2-44.42h-10c-4.06,0-6.62.23-7.64.7s-1.94,1.56-2.75,3.38-2.2,6.21-4.14,13.27q-8.43,30.23-14,39.05c-3.76,5.9-8.07,8.85-13,8.85-5.28,0-7.92-2-7.92-5.94a6,6,0,0,1,1.55-4.18,5.25,5.25,0,0,1,4.1-1.72,8.38,8.38,0,0,1,5,2,5.12,5.12,0,0,0,3,1.29c1.62,0,3.33-1.31,5.24-4s4.88-10.89,9-24.75,6.19-21.83,6.19-23.93c0-3.29-2.77-5.17-8.4-5.65Zm-91.13,3L978,732.65h3.08l-10,33.48c2,.12,3.08.17,3.35.17q13,0,20.37-15.82c2.72-5.85,4.64-9.66,5.75-11.49a13.66,13.66,0,0,1,4.42-4.53,11.11,11.11,0,0,1,6.31-1.81,10.32,10.32,0,0,1,7.25,2.63,8,8,0,0,1,3,6.18,7.15,7.15,0,0,1-2.06,5.17,6.59,6.59,0,0,1-4.82,2.13c-2.23,0-4.25-1.26-6-3.79-1.23-1.79-2.32-2.7-3.27-2.7-1.53,0-3.34,2.34-5.46,7-4.25,10.08-9.09,16.13-14.46,18.23a16.35,16.35,0,0,1,6,5.27q2.56,3.62,10.14,17.32,3.36,6.33,6.39,7.64a23.83,23.83,0,0,0,7.29,1.77l-1,3H995.11q-7-14.49-11.94-22.51c-3.29-5.37-5.64-8.42-7-9.19a13.21,13.21,0,0,0-6.09-1.15l-9.81,32.85h-12l15.58-52.13a27.78,27.78,0,0,0,1.5-6.79c0-2.73-1.89-4.08-5.68-4.08a52.81,52.81,0,0,0-6.23.6Zm-80.46,0,24.47-4.72h2.87L890.63,765h27.69l9.14-30.66h12.18l-16.12,54a32.65,32.65,0,0,0-1.3,5.36,1.28,1.28,0,0,0,1.45,1.46c1.94,0,5.15-3.37,9.7-10.09l2.77,1.42q-11.58,17.7-20.62,17.69-5.7,0-5.7-7.1c0-2.34,1-6.91,3-13.69l4.35-14.6H889.48l-10.05,33.65H867.37l15.38-51.31a37.92,37.92,0,0,0,1.72-7.45c0-2.79-1.75-4.17-5.24-4.17-.85,0-2.93.17-6.28.53Zm-11.8-3-14.59,46.79q-3.24,10.44-3.25,13.17a3.41,3.41,0,0,0,.37,1.87,1.24,1.24,0,0,0,1.07.58,3.64,3.64,0,0,0,2.32-1.07c.82-.72,2.94-3.85,6.33-9.37l2.41,1.75c-3.72,6.23-7.48,10.7-11.36,13.46a13.17,13.17,0,0,1-7.42,2.65,5.66,5.66,0,0,1-4.34-1.69,5.91,5.91,0,0,1-1.62-4.34,31.76,31.76,0,0,1,1-6.89c.95-3.53,3.47-11.7,7.57-24.45q-14.13,21.46-23.61,29.42t-17.51,8a9,9,0,0,1-6.37-2.43,8,8,0,0,1-2.61-6.18c0-3.84,1.39-9.77,4.2-17.75L802.1,754q3.06-8.56,3.06-10.67a2,2,0,0,0-.82-1.58,2.82,2.82,0,0,0-1.75-.66,8.07,8.07,0,0,0-4,1.15c-1.33.81-4.36,3.65-9.09,8.6L787,749.15q6.51-9,13.78-13.19,5.57-3.32,10.24-3.31a6.84,6.84,0,0,1,5.24,2.18,7.81,7.81,0,0,1,2,5.58c0,2.74-1.22,7.67-3.71,14.73l-8.74,24.62q-3.6,10-3.59,12.71a2.85,2.85,0,0,0,1,2.35,4,4,0,0,0,2.75.9c1.82,0,4.21-.85,7.15-2.57s6.84-5.46,11.74-11.32a148.7,148.7,0,0,0,12.11-16.48q4.76-7.71,10.06-24.49l1.94-6.48ZM714.46,764.87l8-27.6a41.23,41.23,0,0,0-9.17-1c-7.84,0-13.49,1.87-17,5.65s-5.28,7.74-5.28,11.93q0,11.17,18.21,11.19C710.76,765,712.48,765,714.46,764.87Zm21.89-32.22-16.87,57.47a15.51,15.51,0,0,0-.75,3.51c0,1.58.75,2.38,2.24,2.38,2.64,0,6.83-3.54,12.49-10.6l2.79,1.77q-12.19,17-23.87,17a6.93,6.93,0,0,1-5.29-1.86,5.85,5.85,0,0,1-1.79-4.13c0-1.48.66-4.42,2-8.88l6-20.43c-1.53-.16-2.62-.24-3.2-.24a10.27,10.27,0,0,0-6.48,2.16q-2.79,2.16-10,10.19l-19.23,21.45H655.21l.82-3a18.27,18.27,0,0,0,8.13-2.79c2.69-1.67,6.43-5.29,11.16-10.91q14.8-17.5,19.75-18.77c-11.73-1.68-17.6-6.72-17.6-15,0-5.14,2.65-9.64,7.91-13.51s13.87-5.81,25.79-5.81Zm-101.64,4.9q-5.57,0-11.81,4.54c-5.92,4.3-11.19,10.65-15.81,19.11s-6.9,16.06-6.9,22.88a10.83,10.83,0,0,0,3.08,8.13,9.87,9.87,0,0,0,7,3q9.87,0,21.42-12.18,14.14-16.26,13.68-33.3,0-6.43-2.87-9.32A10.51,10.51,0,0,0,634.71,737.55Zm29.45-3.8-15.4,52.36-1.85,7a6.85,6.85,0,0,0-.31,1.7,3.5,3.5,0,0,0,.55,1.93,1.39,1.39,0,0,0,1.15.61,3.39,3.39,0,0,0,1.91-1.07q2.22-2.07,5.87-9.09L658.8,789c-3.11,5.17-6.29,9-9.58,11.48s-6.29,3.71-9.08,3.71a5.92,5.92,0,0,1-4.49-1.65,6.46,6.46,0,0,1-1.59-4.76,38.16,38.16,0,0,1,1.77-9.91L637.6,782q-11.51,13.17-21.18,18.41a28.47,28.47,0,0,1-13.61,3.76,15.1,15.1,0,0,1-11-4.58q-4.68-4.56-4.68-12.64,0-12,8.27-25.44a66.19,66.19,0,0,1,20.95-21.44c6.64-4.23,12.92-6.36,18.79-6.36a16,16,0,0,1,8.78,2.27c2.32,1.49,4.1,4,5.32,7.47l2.57-7.85Zm-86.86,54c-7.62,11-15.09,16.47-22.49,16.47-4.29,0-6.41-2.23-6.41-6.74q0-5.64,8.86-30.86-22.85,37.62-40,37.6a7.78,7.78,0,0,1-6-2.55,9.83,9.83,0,0,1-2.31-6.89q0-7.2,8-28.16-23,37.62-40.5,37.6c-3,0-5.15-1-6.51-2.89a10.71,10.71,0,0,1-2.07-6.47q0-6.55,9.16-31.37,6-16.59,6-19.59c0-1.82-.82-2.72-2.48-2.72q-4,0-13,9.89l-2.65-1.69c6.09-7.33,10.87-11.93,14.27-13.85a19.73,19.73,0,0,1,9.62-2.87c4.88,0,7.3,2.84,7.3,8.55a23.05,23.05,0,0,1-1.38,7.13q-1.41,4.11-11.66,33.46c-1.67,4.86-2.48,8.11-2.48,9.71,0,2.59,1.26,3.86,3.76,3.86q6,0,18.85-15.14t21-38l2.75-7.83h12.15L523,783.61c-1.41,4.23-2.13,7-2.13,8.37,0,2.52,1.24,3.79,3.69,3.79,2.18,0,4.79-1,7.81-3.06S539.61,786,545,778.65a152.06,152.06,0,0,0,12.88-20.26,148.87,148.87,0,0,0,9.28-24h12.16l-16.6,51.11c-1.3,3.9-2,6.67-2,8.27,0,1.79.82,2.71,2.46,2.71,1.07,0,2.75-1,5.07-3.13a40.87,40.87,0,0,0,6.31-7.37Zm-188-50.82L412,732.65h3l-7.72,26.2a33,33,0,0,0-1.67,7.16c0,4.29,3.12,6.45,9.39,6.45q7.63,0,17.43-6.19l9.53-31.89h12.28l-16.23,54.43a30.47,30.47,0,0,0-1.3,5.48c0,1.26.53,1.87,1.57,1.87q2.6,0,9.58-10.14l2.62,1.55Q438,804.21,430.09,804.21c-3.89,0-5.85-2.18-5.85-6.55q0-4.06,2.6-12.88l4.07-13.58C424,775.73,417.2,778,410.34,778a20.07,20.07,0,0,1-11.65-3.4c-3.31-2.27-4.94-5.12-4.94-8.58a34.18,34.18,0,0,1,1.82-9.08l2.2-7.06a24.24,24.24,0,0,0,1.26-6.16c0-2.79-1.81-4.19-5.45-4.19a37.55,37.55,0,0,0-5.12.39ZM335,732.65a32.45,32.45,0,0,1,3.73,8.37c.68,2.58,1.39,7.69,2.07,15.29l3.49,37.93q4.85-5.57,14-17.59,4.41-5.85,10.94-16a53.49,53.49,0,0,0,4.81-8.62,7,7,0,0,0,.48-2.54,1.92,1.92,0,0,0-.55-1.4,9.48,9.48,0,0,0-2.9-1.26,7.87,7.87,0,0,1-3.94-2.69,7.17,7.17,0,0,1-1.56-4.52,6.91,6.91,0,0,1,1.94-5.09,6.48,6.48,0,0,1,4.81-1.92,7.76,7.76,0,0,1,6,2.8c1.67,1.88,2.49,4.46,2.49,7.74q0,6.13-4.34,13.94t-16.73,24q-12.36,16.22-29.83,35.37-12.06,13.2-17.86,16.65c-3.91,2.29-7.23,3.42-10,3.42a6,6,0,0,1-4.33-1.82,5.56,5.56,0,0,1-1.9-4.19,7.49,7.49,0,0,1,2.59-5.45,8.07,8.07,0,0,1,5.63-2.45,4.79,4.79,0,0,1,2.64.69,5.35,5.35,0,0,1,1.4,2.19,6.84,6.84,0,0,0,1.39,2.41,1.28,1.28,0,0,0,1,.4,4,4,0,0,0,1.68-.79,59.07,59.07,0,0,0,10.21-8.4,134.76,134.76,0,0,0,11.33-12.61l-4.48-48.74c-.73-8.07-1.85-13-3.33-14.7s-4-2.61-7.5-2.61a60,60,0,0,0-6,.48l-.66-2.84Zm-98.8-34.92h85.86l-.79,2.84q-7,.16-10.83,2.76T303,718.12L284.65,780c-1.9,6.37-2.87,10.8-2.87,13.22,0,4,4,6.14,12.15,6.39l-1,2.84H251.58l.95-2.84c5.46-.25,9.14-1.39,11.06-3.38s4.08-7.12,6.55-15.28l23.28-77.88h-38.3q-3,16.59-13.67,49.94t-17.3,42q-6.66,8.67-15.61,8.69c-4.83,0-8.74-1.33-11.7-4a11.92,11.92,0,0,1-4.48-9.19,7.1,7.1,0,0,1,2.27-5.34,7.66,7.66,0,0,1,5.58-2.22c4.65,0,7.57,3,8.84,9,.69,3.23,1.9,4.86,3.62,4.86q3.84,0,8.58-7.21t15.46-41.07q10.66-33.87,10.66-41c0-2.39-.71-4.09-2.11-5.14s-4.67-1.72-9.81-2Zm-41.5,33.81L167.8,768.38l8.76,36.48h-3.44l-19.57-36.48,36.93-36.84Zm-30.13,0-27.09,36.84,8.59,36.48h-3.44l-19.73-36.48,37.41-36.84Z" transform="translate(-25.83)"/>
  <path class="cls-9" d="M1314,951.2l26.36-40.5-8.51-40.25h3.34l19.36,40.25-36.41,40.5m25.66,0,26.35-40.5-8.52-40.25H1365l19.36,40.25-36.41,40.5Zm-35.46-77.62-14.19,51.55q-3.17,11.49-3.17,14.5a4,4,0,0,0,.38,2.06,1.15,1.15,0,0,0,1,.63,3.4,3.4,0,0,0,2.24-1.18c.8-.78,2.88-4.23,6.16-10.32l2.35,1.93c-3.62,6.84-7.28,11.78-11.06,14.82a11.83,11.83,0,0,1-7.21,2.93,5.16,5.16,0,0,1-4.22-1.86,7,7,0,0,1-1.57-4.77,39.19,39.19,0,0,1,1-7.61c.94-3.88,3.37-12.88,7.35-26.92q-13.73,23.64-23,32.4t-17,8.76a8.14,8.14,0,0,1-6.19-2.69,9.4,9.4,0,0,1-2.55-6.79c0-4.23,1.36-10.77,4.1-19.55l8.1-26.25q3-9.45,3-11.74a2.3,2.3,0,0,0-.8-1.75,2.58,2.58,0,0,0-1.69-.72,7.12,7.12,0,0,0-3.91,1.28c-1.29.87-4.24,4-8.83,9.46l-2.41-1.89c4.22-6.58,8.67-11.43,13.4-14.53,3.61-2.43,6.93-3.66,10-3.66a6.32,6.32,0,0,1,5.08,2.4,9.32,9.32,0,0,1,2,6.16c0,3-1.19,8.44-3.6,16.22l-8.49,27.12c-2.35,7.36-3.51,12-3.51,14a3.38,3.38,0,0,0,1,2.58,3.63,3.63,0,0,0,2.69,1c1.77,0,4.09-.93,7-2.82s6.66-6,11.42-12.47a167.44,167.44,0,0,0,11.79-18.16q4.62-8.48,9.79-27l1.88-7.15Zm-79.65,0-14.21,51.55c-2.09,7.66-3.16,12.49-3.16,14.5a4.26,4.26,0,0,0,.38,2.06,1.15,1.15,0,0,0,1,.63,3.44,3.44,0,0,0,2.27-1.18c.78-.78,2.86-4.23,6.16-10.32l2.33,1.93q-5.41,10.26-11,14.82a11.93,11.93,0,0,1-7.23,2.93,5.2,5.2,0,0,1-4.23-1.86,7.1,7.1,0,0,1-1.56-4.77,38,38,0,0,1,1-7.61c.92-3.88,3.37-12.88,7.35-26.92q-13.75,23.64-23,32.4t-17,8.76a8.16,8.16,0,0,1-6.19-2.69,9.43,9.43,0,0,1-2.54-6.79c0-4.23,1.35-10.77,4.08-19.55l8.11-26.25c2-6.3,3-10.21,3-11.74a2.34,2.34,0,0,0-.8-1.75,2.54,2.54,0,0,0-1.7-.72,7.06,7.06,0,0,0-3.89,1.28c-1.31.87-4.26,4-8.85,9.46l-2.42-1.89q6.33-9.87,13.41-14.53c3.61-2.43,6.93-3.66,10-3.66a6.37,6.37,0,0,1,5.11,2.4,9.32,9.32,0,0,1,2,6.16c0,3-1.19,8.44-3.61,16.22l-8.5,27.12q-3.51,11-3.51,14a3.32,3.32,0,0,0,1,2.58,3.6,3.6,0,0,0,2.67,1c1.79,0,4.1-.93,7-2.82s6.67-6,11.42-12.47a167.44,167.44,0,0,0,11.79-18.16q4.62-8.48,9.8-27l1.89-7.15Zm-85.89,56.36q-8.13,10.62-16.38,15.58a33.14,33.14,0,0,1-17.44,5q-11.07,0-17.29-6.79c-4.11-4.53-6.19-10.62-6.19-18.24a54,54,0,0,1,6.67-25.55,56.53,56.53,0,0,1,17.92-20.39c7.48-5.26,14.83-7.86,22.06-7.86,5.69,0,9.91,1.28,12.71,3.86a12.42,12.42,0,0,1,4.21,9.48,14.13,14.13,0,0,1-2.95,9,6.41,6.41,0,0,1-5.34,2.89,5.18,5.18,0,0,1-4-1.71,5.91,5.91,0,0,1-1.6-4.22,7.3,7.3,0,0,1,.59-3,12,12,0,0,1,2.39-3.25,12.27,12.27,0,0,0,2.21-2.75,4.46,4.46,0,0,0,.39-1.81,3.66,3.66,0,0,0-1.48-2.94,10.62,10.62,0,0,0-6.47-1.72c-5.13,0-10.2,1.94-15.26,5.85s-9.32,9.43-12.88,16.63a58.45,58.45,0,0,0-6.45,26.13q0,8.65,4.56,13.7t12.44,5a24.84,24.84,0,0,0,12-3.26q5.93-3.27,13.32-11.84Zm-70.71,0c-5.41,7.08-10.85,12.27-16.38,15.58a33.14,33.14,0,0,1-17.44,5q-11.08,0-17.29-6.79t-6.19-18.24a54,54,0,0,1,6.67-25.55,57,57,0,0,1,17.91-20.39c7.49-5.26,14.86-7.86,22.07-7.86,5.68,0,9.9,1.28,12.73,3.86a12.41,12.41,0,0,1,4.19,9.48,14.13,14.13,0,0,1-2.95,9,6.4,6.4,0,0,1-5.34,2.89,5.24,5.24,0,0,1-4-1.71,5.9,5.9,0,0,1-1.59-4.22,7.64,7.64,0,0,1,.58-3,12.27,12.27,0,0,1,2.39-3.25,11.83,11.83,0,0,0,2.2-2.75,4,4,0,0,0,.4-1.81,3.63,3.63,0,0,0-1.48-2.94,10.56,10.56,0,0,0-6.45-1.72c-5.16,0-10.23,1.94-15.28,5.85s-9.31,9.43-12.86,16.63a58.35,58.35,0,0,0-6.47,26.13c0,5.77,1.51,10.33,4.58,13.7s7.16,5,12.42,5a24.84,24.84,0,0,0,12-3.26q5.91-3.27,13.32-11.84Zm-80.39-37.73c0-5.28-1.21-9.34-3.56-12.15a11.4,11.4,0,0,0-9.17-4.22q-11.51,0-21.13,18t-9.63,35.64q0,8.1,3.74,12.49a11.88,11.88,0,0,0,9.45,4.39c7.33,0,14.24-6,20.65-17.86S991.71,904.48,991.71,892.21Zm12.74,6a56.41,56.41,0,0,1-6.19,25.22A49.36,49.36,0,0,1,981,943.2q-11,7.31-21.45,7.3c-7.12,0-12.9-2.47-17.39-7.42s-6.72-11.36-6.72-19.22a53.75,53.75,0,0,1,6.58-25A52.36,52.36,0,0,1,959.6,879q11-7.34,21.31-7.32a21.78,21.78,0,0,1,16.91,7.4Q1004.45,886.42,1004.45,898.23ZM878.68,887a55.09,55.09,0,0,0,14,2.38,30.79,30.79,0,0,0,15.23-3.83,26.25,26.25,0,0,0,10.72-11.45,34.9,34.9,0,0,0,3.88-15.89q0-8.58-4.73-13.58c-3.17-3.33-8-5-14.36-5a67.81,67.81,0,0,0-12.59,1.45Zm-14.63-53.82h41.6q16.35,0,24.48,7.67a24.9,24.9,0,0,1,8.1,18.75,31.74,31.74,0,0,1-5.15,17c-3.42,5.52-8.53,10-15.27,13.41a47.9,47.9,0,0,1-21.91,5.14q-7.32,0-18.63-2.82l-8.76,33.33c-2,6.83-3,11.36-3,13.54a5,5,0,0,0,2.09,4.12c1.41,1.11,4.77,1.8,10,2.12l-.76,3.14H835.45l.85-3.14c5.49,0,9.32-1.05,11.5-3.11s4.46-7.77,7-17.14L872,859.49q3.11-11.85,3.11-15.84a6.21,6.21,0,0,0-2.21-4.92c-1.48-1.31-4.72-2.09-9.77-2.38Zm-94.24,43.85c-3.61,0-7.42,1.68-11.49,5q-8.66,7.09-15.38,21c-4.49,9.28-6.72,17.7-6.72,25.2,0,3.78,1,6.79,3,9a9,9,0,0,0,6.84,3.3q9.6,0,20.84-13.42,13.76-17.89,13.31-36.67c0-4.73-.92-8.15-2.79-10.26A9.58,9.58,0,0,0,769.81,877.07Zm28.65-4.17-15,57.64-1.8,7.69a8.14,8.14,0,0,0-.29,1.89,4.15,4.15,0,0,0,.53,2.11,1.32,1.32,0,0,0,1.12.68c.48,0,1.09-.41,1.86-1.19q2.15-2.26,5.7-10l2.65,2c-3,5.69-6.13,9.93-9.31,12.65s-6.14,4.08-8.84,4.08a5.39,5.39,0,0,1-4.37-1.82,7.76,7.76,0,0,1-1.56-5.26,47,47,0,0,1,1.72-10.91l1.74-6.42q-11.21,14.49-20.6,20.26a25.3,25.3,0,0,1-13.26,4.15,14,14,0,0,1-10.75-5q-4.54-5.06-4.55-13.93,0-13.28,8-28a69.27,69.27,0,0,1,20.4-23.61c6.45-4.66,12.56-7,18.26-7a14.2,14.2,0,0,1,8.56,2.48c2.24,1.65,4,4.41,5.17,8.24l2.5-8.65Zm-131.24.68h45.31l-15.17,57.58a49.37,49.37,0,0,0-1.71,8.32c0,1.54.64,2.33,1.89,2.33,1.09,0,2.25-.79,3.48-2.39a82.11,82.11,0,0,0,5.54-8.93l2.71,1.85c-3.85,6.3-7.27,10.88-10.26,13.79s-6.18,4.37-9.51,4.37c-4.09,0-6.15-2.47-6.15-7.4,0-2.52,1-7.71,3.12-15.53l12.84-48.94h-9.76c-4,0-6.44.26-7.44.75s-1.89,1.75-2.69,3.74-2.11,6.86-4,14.62q-8.22,33.28-13.68,43T649.1,950.5q-7.68,0-7.69-6.55a7.09,7.09,0,0,1,1.52-4.61,4.86,4.86,0,0,1,4-1.89,7.62,7.62,0,0,1,4.88,2.23,4.67,4.67,0,0,0,3,1.43c1.56,0,3.25-1.45,5.1-4.37s4.74-12,8.76-27.28,6-24,6-26.36c0-3.62-2.7-5.68-8.18-6.2Zm-33.65,18.63c0-5.28-1.19-9.34-3.56-12.15a11.37,11.37,0,0,0-9.15-4.22q-11.5,0-21.13,18t-9.65,35.64c0,5.4,1.26,9.56,3.74,12.49a11.94,11.94,0,0,0,9.46,4.39q11,0,20.66-17.86T633.57,892.21Zm12.74,6a56.38,56.38,0,0,1-6.17,25.22A49.43,49.43,0,0,1,622.9,943.2q-11,7.31-21.46,7.3-10.65,0-17.38-7.42c-4.49-5-6.72-11.36-6.72-19.22a53.75,53.75,0,0,1,6.58-25A52.36,52.36,0,0,1,601.48,879q11-7.34,21.29-7.32a21.77,21.77,0,0,1,16.91,7.4C644.12,884,646.31,890.37,646.31,898.23ZM512.13,876.9l23.9-5.23h3l-9.72,36.89c1.93.12,3,.17,3.27.17q12.63,0,19.81-17.42,4-9.64,5.61-12.65a14.15,14.15,0,0,1,4.29-5,9.94,9.94,0,0,1,6.14-2,9.87,9.87,0,0,1,9.94,9.72,8.35,8.35,0,0,1-2,5.68,6.06,6.06,0,0,1-4.67,2.35c-2.18,0-4.14-1.4-5.84-4.17-1.19-2-2.27-3-3.19-3-1.49,0-3.24,2.55-5.3,7.69Q551.09,906.6,543.26,910a16.58,16.58,0,0,1,5.85,5.8q2.52,4,9.88,19.09c2.18,4.65,4.26,7.45,6.21,8.41a21.22,21.22,0,0,0,7.1,1.94l-.95,3.32H552.7q-6.81-16-11.62-24.81c-3.2-5.92-5.48-9.28-6.86-10.13a11.6,11.6,0,0,0-5.92-1.27l-9.56,36.21H507.08l15.16-57.45a32.87,32.87,0,0,0,1.47-7.47c0-3-1.84-4.51-5.53-4.51a43.33,43.33,0,0,0-6,.68Zm-13.72,55.44c-7.42,12.11-14.69,18.16-21.88,18.16q-6.25,0-6.25-7.42,0-6.23,8.63-34Q456.7,950.51,440,950.5a7.19,7.19,0,0,1-5.87-2.81,11.78,11.78,0,0,1-2.24-7.6q0-7.92,7.74-31-22.33,41.42-39.39,41.41a7,7,0,0,1-6.35-3.18,13,13,0,0,1-2-7.15q0-7.21,8.91-34.54,5.88-18.27,5.88-21.57c0-2-.81-3-2.42-3q-3.92,0-12.64,10.89L389,890.08q8.88-12.08,13.88-15.24a17.44,17.44,0,0,1,9.34-3.17c4.77,0,7.13,3.13,7.13,9.43A28.18,28.18,0,0,1,418,889q-1.35,4.51-11.33,36.83-2.43,8.06-2.42,10.71c0,2.84,1.23,4.25,3.66,4.25q5.82,0,18.34-16.67T446.7,882.2l2.69-8.62h11.8l-15.6,54.2c-1.37,4.69-2.07,7.77-2.07,9.24,0,2.78,1.19,4.17,3.59,4.17,2.12,0,4.64-1.14,7.59-3.37s7-7.41,12.31-15.48A173,173,0,0,0,479.55,900a177.19,177.19,0,0,0,9-26.45h11.84l-16.16,56.3c-1.24,4.29-1.89,7.33-1.89,9.1,0,2,.8,3,2.4,3,1,0,2.67-1.16,4.93-3.46a44,44,0,0,0,6.13-8.11Z" transform="translate(-25.83)"/>
  <path class="cls-10" d="M1314,951.2l26.36-40.5-8.51-40.25h3.34l19.36,40.25-36.41,40.5Zm29.8,0,26.35-40.5-8.52-40.25H1365l19.36,40.25-36.41,40.5Zm-35.46-77.62-14.19,51.55q-3.17,11.49-3.17,14.5a4,4,0,0,0,.38,2.06,1.15,1.15,0,0,0,1,.63,3.4,3.4,0,0,0,2.24-1.18c.8-.78,2.88-4.23,6.16-10.32l2.35,1.93c-3.62,6.84-7.28,11.78-11.06,14.82a11.83,11.83,0,0,1-7.21,2.93,5.16,5.16,0,0,1-4.22-1.86,7,7,0,0,1-1.57-4.77,39.19,39.19,0,0,1,1-7.61c.94-3.88,3.37-12.88,7.35-26.92q-13.73,23.64-23,32.4t-17,8.76a8.14,8.14,0,0,1-6.19-2.69,9.4,9.4,0,0,1-2.55-6.79c0-4.23,1.36-10.77,4.1-19.55l8.1-26.25q3-9.45,3-11.74a2.3,2.3,0,0,0-.8-1.75,2.58,2.58,0,0,0-1.69-.72,7.12,7.12,0,0,0-3.91,1.28c-1.29.87-4.24,4-8.83,9.46l-2.41-1.89c4.22-6.58,8.67-11.43,13.4-14.53,3.61-2.43,6.93-3.66,10-3.66a6.32,6.32,0,0,1,5.08,2.4,9.32,9.32,0,0,1,2,6.16c0,3-1.19,8.44-3.6,16.22l-8.49,27.12c-2.35,7.36-3.51,12-3.51,14a3.38,3.38,0,0,0,1,2.58,3.63,3.63,0,0,0,2.69,1c1.77,0,4.09-.93,7-2.82s6.66-6,11.42-12.47a167.44,167.44,0,0,0,11.79-18.16q4.62-8.48,9.79-27l1.88-7.15Zm-79.65,0-14.21,51.55c-2.09,7.66-3.16,12.49-3.16,14.5a4.26,4.26,0,0,0,.38,2.06,1.15,1.15,0,0,0,1,.63,3.44,3.44,0,0,0,2.27-1.18c.78-.78,2.86-4.23,6.16-10.32l2.33,1.93q-5.41,10.26-11,14.82a11.93,11.93,0,0,1-7.23,2.93,5.2,5.2,0,0,1-4.23-1.86,7.1,7.1,0,0,1-1.56-4.77,38,38,0,0,1,1-7.61c.92-3.88,3.37-12.88,7.35-26.92q-13.75,23.64-23,32.4t-17,8.76a8.16,8.16,0,0,1-6.19-2.69,9.43,9.43,0,0,1-2.54-6.79c0-4.23,1.35-10.77,4.08-19.55l8.11-26.25c2-6.3,3-10.21,3-11.74a2.34,2.34,0,0,0-.8-1.75,2.54,2.54,0,0,0-1.7-.72,7.06,7.06,0,0,0-3.89,1.28c-1.31.87-4.26,4-8.85,9.46l-2.42-1.89q6.33-9.87,13.41-14.53c3.61-2.43,6.93-3.66,10-3.66a6.37,6.37,0,0,1,5.11,2.4,9.32,9.32,0,0,1,2,6.16c0,3-1.19,8.44-3.61,16.22l-8.5,27.12q-3.51,11-3.51,14a3.32,3.32,0,0,0,1,2.58,3.6,3.6,0,0,0,2.67,1c1.79,0,4.1-.93,7-2.82s6.67-6,11.42-12.47a167.44,167.44,0,0,0,11.79-18.16q4.62-8.48,9.8-27l1.89-7.15Zm-85.89,56.36q-8.13,10.62-16.38,15.58a33.14,33.14,0,0,1-17.44,5q-11.07,0-17.29-6.79c-4.11-4.53-6.19-10.62-6.19-18.24a54,54,0,0,1,6.67-25.55,56.53,56.53,0,0,1,17.92-20.39c7.48-5.26,14.83-7.86,22.06-7.86,5.69,0,9.91,1.28,12.71,3.86a12.42,12.42,0,0,1,4.21,9.48,14.13,14.13,0,0,1-2.95,9,6.41,6.41,0,0,1-5.34,2.89,5.18,5.18,0,0,1-4-1.71,5.91,5.91,0,0,1-1.6-4.22,7.3,7.3,0,0,1,.59-3,12,12,0,0,1,2.39-3.25,12.27,12.27,0,0,0,2.21-2.75,4.46,4.46,0,0,0,.39-1.81,3.66,3.66,0,0,0-1.48-2.94,10.62,10.62,0,0,0-6.47-1.72c-5.13,0-10.2,1.94-15.26,5.85s-9.32,9.43-12.88,16.63a58.45,58.45,0,0,0-6.45,26.13q0,8.65,4.56,13.7t12.44,5a24.84,24.84,0,0,0,12-3.26q5.93-3.27,13.32-11.84Zm-70.71,0c-5.41,7.08-10.85,12.27-16.38,15.58a33.14,33.14,0,0,1-17.44,5q-11.08,0-17.29-6.79t-6.19-18.24a54,54,0,0,1,6.67-25.55,57,57,0,0,1,17.91-20.39c7.49-5.26,14.86-7.86,22.07-7.86,5.68,0,9.9,1.28,12.73,3.86a12.41,12.41,0,0,1,4.19,9.48,14.13,14.13,0,0,1-2.95,9,6.4,6.4,0,0,1-5.34,2.89,5.24,5.24,0,0,1-4-1.71,5.9,5.9,0,0,1-1.59-4.22,7.64,7.64,0,0,1,.58-3,12.27,12.27,0,0,1,2.39-3.25,11.83,11.83,0,0,0,2.2-2.75,4,4,0,0,0,.4-1.81,3.63,3.63,0,0,0-1.48-2.94,10.56,10.56,0,0,0-6.45-1.72c-5.16,0-10.23,1.94-15.28,5.85s-9.31,9.43-12.86,16.63a58.35,58.35,0,0,0-6.47,26.13c0,5.77,1.51,10.33,4.58,13.7s7.16,5,12.42,5a24.84,24.84,0,0,0,12-3.26q5.91-3.27,13.32-11.84Zm-80.39-37.73c0-5.28-1.21-9.34-3.56-12.15a11.4,11.4,0,0,0-9.17-4.22q-11.51,0-21.13,18t-9.63,35.64q0,8.1,3.74,12.49a11.88,11.88,0,0,0,9.45,4.39c7.33,0,14.24-6,20.65-17.86S991.71,904.48,991.71,892.21Zm12.74,6a56.41,56.41,0,0,1-6.19,25.22A49.36,49.36,0,0,1,981,943.2q-11,7.31-21.45,7.3c-7.12,0-12.9-2.47-17.39-7.42s-6.72-11.36-6.72-19.22a53.75,53.75,0,0,1,6.58-25A52.36,52.36,0,0,1,959.6,879q11-7.34,21.31-7.32a21.78,21.78,0,0,1,16.91,7.4Q1004.45,886.42,1004.45,898.23ZM878.68,887a55.09,55.09,0,0,0,14,2.38,30.79,30.79,0,0,0,15.23-3.83,26.25,26.25,0,0,0,10.72-11.45,34.9,34.9,0,0,0,3.88-15.89q0-8.58-4.73-13.58c-3.17-3.33-8-5-14.36-5a67.81,67.81,0,0,0-12.59,1.45Zm-14.63-53.82h41.6q16.35,0,24.48,7.67a24.9,24.9,0,0,1,8.1,18.75,31.74,31.74,0,0,1-5.15,17c-3.42,5.52-8.53,10-15.27,13.41a47.9,47.9,0,0,1-21.91,5.14q-7.32,0-18.63-2.82l-8.76,33.33c-2,6.83-3,11.36-3,13.54a5,5,0,0,0,2.09,4.12c1.41,1.11,4.77,1.8,10,2.12l-.76,3.14H835.45l.85-3.14c5.49,0,9.32-1.05,11.5-3.11s4.46-7.77,7-17.14L872,859.49q3.11-11.85,3.11-15.84a6.21,6.21,0,0,0-2.21-4.92c-1.48-1.31-4.72-2.09-9.77-2.38Zm-94.24,43.85c-3.61,0-7.42,1.68-11.49,5q-8.66,7.09-15.38,21c-4.49,9.28-6.72,17.7-6.72,25.2,0,3.78,1,6.79,3,9a9,9,0,0,0,6.84,3.3q9.6,0,20.84-13.42,13.76-17.89,13.31-36.67c0-4.73-.92-8.15-2.79-10.26A9.58,9.58,0,0,0,769.81,877.07Zm28.65-4.17-15,57.64-1.8,7.69a8.14,8.14,0,0,0-.29,1.89,4.15,4.15,0,0,0,.53,2.11,1.32,1.32,0,0,0,1.12.68c.48,0,1.09-.41,1.86-1.19q2.15-2.26,5.7-10l2.65,2c-3,5.69-6.13,9.93-9.31,12.65s-6.14,4.08-8.84,4.08a5.39,5.39,0,0,1-4.37-1.82,7.76,7.76,0,0,1-1.56-5.26,47,47,0,0,1,1.72-10.91l1.74-6.42q-11.21,14.49-20.6,20.26a25.3,25.3,0,0,1-13.26,4.15,14,14,0,0,1-10.75-5q-4.54-5.06-4.55-13.93,0-13.28,8-28a69.27,69.27,0,0,1,20.4-23.61c6.45-4.66,12.56-7,18.26-7a14.2,14.2,0,0,1,8.56,2.48c2.24,1.65,4,4.41,5.17,8.24l2.5-8.65Zm-131.24.68h45.31l-15.17,57.58a49.37,49.37,0,0,0-1.71,8.32c0,1.54.64,2.33,1.89,2.33,1.09,0,2.25-.79,3.48-2.39a82.11,82.11,0,0,0,5.54-8.93l2.71,1.85c-3.85,6.3-7.27,10.88-10.26,13.79s-6.18,4.37-9.51,4.37c-4.09,0-6.15-2.47-6.15-7.4,0-2.52,1-7.71,3.12-15.53l12.84-48.94h-9.76c-4,0-6.44.26-7.44.75s-1.89,1.75-2.69,3.74-2.11,6.86-4,14.62q-8.22,33.28-13.68,43T649.1,950.5q-7.68,0-7.69-6.55a7.09,7.09,0,0,1,1.52-4.61,4.86,4.86,0,0,1,4-1.89,7.62,7.62,0,0,1,4.88,2.23,4.67,4.67,0,0,0,3,1.43c1.56,0,3.25-1.45,5.1-4.37s4.74-12,8.76-27.28,6-24,6-26.36c0-3.62-2.7-5.68-8.18-6.2Zm-33.65,18.63c0-5.28-1.19-9.34-3.56-12.15a11.37,11.37,0,0,0-9.15-4.22q-11.5,0-21.13,18t-9.65,35.64c0,5.4,1.26,9.56,3.74,12.49a11.94,11.94,0,0,0,9.46,4.39q11,0,20.66-17.86T633.57,892.21Zm12.74,6a56.38,56.38,0,0,1-6.17,25.22A49.43,49.43,0,0,1,622.9,943.2q-11,7.31-21.46,7.3-10.65,0-17.38-7.42c-4.49-5-6.72-11.36-6.72-19.22a53.75,53.75,0,0,1,6.58-25A52.36,52.36,0,0,1,601.48,879q11-7.34,21.29-7.32a21.77,21.77,0,0,1,16.91,7.4C644.12,884,646.31,890.37,646.31,898.23ZM512.13,876.9l23.9-5.23h3l-9.72,36.89c1.93.12,3,.17,3.27.17q12.63,0,19.81-17.42,4-9.64,5.61-12.65a14.15,14.15,0,0,1,4.29-5,9.94,9.94,0,0,1,6.14-2,9.87,9.87,0,0,1,9.94,9.72,8.35,8.35,0,0,1-2,5.68,6.06,6.06,0,0,1-4.67,2.35c-2.18,0-4.14-1.4-5.84-4.17-1.19-2-2.27-3-3.19-3-1.49,0-3.24,2.55-5.3,7.69Q551.09,906.6,543.26,910a16.58,16.58,0,0,1,5.85,5.8q2.52,4,9.88,19.09c2.18,4.65,4.26,7.45,6.21,8.41a21.22,21.22,0,0,0,7.1,1.94l-.95,3.32H552.7q-6.81-16-11.62-24.81c-3.2-5.92-5.48-9.28-6.86-10.13a11.6,11.6,0,0,0-5.92-1.27l-9.56,36.21H507.08l15.16-57.45a32.87,32.87,0,0,0,1.47-7.47c0-3-1.84-4.51-5.53-4.51a43.33,43.33,0,0,0-6,.68Zm-13.72,55.44c-7.42,12.11-14.69,18.16-21.88,18.16q-6.25,0-6.25-7.42,0-6.23,8.63-34Q456.7,950.51,440,950.5a7.19,7.19,0,0,1-5.87-2.81,11.78,11.78,0,0,1-2.24-7.6q0-7.92,7.74-31-22.33,41.42-39.39,41.41a7,7,0,0,1-6.35-3.18,13,13,0,0,1-2-7.15q0-7.21,8.91-34.54,5.88-18.27,5.88-21.57c0-2-.81-3-2.42-3q-3.92,0-12.64,10.89L389,890.08q8.88-12.08,13.88-15.24a17.44,17.44,0,0,1,9.34-3.17c4.77,0,7.13,3.13,7.13,9.43A28.18,28.18,0,0,1,418,889q-1.35,4.51-11.33,36.83-2.43,8.06-2.42,10.71c0,2.84,1.23,4.25,3.66,4.25q5.82,0,18.34-16.67T446.7,882.2l2.69-8.62h11.8l-15.6,54.2c-1.37,4.69-2.07,7.77-2.07,9.24,0,2.78,1.19,4.17,3.59,4.17,2.12,0,4.64-1.14,7.59-3.37s7-7.41,12.31-15.48A173,173,0,0,0,479.55,900a177.19,177.19,0,0,0,9-26.45h11.84l-16.16,56.3c-1.24,4.29-1.89,7.33-1.89,9.1,0,2,.8,3,2.4,3,1,0,2.67-1.16,4.93-3.46a44,44,0,0,0,6.13-8.11Z" transform="translate(-25.83)"/>
  <g>
    <path class="cls-9" d="M1643,664.31c3.31,3.8,7.8,5.68,13.43,5.68a18.39,18.39,0,0,0,8.52-2.22,31.53,31.53,0,0,0,8.51-6.64,53.21,53.21,0,0,0,7.47-10.14,76.47,76.47,0,0,0,5.92-13.51,48.47,48.47,0,0,0,2.6-15.43c0-4.1-1-7.27-3-9.46a9.12,9.12,0,0,0-7-3.27q-8.74,0-17.33,9.6a58,58,0,0,0-12.39,22.44m11.48-38.68L1656,620.41c5.76-6.58,10.94-11.16,15.46-13.8a27.67,27.67,0,0,1,13.87-3.93,16,16,0,0,1,12.1,5.43c3.33,3.64,5,8.36,5,14.14,0,11.3-4.77,22.82-14.26,34.47s-20.55,17.55-33.18,17.55a26.67,26.67,0,0,1-7-.82,31.25,31.25,0,0,1-6.87-2.93l-5.92,19.89a36.15,36.15,0,0,0-1.74,7.66,4.78,4.78,0,0,0,.9,2.91,5.88,5.88,0,0,0,3,1.85c1.4.46,4.14.67,8.2.67l-.7,2.84h-37.46l.78-2.84c4.93-.21,8.25-1,10-2.47s3.54-5.43,5.43-12l20.06-67.53c1.22-4.3,1.85-7,1.85-8a4.22,4.22,0,0,0-1.24-3.25,5.32,5.32,0,0,0-3.78-1.17,49.67,49.67,0,0,0-6.43.55v-3Zm-80.08,0a32.63,32.63,0,0,1,3.71,8.39c.68,2.57,1.39,7.7,2.07,15.3l3.47,37.93c3.2-3.73,7.85-9.57,13.94-17.6q4.38-5.84,10.87-16a51.1,51.1,0,0,0,4.78-8.61,7.13,7.13,0,0,0,.49-2.55,1.88,1.88,0,0,0-.54-1.39,9.32,9.32,0,0,0-2.91-1.28,7.9,7.9,0,0,1-3.91-2.69,7.16,7.16,0,0,1-1.54-4.53,6.88,6.88,0,0,1,1.93-5.08,6.44,6.44,0,0,1,4.78-1.93,7.73,7.73,0,0,1,6,2.83c1.65,1.87,2.47,4.46,2.47,7.74,0,4.08-1.45,8.71-4.32,13.94s-8.41,13.23-16.64,24-18.11,22.59-29.68,35.35q-12,13.2-17.78,16.66t-9.93,3.42a6,6,0,0,1-4.32-1.82,5.62,5.62,0,0,1-1.88-4.19,7.45,7.45,0,0,1,2.59-5.44,7.94,7.94,0,0,1,5.58-2.45,4.85,4.85,0,0,1,2.64.68,5.29,5.29,0,0,1,1.38,2.18,7.08,7.08,0,0,0,1.39,2.43,1.37,1.37,0,0,0,1,.39,4.07,4.07,0,0,0,1.69-.8,57.86,57.86,0,0,0,10.14-8.39,130.27,130.27,0,0,0,11.28-12.62l-4.46-48.73c-.73-8.06-1.85-13-3.32-14.7s-4-2.6-7.46-2.6c-1.11,0-3.1.15-5.94.47l-.65-2.84Zm-94.11,4.75,24.43-4.75h3.08l-9.93,33.51c1.93.1,3.06.15,3.33.15q12.91,0,20.25-15.82c2.72-5.84,4.61-9.67,5.73-11.49a13.92,13.92,0,0,1,4.39-4.52,11.11,11.11,0,0,1,6.28-1.83,10.32,10.32,0,0,1,7.21,2.64,8.12,8.12,0,0,1,3,6.19,7.09,7.09,0,0,1-2.06,5.16,6.53,6.53,0,0,1-4.78,2.14c-2.23,0-4.24-1.27-6-3.79-1.22-1.79-2.31-2.69-3.26-2.69q-2.27,0-5.43,7-6.36,15.08-14.4,18.22a16.16,16.16,0,0,1,6,5.28q2.55,3.62,10.11,17.32c2.21,4.21,4.34,6.77,6.35,7.64a24.53,24.53,0,0,0,7.25,1.77l-1,3h-19.07A252.43,252.43,0,0,0,1516.69,650q-4.87-8.07-7-9.19a13,13,0,0,0-6-1.17l-9.77,32.87h-11.93l15.51-52.13a27.54,27.54,0,0,0,1.49-6.81c0-2.74-1.87-4.08-5.65-4.08a48.68,48.68,0,0,0-6.19.61Zm-80.07,0,24.37-4.75h2.84l-9.62,32.4h27.57l9.1-30.64h12.09l-16,54a34.84,34.84,0,0,0-1.27,5.37,1.28,1.28,0,0,0,1.44,1.45c1.92,0,5.12-3.37,9.63-10.07l2.77,1.41q-11.51,17.68-20.52,17.7c-3.77,0-5.68-2.37-5.68-7.12q0-3.49,3-13.69l4.36-14.58h-27.6l-10,33.65h-12l15.28-51.32a38.24,38.24,0,0,0,1.72-7.45c0-2.8-1.74-4.17-5.21-4.17-.85,0-2.91.16-6.26.53Zm-28,13.9c0-4.78-1.22-8.47-3.64-11a12.29,12.29,0,0,0-9.37-3.83q-11.77,0-21.61,16.3t-9.85,32.38c0,4.88,1.27,8.67,3.82,11.34a12.85,12.85,0,0,0,9.67,4q11.25,0,21.13-16.21T1379,621.33Zm13,5.48a48.69,48.69,0,0,1-24,40.82q-11.28,6.63-21.93,6.64c-7.29,0-13.21-2.23-17.78-6.74s-6.88-10.33-6.88-17.46c0-7.53,2.27-15.13,6.74-22.73a50,50,0,0,1,18-18c7.52-4.41,14.77-6.64,21.76-6.64s12.77,2.25,17.31,6.73S1392.05,619.68,1392.05,626.81Zm-137.21-19.38,24.43-4.75h3.08l-9.94,33.51c1.94.1,3.06.15,3.33.15q12.91,0,20.25-15.82c2.73-5.84,4.61-9.67,5.74-11.49a13.82,13.82,0,0,1,4.39-4.52,11.07,11.07,0,0,1,6.27-1.83,10.36,10.36,0,0,1,7.22,2.64,8.11,8.11,0,0,1,2.94,6.19,7.06,7.06,0,0,1-2.07,5.16,6.46,6.46,0,0,1-4.77,2.14c-2.23,0-4.24-1.27-6-3.79-1.22-1.79-2.31-2.69-3.27-2.69q-2.27,0-5.42,7-6.36,15.08-14.4,18.22a16.32,16.32,0,0,1,6,5.28q2.55,3.62,10.09,17.32c2.22,4.21,4.35,6.77,6.36,7.64a24.53,24.53,0,0,0,7.25,1.77l-1,3h-19q-7-14.49-11.9-22.51t-7-9.19a13,13,0,0,0-6.06-1.17l-9.78,32.87h-11.91l15.5-52.13a27.7,27.7,0,0,0,1.5-6.81c0-2.74-1.87-4.08-5.65-4.08a48.36,48.36,0,0,0-6.19.61Zm-52.83-3-14.13,46.65c-2.11,7-3.18,11.3-3.18,12.88,0,1.4.53,2.08,1.55,2.08a4.37,4.37,0,0,0,2.53-1.31c1-.87,3.15-4,6.47-9.41l2.38,1.77q-10.12,17.17-19.52,17.17a5.38,5.38,0,0,1-3.91-1.6,6.19,6.19,0,0,1-1.6-4.51q0-5.13,8.27-31.65-23.32,37.74-39.74,37.76a9,9,0,0,1-6.84-2.59,9.2,9.2,0,0,1-2.42-6.46c0-3.56,1.39-9.33,4.13-17.31l8.14-23.84c2-5.77,3-9.18,3-10.26,0-1.75-1-2.64-2.83-2.64-2.36,0-6.52,3.24-12.52,9.76l-2.47-1.72q11.89-16.51,23.65-16.53a6.68,6.68,0,0,1,5.16,2.17,7.81,7.81,0,0,1,2,5.64c0,2.71-1.22,7.57-3.64,14.64L1148,649.78q-3.6,10.07-3.59,12.74c0,2.16,1.27,3.24,3.77,3.24,1.93,0,4.48-1,7.63-3s7.52-6.69,13.15-14,9.54-13.32,11.86-18.1a156.91,156.91,0,0,0,7.44-20.26l1.77-5.94Zm-4.73-38.56H1201q-9.21,20.07-26.13,20.06c-5.17,0-9.5-1.24-12.88-3.74s-5.14-5.5-5.14-9.09a7.63,7.63,0,0,1,1.79-5.12,6,6,0,0,1,4.78-2.11,6.72,6.72,0,0,1,4.56,1.55,19,19,0,0,1,3.86,5.63c2,4.07,4.93,6.1,8.81,6.1,3.55,0,6.88-1.45,10-4.38A26.3,26.3,0,0,0,1197.28,565.88Zm-75.59,38.56-14.53,46.79c-2.14,6.94-3.23,11.35-3.23,13.17a3.47,3.47,0,0,0,.39,1.87,1.22,1.22,0,0,0,1.06.58,3.65,3.65,0,0,0,2.31-1.09c.8-.71,2.93-3.85,6.3-9.38l2.38,1.77c-3.69,6.21-7.44,10.69-11.3,13.46a13,13,0,0,1-7.38,2.66,5.58,5.58,0,0,1-4.31-1.69,6,6,0,0,1-1.61-4.34,31.79,31.79,0,0,1,1-6.91c1-3.52,3.46-11.69,7.53-24.43q-14,21.44-23.49,29.42t-17.44,7.95a8.8,8.8,0,0,1-6.31-2.46,7.94,7.94,0,0,1-2.62-6.15q0-5.77,4.19-17.75l8.28-23.84q3-8.57,3-10.67a2,2,0,0,0-.81-1.56,2.82,2.82,0,0,0-1.74-.67,8,8,0,0,0-4,1.16c-1.33.79-4.34,3.64-9,8.6l-2.48-1.72q6.48-9,13.71-13.21c3.7-2.19,7.1-3.32,10.2-3.32a6.79,6.79,0,0,1,5.2,2.2,7.85,7.85,0,0,1,2,5.58c0,2.74-1.22,7.66-3.69,14.72l-8.69,24.62c-2.39,6.69-3.59,10.94-3.59,12.72a2.92,2.92,0,0,0,1,2.35,4,4,0,0,0,2.74.89c1.82,0,4.19-.84,7.12-2.55s6.82-5.48,11.67-11.32a150.64,150.64,0,0,0,12.06-16.49q4.72-7.7,10-24.5l1.92-6.46Zm-146.7,3,24.46-4.75h3.06l-9.94,33.51c2,.1,3.07.15,3.34.15q12.92,0,20.25-15.82c2.72-5.84,4.62-9.67,5.73-11.49a13.79,13.79,0,0,1,4.41-4.52,11,11,0,0,1,6.26-1.83,10.42,10.42,0,0,1,7.23,2.64,8.08,8.08,0,0,1,2.92,6.19,7.12,7.12,0,0,1-2,5.16,6.53,6.53,0,0,1-4.79,2.14c-2.23,0-4.23-1.27-6-3.79-1.22-1.79-2.31-2.69-3.26-2.69-1.52,0-3.31,2.32-5.43,7q-6.36,15.08-14.38,18.22a16.19,16.19,0,0,1,6,5.28q2.58,3.62,10.1,17.32c2.23,4.21,4.34,6.77,6.35,7.64a24.61,24.61,0,0,0,7.25,1.77l-1,3h-19q-7-14.49-11.9-22.51t-7-9.19a13,13,0,0,0-6.06-1.17l-9.76,32.87H969.84l15.5-52.13a27.22,27.22,0,0,0,1.5-6.81c0-2.74-1.88-4.08-5.65-4.08a49.11,49.11,0,0,0-6.2.61ZM957.66,655.6c-5.55,6.41-11.11,11.14-16.76,14.14a37,37,0,0,1-17.83,4.53c-7.56,0-13.44-2.06-17.68-6.16s-6.33-9.63-6.33-16.58a44.79,44.79,0,0,1,6.82-23.19,54.18,54.18,0,0,1,18.33-18.51q11.47-7.14,22.56-7.15c5.8,0,10.12,1.18,13,3.51a10.76,10.76,0,0,1,4.29,8.61,11.82,11.82,0,0,1-3,8.16,6.75,6.75,0,0,1-5.44,2.64,5.7,5.7,0,0,1-4.08-1.55,5,5,0,0,1-1.64-3.84,6.23,6.23,0,0,1,.61-2.72,10.79,10.79,0,0,1,2.44-2.94,11.82,11.82,0,0,0,2.26-2.5,3.56,3.56,0,0,0,.41-1.64,3.21,3.21,0,0,0-1.53-2.69,12,12,0,0,0-6.6-1.55c-5.26,0-10.45,1.75-15.61,5.31a43.65,43.65,0,0,0-13.16,15.09c-4.41,7.92-6.61,15.81-6.61,23.74,0,5.24,1.55,9.37,4.68,12.42s7.32,4.59,12.69,4.59a27.63,27.63,0,0,0,12.26-3q6.06-3,13.63-10.75Zm-67.07-51.16-14.11,46.65Q873.3,661.61,873.3,664c0,1.4.51,2.08,1.55,2.08a4.38,4.38,0,0,0,2.52-1.31c1-.87,3.14-4,6.46-9.41l2.4,1.77q-10.15,17.17-19.53,17.17a5.38,5.38,0,0,1-3.91-1.6,6.15,6.15,0,0,1-1.6-4.51q0-5.13,8.28-31.65-23.33,37.74-39.74,37.76a9,9,0,0,1-6.84-2.59,9.2,9.2,0,0,1-2.42-6.46q0-5.34,4.12-17.31l8.15-23.84c2-5.77,3-9.18,3-10.26,0-1.75-1-2.64-2.83-2.64-2.36,0-6.51,3.24-12.5,9.76l-2.48-1.72q11.88-16.51,23.65-16.53a6.64,6.64,0,0,1,5.15,2.17,7.82,7.82,0,0,1,2,5.64c0,2.71-1.23,7.57-3.65,14.64l-8.59,24.65Q833,659.85,833,662.52c0,2.16,1.27,3.24,3.77,3.24,1.93,0,4.48-1,7.63-3s7.52-6.69,13.13-14,9.57-13.32,11.88-18.1a158.64,158.64,0,0,0,7.43-20.26l1.78-5.94Zm-4.72-38.56h3.75Q880.41,586,863.5,585.94c-5.19,0-9.51-1.24-12.9-3.74s-5.14-5.5-5.14-9.09a7.54,7.54,0,0,1,1.81-5.12,6,6,0,0,1,4.78-2.11,6.72,6.72,0,0,1,4.56,1.55,18.67,18.67,0,0,1,3.85,5.63q3,6.11,8.83,6.1c3.51,0,6.87-1.45,10-4.38A26.12,26.12,0,0,0,885.87,565.88Zm-75.59,38.56-14.51,46.79c-2.15,6.94-3.24,11.35-3.24,13.17a3.39,3.39,0,0,0,.38,1.87,1.24,1.24,0,0,0,1.05.58,3.56,3.56,0,0,0,2.31-1.09c.82-.71,2.93-3.85,6.3-9.38l2.4,1.77q-5.54,9.32-11.3,13.46a13,13,0,0,1-7.38,2.66,5.58,5.58,0,0,1-4.32-1.69,6,6,0,0,1-1.6-4.34,31.79,31.79,0,0,1,1-6.91c.94-3.52,3.44-11.69,7.53-24.43q-14.07,21.44-23.5,29.42T748,674.27a8.8,8.8,0,0,1-6.32-2.46,8,8,0,0,1-2.61-6.15c0-3.85,1.38-9.77,4.19-17.75l8.27-23.84c2-5.71,3-9.27,3-10.67a2,2,0,0,0-.82-1.56,2.73,2.73,0,0,0-1.73-.67,8,8,0,0,0-4,1.16c-1.35.79-4.36,3.64-9,8.6l-2.47-1.72q6.48-9,13.71-13.21c3.7-2.19,7.08-3.32,10.18-3.32a6.82,6.82,0,0,1,5.22,2.2,7.88,7.88,0,0,1,2,5.58c0,2.74-1.23,7.66-3.7,14.72l-8.67,24.62c-2.4,6.69-3.59,10.94-3.59,12.72a2.86,2.86,0,0,0,1,2.35,4,4,0,0,0,2.74.89c1.83,0,4.19-.84,7.12-2.55s6.8-5.48,11.67-11.32a147.68,147.68,0,0,0,12-16.49q4.76-7.7,10-24.5l1.94-6.46ZM722.45,655.6c-5.53,6.41-11.09,11.14-16.74,14.14a37.06,37.06,0,0,1-17.85,4.53q-11.31,0-17.66-6.16t-6.33-16.58a45,45,0,0,1,6.8-23.19A54.42,54.42,0,0,1,689,609.83q11.46-7.14,22.56-7.15c5.8,0,10.12,1.18,13,3.51a10.82,10.82,0,0,1,4.29,8.61,11.82,11.82,0,0,1-3,8.16,6.76,6.76,0,0,1-5.46,2.64,5.65,5.65,0,0,1-4.06-1.55,5,5,0,0,1-1.64-3.84,6.22,6.22,0,0,1,.59-2.72,11.34,11.34,0,0,1,2.46-2.94,11.82,11.82,0,0,0,2.24-2.5,3.56,3.56,0,0,0,.41-1.64,3.19,3.19,0,0,0-1.51-2.69,12,12,0,0,0-6.61-1.55c-5.27,0-10.44,1.75-15.61,5.31a43.53,43.53,0,0,0-13.15,15.09c-4.41,7.92-6.61,15.81-6.61,23.74,0,5.24,1.55,9.37,4.66,12.42s7.34,4.59,12.71,4.59a27.66,27.66,0,0,0,12.26-3q6.06-3,13.62-10.75Zm-72.3,0q-8.28,9.61-16.74,14.14a37.08,37.08,0,0,1-17.85,4.53q-11.31,0-17.68-6.16t-6.31-16.58c0-7.86,2.29-15.58,6.81-23.19a54.36,54.36,0,0,1,18.33-18.51q11.47-7.14,22.55-7.15c5.82,0,10.13,1.18,13,3.51a10.82,10.82,0,0,1,4.29,8.61,11.86,11.86,0,0,1-3,8.16,6.81,6.81,0,0,1-5.46,2.64,5.72,5.72,0,0,1-4.09-1.55,5.09,5.09,0,0,1-1.61-3.84,6.08,6.08,0,0,1,.59-2.72,11.31,11.31,0,0,1,2.43-2.94,11.68,11.68,0,0,0,2.27-2.5,3.56,3.56,0,0,0,.41-1.64,3.18,3.18,0,0,0-1.54-2.69,11.85,11.85,0,0,0-6.58-1.55c-5.28,0-10.46,1.75-15.62,5.31a43.88,43.88,0,0,0-13.17,15.09,48.52,48.52,0,0,0-6.58,23.74c0,5.24,1.53,9.37,4.66,12.42s7.33,4.59,12.71,4.59a27.51,27.51,0,0,0,12.23-3q6.07-3,13.63-10.75Zm-82.21-34.27c0-4.78-1.21-8.47-3.62-11a12.32,12.32,0,0,0-9.38-3.83q-11.76,0-21.61,16.3t-9.85,32.38c0,4.88,1.28,8.67,3.83,11.34a12.81,12.81,0,0,0,9.66,4q11.24,0,21.12-16.21T567.94,621.33Zm13,5.48A48.77,48.77,0,0,1,557,667.63q-11.28,6.63-21.93,6.64c-7.28,0-13.2-2.23-17.8-6.74s-6.85-10.33-6.85-17.46c0-7.53,2.25-15.13,6.72-22.73a50.17,50.17,0,0,1,18-18c7.52-4.41,14.77-6.64,21.78-6.64s12.76,2.25,17.29,6.73S581,619.68,581,626.81Zm-139.14,37.5c3.32,3.8,7.79,5.68,13.44,5.68a18.35,18.35,0,0,0,8.52-2.22,31.53,31.53,0,0,0,8.51-6.64A52.79,52.79,0,0,0,479.77,651a76.47,76.47,0,0,0,5.92-13.51,48.47,48.47,0,0,0,2.6-15.43c0-4.1-1-7.27-3-9.46a9.11,9.11,0,0,0-6.95-3.27q-8.76,0-17.34,9.6a58,58,0,0,0-12.39,22.44Zm18.31-61.63-5.28,17.73c5.78-6.58,10.94-11.16,15.48-13.8a27.62,27.62,0,0,1,13.87-3.93,15.88,15.88,0,0,1,12.08,5.43q5,5.46,5,14.14c0,11.3-4.76,22.82-14.26,34.47s-20.55,17.55-33.18,17.55a26.67,26.67,0,0,1-7-.82,31.25,31.25,0,0,1-6.87-2.93l-5.92,19.89a34.86,34.86,0,0,0-1.74,7.66,4.6,4.6,0,0,0,.91,2.91,5.85,5.85,0,0,0,3,1.85c1.4.46,4.14.67,8.21.67l-.7,2.84H406.25l.78-2.84c4.94-.21,8.25-1,10-2.47s3.52-5.43,5.43-12l20.06-67.53c1.23-4.3,1.85-7,1.85-8a4.16,4.16,0,0,0-1.26-3.25,5.2,5.2,0,0,0-3.75-1.17,50.19,50.19,0,0,0-6.46.55v-3Zm-89,37q12-1.3,19.62-4.48,10-4.26,15-10.19c3.35-3.91,5-7.69,5-11.23a6.91,6.91,0,0,0-2.15-5.27,8.72,8.72,0,0,0-6.16-2c-5.54,0-11.39,2.79-17.62,8.41S374,628.74,371.12,639.66Zm-.58,3.79a52.94,52.94,0,0,0-.49,6.35,15.36,15.36,0,0,0,5.1,11.62,17.56,17.56,0,0,0,12.42,4.8,28.66,28.66,0,0,0,11.21-2.28q5.37-2.25,16-10l1.64,2.25q-18.87,18.09-36,18.09-11.67,0-17.54-7.08A23.87,23.87,0,0,1,357,651.53q0-11.47,7.31-23.48a54.38,54.38,0,0,1,18.36-18.7,43.65,43.65,0,0,1,22.78-6.67c5.62,0,9.77,1.13,12.5,3.32a10,10,0,0,1,4,7.88c0,4.27-1.77,8.37-5.32,12.27q-7.05,7.68-20.69,12.35C390,640.64,381.48,642.28,370.54,643.45ZM344.8,655.6c-5.54,6.41-11.1,11.14-16.75,14.14a37,37,0,0,1-17.83,4.53q-11.33,0-17.68-6.16t-6.32-16.58A44.7,44.7,0,0,1,293,628.34a54.07,54.07,0,0,1,18.32-18.51q11.49-7.14,22.56-7.15c5.81,0,10.13,1.18,13,3.51a10.82,10.82,0,0,1,4.29,8.61,11.82,11.82,0,0,1-3,8.16,6.78,6.78,0,0,1-5.46,2.64,5.67,5.67,0,0,1-4.07-1.55,5,5,0,0,1-1.63-3.84,6.22,6.22,0,0,1,.59-2.72,11.26,11.26,0,0,1,2.45-2.94,12,12,0,0,0,2.25-2.5,3.56,3.56,0,0,0,.41-1.64,3.18,3.18,0,0,0-1.52-2.69,11.94,11.94,0,0,0-6.6-1.55c-5.26,0-10.45,1.75-15.6,5.31a43.47,43.47,0,0,0-13.17,15.09,48.34,48.34,0,0,0-6.6,23.74c0,5.24,1.54,9.37,4.66,12.42s7.33,4.59,12.71,4.59a27.62,27.62,0,0,0,12.25-3c4.05-2,8.57-5.56,13.63-10.75ZM207,665.76a121.07,121.07,0,0,0,13.65,1.09A36.4,36.4,0,0,0,243,659.58q9.73-7.32,9.72-19.75c0-6.38-2-11.33-6.08-14.89S236,619.6,227,619.6c-1.73,0-3.88.1-6.38.32Zm15.34-51.69c3.45.1,5.92.15,7.45.15,10.95,0,19.14-2.31,24.48-6.94a22.12,22.12,0,0,0,8-17.39q0-7.93-4.93-12.32c-3.28-2.94-8.56-4.42-15.77-4.42a38.55,38.55,0,0,0-7.34.92Zm-16.42-43.46,1.1-2.84h38.74a48.54,48.54,0,0,1,17.41,2.93q7.66,3,11.46,8.18a18.69,18.69,0,0,1,3.8,11.13c0,6-2.38,11.45-7.15,16.3s-12.48,8.44-23.24,10.77c7.13,2.37,12.39,5.5,15.72,9.43a19.34,19.34,0,0,1,5.06,12.93,29.44,29.44,0,0,1-4.12,14.92,31.08,31.08,0,0,1-10.61,11.06,48.25,48.25,0,0,1-15.64,5.8c-4.36.87-11.11,1.31-20.35,1.31H178.6l1-2.84c4.13-.11,7-.51,8.42-1.16a9,9,0,0,0,4.53-3.48c1.27-1.95,3-6.42,5.1-13.43l18.82-63.47c1.63-5.34,2.48-9.1,2.48-11.26a5.39,5.39,0,0,0-2.21-4.53c-1.46-1.1-4.23-1.66-8.3-1.66C207.56,570.7,206.72,570.68,205.91,570.61Z" transform="translate(-25.83)"/>
    <path class="cls-9" d="M1769.87,655.6c-5.54,6.41-11.1,11.14-16.75,14.14a37.08,37.08,0,0,1-17.85,4.53c-7.53,0-13.44-2.06-17.66-6.16s-6.33-9.63-6.33-16.58a44.87,44.87,0,0,1,6.81-23.19,54.42,54.42,0,0,1,18.32-18.51q11.49-7.14,22.57-7.15c5.82,0,10.12,1.18,13,3.51a10.82,10.82,0,0,1,4.29,8.61,11.82,11.82,0,0,1-3,8.16,6.8,6.8,0,0,1-5.47,2.64,5.63,5.63,0,0,1-4.06-1.55,5,5,0,0,1-1.64-3.84,6.09,6.09,0,0,1,.6-2.72,10.68,10.68,0,0,1,2.45-2.94,12,12,0,0,0,2.25-2.5,3.55,3.55,0,0,0,.4-1.64,3.17,3.17,0,0,0-1.51-2.69,12,12,0,0,0-6.6-1.55c-5.27,0-10.47,1.75-15.62,5.31a43.88,43.88,0,0,0-13.17,15.09,48.52,48.52,0,0,0-6.58,23.74c0,5.24,1.54,9.37,4.66,12.42s7.33,4.59,12.71,4.59a27.54,27.54,0,0,0,12.23-3q6.07-3,13.65-10.75" transform="translate(-25.83)"/>
    <path class="cls-11" d="M117.73,567.26H153l-.84,2.84a34,34,0,0,0-13,4.5Q133.57,578,124,588.25L96.89,615.94l7.62,27.91q1.06,4,4,12.38a25.56,25.56,0,0,0,3.69,7.62,12.15,12.15,0,0,0,4.65,3.42,25.63,25.63,0,0,0,8.5,1.42l-.85,2.85H83.59l.84-2.85c4.21-.15,7.23-1,9.08-2.38a4.78,4.78,0,0,0,2.08-4q0-2.16-2-9.46l-7.31-26.22L61.83,651.31q-7.15,7.31-8.54,9.61a5.13,5.13,0,0,0-.85,2.7,4.33,4.33,0,0,0,2.31,3.76q1.08.61,6.54,1.31l-.77,2.85H25.83l.85-2.85a26.37,26.37,0,0,0,10.69-3q6.08-3.62,16.76-14.38l30.3-30.45-8.3-30.07q-3.76-13.85-6.58-17t-9.8-3.65l.77-2.84h37.3l-.93,2.84a24.41,24.41,0,0,0-7,.65,5.79,5.79,0,0,0-2.77,2,5.11,5.11,0,0,0-1,3q0,1.85,1.85,8.62l7.07,25.68,16.38-16.3q9.69-9.69,13.31-15.61a7.21,7.21,0,0,0,1.31-3.7,3.17,3.17,0,0,0-1.46-2.76q-2.09-1.4-7.77-1.62Z" transform="translate(-25.83)"/>
  </g>
  <path class="cls-11" d="M772.43,1116.05H720.24v-2.86q39.9-34.95,52.73-54.82a35,35,0,0,0,6-19.33q0-8-4.95-13.11a17.18,17.18,0,0,0-12.84-5.06q-10.9,0-17.94,10.44l-2.7-1.24a34,34,0,0,1,11.52-15.5,27.21,27.21,0,0,1,16.39-5.53A23.29,23.29,0,0,1,792,1032.47a32.8,32.8,0,0,1-2.39,12.6q-3.72,9-13.69,20.26-15.15,17.16-40.44,39.51h26.29a19,19,0,0,0,10.44-2.63,14.69,14.69,0,0,0,5.87-7h3.1Z" transform="translate(-25.83)"/>
  <path class="cls-11" d="M851.69,1009q9.88,0,16.66,8.27t6.77,26.14a103.54,103.54,0,0,1-5,31.24,86.7,86.7,0,0,1-14.15,27.6q-7.28,9.21-15.23,13.3a23.72,23.72,0,0,1-10.75,2.32q-10.05,0-16.82-8.27t-6.77-26.22a99.21,99.21,0,0,1,6.81-35.56q8-20.88,20.34-31.71A26.87,26.87,0,0,1,851.69,1009Zm.07,4a14.93,14.93,0,0,0-9.08,3.52q-4.6,3.51-9.51,14.65a187.39,187.39,0,0,0-9.4,28.69q-5.79,23-5.8,39.12c0,5.37,1.16,9.37,3.48,12a10.82,10.82,0,0,0,8.43,4,11.38,11.38,0,0,0,8-3.09q8.9-8.36,15.24-28.54,10.27-33,10.28-53.66,0-8.58-3.48-12.64A10.49,10.49,0,0,0,851.76,1013.06Z" transform="translate(-25.83)"/>
  <path class="cls-11" d="M930.79,1116.05h-52.2v-2.86q39.9-34.95,52.74-54.82a35,35,0,0,0,5.95-19.33q0-8-4.95-13.11a17.14,17.14,0,0,0-12.83-5.06q-10.9,0-17.94,10.44l-2.71-1.24a34.13,34.13,0,0,1,11.52-15.5,27.26,27.26,0,0,1,16.4-5.53,23.29,23.29,0,0,1,23.58,23.43,32.62,32.62,0,0,1-2.4,12.6q-3.71,9-13.68,20.26-15.16,17.16-40.44,39.51h26.29a19,19,0,0,0,10.44-2.63,14.69,14.69,0,0,0,5.87-7h3.1Z" transform="translate(-25.83)"/>
  <path class="cls-12" d="M979.53,1058.13v-2.21q18.48-2.84,27.56-11,6.57-5.81,6.57-13.82a13.73,13.73,0,0,0-3.82-10,12.41,12.41,0,0,0-9.24-3.93q-8.55,0-15.19,10.61l-2.83-.84q4-8.85,10.2-13.4a22.57,22.57,0,0,1,13.62-4.54q9,0,14.59,5.38a18.16,18.16,0,0,1,5.57,13.63q0,7-5.23,13.51t-18,11.61a25.54,25.54,0,0,1,12,9.43,26.29,26.29,0,0,1,4,14.77,40.29,40.29,0,0,1-20.57,33.94,41.51,41.51,0,0,1-20.12,5.23q-9.62,0-14.58-3.36-3.29-2.29-3.29-5.35a6.18,6.18,0,0,1,1.95-4.58,6.57,6.57,0,0,1,4.77-1.91,13.62,13.62,0,0,1,4,.61,49.28,49.28,0,0,1,6,3.06,46.92,46.92,0,0,0,7.44,3.55,17.64,17.64,0,0,0,5.5.88q6.87,0,11.33-8a34.22,34.22,0,0,0,4.47-17,27.54,27.54,0,0,0-3-13,22.67,22.67,0,0,0-9.51-9.28A33.36,33.36,0,0,0,979.53,1058.13Z" transform="translate(-25.83)"/>
</svg>
