<?xml version="1.0" encoding="utf-8"?>
<!-- Generator: Adobe Illustrator 25.0.0, SVG Export Plug-In . SVG Version: 6.00 Build 0)  -->
<svg version="1.1" id="Слой_1" xmlns="http://www.w3.org/2000/svg" xmlns:xlink="http://www.w3.org/1999/xlink" x="0px" y="0px"
	 viewBox="0 0 1797.3 1215.9" style="enable-background:new 0 0 1797.3 1215.9;" xml:space="preserve">
<style type="text/css">
	.st0{fill:url(#SVGID_1_);}
	.st1{fill-rule:evenodd;clip-rule:evenodd;fill:#80A0B1;}
	.st2{fill-rule:evenodd;clip-rule:evenodd;fill:#CAD7E4;}
	.st3{fill-rule:evenodd;clip-rule:evenodd;fill:#90B0C3;}
	.st4{fill-rule:evenodd;clip-rule:evenodd;fill:#9CBBCD;}
	.st5{fill-rule:evenodd;clip-rule:evenodd;fill:#6586A0;}
	.st6{fill:none;stroke:#3E6B8A;stroke-width:1.6001;stroke-linejoin:round;}
	.st7{fill:none;stroke:#90B0C3;stroke-width:1.6001;stroke-linecap:round;}
	.st8{fill-rule:evenodd;clip-rule:evenodd;fill:#3E6B8A;}
	.st9{fill:none;}
	.st10{fill:#3F6C8B;}
</style>
<linearGradient id="SVGID_1_" gradientUnits="userSpaceOnUse" x1="221.7363" y1="230.2515" x2="884.1572" y2="230.2515" gradientTransform="matrix(0.8 0 0 -0.8 136.1059 880.8546)">
	<stop  offset="0.1145" style="stop-color:#D8D8D8"/>
	<stop  offset="0.1518" style="stop-color:#D8D8D8"/>
	<stop  offset="0.3939" style="stop-color:#E3E3E3"/>
	<stop  offset="1" style="stop-color:#FFFFFF"/>
	<stop  offset="1" style="stop-color:#FFFFFF"/>
</linearGradient>
<path class="st0" d="M373,303.8l-59.4,711.1c-0.7,8.4,4.2,16.3,11.9,19.2L795,1214.7c12.2,4.7,25.3-4.3,25.6-17.5l22.8-1000
	c0.3-12.7-11.4-22.2-23.5-19.1L387,287.1C379.3,289.1,373.7,295.8,373,303.8"/>
<path class="st1" d="M290.5,1018.7c-0.2,0-0.4,0-0.6,0c-3.8-0.3-6.6-3.7-6.3-7.5l58.8-711.1c0.3-3.8,3.6-6.7,7.4-6.4
	c3.8,0.3,6.6,3.7,6.3,7.5l-58.8,711.1C297,1016,294,1018.7,290.5,1018.7"/>
<path class="st1" d="M305.1,1021.9c-0.1,0-0.2,0-0.3,0c-1.9-0.2-3.3-1.9-3.1-3.8l59.6-722c0.2-1.9,1.8-3.4,3.7-3.2
	c1.9,0.2,3.3,1.9,3.1,3.8l-59.6,722C308.4,1020.5,306.9,1021.9,305.1,1021.9"/>
<path class="st2" d="M850,1195.3c-2.5,0-5-1.1-6.9-3.1c-2.8-2.8-4.4-7.2-4.3-11.9l17.1-976.6c0.1-8,5.1-14.3,11.2-14.3
	c1.4,0,2.8,0.3,4,1c7.6,3.8,19.1,8.7,30.1,10.5c5.6,1,9.6,7.1,9.6,14.7l-9.1,937.3c-0.1,6.3-3.2,11.9-7.7,13.8
	c-8.5,3.5-24.5,11.5-36.8,25.2C854.6,1194.7,851.9,1195.3,850,1195.3"/>
<path class="st3" d="M867.1,185.8c-8,0-14.5,7.8-14.7,17.7l-17.1,976.6c-0.1,5.7,1.8,10.9,5.3,14.4c2.6,2.7,6,4.2,9.4,4.2
	c3.6,0,7.1-1.7,9.8-4.6c11.8-13.2,27.3-20.9,35.5-24.3c5.9-2.5,9.8-9.1,9.9-16.9l9.1-937.3c0.1-9.3-5.2-16.9-12.5-18.2
	c-10.6-1.8-21.7-6.6-29.1-10.2C870.9,186.3,869,185.8,867.1,185.8 M867.1,192.8c0.8,0,1.7,0.2,2.5,0.6c8,3.9,19.7,8.9,31.1,10.9
	c3.9,0.7,6.8,5.6,6.7,11.2l-9.1,937.4c0,4.9-2.3,9.2-5.6,10.6c-8.5,3.6-25.2,11.8-38,26.1c-1.4,1.6-3,2.3-4.6,2.3
	c-4.1,0-7.8-4.8-7.7-11.5l17.1-976.6C859.5,197.4,863,192.8,867.1,192.8z"/>
<path class="st3" d="M999.4,1086.8l11.2-856.2c0-2.1-1.7-3.8-3.8-3.8l-49.1,0.2c-2.1,0-3.7,1.7-3.8,3.7l-14.3,856.2
	c0,2.1,1.7,3.8,3.8,3.8l52.2-0.2C997.7,1090.5,999.4,1088.9,999.4,1086.8"/>
<path class="st4" d="M1022.5,1034.3L1022.5,1034.3c-4.1,0-7.4-3.3-7.4-7.5l4.2-773.3c0-4.1,3.3-7.4,7.4-7.4h0c4.1,0,7.4,3.4,7.4,7.5
	l-4.2,773.3C1029.9,1031,1026.6,1034.3,1022.5,1034.3"/>
<polyline class="st5" points="1258.5,41.7 1242.3,94.8 1317.3,75.1 "/>
<polygon class="st6" points="1258.5,41.7 1242.3,94.8 1317.3,75.1 "/>
<polyline class="st5" points="1257.8,41.4 1152.4,108.5 1209,207 "/>
<polygon class="st6" points="1257.8,41.4 1152.4,108.5 1209,207 "/>
<polyline class="st5" points="1105.9,33.3 1025.2,319.3 1209,207 "/>
<polygon class="st6" points="1105.9,33.3 1025.2,319.3 1209,207 "/>
<polyline class="st5" points="1105.9,33.3 1069.9,154.1 979.3,0.8 "/>
<polygon class="st6" points="1105.9,33.3 1069.9,154.1 979.3,0.8 "/>
<polyline class="st5" points="948,269.1 1025.2,319.3 1044.4,252.9 "/>
<polygon class="st6" points="948,269.1 1025.2,319.3 1044.4,252.9 "/>
<polyline class="st5" points="939.8,327.8 1025.2,319.3 982.8,293.5 "/>
<polygon class="st6" points="939.8,327.8 1025.2,319.3 982.8,293.5 "/>
<polyline class="st5" points="942.2,497.4 991,496.8 1028.1,431.7 "/>
<polygon class="st6" points="942.2,497.4 991,496.8 1028.1,431.7 "/>
<polyline class="st5" points="1046.1,451.3 991,496.8 1028.1,431.7 "/>
<polygon class="st6" points="1046.1,451.3 991,496.8 1028.1,431.7 "/>
<polyline class="st5" points="1003.4,414.3 997.3,454.4 1028.1,431.7 "/>
<polygon class="st6" points="1003.4,414.3 997.3,454.4 1028.1,431.7 "/>
<polyline class="st5" points="1003.4,414.3 1075.7,332.4 1028.1,431.7 "/>
<polygon class="st6" points="1003.4,414.3 1075.7,332.4 1028.1,431.7 "/>
<polyline class="st5" points="1200.3,497.1 1075.7,332.4 1028.1,431.7 "/>
<polygon class="st6" points="1200.3,497.1 1075.7,332.4 1028.1,431.7 "/>
<polyline class="st5" points="1181.6,501 1046.1,451.3 1028.1,431.7 "/>
<polygon class="st6" points="1181.6,501 1046.1,451.3 1028.1,431.7 "/>
<polyline class="st5" points="1107.7,374.2 1075.7,332.4 1126.9,301.6 "/>
<polygon class="st6" points="1107.7,374.2 1075.7,332.4 1126.9,301.6 "/>
<polyline class="st5" points="1121.6,323.7 1157.6,323.1 1126.9,301.6 "/>
<polygon class="st6" points="1121.6,323.7 1157.6,323.1 1126.9,301.6 "/>
<polyline class="st5" points="1366.1,399.2 1381.2,324.9 1432.3,352.7 "/>
<polygon class="st6" points="1366.1,399.2 1381.2,324.9 1432.3,352.7 "/>
<polyline class="st5" points="1437,288.9 1381.2,324.9 1432.3,352.7 "/>
<polygon class="st6" points="1437,288.9 1381.2,324.9 1432.3,352.7 "/>
<polyline class="st5" points="1437,288.9 1467.2,306.3 1435.8,309.8 "/>
<polygon class="st6" points="1437,288.9 1467.2,306.3 1435.8,309.8 "/>
<polyline class="st5" points="1366.1,399.2 1381.2,324.9 1331.9,356.8 "/>
<polygon class="st6" points="1366.1,399.2 1381.2,324.9 1331.9,356.8 "/>
<polyline class="st5" points="1371.9,410 1323.2,457.9 1331.9,356.8 "/>
<polygon class="st6" points="1371.9,410 1323.2,457.9 1331.9,356.8 "/>
<polyline class="st5" points="1320.5,254 1381.2,324.9 1331.9,356.8 "/>
<polygon class="st6" points="1320.5,254 1381.2,324.9 1331.9,356.8 "/>
<polyline class="st5" points="1320.5,254 1236.9,246.2 1331.9,356.8 "/>
<polygon class="st6" points="1320.5,254 1236.9,246.2 1331.9,356.8 "/>
<path class="st2" d="M928.6,1156c0.9,0,1.7-0.8,1.7-1.7l11.9-935.9c0-1.6-1.3-2.9-2.9-2.8l-11.9,0.1c-1.5,0-2.8,1.3-2.8,2.8
	l-11.3,936c0,1,0.8,1.8,1.8,1.8"/>
<line class="st7" x1="869.6" y1="194.6" x2="856.8" y2="1186.1"/>
<line class="st7" x1="883.5" y1="201.2" x2="870.7" y2="1174.2"/>
<line class="st7" x1="897.5" y1="206.2" x2="884.7" y2="1163.2"/>
<path class="st8" d="M1641.2,764.9l8-27.6c-2.8-0.6-5.9-1-9.2-1c-7.8,0-13.5,1.9-17,5.6c-3.5,3.8-5.3,7.7-5.3,11.9
	c0,7.5,6.1,11.2,18.2,11.2C1637.5,765,1639.2,765,1641.2,764.9 M1663.1,732.6l-16.9,57.5c-0.5,1.7-0.7,2.9-0.7,3.5
	c0,1.6,0.7,2.4,2.2,2.4c2.7,0,6.8-3.5,12.5-10.6l2.8,1.8c-8.1,11.4-16.1,17-23.9,17c-2.4,0-4.1-0.6-5.3-1.9
	c-1.2-1.2-1.8-2.6-1.8-4.1c0-1.5,0.6-4.4,2-8.9l6-20.4c-1.5-0.2-2.6-0.2-3.2-0.2c-2.5,0-4.6,0.7-6.5,2.2c-1.9,1.4-5.2,4.8-10,10.2
	l-19.2,21.5H1582l0.8-3c2.7-0.2,5.4-1.1,8.1-2.8c2.7-1.7,6.5-5.3,11.2-10.9c9.9-11.7,16.5-17.9,19.8-18.8
	c-11.7-1.7-17.6-6.7-17.6-15c0-5.1,2.6-9.6,7.9-13.5c5.3-3.9,13.9-5.8,25.8-5.8H1663.1z M1561.5,737.5c-3.7,0-7.6,1.5-11.8,4.5
	c-5.9,4.3-11.2,10.7-15.8,19.1c-4.6,8.4-6.9,16.1-6.9,22.9c0,3.4,1,6.2,3.1,8.1c2,2,4.4,3,7,3c6.6,0,13.7-4.1,21.4-12.2
	c9.4-10.8,14-21.9,13.7-33.3c0-4.3-1-7.4-2.9-9.3C1567.4,738.5,1564.8,737.5,1561.5,737.5z M1590.9,733.8l-15.4,52.4l-1.9,7
	c-0.2,0.7-0.3,1.3-0.3,1.7c0,0.7,0.2,1.4,0.5,1.9c0.3,0.4,0.7,0.6,1.1,0.6c0.5,0,1.1-0.4,1.9-1.1c1.5-1.4,3.4-4.4,5.9-9.1l2.7,1.9
	c-3.1,5.2-6.3,9-9.6,11.5c-3.3,2.5-6.3,3.7-9.1,3.7c-1.9,0-3.4-0.5-4.5-1.7c-1.1-1.1-1.6-2.7-1.6-4.8c0-2.5,0.6-5.8,1.8-9.9l1.8-5.9
	c-7.7,8.8-14.7,14.9-21.2,18.4c-4.6,2.5-9.2,3.8-13.6,3.8c-4.3,0-8-1.5-11.1-4.6c-3.1-3-4.7-7.3-4.7-12.6c0-8,2.8-16.5,8.3-25.4
	c5.5-8.9,12.5-16.1,21-21.4c6.6-4.2,12.9-6.4,18.8-6.4c3.5,0,6.4,0.8,8.8,2.3c2.3,1.5,4.1,4,5.3,7.5l2.6-7.8L1590.9,733.8z
	 M1437.7,737.4l24.5-4.7h2.9l-9.7,32.4h27.7l9.1-30.7h12.2l-16.1,54c-0.8,3-1.3,4.8-1.3,5.4c0,1,0.5,1.5,1.4,1.5
	c1.9,0,5.2-3.4,9.7-10.1l2.8,1.4c-7.7,11.8-14.6,17.7-20.6,17.7c-3.8,0-5.7-2.4-5.7-7.1c0-2.3,1-6.9,3-13.7l4.4-14.6h-27.7l-10,33.7
	h-12.1l15.4-51.3c1.2-3.9,1.7-6.4,1.7-7.5c0-2.8-1.7-4.2-5.2-4.2c-0.8,0-2.9,0.2-6.3,0.5V737.4z M1377.5,772.3
	c-1.6,4.6-2.3,9.5-2.3,14.8c0,4.9,1.2,8.5,3.7,10.7c2.5,2.2,5.5,3.3,9.1,3.3c5,0,9.1-2,12.3-5.9c3.2-3.9,4.8-8.6,4.8-13.9
	c0-3.5-1.2-6.4-3.5-8.8c-2.3-2.3-5.3-3.5-9-3.5C1388.1,769,1383.1,770.1,1377.5,772.3z M1379,767.7c12.7-3,22-6.6,27.8-10.7
	c5.7-4.2,8.6-8.7,8.6-13.6c0-1.8-0.7-3.4-2-5c-1.3-1.5-3.4-2.3-6.1-2.3C1396.1,736.1,1386.7,746.6,1379,767.7z M1398.1,765.7
	c6.9,0.3,12.1,2,15.6,5.1c3.5,3.1,5.2,6.9,5.2,11.4c0,5.9-3,11.1-8.9,15.4c-5.9,4.4-13.2,6.5-21.7,6.5c-16.9,0-25.4-8.3-25.4-25
	c0-12.1,4.6-22.9,13.6-32.4c9.1-9.5,19.8-14.2,32.2-14.2c6.1,0,10.6,1.1,13.5,3.2c2.9,2.2,4.3,4.9,4.3,8.2
	C1426.5,752.1,1417.1,759.3,1398.1,765.7z M1354.8,734.4l-14.6,46.8c-2.2,7-3.2,11.4-3.2,13.2c0,0.8,0.1,1.5,0.4,1.9
	c0.3,0.4,0.6,0.6,1.1,0.6c0.7,0,1.5-0.3,2.3-1.1c0.8-0.7,2.9-3.8,6.3-9.4l2.4,1.8c-3.7,6.2-7.5,10.7-11.4,13.5
	c-2.6,1.8-5.1,2.7-7.4,2.7c-1.8,0-3.3-0.5-4.3-1.7c-1.1-1.1-1.6-2.6-1.6-4.3c0-1.7,0.4-4,1-6.9c1-3.5,3.5-11.7,7.6-24.4
	c-9.4,14.3-17.3,24.1-23.6,29.4c-6.3,5.3-12.2,7.9-17.5,7.9c-2.5,0-4.6-0.8-6.4-2.4c-1.7-1.6-2.6-3.7-2.6-6.2
	c0-3.8,1.4-9.8,4.2-17.7l8.3-23.8c2.1-5.7,3.1-9.3,3.1-10.7c0-0.6-0.3-1.1-0.8-1.6c-0.5-0.4-1.1-0.7-1.8-0.7c-1.3,0-2.7,0.4-4,1.2
	c-1.3,0.8-4.4,3.6-9.1,8.6l-2.5-1.7c4.3-6,8.9-10.4,13.8-13.2c3.7-2.2,7.1-3.3,10.2-3.3c2.1,0,3.9,0.7,5.2,2.2c1.4,1.4,2,3.3,2,5.6
	c0,2.7-1.2,7.7-3.7,14.7l-8.7,24.6c-2.4,6.7-3.6,10.9-3.6,12.7c0,1,0.3,1.8,1,2.3c0.7,0.6,1.6,0.9,2.8,0.9c1.8,0,4.2-0.8,7.1-2.6
	c2.9-1.7,6.9-5.5,11.7-11.3c4.9-5.9,8.9-11.3,12.1-16.5c3.2-5.1,6.5-13.3,10.1-24.5l1.9-6.5H1354.8z M1228.4,732.6h2.8
	c0.4,2.1,1.6,3.2,3.6,3.2c0.7,0,1.9-0.2,3.5-0.7c5.1-1.7,9.9-2.5,14.2-2.5c5.7,0,10.5,1.5,14.4,4.5c3.9,3,5.8,6.6,5.8,10.7
	c0,9.7-9,15.4-27.1,17.1c12.6,3.4,18.9,9.2,18.9,17.5c0,3.5-1.3,7-3.9,10.4c-2.7,3.5-6.3,6.2-11.1,8.2c-4.7,2.1-10,3.1-15.7,3.1
	c-11.6,0-20.2-4.8-25.8-14.4l2.7-1.1c1.7,2.6,4.3,4.9,7.8,6.9c3.5,2,7.3,2.9,11.2,2.9c6,0,11.1-1.9,15.3-5.7
	c4.2-3.8,6.3-8.1,6.3-13.2c0-4-1.6-7.2-4.6-9.9c-3.1-2.6-7.6-3.9-13.4-3.9c-0.5,0-1.3,0-2.3,0.1l0.9-3.5c9.6,0,16.6-1.3,21-4.1
	c4.5-2.7,6.7-6.5,6.7-11.3c0-2.9-1-5.4-3.1-7.3c-2.1-1.9-5-2.9-8.7-2.9c-9.9,0-17.3,5.1-22.2,15.3h-3.1L1228.4,732.6z M1192.9,752.5
	c0-10.6-4.4-15.9-13.2-15.9c-7.8,0-15,5.4-21.6,16.2c-6.6,10.8-10,21.5-10,32.2c0,5,1.3,8.8,3.8,11.5c2.5,2.7,5.8,4,9.9,4
	c7.6,0,14.7-5.6,21.2-16.6C1189.6,772.9,1192.9,762.4,1192.9,752.5z M1138,765c3.9-9.6,10-17.4,18.4-23.4c8.3-6,16.8-9,25.4-9
	c7.1,0,12.9,2.3,17.5,6.8c4.5,4.5,6.7,10.4,6.7,17.6c0,12.1-4.8,23-14.3,32.7c-9.5,9.7-20.2,14.5-32.1,14.5
	c-7.6,0-13.5-2.4-17.9-7.2c-4.4-4.8-6.6-10.3-6.6-16.4c0-2.9,0.5-6.8,1.7-11.8h-14.7l-10,33.7h-12l16.4-54.6c0.6-2,0.9-3.4,0.9-4.3
	c0-2.5-1.9-3.8-5.7-3.8c-2,0-4,0.2-6.1,0.5v-2.7l24.9-4.9h2.5l-9.6,32.4H1138z M1044.5,734.4h46.6l-15.6,52.3
	c-1.1,4-1.8,6.5-1.8,7.6c0,1.4,0.7,2.1,1.9,2.1c1.1,0,2.3-0.7,3.6-2.2c1.3-1.4,3.2-4.1,5.7-8.1l2.8,1.7c-3.9,5.7-7.5,9.9-10.5,12.5
	c-3.1,2.7-6.3,4-9.8,4c-4.2,0-6.3-2.2-6.3-6.7c0-2.3,1.1-7,3.2-14.1l13.2-44.4h-10c-4.1,0-6.6,0.2-7.6,0.7c-1,0.4-1.9,1.6-2.8,3.4
	c-0.8,1.8-2.2,6.2-4.1,13.3c-5.6,20.1-10.3,33.2-14.1,39c-3.8,5.9-8.1,8.8-13,8.8c-5.3,0-7.9-2-7.9-5.9c0-1.6,0.5-3,1.6-4.2
	c1-1.1,2.4-1.7,4.1-1.7c1.6,0,3.3,0.7,5,2c1.1,0.9,2.1,1.3,3,1.3c1.6,0,3.3-1.3,5.2-4c1.9-2.6,4.9-10.9,9-24.8
	c4.2-13.9,6.2-21.8,6.2-23.9c0-3.3-2.8-5.2-8.4-5.6L1044.5,734.4z M953.4,737.4l24.6-4.7h3.1l-10,33.5c2,0.1,3.1,0.2,3.3,0.2
	c8.7,0,15.4-5.3,20.4-15.8c2.7-5.8,4.6-9.7,5.7-11.5c1.1-1.8,2.6-3.4,4.4-4.5c1.8-1.2,3.9-1.8,6.3-1.8c2.9,0,5.3,0.9,7.2,2.6
	c2,1.8,2.9,3.8,2.9,6.2c0,2-0.7,3.7-2.1,5.2c-1.4,1.4-3,2.1-4.8,2.1c-2.2,0-4.3-1.3-6-3.8c-1.2-1.8-2.3-2.7-3.3-2.7
	c-1.5,0-3.3,2.3-5.5,7c-4.3,10.1-9.1,16.1-14.5,18.2c2.3,1.1,4.3,2.9,6,5.3c1.7,2.4,5.1,8.2,10.1,17.3c2.2,4.2,4.4,6.8,6.4,7.6
	c2,0.9,4.4,1.5,7.3,1.8l-1,3h-19.2c-4.7-9.7-8.6-17.2-11.9-22.5c-3.3-5.4-5.6-8.4-7-9.2c-1.4-0.8-3.5-1.2-6.1-1.2l-9.8,32.9h-12
	l15.6-52.1c1-3.2,1.5-5.5,1.5-6.8c0-2.7-1.9-4.1-5.7-4.1c-1.2,0-3.2,0.2-6.2,0.6V737.4z M872.9,737.4l24.5-4.7h2.9l-9.7,32.4h27.7
	l9.1-30.7h12.2l-16.1,54c-0.9,3-1.3,4.8-1.3,5.4c0,1,0.5,1.5,1.4,1.5c1.9,0,5.2-3.4,9.7-10.1l2.8,1.4c-7.7,11.8-14.6,17.7-20.6,17.7
	c-3.8,0-5.7-2.4-5.7-7.1c0-2.3,1-6.9,3-13.7l4.4-14.6h-27.7l-10.1,33.7h-12.1l15.4-51.3c1.1-3.9,1.7-6.4,1.7-7.5
	c0-2.8-1.8-4.2-5.2-4.2c-0.8,0-2.9,0.2-6.3,0.5V737.4z M861.2,734.4l-14.6,46.8c-2.2,7-3.2,11.4-3.2,13.2c0,0.8,0.1,1.5,0.4,1.9
	c0.3,0.4,0.6,0.6,1.1,0.6c0.7,0,1.5-0.3,2.3-1.1c0.8-0.7,2.9-3.8,6.3-9.4l2.4,1.8c-3.7,6.2-7.5,10.7-11.4,13.5
	c-2.5,1.8-5,2.7-7.4,2.7c-1.8,0-3.3-0.5-4.3-1.7c-1.1-1.1-1.6-2.6-1.6-4.3c0-1.7,0.4-4,1-6.9c1-3.5,3.5-11.7,7.6-24.4
	c-9.4,14.3-17.3,24.1-23.6,29.4c-6.3,5.3-12.2,7.9-17.5,7.9c-2.5,0-4.6-0.8-6.4-2.4c-1.8-1.6-2.6-3.7-2.6-6.2
	c0-3.8,1.4-9.8,4.2-17.7l8.3-23.8c2-5.7,3.1-9.3,3.1-10.7c0-0.6-0.3-1.1-0.8-1.6c-0.5-0.4-1.1-0.7-1.8-0.7c-1.3,0-2.7,0.4-4,1.2
	c-1.3,0.8-4.4,3.6-9.1,8.6l-2.5-1.7c4.3-6,8.9-10.4,13.8-13.2c3.7-2.2,7.1-3.3,10.2-3.3c2.1,0,3.9,0.7,5.2,2.2c1.4,1.4,2,3.3,2,5.6
	c0,2.7-1.2,7.7-3.7,14.7l-8.7,24.6c-2.4,6.7-3.6,10.9-3.6,12.7c0,1,0.3,1.8,1,2.3c0.7,0.6,1.6,0.9,2.8,0.9c1.8,0,4.2-0.8,7.1-2.6
	c2.9-1.7,6.8-5.5,11.7-11.3c4.9-5.9,8.9-11.3,12.1-16.5c3.2-5.1,6.5-13.3,10.1-24.5l1.9-6.5H861.2z M714.5,764.9l8-27.6
	c-2.8-0.6-5.9-1-9.2-1c-7.8,0-13.5,1.9-17,5.6c-3.5,3.8-5.3,7.7-5.3,11.9c0,7.5,6.1,11.2,18.2,11.2C710.8,765,712.5,765,714.5,764.9
	z M736.4,732.6l-16.9,57.5c-0.5,1.7-0.7,2.9-0.7,3.5c0,1.6,0.7,2.4,2.2,2.4c2.6,0,6.8-3.5,12.5-10.6l2.8,1.8
	c-8.1,11.4-16.1,17-23.9,17c-2.4,0-4.1-0.6-5.3-1.9c-1.2-1.2-1.8-2.6-1.8-4.1c0-1.5,0.7-4.4,2-8.9l6-20.4c-1.5-0.2-2.6-0.2-3.2-0.2
	c-2.5,0-4.6,0.7-6.5,2.2c-1.9,1.4-5.2,4.8-10,10.2l-19.2,21.5h-19.1l0.8-3c2.7-0.2,5.4-1.1,8.1-2.8c2.7-1.7,6.4-5.3,11.2-10.9
	c9.9-11.7,16.5-17.9,19.8-18.8c-11.7-1.7-17.6-6.7-17.6-15c0-5.1,2.7-9.6,7.9-13.5c5.3-3.9,13.9-5.8,25.8-5.8H736.4z M634.7,737.5
	c-3.7,0-7.6,1.5-11.8,4.5c-5.9,4.3-11.2,10.7-15.8,19.1c-4.6,8.4-6.9,16.1-6.9,22.9c0,3.4,1,6.2,3.1,8.1c2.1,2,4.4,3,7,3
	c6.6,0,13.7-4.1,21.4-12.2c9.4-10.8,14-21.9,13.7-33.3c0-4.3-1-7.4-2.9-9.3C640.6,738.5,638,737.5,634.7,737.5z M664.2,733.8
	l-15.4,52.4l-1.9,7c-0.2,0.7-0.3,1.3-0.3,1.7c0,0.7,0.2,1.4,0.5,1.9c0.3,0.4,0.7,0.6,1.2,0.6c0.5,0,1.1-0.4,1.9-1.1
	c1.5-1.4,3.4-4.4,5.9-9.1l2.7,1.9c-3.1,5.2-6.3,9-9.6,11.5c-3.3,2.5-6.3,3.7-9.1,3.7c-1.9,0-3.4-0.5-4.5-1.7
	c-1.1-1.1-1.6-2.7-1.6-4.8c0-2.5,0.6-5.8,1.8-9.9l1.8-5.9c-7.7,8.8-14.7,14.9-21.2,18.4c-4.6,2.5-9.2,3.8-13.6,3.8
	c-4.3,0-8-1.5-11-4.6c-3.1-3-4.7-7.3-4.7-12.6c0-8,2.8-16.5,8.3-25.4c5.5-8.9,12.5-16.1,21-21.4c6.6-4.2,12.9-6.4,18.8-6.4
	c3.5,0,6.4,0.8,8.8,2.3c2.3,1.5,4.1,4,5.3,7.5l2.6-7.8L664.2,733.8z M577.3,787.7c-7.6,11-15.1,16.5-22.5,16.5
	c-4.3,0-6.4-2.2-6.4-6.7c0-3.8,3-14.1,8.9-30.9c-15.2,25.1-28.6,37.6-40,37.6c-2.5,0-4.5-0.8-6-2.6c-1.5-1.7-2.3-4-2.3-6.9
	c0-4.8,2.6-14.2,8-28.2c-15.3,25.1-28.8,37.6-40.5,37.6c-3,0-5.2-1-6.5-2.9c-1.4-1.9-2.1-4.1-2.1-6.5c0-4.4,3-14.8,9.2-31.4
	c4-11.1,6-17.6,6-19.6c0-1.8-0.8-2.7-2.5-2.7c-2.7,0-7,3.3-13,9.9l-2.7-1.7c6.1-7.3,10.9-11.9,14.3-13.8c3.4-1.9,6.6-2.9,9.6-2.9
	c4.9,0,7.3,2.8,7.3,8.6c0,2-0.5,4.4-1.4,7.1c-0.9,2.7-4.8,13.9-11.7,33.5c-1.7,4.9-2.5,8.1-2.5,9.7c0,2.6,1.3,3.9,3.8,3.9
	c4,0,10.3-5.1,18.9-15.1c8.6-10.1,15.6-22.7,21-38l2.8-7.8h12.1L523,783.6c-1.4,4.2-2.1,7-2.1,8.4c0,2.5,1.2,3.8,3.7,3.8
	c2.2,0,4.8-1,7.8-3.1c3-2.1,7.2-6.7,12.7-14.1c5.4-7.3,9.7-14.1,12.9-20.3c3.2-6.1,6.2-14.2,9.3-24h12.2l-16.6,51.1
	c-1.3,3.9-1.9,6.7-1.9,8.3c0,1.8,0.8,2.7,2.5,2.7c1.1,0,2.8-1,5.1-3.1c2.3-2.1,4.4-4.5,6.3-7.4L577.3,787.7z M389.3,736.9l22.6-4.3
	h3l-7.7,26.2c-1.1,3.7-1.7,6.1-1.7,7.2c0,4.3,3.1,6.4,9.4,6.4c5.1,0,10.9-2.1,17.4-6.2l9.5-31.9h12.3l-16.2,54.4
	c-0.9,3-1.3,4.9-1.3,5.5c0,1.3,0.5,1.9,1.6,1.9c1.7,0,4.9-3.4,9.6-10.1l2.6,1.6c-8.3,11.1-15,16.6-20.3,16.6c-3.9,0-5.9-2.2-5.9-6.6
	c0-2.7,0.9-7,2.6-12.9l4.1-13.6c-6.9,4.5-13.7,6.8-20.6,6.8c-4.5,0-8.4-1.1-11.7-3.4c-3.3-2.3-4.9-5.1-4.9-8.6
	c0-2.1,0.6-5.1,1.8-9.1l2.2-7.1c0.8-2.8,1.3-4.9,1.3-6.2c0-2.8-1.8-4.2-5.4-4.2c-1.6,0-3.3,0.1-5.1,0.4L389.3,736.9z M335,732.6
	c1.8,3,3,5.8,3.7,8.4c0.7,2.6,1.4,7.7,2.1,15.3l3.5,37.9c3.2-3.7,7.9-9.6,14-17.6c2.9-3.9,6.6-9.2,10.9-16c2.6-4.1,4.2-7,4.8-8.6
	c0.3-0.8,0.5-1.7,0.5-2.5c0-0.6-0.2-1-0.5-1.4c-0.4-0.3-1.4-0.8-2.9-1.3c-1.6-0.5-2.9-1.4-3.9-2.7c-1-1.3-1.6-2.8-1.6-4.5
	c0-2.1,0.7-3.8,1.9-5.1c1.3-1.3,2.9-1.9,4.8-1.9c2.3,0,4.3,0.9,6,2.8c1.7,1.9,2.5,4.5,2.5,7.7c0,4.1-1.4,8.7-4.3,13.9
	c-2.9,5.2-8.5,13.3-16.7,24c-8.2,10.8-18.2,22.6-29.8,35.4c-8,8.8-14,14.3-17.9,16.6c-3.9,2.3-7.2,3.4-10,3.4
	c-1.7,0-3.1-0.6-4.3-1.8c-1.3-1.2-1.9-2.6-1.9-4.2c0-2,0.9-3.8,2.6-5.4c1.7-1.6,3.6-2.5,5.6-2.5c1.1,0,1.9,0.2,2.6,0.7
	c0.4,0.3,0.9,1,1.4,2.2c0.5,1.2,0.9,2,1.4,2.4c0.3,0.3,0.6,0.4,1,0.4c0.3,0,0.9-0.3,1.7-0.8c2.9-1.8,6.3-4.6,10.2-8.4
	c5.1-5.1,8.8-9.3,11.3-12.6l-4.5-48.7c-0.7-8.1-1.9-12.9-3.3-14.7c-1.5-1.7-4-2.6-7.5-2.6c-1.1,0-3.1,0.2-6,0.5l-0.7-2.8L335,732.6z
	 M236.2,697.7h85.9l-0.8,2.8c-4.6,0.1-8.3,1-10.8,2.8c-2.6,1.7-5.1,6.7-7.5,14.8L284.7,780c-1.9,6.4-2.9,10.8-2.9,13.2
	c0,4,4,6.1,12.1,6.4l-1,2.8h-41.3l1-2.8c5.5-0.3,9.1-1.4,11.1-3.4c1.9-2,4.1-7.1,6.6-15.3l23.3-77.9h-38.3
	c-2,11.1-6.5,27.7-13.7,49.9c-7.1,22.2-12.9,36.2-17.3,42c-4.4,5.8-9.6,8.7-15.6,8.7c-4.8,0-8.7-1.3-11.7-4c-3-2.6-4.5-5.7-4.5-9.2
	c0-2.1,0.7-3.9,2.3-5.3c1.5-1.5,3.4-2.2,5.6-2.2c4.6,0,7.6,3,8.8,9c0.7,3.2,1.9,4.9,3.6,4.9c2.6,0,5.4-2.4,8.6-7.2
	c3.2-4.8,8.3-18.5,15.5-41.1c7.1-22.6,10.7-36.2,10.7-41c0-2.4-0.7-4.1-2.1-5.1c-1.4-1.1-4.7-1.7-9.8-2L236.2,697.7z M194.7,731.5
	l-26.9,36.8l8.8,36.5h-3.4l-19.6-36.5l36.9-36.8H194.7z M164.6,731.5l-27.1,36.8l8.6,36.5h-3.4l-19.7-36.5l37.4-36.8H164.6z"/>
<path class="st9" d="M1641.2,764.9l8-27.6c-2.8-0.6-5.9-1-9.2-1c-7.8,0-13.5,1.9-17,5.6c-3.5,3.8-5.3,7.7-5.3,11.9
	c0,7.5,6.1,11.2,18.2,11.2C1637.5,765,1639.2,765,1641.2,764.9z M1663.1,732.6l-16.9,57.5c-0.5,1.7-0.7,2.9-0.7,3.5
	c0,1.6,0.7,2.4,2.2,2.4c2.7,0,6.8-3.5,12.5-10.6l2.8,1.8c-8.1,11.4-16.1,17-23.9,17c-2.4,0-4.1-0.6-5.3-1.9
	c-1.2-1.2-1.8-2.6-1.8-4.1c0-1.5,0.6-4.4,2-8.9l6-20.4c-1.5-0.2-2.6-0.2-3.2-0.2c-2.5,0-4.6,0.7-6.5,2.2c-1.9,1.4-5.2,4.8-10,10.2
	l-19.2,21.5H1582l0.8-3c2.7-0.2,5.4-1.1,8.1-2.8c2.7-1.7,6.5-5.3,11.2-10.9c9.9-11.7,16.5-17.9,19.8-18.8
	c-11.7-1.7-17.6-6.7-17.6-15c0-5.1,2.6-9.6,7.9-13.5c5.3-3.9,13.9-5.8,25.8-5.8H1663.1z M1561.5,737.5c-3.7,0-7.6,1.5-11.8,4.5
	c-5.9,4.3-11.2,10.7-15.8,19.1c-4.6,8.4-6.9,16.1-6.9,22.9c0,3.4,1,6.2,3.1,8.1c2,2,4.4,3,7,3c6.6,0,13.7-4.1,21.4-12.2
	c9.4-10.8,14-21.9,13.7-33.3c0-4.3-1-7.4-2.9-9.3C1567.4,738.5,1564.8,737.5,1561.5,737.5z M1590.9,733.8l-15.4,52.4l-1.9,7
	c-0.2,0.7-0.3,1.3-0.3,1.7c0,0.7,0.2,1.4,0.5,1.9c0.3,0.4,0.7,0.6,1.1,0.6c0.5,0,1.1-0.4,1.9-1.1c1.5-1.4,3.4-4.4,5.9-9.1l2.7,1.9
	c-3.1,5.2-6.3,9-9.6,11.5c-3.3,2.5-6.3,3.7-9.1,3.7c-1.9,0-3.4-0.5-4.5-1.7c-1.1-1.1-1.6-2.7-1.6-4.8c0-2.5,0.6-5.8,1.8-9.9l1.8-5.9
	c-7.7,8.8-14.7,14.9-21.2,18.4c-4.6,2.5-9.2,3.8-13.6,3.8c-4.3,0-8-1.5-11.1-4.6c-3.1-3-4.7-7.3-4.7-12.6c0-8,2.8-16.5,8.3-25.4
	c5.5-8.9,12.5-16.1,21-21.4c6.6-4.2,12.9-6.4,18.8-6.4c3.5,0,6.4,0.8,8.8,2.3c2.3,1.5,4.1,4,5.3,7.5l2.6-7.8L1590.9,733.8z
	 M1437.7,737.4l24.5-4.7h2.9l-9.7,32.4h27.7l9.1-30.7h12.2l-16.1,54c-0.8,3-1.3,4.8-1.3,5.4c0,1,0.5,1.5,1.4,1.5
	c1.9,0,5.2-3.4,9.7-10.1l2.8,1.4c-7.7,11.8-14.6,17.7-20.6,17.7c-3.8,0-5.7-2.4-5.7-7.1c0-2.3,1-6.9,3-13.7l4.4-14.6h-27.7l-10,33.7
	h-12.1l15.4-51.3c1.2-3.9,1.7-6.4,1.7-7.5c0-2.8-1.7-4.2-5.2-4.2c-0.8,0-2.9,0.2-6.3,0.5V737.4z M1377.5,772.3
	c-1.6,4.6-2.3,9.5-2.3,14.8c0,4.9,1.2,8.5,3.7,10.7c2.5,2.2,5.5,3.3,9.1,3.3c5,0,9.1-2,12.3-5.9c3.2-3.9,4.8-8.6,4.8-13.9
	c0-3.5-1.2-6.4-3.5-8.8c-2.3-2.3-5.3-3.5-9-3.5C1388.1,769,1383.1,770.1,1377.5,772.3z M1379,767.7c12.7-3,22-6.6,27.8-10.7
	c5.7-4.2,8.6-8.7,8.6-13.6c0-1.8-0.7-3.4-2-5c-1.3-1.5-3.4-2.3-6.1-2.3C1396.1,736.1,1386.7,746.6,1379,767.7z M1398.1,765.7
	c6.9,0.3,12.1,2,15.6,5.1c3.5,3.1,5.2,6.9,5.2,11.4c0,5.9-3,11.1-8.9,15.4c-5.9,4.4-13.2,6.5-21.7,6.5c-16.9,0-25.4-8.3-25.4-25
	c0-12.1,4.6-22.9,13.6-32.4c9.1-9.5,19.8-14.2,32.2-14.2c6.1,0,10.6,1.1,13.5,3.2c2.9,2.2,4.3,4.9,4.3,8.2
	C1426.5,752.1,1417.1,759.3,1398.1,765.7z M1354.8,734.4l-14.6,46.8c-2.2,7-3.2,11.4-3.2,13.2c0,0.8,0.1,1.5,0.4,1.9
	c0.3,0.4,0.6,0.6,1.1,0.6c0.7,0,1.5-0.3,2.3-1.1c0.8-0.7,2.9-3.8,6.3-9.4l2.4,1.8c-3.7,6.2-7.5,10.7-11.4,13.5
	c-2.6,1.8-5.1,2.7-7.4,2.7c-1.8,0-3.3-0.5-4.3-1.7c-1.1-1.1-1.6-2.6-1.6-4.3c0-1.7,0.4-4,1-6.9c1-3.5,3.5-11.7,7.6-24.4
	c-9.4,14.3-17.3,24.1-23.6,29.4c-6.3,5.3-12.2,7.9-17.5,7.9c-2.5,0-4.6-0.8-6.4-2.4c-1.7-1.6-2.6-3.7-2.6-6.2
	c0-3.8,1.4-9.8,4.2-17.7l8.3-23.8c2.1-5.7,3.1-9.3,3.1-10.7c0-0.6-0.3-1.1-0.8-1.6c-0.5-0.4-1.1-0.7-1.8-0.7c-1.3,0-2.7,0.4-4,1.2
	c-1.3,0.8-4.4,3.6-9.1,8.6l-2.5-1.7c4.3-6,8.9-10.4,13.8-13.2c3.7-2.2,7.1-3.3,10.2-3.3c2.1,0,3.9,0.7,5.2,2.2c1.4,1.4,2,3.3,2,5.6
	c0,2.7-1.2,7.7-3.7,14.7l-8.7,24.6c-2.4,6.7-3.6,10.9-3.6,12.7c0,1,0.3,1.8,1,2.3c0.7,0.6,1.6,0.9,2.8,0.9c1.8,0,4.2-0.8,7.1-2.6
	c2.9-1.7,6.9-5.5,11.7-11.3c4.9-5.9,8.9-11.3,12.1-16.5c3.2-5.1,6.5-13.3,10.1-24.5l1.9-6.5H1354.8z M1228.4,732.6h2.8
	c0.4,2.1,1.6,3.2,3.6,3.2c0.7,0,1.9-0.2,3.5-0.7c5.1-1.7,9.9-2.5,14.2-2.5c5.7,0,10.5,1.5,14.4,4.5c3.9,3,5.8,6.6,5.8,10.7
	c0,9.7-9,15.4-27.1,17.1c12.6,3.4,18.9,9.2,18.9,17.5c0,3.5-1.3,7-3.9,10.4c-2.7,3.5-6.3,6.2-11.1,8.2c-4.7,2.1-10,3.1-15.7,3.1
	c-11.6,0-20.2-4.8-25.8-14.4l2.7-1.1c1.7,2.6,4.3,4.9,7.8,6.9c3.5,2,7.3,2.9,11.2,2.9c6,0,11.1-1.9,15.3-5.7
	c4.2-3.8,6.3-8.1,6.3-13.2c0-4-1.6-7.2-4.6-9.9c-3.1-2.6-7.6-3.9-13.4-3.9c-0.5,0-1.3,0-2.3,0.1l0.9-3.5c9.6,0,16.6-1.3,21-4.1
	c4.5-2.7,6.7-6.5,6.7-11.3c0-2.9-1-5.4-3.1-7.3c-2.1-1.9-5-2.9-8.7-2.9c-9.9,0-17.3,5.1-22.2,15.3h-3.1L1228.4,732.6z M1192.9,752.5
	c0-10.6-4.4-15.9-13.2-15.9c-7.8,0-15,5.4-21.6,16.2c-6.6,10.8-10,21.5-10,32.2c0,5,1.3,8.8,3.8,11.5c2.5,2.7,5.8,4,9.9,4
	c7.6,0,14.7-5.6,21.2-16.6C1189.6,772.9,1192.9,762.4,1192.9,752.5z M1138,765c3.9-9.6,10-17.4,18.4-23.4c8.3-6,16.8-9,25.4-9
	c7.1,0,12.9,2.3,17.5,6.8c4.5,4.5,6.7,10.4,6.7,17.6c0,12.1-4.8,23-14.3,32.7c-9.5,9.7-20.2,14.5-32.1,14.5
	c-7.6,0-13.5-2.4-17.9-7.2c-4.4-4.8-6.6-10.3-6.6-16.4c0-2.9,0.5-6.8,1.7-11.8h-14.7l-10,33.7h-12l16.4-54.6c0.6-2,0.9-3.4,0.9-4.3
	c0-2.5-1.9-3.8-5.7-3.8c-2,0-4,0.2-6.1,0.5v-2.7l24.9-4.9h2.5l-9.6,32.4H1138z M1044.5,734.4h46.6l-15.6,52.3
	c-1.1,4-1.8,6.5-1.8,7.6c0,1.4,0.7,2.1,1.9,2.1c1.1,0,2.3-0.7,3.6-2.2c1.3-1.4,3.2-4.1,5.7-8.1l2.8,1.7c-3.9,5.7-7.5,9.9-10.5,12.5
	c-3.1,2.7-6.3,4-9.8,4c-4.2,0-6.3-2.2-6.3-6.7c0-2.3,1.1-7,3.2-14.1l13.2-44.4h-10c-4.1,0-6.6,0.2-7.6,0.7c-1,0.4-1.9,1.6-2.8,3.4
	c-0.8,1.8-2.2,6.2-4.1,13.3c-5.6,20.1-10.3,33.2-14.1,39c-3.8,5.9-8.1,8.8-13,8.8c-5.3,0-7.9-2-7.9-5.9c0-1.6,0.5-3,1.6-4.2
	c1-1.1,2.4-1.7,4.1-1.7c1.6,0,3.3,0.7,5,2c1.1,0.9,2.1,1.3,3,1.3c1.6,0,3.3-1.3,5.2-4c1.9-2.6,4.9-10.9,9-24.8
	c4.2-13.9,6.2-21.8,6.2-23.9c0-3.3-2.8-5.2-8.4-5.6L1044.5,734.4z M953.4,737.4l24.6-4.7h3.1l-10,33.5c2,0.1,3.1,0.2,3.3,0.2
	c8.7,0,15.4-5.3,20.4-15.8c2.7-5.8,4.6-9.7,5.7-11.5c1.1-1.8,2.6-3.4,4.4-4.5c1.8-1.2,3.9-1.8,6.3-1.8c2.9,0,5.3,0.9,7.2,2.6
	c2,1.8,2.9,3.8,2.9,6.2c0,2-0.7,3.7-2.1,5.2c-1.4,1.4-3,2.1-4.8,2.1c-2.2,0-4.3-1.3-6-3.8c-1.2-1.8-2.3-2.7-3.3-2.7
	c-1.5,0-3.3,2.3-5.5,7c-4.3,10.1-9.1,16.1-14.5,18.2c2.3,1.1,4.3,2.9,6,5.3c1.7,2.4,5.1,8.2,10.1,17.3c2.2,4.2,4.4,6.8,6.4,7.6
	c2,0.9,4.4,1.5,7.3,1.8l-1,3h-19.2c-4.7-9.7-8.6-17.2-11.9-22.5c-3.3-5.4-5.6-8.4-7-9.2c-1.4-0.8-3.5-1.2-6.1-1.2l-9.8,32.9h-12
	l15.6-52.1c1-3.2,1.5-5.5,1.5-6.8c0-2.7-1.9-4.1-5.7-4.1c-1.2,0-3.2,0.2-6.2,0.6V737.4z M872.9,737.4l24.5-4.7h2.9l-9.7,32.4h27.7
	l9.1-30.7h12.2l-16.1,54c-0.9,3-1.3,4.8-1.3,5.4c0,1,0.5,1.5,1.4,1.5c1.9,0,5.2-3.4,9.7-10.1l2.8,1.4c-7.7,11.8-14.6,17.7-20.6,17.7
	c-3.8,0-5.7-2.4-5.7-7.1c0-2.3,1-6.9,3-13.7l4.4-14.6h-27.7l-10.1,33.7h-12.1l15.4-51.3c1.1-3.9,1.7-6.4,1.7-7.5
	c0-2.8-1.8-4.2-5.2-4.2c-0.8,0-2.9,0.2-6.3,0.5V737.4z M861.2,734.4l-14.6,46.8c-2.2,7-3.2,11.4-3.2,13.2c0,0.8,0.1,1.5,0.4,1.9
	c0.3,0.4,0.6,0.6,1.1,0.6c0.7,0,1.5-0.3,2.3-1.1c0.8-0.7,2.9-3.8,6.3-9.4l2.4,1.8c-3.7,6.2-7.5,10.7-11.4,13.5
	c-2.5,1.8-5,2.7-7.4,2.7c-1.8,0-3.3-0.5-4.3-1.7c-1.1-1.1-1.6-2.6-1.6-4.3c0-1.7,0.4-4,1-6.9c1-3.5,3.5-11.7,7.6-24.4
	c-9.4,14.3-17.3,24.1-23.6,29.4c-6.3,5.3-12.2,7.9-17.5,7.9c-2.5,0-4.6-0.8-6.4-2.4c-1.8-1.6-2.6-3.7-2.6-6.2
	c0-3.8,1.4-9.8,4.2-17.7l8.3-23.8c2-5.7,3.1-9.3,3.1-10.7c0-0.6-0.3-1.1-0.8-1.6c-0.5-0.4-1.1-0.7-1.8-0.7c-1.3,0-2.7,0.4-4,1.2
	c-1.3,0.8-4.4,3.6-9.1,8.6l-2.5-1.7c4.3-6,8.9-10.4,13.8-13.2c3.7-2.2,7.1-3.3,10.2-3.3c2.1,0,3.9,0.7,5.2,2.2c1.4,1.4,2,3.3,2,5.6
	c0,2.7-1.2,7.7-3.7,14.7l-8.7,24.6c-2.4,6.7-3.6,10.9-3.6,12.7c0,1,0.3,1.8,1,2.3c0.7,0.6,1.6,0.9,2.8,0.9c1.8,0,4.2-0.8,7.1-2.6
	c2.9-1.7,6.8-5.5,11.7-11.3c4.9-5.9,8.9-11.3,12.1-16.5c3.2-5.1,6.5-13.3,10.1-24.5l1.9-6.5H861.2z M714.5,764.9l8-27.6
	c-2.8-0.6-5.9-1-9.2-1c-7.8,0-13.5,1.9-17,5.6c-3.5,3.8-5.3,7.7-5.3,11.9c0,7.5,6.1,11.2,18.2,11.2C710.8,765,712.5,765,714.5,764.9
	z M736.4,732.6l-16.9,57.5c-0.5,1.7-0.7,2.9-0.7,3.5c0,1.6,0.7,2.4,2.2,2.4c2.6,0,6.8-3.5,12.5-10.6l2.8,1.8
	c-8.1,11.4-16.1,17-23.9,17c-2.4,0-4.1-0.6-5.3-1.9c-1.2-1.2-1.8-2.6-1.8-4.1c0-1.5,0.7-4.4,2-8.9l6-20.4c-1.5-0.2-2.6-0.2-3.2-0.2
	c-2.5,0-4.6,0.7-6.5,2.2c-1.9,1.4-5.2,4.8-10,10.2l-19.2,21.5h-19.1l0.8-3c2.7-0.2,5.4-1.1,8.1-2.8c2.7-1.7,6.4-5.3,11.2-10.9
	c9.9-11.7,16.5-17.9,19.8-18.8c-11.7-1.7-17.6-6.7-17.6-15c0-5.1,2.7-9.6,7.9-13.5c5.3-3.9,13.9-5.8,25.8-5.8H736.4z M634.7,737.5
	c-3.7,0-7.6,1.5-11.8,4.5c-5.9,4.3-11.2,10.7-15.8,19.1c-4.6,8.4-6.9,16.1-6.9,22.9c0,3.4,1,6.2,3.1,8.1c2.1,2,4.4,3,7,3
	c6.6,0,13.7-4.1,21.4-12.2c9.4-10.8,14-21.9,13.7-33.3c0-4.3-1-7.4-2.9-9.3C640.6,738.5,638,737.5,634.7,737.5z M664.2,733.8
	l-15.4,52.4l-1.9,7c-0.2,0.7-0.3,1.3-0.3,1.7c0,0.7,0.2,1.4,0.5,1.9c0.3,0.4,0.7,0.6,1.2,0.6c0.5,0,1.1-0.4,1.9-1.1
	c1.5-1.4,3.4-4.4,5.9-9.1l2.7,1.9c-3.1,5.2-6.3,9-9.6,11.5c-3.3,2.5-6.3,3.7-9.1,3.7c-1.9,0-3.4-0.5-4.5-1.7
	c-1.1-1.1-1.6-2.7-1.6-4.8c0-2.5,0.6-5.8,1.8-9.9l1.8-5.9c-7.7,8.8-14.7,14.9-21.2,18.4c-4.6,2.5-9.2,3.8-13.6,3.8
	c-4.3,0-8-1.5-11-4.6c-3.1-3-4.7-7.3-4.7-12.6c0-8,2.8-16.5,8.3-25.4c5.5-8.9,12.5-16.1,21-21.4c6.6-4.2,12.9-6.4,18.8-6.4
	c3.5,0,6.4,0.8,8.8,2.3c2.3,1.5,4.1,4,5.3,7.5l2.6-7.8L664.2,733.8z M577.3,787.7c-7.6,11-15.1,16.5-22.5,16.5
	c-4.3,0-6.4-2.2-6.4-6.7c0-3.8,3-14.1,8.9-30.9c-15.2,25.1-28.6,37.6-40,37.6c-2.5,0-4.5-0.8-6-2.6c-1.5-1.7-2.3-4-2.3-6.9
	c0-4.8,2.6-14.2,8-28.2c-15.3,25.1-28.8,37.6-40.5,37.6c-3,0-5.2-1-6.5-2.9c-1.4-1.9-2.1-4.1-2.1-6.5c0-4.4,3-14.8,9.2-31.4
	c4-11.1,6-17.6,6-19.6c0-1.8-0.8-2.7-2.5-2.7c-2.7,0-7,3.3-13,9.9l-2.7-1.7c6.1-7.3,10.9-11.9,14.3-13.8c3.4-1.9,6.6-2.9,9.6-2.9
	c4.9,0,7.3,2.8,7.3,8.6c0,2-0.5,4.4-1.4,7.1c-0.9,2.7-4.8,13.9-11.7,33.5c-1.7,4.9-2.5,8.1-2.5,9.7c0,2.6,1.3,3.9,3.8,3.9
	c4,0,10.3-5.1,18.9-15.1c8.6-10.1,15.6-22.7,21-38l2.8-7.8h12.1L523,783.6c-1.4,4.2-2.1,7-2.1,8.4c0,2.5,1.2,3.8,3.7,3.8
	c2.2,0,4.8-1,7.8-3.1c3-2.1,7.2-6.7,12.7-14.1c5.4-7.3,9.7-14.1,12.9-20.3c3.2-6.1,6.2-14.2,9.3-24h12.2l-16.6,51.1
	c-1.3,3.9-1.9,6.7-1.9,8.3c0,1.8,0.8,2.7,2.5,2.7c1.1,0,2.8-1,5.1-3.1c2.3-2.1,4.4-4.5,6.3-7.4L577.3,787.7z M389.3,736.9l22.6-4.3
	h3l-7.7,26.2c-1.1,3.7-1.7,6.1-1.7,7.2c0,4.3,3.1,6.4,9.4,6.4c5.1,0,10.9-2.1,17.4-6.2l9.5-31.9h12.3l-16.2,54.4
	c-0.9,3-1.3,4.9-1.3,5.5c0,1.3,0.5,1.9,1.6,1.9c1.7,0,4.9-3.4,9.6-10.1l2.6,1.6c-8.3,11.1-15,16.6-20.3,16.6c-3.9,0-5.9-2.2-5.9-6.6
	c0-2.7,0.9-7,2.6-12.9l4.1-13.6c-6.9,4.5-13.7,6.8-20.6,6.8c-4.5,0-8.4-1.1-11.7-3.4c-3.3-2.3-4.9-5.1-4.9-8.6
	c0-2.1,0.6-5.1,1.8-9.1l2.2-7.1c0.8-2.8,1.3-4.9,1.3-6.2c0-2.8-1.8-4.2-5.4-4.2c-1.6,0-3.3,0.1-5.1,0.4L389.3,736.9z M335,732.6
	c1.8,3,3,5.8,3.7,8.4c0.7,2.6,1.4,7.7,2.1,15.3l3.5,37.9c3.2-3.7,7.9-9.6,14-17.6c2.9-3.9,6.6-9.2,10.9-16c2.6-4.1,4.2-7,4.8-8.6
	c0.3-0.8,0.5-1.7,0.5-2.5c0-0.6-0.2-1-0.5-1.4c-0.4-0.3-1.4-0.8-2.9-1.3c-1.6-0.5-2.9-1.4-3.9-2.7c-1-1.3-1.6-2.8-1.6-4.5
	c0-2.1,0.7-3.8,1.9-5.1c1.3-1.3,2.9-1.9,4.8-1.9c2.3,0,4.3,0.9,6,2.8c1.7,1.9,2.5,4.5,2.5,7.7c0,4.1-1.4,8.7-4.3,13.9
	c-2.9,5.2-8.5,13.3-16.7,24c-8.2,10.8-18.2,22.6-29.8,35.4c-8,8.8-14,14.3-17.9,16.6c-3.9,2.3-7.2,3.4-10,3.4
	c-1.7,0-3.1-0.6-4.3-1.8c-1.3-1.2-1.9-2.6-1.9-4.2c0-2,0.9-3.8,2.6-5.4c1.7-1.6,3.6-2.5,5.6-2.5c1.1,0,1.9,0.2,2.6,0.7
	c0.4,0.3,0.9,1,1.4,2.2c0.5,1.2,0.9,2,1.4,2.4c0.3,0.3,0.6,0.4,1,0.4c0.3,0,0.9-0.3,1.7-0.8c2.9-1.8,6.3-4.6,10.2-8.4
	c5.1-5.1,8.8-9.3,11.3-12.6l-4.5-48.7c-0.7-8.1-1.9-12.9-3.3-14.7c-1.5-1.7-4-2.6-7.5-2.6c-1.1,0-3.1,0.2-6,0.5l-0.7-2.8L335,732.6z
	 M236.2,697.7h85.9l-0.8,2.8c-4.6,0.1-8.3,1-10.8,2.8c-2.6,1.7-5.1,6.7-7.5,14.8L284.7,780c-1.9,6.4-2.9,10.8-2.9,13.2
	c0,4,4,6.1,12.1,6.4l-1,2.8h-41.3l1-2.8c5.5-0.3,9.1-1.4,11.1-3.4c1.9-2,4.1-7.1,6.6-15.3l23.3-77.9h-38.3
	c-2,11.1-6.5,27.7-13.7,49.9c-7.1,22.2-12.9,36.2-17.3,42c-4.4,5.8-9.6,8.7-15.6,8.7c-4.8,0-8.7-1.3-11.7-4c-3-2.6-4.5-5.7-4.5-9.2
	c0-2.1,0.7-3.9,2.3-5.3c1.5-1.5,3.4-2.2,5.6-2.2c4.6,0,7.6,3,8.8,9c0.7,3.2,1.9,4.9,3.6,4.9c2.6,0,5.4-2.4,8.6-7.2
	c3.2-4.8,8.3-18.5,15.5-41.1c7.1-22.6,10.7-36.2,10.7-41c0-2.4-0.7-4.1-2.1-5.1c-1.4-1.1-4.7-1.7-9.8-2L236.2,697.7z M194.7,731.5
	l-26.9,36.8l8.8,36.5h-3.4l-19.6-36.5l36.9-36.8H194.7z M164.6,731.5l-27.1,36.8l8.6,36.5h-3.4l-19.7-36.5l37.4-36.8H164.6z"/>
<path class="st8" d="M1314,951.2l26.4-40.5l-8.5-40.3h3.3l19.4,40.3l-36.4,40.5 M1343.8,951.2l26.4-40.5l-8.5-40.3h3.3l19.4,40.3
	l-36.4,40.5H1343.8z M1308.3,873.6l-14.2,51.6c-2.1,7.7-3.2,12.5-3.2,14.5c0,0.9,0.1,1.6,0.4,2.1c0.3,0.4,0.6,0.6,1,0.6
	c0.7,0,1.4-0.4,2.2-1.2c0.8-0.8,2.9-4.2,6.2-10.3l2.3,1.9c-3.6,6.8-7.3,11.8-11.1,14.8c-2.5,1.9-4.9,2.9-7.2,2.9
	c-1.8,0-3.2-0.6-4.2-1.9c-1.1-1.2-1.6-2.8-1.6-4.8c0-1.9,0.3-4.4,1-7.6c0.9-3.9,3.4-12.9,7.3-26.9c-9.2,15.8-16.8,26.5-23,32.4
	c-6.2,5.8-11.8,8.8-17,8.8c-2.5,0-4.5-0.9-6.2-2.7c-1.7-1.8-2.6-4-2.6-6.8c0-4.2,1.4-10.8,4.1-19.5l8.1-26.3c2-6.3,3-10.2,3-11.7
	c0-0.7-0.3-1.3-0.8-1.8c-0.5-0.5-1.1-0.7-1.7-0.7c-1.3,0-2.6,0.4-3.9,1.3c-1.3,0.9-4.2,4-8.8,9.5l-2.4-1.9
	c4.2-6.6,8.7-11.4,13.4-14.5c3.6-2.4,6.9-3.7,10-3.7c2.1,0,3.8,0.8,5.1,2.4c1.3,1.6,2,3.7,2,6.2c0,3-1.2,8.4-3.6,16.2l-8.5,27.1
	c-2.3,7.4-3.5,12-3.5,14c0,1.1,0.3,1.9,1,2.6c0.7,0.7,1.6,1,2.7,1c1.8,0,4.1-0.9,7-2.8c2.8-1.9,6.7-6,11.4-12.5
	c4.7-6.5,8.7-12.5,11.8-18.2c3.1-5.6,6.3-14.6,9.8-27l1.9-7.1H1308.3z M1228.7,873.6l-14.2,51.6c-2.1,7.7-3.2,12.5-3.2,14.5
	c0,0.9,0.1,1.6,0.4,2.1c0.3,0.4,0.6,0.6,1,0.6c0.7,0,1.4-0.4,2.3-1.2c0.8-0.8,2.9-4.2,6.2-10.3l2.3,1.9c-3.6,6.8-7.3,11.8-11,14.8
	c-2.5,1.9-4.9,2.9-7.2,2.9c-1.8,0-3.2-0.6-4.2-1.9c-1.1-1.2-1.6-2.8-1.6-4.8c0-1.9,0.3-4.4,1-7.6c0.9-3.9,3.4-12.9,7.3-26.9
	c-9.2,15.8-16.8,26.5-23,32.4c-6.2,5.8-11.8,8.8-17,8.8c-2.5,0-4.5-0.9-6.2-2.7c-1.7-1.8-2.5-4-2.5-6.8c0-4.2,1.3-10.8,4.1-19.5
	l8.1-26.3c2-6.3,3-10.2,3-11.7c0-0.7-0.3-1.3-0.8-1.8c-0.5-0.5-1.1-0.7-1.7-0.7c-1.3,0-2.6,0.4-3.9,1.3c-1.3,0.9-4.3,4-8.9,9.5
	l-2.4-1.9c4.2-6.6,8.7-11.4,13.4-14.5c3.6-2.4,6.9-3.7,10-3.7c2.1,0,3.8,0.8,5.1,2.4c1.3,1.6,2,3.7,2,6.2c0,3-1.2,8.4-3.6,16.2
	l-8.5,27.1c-2.3,7.4-3.5,12-3.5,14c0,1.1,0.3,1.9,1,2.6c0.7,0.7,1.6,1,2.7,1c1.8,0,4.1-0.9,7-2.8c2.8-1.9,6.7-6,11.4-12.5
	c4.7-6.5,8.7-12.5,11.8-18.2c3.1-5.6,6.3-14.6,9.8-27l1.9-7.1H1228.7z M1142.8,929.9c-5.4,7.1-10.9,12.3-16.4,15.6
	c-5.5,3.3-11.3,5-17.4,5c-7.4,0-13.2-2.3-17.3-6.8c-4.1-4.5-6.2-10.6-6.2-18.2c0-8.7,2.2-17.2,6.7-25.6c4.4-8.4,10.4-15.2,17.9-20.4
	c7.5-5.3,14.8-7.9,22.1-7.9c5.7,0,9.9,1.3,12.7,3.9c2.8,2.6,4.2,5.7,4.2,9.5c0,3.5-1,6.5-2.9,9c-1.4,1.9-3.2,2.9-5.3,2.9
	c-1.6,0-2.9-0.6-4-1.7c-1.1-1.1-1.6-2.5-1.6-4.2c0-1.1,0.2-2.1,0.6-3c0.4-0.9,1.2-2,2.4-3.2c1.2-1.3,2-2.2,2.2-2.8
	c0.3-0.6,0.4-1.2,0.4-1.8c0-1.2-0.5-2.2-1.5-2.9c-1.5-1.1-3.7-1.7-6.5-1.7c-5.1,0-10.2,1.9-15.3,5.9c-5,3.9-9.3,9.4-12.9,16.6
	c-4.3,8.7-6.4,17.4-6.4,26.1c0,5.8,1.5,10.3,4.6,13.7c3,3.4,7.2,5,12.4,5c4,0,8-1.1,12-3.3c4-2.2,8.4-6.1,13.3-11.8L1142.8,929.9z
	 M1072.1,929.9c-5.4,7.1-10.9,12.3-16.4,15.6c-5.5,3.3-11.3,5-17.4,5c-7.4,0-13.1-2.3-17.3-6.8c-4.1-4.5-6.2-10.6-6.2-18.2
	c0-8.7,2.2-17.2,6.7-25.6c4.4-8.4,10.4-15.2,17.9-20.4c7.5-5.3,14.9-7.9,22.1-7.9c5.7,0,9.9,1.3,12.7,3.9c2.8,2.6,4.2,5.7,4.2,9.5
	c0,3.5-1,6.5-2.9,9c-1.4,1.9-3.2,2.9-5.3,2.9c-1.6,0-2.9-0.6-4-1.7c-1.1-1.1-1.6-2.5-1.6-4.2c0-1.1,0.2-2.1,0.6-3
	c0.4-0.9,1.2-2,2.4-3.2c1.2-1.3,2-2.2,2.2-2.8c0.3-0.6,0.4-1.2,0.4-1.8c0-1.2-0.5-2.2-1.5-2.9c-1.5-1.1-3.7-1.7-6.4-1.7
	c-5.2,0-10.2,1.9-15.3,5.9c-5,3.9-9.3,9.4-12.9,16.6c-4.3,8.7-6.5,17.4-6.5,26.1c0,5.8,1.5,10.3,4.6,13.7c3,3.4,7.2,5,12.4,5
	c4,0,8-1.1,12-3.3c3.9-2.2,8.4-6.1,13.3-11.8L1072.1,929.9z M991.7,892.2c0-5.3-1.2-9.3-3.6-12.1c-2.4-2.8-5.4-4.2-9.2-4.2
	c-7.7,0-14.7,6-21.1,18c-6.4,11.9-9.6,23.8-9.6,35.6c0,5.4,1.2,9.6,3.7,12.5c2.5,2.9,5.6,4.4,9.4,4.4c7.3,0,14.2-6,20.7-17.9
	C988.5,916.6,991.7,904.5,991.7,892.2z M1004.5,898.2c0,8.5-2.1,16.9-6.2,25.2c-4.1,8.3-9.9,14.9-17.2,19.8
	c-7.4,4.9-14.5,7.3-21.5,7.3c-7.1,0-12.9-2.5-17.4-7.4c-4.5-5-6.7-11.4-6.7-19.2c0-8.3,2.2-16.7,6.6-25c4.4-8.4,10.2-15,17.6-19.8
	c7.3-4.9,14.4-7.3,21.3-7.3c6.8,0,12.5,2.5,16.9,7.4C1002.2,884,1004.5,890.4,1004.5,898.2z M878.7,887c5.8,1.6,10.4,2.4,14,2.4
	c5.6,0,10.6-1.3,15.2-3.8c4.6-2.6,8.1-6.3,10.7-11.5c2.6-5.1,3.9-10.4,3.9-15.9c0-5.7-1.6-10.2-4.7-13.6c-3.2-3.3-7.9-5-14.4-5
	c-3.5,0-7.7,0.5-12.6,1.4L878.7,887z M864,833.2h41.6c10.9,0,19.1,2.6,24.5,7.7c5.4,5.1,8.1,11.4,8.1,18.8c0,5.8-1.7,11.5-5.2,17
	c-3.4,5.5-8.5,10-15.3,13.4c-6.8,3.4-14.1,5.1-21.9,5.1c-4.9,0-11.1-0.9-18.6-2.8l-8.8,33.3c-2,6.8-3,11.4-3,13.5
	c0,1.7,0.7,3,2.1,4.1c1.4,1.1,4.8,1.8,10,2.1l-0.8,3.1h-41.4l0.8-3.1c5.5,0,9.3-1.1,11.5-3.1c2.1-2.1,4.5-7.8,7-17.1l17.3-65.7
	c2.1-7.9,3.1-13.2,3.1-15.8c0-2-0.7-3.6-2.2-4.9c-1.5-1.3-4.7-2.1-9.8-2.4L864,833.2z M769.8,877.1c-3.6,0-7.4,1.7-11.5,5
	c-5.8,4.7-10.9,11.7-15.4,21c-4.5,9.3-6.7,17.7-6.7,25.2c0,3.8,1,6.8,3,9c2,2.2,4.3,3.3,6.8,3.3c6.4,0,13.4-4.5,20.8-13.4
	c9.2-11.9,13.6-24.1,13.3-36.7c0-4.7-0.9-8.1-2.8-10.3C775.6,878.1,773,877.1,769.8,877.1z M798.5,872.9l-15,57.6l-1.8,7.7
	c-0.2,0.7-0.3,1.4-0.3,1.9c0,0.8,0.2,1.5,0.5,2.1c0.3,0.4,0.7,0.7,1.1,0.7c0.5,0,1.1-0.4,1.9-1.2c1.4-1.5,3.3-4.9,5.7-10l2.7,2.1
	c-3,5.7-6.1,9.9-9.3,12.6c-3.2,2.7-6.1,4.1-8.8,4.1c-1.9,0-3.4-0.6-4.4-1.8c-1-1.2-1.6-3-1.6-5.3c0-2.8,0.6-6.4,1.7-10.9l1.7-6.4
	c-7.5,9.7-14.3,16.4-20.6,20.3c-4.5,2.8-8.9,4.2-13.3,4.2c-4.1,0-7.7-1.7-10.8-5c-3-3.4-4.5-8-4.5-13.9c0-8.9,2.7-18.2,8-28
	c5.3-9.8,12.2-17.7,20.4-23.6c6.5-4.7,12.6-7,18.3-7c3.4,0,6.3,0.8,8.6,2.5c2.2,1.7,4,4.4,5.2,8.2l2.5-8.6L798.5,872.9z
	 M667.2,873.6h45.3l-15.2,57.6c-1.1,4.4-1.7,7.2-1.7,8.3c0,1.5,0.6,2.3,1.9,2.3c1.1,0,2.2-0.8,3.5-2.4c1.2-1.6,3.1-4.6,5.5-8.9
	l2.7,1.9c-3.8,6.3-7.3,10.9-10.3,13.8c-3,2.9-6.2,4.4-9.5,4.4c-4.1,0-6.1-2.5-6.1-7.4c0-2.5,1-7.7,3.1-15.5l12.8-48.9h-9.8
	c-4,0-6.4,0.3-7.4,0.7c-1,0.5-1.9,1.8-2.7,3.7c-0.8,2-2.1,6.9-4,14.6c-5.5,22.2-10,36.5-13.7,43c-3.7,6.5-7.9,9.7-12.6,9.7
	c-5.1,0-7.7-2.2-7.7-6.6c0-1.8,0.5-3.3,1.5-4.6c1-1.2,2.3-1.9,4-1.9c1.6,0,3.2,0.7,4.9,2.2c1.1,1,2.1,1.4,2.9,1.4
	c1.6,0,3.2-1.4,5.1-4.4c1.8-2.9,4.7-12,8.8-27.3c4-15.3,6-24,6-26.4c0-3.6-2.7-5.7-8.2-6.2L667.2,873.6z M633.6,892.2
	c0-5.3-1.2-9.3-3.6-12.1c-2.4-2.8-5.4-4.2-9.2-4.2c-7.7,0-14.7,6-21.1,18c-6.4,11.9-9.6,23.8-9.6,35.6c0,5.4,1.3,9.6,3.7,12.5
	c2.5,2.9,5.7,4.4,9.5,4.4c7.3,0,14.2-6,20.7-17.9C630.4,916.6,633.6,904.5,633.6,892.2z M646.3,898.2c0,8.5-2.1,16.9-6.2,25.2
	c-4.1,8.3-9.9,14.9-17.2,19.8c-7.3,4.9-14.5,7.3-21.5,7.3c-7.1,0-12.9-2.5-17.4-7.4c-4.5-5-6.7-11.4-6.7-19.2c0-8.3,2.2-16.7,6.6-25
	c4.4-8.4,10.2-15,17.6-19.8c7.4-4.9,14.4-7.3,21.3-7.3c6.8,0,12.5,2.5,16.9,7.4C644.1,884,646.3,890.4,646.3,898.2z M512.1,876.9
	l23.9-5.2h3l-9.7,36.9c1.9,0.1,3,0.2,3.3,0.2c8.4,0,15-5.8,19.8-17.4c2.7-6.4,4.5-10.6,5.6-12.6c1.1-2,2.5-3.7,4.3-5
	c1.8-1.3,3.8-2,6.1-2c2.8,0,5.2,1,7.1,2.9c1.9,2,2.9,4.2,2.9,6.8c0,2.2-0.7,4.1-2,5.7c-1.4,1.6-2.9,2.3-4.7,2.3
	c-2.2,0-4.1-1.4-5.8-4.2c-1.2-2-2.3-3-3.2-3c-1.5,0-3.2,2.6-5.3,7.7c-4.2,11.1-8.8,17.7-14.1,20.1c2.2,1.2,4.2,3.2,5.9,5.8
	c1.7,2.7,5,9,9.9,19.1c2.2,4.6,4.3,7.5,6.2,8.4c2,1,4.3,1.6,7.1,1.9l-1,3.3h-18.6c-4.5-10.7-8.4-18.9-11.6-24.8
	c-3.2-5.9-5.5-9.3-6.9-10.1c-1.4-0.8-3.4-1.3-5.9-1.3l-9.6,36.2h-11.7l15.2-57.4c1-3.6,1.5-6.1,1.5-7.5c0-3-1.8-4.5-5.5-4.5
	c-1.1,0-3.1,0.2-6,0.7V876.9z M498.4,932.3c-7.4,12.1-14.7,18.2-21.9,18.2c-4.2,0-6.2-2.5-6.2-7.4c0-4.2,2.9-15.5,8.6-34
	c-14.8,27.6-27.8,41.4-38.9,41.4c-2.4,0-4.4-0.9-5.9-2.8c-1.5-1.9-2.2-4.4-2.2-7.6c0-5.3,2.6-15.6,7.7-31
	c-14.9,27.6-28,41.4-39.4,41.4c-2.9,0-5-1.1-6.3-3.2c-1.4-2.1-2-4.5-2-7.1c0-4.8,3-16.3,8.9-34.5c3.9-12.2,5.9-19.4,5.9-21.6
	c0-2-0.8-3-2.4-3c-2.6,0-6.8,3.6-12.6,10.9l-2.6-1.9c5.9-8,10.6-13.1,13.9-15.2c3.3-2.1,6.4-3.2,9.3-3.2c4.8,0,7.1,3.1,7.1,9.4
	c0,2.2-0.5,4.8-1.4,7.9c-0.9,3-4.7,15.3-11.3,36.8c-1.6,5.4-2.4,8.9-2.4,10.7c0,2.8,1.2,4.3,3.7,4.3c3.9,0,10-5.6,18.3-16.7
	c8.3-11.1,15.2-25.1,20.4-41.9l2.7-8.6h11.8l-15.6,54.2c-1.4,4.7-2.1,7.8-2.1,9.2c0,2.8,1.2,4.2,3.6,4.2c2.1,0,4.6-1.1,7.6-3.4
	c2.9-2.3,7-7.4,12.3-15.5c5.3-8.1,9.5-15.5,12.5-22.3c3.1-6.8,6.1-15.6,9-26.5h11.8l-16.2,56.3c-1.2,4.3-1.9,7.3-1.9,9.1
	c0,2,0.8,3,2.4,3c1,0,2.7-1.2,4.9-3.5c2.2-2.3,4.3-5,6.1-8.1L498.4,932.3z"/>
<path class="st9" d="M1314,951.2l26.4-40.5l-8.5-40.3h3.3l19.4,40.3l-36.4,40.5H1314z M1343.8,951.2l26.4-40.5l-8.5-40.3h3.3
	l19.4,40.3l-36.4,40.5H1343.8z M1308.3,873.6l-14.2,51.6c-2.1,7.7-3.2,12.5-3.2,14.5c0,0.9,0.1,1.6,0.4,2.1c0.3,0.4,0.6,0.6,1,0.6
	c0.7,0,1.4-0.4,2.2-1.2c0.8-0.8,2.9-4.2,6.2-10.3l2.3,1.9c-3.6,6.8-7.3,11.8-11.1,14.8c-2.5,1.9-4.9,2.9-7.2,2.9
	c-1.8,0-3.2-0.6-4.2-1.9c-1.1-1.2-1.6-2.8-1.6-4.8c0-1.9,0.3-4.4,1-7.6c0.9-3.9,3.4-12.9,7.3-26.9c-9.2,15.8-16.8,26.5-23,32.4
	c-6.2,5.8-11.8,8.8-17,8.8c-2.5,0-4.5-0.9-6.2-2.7c-1.7-1.8-2.6-4-2.6-6.8c0-4.2,1.4-10.8,4.1-19.5l8.1-26.3c2-6.3,3-10.2,3-11.7
	c0-0.7-0.3-1.3-0.8-1.8c-0.5-0.5-1.1-0.7-1.7-0.7c-1.3,0-2.6,0.4-3.9,1.3c-1.3,0.9-4.2,4-8.8,9.5l-2.4-1.9
	c4.2-6.6,8.7-11.4,13.4-14.5c3.6-2.4,6.9-3.7,10-3.7c2.1,0,3.8,0.8,5.1,2.4c1.3,1.6,2,3.7,2,6.2c0,3-1.2,8.4-3.6,16.2l-8.5,27.1
	c-2.3,7.4-3.5,12-3.5,14c0,1.1,0.3,1.9,1,2.6c0.7,0.7,1.6,1,2.7,1c1.8,0,4.1-0.9,7-2.8c2.8-1.9,6.7-6,11.4-12.5
	c4.7-6.5,8.7-12.5,11.8-18.2c3.1-5.6,6.3-14.6,9.8-27l1.9-7.1H1308.3z M1228.7,873.6l-14.2,51.6c-2.1,7.7-3.2,12.5-3.2,14.5
	c0,0.9,0.1,1.6,0.4,2.1c0.3,0.4,0.6,0.6,1,0.6c0.7,0,1.4-0.4,2.3-1.2c0.8-0.8,2.9-4.2,6.2-10.3l2.3,1.9c-3.6,6.8-7.3,11.8-11,14.8
	c-2.5,1.9-4.9,2.9-7.2,2.9c-1.8,0-3.2-0.6-4.2-1.9c-1.1-1.2-1.6-2.8-1.6-4.8c0-1.9,0.3-4.4,1-7.6c0.9-3.9,3.4-12.9,7.3-26.9
	c-9.2,15.8-16.8,26.5-23,32.4c-6.2,5.8-11.8,8.8-17,8.8c-2.5,0-4.5-0.9-6.2-2.7c-1.7-1.8-2.5-4-2.5-6.8c0-4.2,1.3-10.8,4.1-19.5
	l8.1-26.3c2-6.3,3-10.2,3-11.7c0-0.7-0.3-1.3-0.8-1.8c-0.5-0.5-1.1-0.7-1.7-0.7c-1.3,0-2.6,0.4-3.9,1.3c-1.3,0.9-4.3,4-8.9,9.5
	l-2.4-1.9c4.2-6.6,8.7-11.4,13.4-14.5c3.6-2.4,6.9-3.7,10-3.7c2.1,0,3.8,0.8,5.1,2.4c1.3,1.6,2,3.7,2,6.2c0,3-1.2,8.4-3.6,16.2
	l-8.5,27.1c-2.3,7.4-3.5,12-3.5,14c0,1.1,0.3,1.9,1,2.6c0.7,0.7,1.6,1,2.7,1c1.8,0,4.1-0.9,7-2.8c2.8-1.9,6.7-6,11.4-12.5
	c4.7-6.5,8.7-12.5,11.8-18.2c3.1-5.6,6.3-14.6,9.8-27l1.9-7.1H1228.7z M1142.8,929.9c-5.4,7.1-10.9,12.3-16.4,15.6
	c-5.5,3.3-11.3,5-17.4,5c-7.4,0-13.2-2.3-17.3-6.8c-4.1-4.5-6.2-10.6-6.2-18.2c0-8.7,2.2-17.2,6.7-25.6c4.4-8.4,10.4-15.2,17.9-20.4
	c7.5-5.3,14.8-7.9,22.1-7.9c5.7,0,9.9,1.3,12.7,3.9c2.8,2.6,4.2,5.7,4.2,9.5c0,3.5-1,6.5-2.9,9c-1.4,1.9-3.2,2.9-5.3,2.9
	c-1.6,0-2.9-0.6-4-1.7c-1.1-1.1-1.6-2.5-1.6-4.2c0-1.1,0.2-2.1,0.6-3c0.4-0.9,1.2-2,2.4-3.2c1.2-1.3,2-2.2,2.2-2.8
	c0.3-0.6,0.4-1.2,0.4-1.8c0-1.2-0.5-2.2-1.5-2.9c-1.5-1.1-3.7-1.7-6.5-1.7c-5.1,0-10.2,1.9-15.3,5.9c-5,3.9-9.3,9.4-12.9,16.6
	c-4.3,8.7-6.4,17.4-6.4,26.1c0,5.8,1.5,10.3,4.6,13.7c3,3.4,7.2,5,12.4,5c4,0,8-1.1,12-3.3c4-2.2,8.4-6.1,13.3-11.8L1142.8,929.9z
	 M1072.1,929.9c-5.4,7.1-10.9,12.3-16.4,15.6c-5.5,3.3-11.3,5-17.4,5c-7.4,0-13.1-2.3-17.3-6.8c-4.1-4.5-6.2-10.6-6.2-18.2
	c0-8.7,2.2-17.2,6.7-25.6c4.4-8.4,10.4-15.2,17.9-20.4c7.5-5.3,14.9-7.9,22.1-7.9c5.7,0,9.9,1.3,12.7,3.9c2.8,2.6,4.2,5.7,4.2,9.5
	c0,3.5-1,6.5-2.9,9c-1.4,1.9-3.2,2.9-5.3,2.9c-1.6,0-2.9-0.6-4-1.7c-1.1-1.1-1.6-2.5-1.6-4.2c0-1.1,0.2-2.1,0.6-3
	c0.4-0.9,1.2-2,2.4-3.2c1.2-1.3,2-2.2,2.2-2.8c0.3-0.6,0.4-1.2,0.4-1.8c0-1.2-0.5-2.2-1.5-2.9c-1.5-1.1-3.7-1.7-6.4-1.7
	c-5.2,0-10.2,1.9-15.3,5.9c-5,3.9-9.3,9.4-12.9,16.6c-4.3,8.7-6.5,17.4-6.5,26.1c0,5.8,1.5,10.3,4.6,13.7c3,3.4,7.2,5,12.4,5
	c4,0,8-1.1,12-3.3c3.9-2.2,8.4-6.1,13.3-11.8L1072.1,929.9z M991.7,892.2c0-5.3-1.2-9.3-3.6-12.1c-2.4-2.8-5.4-4.2-9.2-4.2
	c-7.7,0-14.7,6-21.1,18c-6.4,11.9-9.6,23.8-9.6,35.6c0,5.4,1.2,9.6,3.7,12.5c2.5,2.9,5.6,4.4,9.4,4.4c7.3,0,14.2-6,20.7-17.9
	C988.5,916.6,991.7,904.5,991.7,892.2z M1004.5,898.2c0,8.5-2.1,16.9-6.2,25.2c-4.1,8.3-9.9,14.9-17.2,19.8
	c-7.4,4.9-14.5,7.3-21.5,7.3c-7.1,0-12.9-2.5-17.4-7.4c-4.5-5-6.7-11.4-6.7-19.2c0-8.3,2.2-16.7,6.6-25c4.4-8.4,10.2-15,17.6-19.8
	c7.3-4.9,14.4-7.3,21.3-7.3c6.8,0,12.5,2.5,16.9,7.4C1002.2,884,1004.5,890.4,1004.5,898.2z M878.7,887c5.8,1.6,10.4,2.4,14,2.4
	c5.6,0,10.6-1.3,15.2-3.8c4.6-2.6,8.1-6.3,10.7-11.5c2.6-5.1,3.9-10.4,3.9-15.9c0-5.7-1.6-10.2-4.7-13.6c-3.2-3.3-7.9-5-14.4-5
	c-3.5,0-7.7,0.5-12.6,1.4L878.7,887z M864,833.2h41.6c10.9,0,19.1,2.6,24.5,7.7c5.4,5.1,8.1,11.4,8.1,18.8c0,5.8-1.7,11.5-5.2,17
	c-3.4,5.5-8.5,10-15.3,13.4c-6.8,3.4-14.1,5.1-21.9,5.1c-4.9,0-11.1-0.9-18.6-2.8l-8.8,33.3c-2,6.8-3,11.4-3,13.5
	c0,1.7,0.7,3,2.1,4.1c1.4,1.1,4.8,1.8,10,2.1l-0.8,3.1h-41.4l0.8-3.1c5.5,0,9.3-1.1,11.5-3.1c2.1-2.1,4.5-7.8,7-17.1l17.3-65.7
	c2.1-7.9,3.1-13.2,3.1-15.8c0-2-0.7-3.6-2.2-4.9c-1.5-1.3-4.7-2.1-9.8-2.4L864,833.2z M769.8,877.1c-3.6,0-7.4,1.7-11.5,5
	c-5.8,4.7-10.9,11.7-15.4,21c-4.5,9.3-6.7,17.7-6.7,25.2c0,3.8,1,6.8,3,9c2,2.2,4.3,3.3,6.8,3.3c6.4,0,13.4-4.5,20.8-13.4
	c9.2-11.9,13.6-24.1,13.3-36.7c0-4.7-0.9-8.1-2.8-10.3C775.6,878.1,773,877.1,769.8,877.1z M798.5,872.9l-15,57.6l-1.8,7.7
	c-0.2,0.7-0.3,1.4-0.3,1.9c0,0.8,0.2,1.5,0.5,2.1c0.3,0.4,0.7,0.7,1.1,0.7c0.5,0,1.1-0.4,1.9-1.2c1.4-1.5,3.3-4.9,5.7-10l2.7,2.1
	c-3,5.7-6.1,9.9-9.3,12.6c-3.2,2.7-6.1,4.1-8.8,4.1c-1.9,0-3.4-0.6-4.4-1.8c-1-1.2-1.6-3-1.6-5.3c0-2.8,0.6-6.4,1.7-10.9l1.7-6.4
	c-7.5,9.7-14.3,16.4-20.6,20.3c-4.5,2.8-8.9,4.2-13.3,4.2c-4.1,0-7.7-1.7-10.8-5c-3-3.4-4.5-8-4.5-13.9c0-8.9,2.7-18.2,8-28
	c5.3-9.8,12.2-17.7,20.4-23.6c6.5-4.7,12.6-7,18.3-7c3.4,0,6.3,0.8,8.6,2.5c2.2,1.7,4,4.4,5.2,8.2l2.5-8.6L798.5,872.9z
	 M667.2,873.6h45.3l-15.2,57.6c-1.1,4.4-1.7,7.2-1.7,8.3c0,1.5,0.6,2.3,1.9,2.3c1.1,0,2.2-0.8,3.5-2.4c1.2-1.6,3.1-4.6,5.5-8.9
	l2.7,1.9c-3.8,6.3-7.3,10.9-10.3,13.8c-3,2.9-6.2,4.4-9.5,4.4c-4.1,0-6.1-2.5-6.1-7.4c0-2.5,1-7.7,3.1-15.5l12.8-48.9h-9.8
	c-4,0-6.4,0.3-7.4,0.7c-1,0.5-1.9,1.8-2.7,3.7c-0.8,2-2.1,6.9-4,14.6c-5.5,22.2-10,36.5-13.7,43c-3.7,6.5-7.9,9.7-12.6,9.7
	c-5.1,0-7.7-2.2-7.7-6.6c0-1.8,0.5-3.3,1.5-4.6c1-1.2,2.3-1.9,4-1.9c1.6,0,3.2,0.7,4.9,2.2c1.1,1,2.1,1.4,2.9,1.4
	c1.6,0,3.2-1.4,5.1-4.4c1.8-2.9,4.7-12,8.8-27.3c4-15.3,6-24,6-26.4c0-3.6-2.7-5.7-8.2-6.2L667.2,873.6z M633.6,892.2
	c0-5.3-1.2-9.3-3.6-12.1c-2.4-2.8-5.4-4.2-9.2-4.2c-7.7,0-14.7,6-21.1,18c-6.4,11.9-9.6,23.8-9.6,35.6c0,5.4,1.3,9.6,3.7,12.5
	c2.5,2.9,5.7,4.4,9.5,4.4c7.3,0,14.2-6,20.7-17.9C630.4,916.6,633.6,904.5,633.6,892.2z M646.3,898.2c0,8.5-2.1,16.9-6.2,25.2
	c-4.1,8.3-9.9,14.9-17.2,19.8c-7.3,4.9-14.5,7.3-21.5,7.3c-7.1,0-12.9-2.5-17.4-7.4c-4.5-5-6.7-11.4-6.7-19.2c0-8.3,2.2-16.7,6.6-25
	c4.4-8.4,10.2-15,17.6-19.8c7.4-4.9,14.4-7.3,21.3-7.3c6.8,0,12.5,2.5,16.9,7.4C644.1,884,646.3,890.4,646.3,898.2z M512.1,876.9
	l23.9-5.2h3l-9.7,36.9c1.9,0.1,3,0.2,3.3,0.2c8.4,0,15-5.8,19.8-17.4c2.7-6.4,4.5-10.6,5.6-12.6c1.1-2,2.5-3.7,4.3-5
	c1.8-1.3,3.8-2,6.1-2c2.8,0,5.2,1,7.1,2.9c1.9,2,2.9,4.2,2.9,6.8c0,2.2-0.7,4.1-2,5.7c-1.4,1.6-2.9,2.3-4.7,2.3
	c-2.2,0-4.1-1.4-5.8-4.2c-1.2-2-2.3-3-3.2-3c-1.5,0-3.2,2.6-5.3,7.7c-4.2,11.1-8.8,17.7-14.1,20.1c2.2,1.2,4.2,3.2,5.9,5.8
	c1.7,2.7,5,9,9.9,19.1c2.2,4.6,4.3,7.5,6.2,8.4c2,1,4.3,1.6,7.1,1.9l-1,3.3h-18.6c-4.5-10.7-8.4-18.9-11.6-24.8
	c-3.2-5.9-5.5-9.3-6.9-10.1c-1.4-0.8-3.4-1.3-5.9-1.3l-9.6,36.2h-11.7l15.2-57.4c1-3.6,1.5-6.1,1.5-7.5c0-3-1.8-4.5-5.5-4.5
	c-1.1,0-3.1,0.2-6,0.7V876.9z M498.4,932.3c-7.4,12.1-14.7,18.2-21.9,18.2c-4.2,0-6.2-2.5-6.2-7.4c0-4.2,2.9-15.5,8.6-34
	c-14.8,27.6-27.8,41.4-38.9,41.4c-2.4,0-4.4-0.9-5.9-2.8c-1.5-1.9-2.2-4.4-2.2-7.6c0-5.3,2.6-15.6,7.7-31
	c-14.9,27.6-28,41.4-39.4,41.4c-2.9,0-5-1.1-6.3-3.2c-1.4-2.1-2-4.5-2-7.1c0-4.8,3-16.3,8.9-34.5c3.9-12.2,5.9-19.4,5.9-21.6
	c0-2-0.8-3-2.4-3c-2.6,0-6.8,3.6-12.6,10.9l-2.6-1.9c5.9-8,10.6-13.1,13.9-15.2c3.3-2.1,6.4-3.2,9.3-3.2c4.8,0,7.1,3.1,7.1,9.4
	c0,2.2-0.5,4.8-1.4,7.9c-0.9,3-4.7,15.3-11.3,36.8c-1.6,5.4-2.4,8.9-2.4,10.7c0,2.8,1.2,4.3,3.7,4.3c3.9,0,10-5.6,18.3-16.7
	c8.3-11.1,15.2-25.1,20.4-41.9l2.7-8.6h11.8l-15.6,54.2c-1.4,4.7-2.1,7.8-2.1,9.2c0,2.8,1.2,4.2,3.6,4.2c2.1,0,4.6-1.1,7.6-3.4
	c2.9-2.3,7-7.4,12.3-15.5c5.3-8.1,9.5-15.5,12.5-22.3c3.1-6.8,6.1-15.6,9-26.5h11.8l-16.2,56.3c-1.2,4.3-1.9,7.3-1.9,9.1
	c0,2,0.8,3,2.4,3c1,0,2.7-1.2,4.9-3.5c2.2-2.3,4.3-5,6.1-8.1L498.4,932.3z"/>
<g>
	<path class="st8" d="M1643,664.3c3.3,3.8,7.8,5.7,13.4,5.7c2.8,0,5.6-0.7,8.5-2.2c2.9-1.5,5.7-3.7,8.5-6.6
		c2.8-2.9,5.3-6.3,7.5-10.1c2.2-3.8,4.2-8.3,5.9-13.5c1.7-5.2,2.6-10.3,2.6-15.4c0-4.1-1-7.3-3-9.5c-2-2.2-4.3-3.3-7-3.3
		c-5.8,0-11.6,3.2-17.3,9.6c-5.7,6.4-9.8,13.9-12.4,22.4 M1661.3,602.7l-5.3,17.7c5.8-6.6,10.9-11.2,15.5-13.8
		c4.5-2.6,9.2-3.9,13.9-3.9c4.7,0,8.7,1.8,12.1,5.4c3.3,3.6,5,8.4,5,14.1c0,11.3-4.8,22.8-14.3,34.5c-9.5,11.7-20.6,17.5-33.2,17.5
		c-2.6,0-5-0.3-7-0.8c-2-0.5-4.4-1.5-6.9-2.9l-5.9,19.9c-1.2,3.9-1.7,6.5-1.7,7.7c0,1.1,0.3,2.1,0.9,2.9c0.6,0.8,1.6,1.4,3,1.9
		c1.4,0.5,4.1,0.7,8.2,0.7l-0.7,2.8h-37.5l0.8-2.8c4.9-0.2,8.2-1,10-2.5c1.7-1.5,3.5-5.4,5.4-12l20.1-67.5c1.2-4.3,1.9-7,1.9-8
		c0-1.4-0.4-2.5-1.2-3.2c-0.8-0.8-2.1-1.2-3.8-1.2c-1.5,0-3.7,0.2-6.4,0.5v-3L1661.3,602.7z M1581.2,602.7c1.8,3,3,5.8,3.7,8.4
		c0.7,2.6,1.4,7.7,2.1,15.3l3.5,37.9c3.2-3.7,7.8-9.6,13.9-17.6c2.9-3.9,6.5-9.2,10.9-16c2.6-4.1,4.2-7,4.8-8.6
		c0.3-0.8,0.5-1.7,0.5-2.6c0-0.6-0.2-1-0.5-1.4c-0.4-0.4-1.4-0.8-2.9-1.3c-1.6-0.5-2.9-1.4-3.9-2.7c-1-1.3-1.5-2.8-1.5-4.5
		c0-2.1,0.6-3.8,1.9-5.1c1.3-1.3,2.8-1.9,4.8-1.9c2.3,0,4.3,1,6,2.8c1.7,1.9,2.5,4.5,2.5,7.7c0,4.1-1.4,8.7-4.3,13.9
		c-2.9,5.2-8.4,13.2-16.6,24c-8.2,10.8-18.1,22.6-29.7,35.4c-8,8.8-13.9,14.4-17.8,16.7c-3.9,2.3-7.2,3.4-9.9,3.4
		c-1.6,0-3.1-0.6-4.3-1.8c-1.2-1.2-1.9-2.6-1.9-4.2c0-2,0.9-3.8,2.6-5.4c1.7-1.6,3.6-2.4,5.6-2.4c1.1,0,1.9,0.2,2.6,0.7
		c0.4,0.3,0.9,1,1.4,2.2c0.5,1.2,1,2,1.4,2.4c0.3,0.3,0.6,0.4,1,0.4c0.3,0,0.9-0.3,1.7-0.8c2.9-1.8,6.3-4.5,10.1-8.4
		c5-5.1,8.8-9.3,11.3-12.6l-4.5-48.7c-0.7-8.1-1.9-13-3.3-14.7c-1.5-1.7-4-2.6-7.5-2.6c-1.1,0-3.1,0.2-5.9,0.5l-0.6-2.8
		L1581.2,602.7z M1487.1,607.4l24.4-4.7h3.1l-9.9,33.5c1.9,0.1,3.1,0.2,3.3,0.2c8.6,0,15.4-5.3,20.2-15.8c2.7-5.8,4.6-9.7,5.7-11.5
		c1.1-1.8,2.6-3.3,4.4-4.5c1.8-1.2,3.9-1.8,6.3-1.8c2.9,0,5.3,0.9,7.2,2.6c2,1.8,2.9,3.8,2.9,6.2c0,2-0.7,3.7-2.1,5.2
		c-1.4,1.4-3,2.1-4.8,2.1c-2.2,0-4.2-1.3-6-3.8c-1.2-1.8-2.3-2.7-3.3-2.7c-1.5,0-3.3,2.3-5.4,7c-4.2,10.1-9,16.1-14.4,18.2
		c2.3,1.1,4.3,2.9,6,5.3c1.7,2.4,5.1,8.2,10.1,17.3c2.2,4.2,4.3,6.8,6.3,7.6c2,0.9,4.4,1.5,7.2,1.8l-1,3h-19.1
		c-4.6-9.7-8.6-17.2-11.9-22.5c-3.2-5.4-5.6-8.4-7-9.2c-1.4-0.8-3.5-1.2-6.1-1.2l-9.8,32.9h-11.9l15.5-52.1c1-3.3,1.5-5.5,1.5-6.8
		c0-2.7-1.9-4.1-5.6-4.1c-1.2,0-3.2,0.2-6.2,0.6V607.4z M1407,607.4l24.4-4.7h2.8l-9.6,32.4h27.6l9.1-30.6h12.1l-16,54
		c-0.8,3-1.3,4.8-1.3,5.4c0,1,0.5,1.4,1.4,1.4c1.9,0,5.1-3.4,9.6-10.1l2.8,1.4c-7.7,11.8-14.5,17.7-20.5,17.7
		c-3.8,0-5.7-2.4-5.7-7.1c0-2.3,1-6.9,3-13.7l4.4-14.6h-27.6l-10,33.7h-12l15.3-51.3c1.1-3.9,1.7-6.4,1.7-7.5c0-2.8-1.7-4.2-5.2-4.2
		c-0.8,0-2.9,0.2-6.3,0.5V607.4z M1379,621.3c0-4.8-1.2-8.5-3.6-11c-2.4-2.6-5.5-3.8-9.4-3.8c-7.8,0-15,5.4-21.6,16.3
		c-6.6,10.9-9.9,21.7-9.9,32.4c0,4.9,1.3,8.7,3.8,11.3c2.6,2.7,5.8,4,9.7,4c7.5,0,14.5-5.4,21.1-16.2
		C1375.7,643.4,1379,632.5,1379,621.3z M1392.1,626.8c0,7.7-2.1,15.3-6.3,22.9c-4.2,7.5-10.1,13.5-17.6,17.9
		c-7.5,4.4-14.8,6.6-21.9,6.6c-7.3,0-13.2-2.2-17.8-6.7c-4.6-4.5-6.9-10.3-6.9-17.5c0-7.5,2.3-15.1,6.7-22.7
		c4.5-7.6,10.4-13.6,17.9-18c7.5-4.4,14.8-6.6,21.8-6.6c7,0,12.8,2.2,17.3,6.7C1389.8,613.9,1392.1,619.7,1392.1,626.8z
		 M1254.8,607.4l24.4-4.7h3.1l-9.9,33.5c1.9,0.1,3.1,0.2,3.3,0.2c8.6,0,15.4-5.3,20.2-15.8c2.7-5.8,4.6-9.7,5.7-11.5
		c1.1-1.8,2.6-3.3,4.4-4.5c1.8-1.2,3.9-1.8,6.3-1.8c2.9,0,5.3,0.9,7.2,2.6c2,1.8,2.9,3.8,2.9,6.2c0,2-0.7,3.7-2.1,5.2
		c-1.4,1.4-3,2.1-4.8,2.1c-2.2,0-4.2-1.3-6-3.8c-1.2-1.8-2.3-2.7-3.3-2.7c-1.5,0-3.3,2.3-5.4,7c-4.2,10.1-9,16.1-14.4,18.2
		c2.3,1.1,4.3,2.9,6,5.3c1.7,2.4,5.1,8.2,10.1,17.3c2.2,4.2,4.4,6.8,6.4,7.6c2,0.9,4.4,1.5,7.3,1.8l-1,3h-19.1
		c-4.6-9.7-8.6-17.2-11.9-22.5c-3.2-5.4-5.6-8.4-7-9.2c-1.4-0.8-3.5-1.2-6.1-1.2l-9.8,32.9h-11.9l15.5-52.1c1-3.3,1.5-5.5,1.5-6.8
		c0-2.7-1.9-4.1-5.6-4.1c-1.2,0-3.2,0.2-6.2,0.6V607.4z M1202,604.4l-14.1,46.7c-2.1,7-3.2,11.3-3.2,12.9c0,1.4,0.5,2.1,1.5,2.1
		c0.7,0,1.5-0.4,2.5-1.3c1-0.9,3.1-4,6.5-9.4l2.4,1.8c-6.8,11.5-13.3,17.2-19.5,17.2c-1.5,0-2.8-0.5-3.9-1.6
		c-1.1-1.1-1.6-2.6-1.6-4.5c0-3.4,2.8-14,8.3-31.6c-15.5,25.2-28.8,37.8-39.7,37.8c-2.9,0-5.2-0.9-6.8-2.6c-1.6-1.7-2.4-3.9-2.4-6.5
		c0-3.6,1.4-9.3,4.1-17.3l8.1-23.8c2-5.8,3-9.2,3-10.3c0-1.8-1-2.6-2.8-2.6c-2.4,0-6.5,3.2-12.5,9.8l-2.5-1.7
		c7.9-11,15.8-16.5,23.7-16.5c2.1,0,3.8,0.7,5.2,2.2c1.4,1.4,2,3.3,2,5.6c0,2.7-1.2,7.6-3.6,14.6l-8.6,24.7
		c-2.4,6.7-3.6,11-3.6,12.7c0,2.2,1.3,3.2,3.8,3.2c1.9,0,4.5-1,7.6-3c3.1-2,7.5-6.7,13.2-14c5.6-7.3,9.5-13.3,11.9-18.1
		c2.3-4.8,4.8-11.6,7.4-20.3l1.8-5.9H1202z M1197.3,565.9h3.8c-6.1,13.4-14.9,20.1-26.1,20.1c-5.2,0-9.5-1.2-12.9-3.7
		c-3.4-2.5-5.1-5.5-5.1-9.1c0-2,0.6-3.7,1.8-5.1c1.2-1.4,2.8-2.1,4.8-2.1c1.9,0,3.4,0.5,4.6,1.5c1.2,1,2.5,2.9,3.9,5.6
		c2,4.1,4.9,6.1,8.8,6.1c3.5,0,6.9-1.4,10-4.4C1193.8,571.9,1196,568.9,1197.3,565.9z M1121.7,604.4l-14.5,46.8
		c-2.1,6.9-3.2,11.3-3.2,13.2c0,0.8,0.1,1.5,0.4,1.9c0.3,0.4,0.6,0.6,1.1,0.6c0.7,0,1.5-0.3,2.3-1.1c0.8-0.7,2.9-3.8,6.3-9.4
		l2.4,1.8c-3.7,6.2-7.4,10.7-11.3,13.5c-2.6,1.8-5,2.7-7.4,2.7c-1.8,0-3.2-0.5-4.3-1.7c-1.1-1.1-1.6-2.6-1.6-4.3c0-1.7,0.4-4,1-6.9
		c1-3.5,3.5-11.7,7.5-24.4c-9.4,14.3-17.2,24.1-23.5,29.4c-6.3,5.3-12.1,7.9-17.4,7.9c-2.5,0-4.6-0.8-6.3-2.5
		c-1.8-1.6-2.6-3.7-2.6-6.2c0-3.8,1.4-9.8,4.2-17.7l8.3-23.8c2-5.7,3-9.3,3-10.7c0-0.6-0.3-1.1-0.8-1.6c-0.5-0.4-1.1-0.7-1.7-0.7
		c-1.3,0-2.7,0.4-4,1.2c-1.3,0.8-4.3,3.6-9,8.6l-2.5-1.7c4.3-6,8.9-10.4,13.7-13.2c3.7-2.2,7.1-3.3,10.2-3.3c2.1,0,3.9,0.7,5.2,2.2
		c1.4,1.4,2,3.3,2,5.6c0,2.7-1.2,7.7-3.7,14.7l-8.7,24.6c-2.4,6.7-3.6,10.9-3.6,12.7c0,1,0.3,1.8,1,2.3c0.7,0.6,1.6,0.9,2.7,0.9
		c1.8,0,4.2-0.8,7.1-2.6c2.9-1.7,6.8-5.5,11.7-11.3c4.9-5.9,8.9-11.3,12.1-16.5c3.1-5.1,6.5-13.3,10-24.5l1.9-6.5H1121.7z
		 M975,607.4l24.5-4.7h3.1l-9.9,33.5c2,0.1,3.1,0.2,3.3,0.2c8.6,0,15.4-5.3,20.2-15.8c2.7-5.8,4.6-9.7,5.7-11.5
		c1.1-1.8,2.6-3.3,4.4-4.5c1.8-1.2,3.9-1.8,6.3-1.8c2.9,0,5.3,0.9,7.2,2.6c2,1.8,2.9,3.8,2.9,6.2c0,2-0.7,3.7-2.1,5.2
		c-1.4,1.4-3,2.1-4.8,2.1c-2.2,0-4.2-1.3-6-3.8c-1.2-1.8-2.3-2.7-3.3-2.7c-1.5,0-3.3,2.3-5.4,7c-4.2,10.1-9,16.1-14.4,18.2
		c2.3,1.1,4.3,2.9,6,5.3c1.7,2.4,5.1,8.2,10.1,17.3c2.2,4.2,4.3,6.8,6.3,7.6c2,0.9,4.4,1.5,7.2,1.8l-1,3h-19.1
		c-4.6-9.7-8.6-17.2-11.9-22.5c-3.3-5.4-5.6-8.4-7-9.2c-1.4-0.8-3.5-1.2-6.1-1.2l-9.8,32.9h-11.9l15.5-52.1c1-3.3,1.5-5.5,1.5-6.8
		c0-2.7-1.9-4.1-5.6-4.1c-1.2,0-3.2,0.2-6.2,0.6V607.4z M957.7,655.6c-5.5,6.4-11.1,11.1-16.8,14.1c-5.6,3-11.6,4.5-17.8,4.5
		c-7.6,0-13.4-2.1-17.7-6.2c-4.2-4.1-6.3-9.6-6.3-16.6c0-7.9,2.3-15.6,6.8-23.2c4.5-7.6,10.6-13.8,18.3-18.5
		c7.7-4.8,15.2-7.1,22.6-7.1c5.8,0,10.1,1.2,13,3.5c2.9,2.3,4.3,5.2,4.3,8.6c0,3.2-1,5.9-3,8.2c-1.5,1.8-3.3,2.6-5.4,2.6
		c-1.6,0-3-0.5-4.1-1.6c-1.1-1-1.6-2.3-1.6-3.8c0-1,0.2-1.9,0.6-2.7c0.4-0.8,1.2-1.8,2.4-2.9c1.3-1.2,2-2,2.3-2.5
		c0.3-0.5,0.4-1.1,0.4-1.6c0-1.1-0.5-2-1.5-2.7c-1.6-1-3.7-1.5-6.6-1.5c-5.3,0-10.4,1.8-15.6,5.3c-5.1,3.5-9.5,8.6-13.2,15.1
		c-4.4,7.9-6.6,15.8-6.6,23.7c0,5.2,1.5,9.4,4.7,12.4c3.1,3.1,7.3,4.6,12.7,4.6c4.1,0,8.2-1,12.3-3c4-2,8.6-5.6,13.6-10.8
		L957.7,655.6z M890.6,604.4l-14.1,46.7c-2.1,7-3.2,11.3-3.2,12.9c0,1.4,0.5,2.1,1.5,2.1c0.7,0,1.5-0.4,2.5-1.3c1-0.9,3.1-4,6.5-9.4
		l2.4,1.8c-6.8,11.5-13.3,17.2-19.5,17.2c-1.5,0-2.8-0.5-3.9-1.6c-1.1-1.1-1.6-2.6-1.6-4.5c0-3.4,2.8-14,8.3-31.6
		c-15.5,25.2-28.8,37.8-39.7,37.8c-2.9,0-5.2-0.9-6.8-2.6c-1.6-1.7-2.4-3.9-2.4-6.5c0-3.6,1.4-9.3,4.1-17.3l8.1-23.8
		c2-5.8,3-9.2,3-10.3c0-1.8-1-2.6-2.8-2.6c-2.4,0-6.5,3.2-12.5,9.8l-2.5-1.7c7.9-11,15.8-16.5,23.7-16.5c2.1,0,3.8,0.7,5.2,2.2
		c1.4,1.4,2,3.3,2,5.6c0,2.7-1.2,7.6-3.6,14.6l-8.6,24.7c-2.4,6.7-3.6,11-3.6,12.7c0,2.2,1.3,3.2,3.8,3.2c1.9,0,4.5-1,7.6-3
		c3.1-2,7.5-6.7,13.1-14c5.6-7.3,9.6-13.3,11.9-18.1c2.3-4.8,4.8-11.6,7.4-20.3l1.8-5.9H890.6z M885.9,565.9h3.7
		c-6.1,13.4-14.9,20.1-26.1,20.1c-5.2,0-9.5-1.2-12.9-3.7c-3.4-2.5-5.1-5.5-5.1-9.1c0-2,0.6-3.7,1.8-5.1c1.2-1.4,2.8-2.1,4.8-2.1
		c1.9,0,3.4,0.5,4.6,1.5c1.2,1,2.5,2.9,3.8,5.6c2,4.1,4.9,6.1,8.8,6.1c3.5,0,6.9-1.4,10-4.4C882.4,571.9,884.6,568.9,885.9,565.9z
		 M810.3,604.4l-14.5,46.8c-2.1,6.9-3.2,11.3-3.2,13.2c0,0.8,0.1,1.5,0.4,1.9c0.3,0.4,0.6,0.6,1.1,0.6c0.7,0,1.5-0.3,2.3-1.1
		c0.8-0.7,2.9-3.8,6.3-9.4l2.4,1.8c-3.7,6.2-7.5,10.7-11.3,13.5c-2.6,1.8-5,2.7-7.4,2.7c-1.8,0-3.3-0.5-4.3-1.7
		c-1.1-1.1-1.6-2.6-1.6-4.3c0-1.7,0.4-4,1-6.9c0.9-3.5,3.4-11.7,7.5-24.4c-9.4,14.3-17.2,24.1-23.5,29.4c-6.3,5.3-12.1,7.9-17.4,7.9
		c-2.5,0-4.6-0.8-6.3-2.5c-1.7-1.6-2.6-3.7-2.6-6.2c0-3.8,1.4-9.8,4.2-17.7l8.3-23.8c2-5.7,3-9.3,3-10.7c0-0.6-0.3-1.1-0.8-1.6
		c-0.5-0.4-1.1-0.7-1.7-0.7c-1.3,0-2.7,0.4-4,1.2c-1.3,0.8-4.4,3.6-9.1,8.6l-2.5-1.7c4.3-6,8.9-10.4,13.7-13.2
		c3.7-2.2,7.1-3.3,10.2-3.3c2.1,0,3.9,0.7,5.2,2.2s2,3.3,2,5.6c0,2.7-1.2,7.7-3.7,14.7l-8.7,24.6c-2.4,6.7-3.6,10.9-3.6,12.7
		c0,1,0.3,1.8,1,2.3c0.7,0.6,1.6,0.9,2.7,0.9c1.8,0,4.2-0.8,7.1-2.6c2.9-1.7,6.8-5.5,11.7-11.3c4.9-5.9,8.9-11.3,12-16.5
		c3.2-5.1,6.5-13.3,10-24.5l1.9-6.5H810.3z M722.4,655.6c-5.5,6.4-11.1,11.1-16.7,14.1c-5.6,3-11.6,4.5-17.8,4.5
		c-7.5,0-13.4-2.1-17.7-6.2c-4.2-4.1-6.3-9.6-6.3-16.6c0-7.9,2.3-15.6,6.8-23.2c4.5-7.6,10.7-13.8,18.3-18.5
		c7.6-4.8,15.2-7.1,22.6-7.1c5.8,0,10.1,1.2,13,3.5c2.8,2.3,4.3,5.2,4.3,8.6c0,3.2-1,5.9-3,8.2c-1.5,1.8-3.3,2.6-5.5,2.6
		c-1.6,0-3-0.5-4.1-1.6c-1.1-1-1.6-2.3-1.6-3.8c0-1,0.2-1.9,0.6-2.7c0.4-0.8,1.2-1.8,2.5-2.9c1.2-1.2,2-2,2.2-2.5
		c0.3-0.5,0.4-1.1,0.4-1.6c0-1.1-0.5-2-1.5-2.7c-1.6-1-3.7-1.5-6.6-1.5c-5.3,0-10.4,1.8-15.6,5.3c-5.1,3.5-9.5,8.6-13.1,15.1
		c-4.4,7.9-6.6,15.8-6.6,23.7c0,5.2,1.5,9.4,4.7,12.4c3.1,3.1,7.3,4.6,12.7,4.6c4.1,0,8.2-1,12.3-3c4-2,8.6-5.6,13.6-10.8
		L722.4,655.6z M650.2,655.6c-5.5,6.4-11.1,11.1-16.7,14.1c-5.6,3-11.6,4.5-17.8,4.5c-7.5,0-13.4-2.1-17.7-6.2
		c-4.2-4.1-6.3-9.6-6.3-16.6c0-7.9,2.3-15.6,6.8-23.2c4.5-7.6,10.6-13.8,18.3-18.5c7.7-4.8,15.2-7.1,22.6-7.1c5.8,0,10.1,1.2,13,3.5
		c2.8,2.3,4.3,5.2,4.3,8.6c0,3.2-1,5.9-3,8.2c-1.5,1.8-3.3,2.6-5.5,2.6c-1.6,0-3-0.5-4.1-1.6c-1.1-1-1.6-2.3-1.6-3.8
		c0-1,0.2-1.9,0.6-2.7c0.4-0.8,1.2-1.8,2.4-2.9c1.3-1.2,2-2,2.3-2.5c0.3-0.5,0.4-1.1,0.4-1.6c0-1.1-0.5-2-1.5-2.7
		c-1.5-1-3.7-1.5-6.6-1.5c-5.3,0-10.5,1.8-15.6,5.3c-5.1,3.5-9.5,8.6-13.2,15.1c-4.4,7.9-6.6,15.8-6.6,23.7c0,5.2,1.5,9.4,4.7,12.4
		c3.1,3.1,7.3,4.6,12.7,4.6c4.1,0,8.2-1,12.2-3c4.1-2,8.6-5.6,13.6-10.8L650.2,655.6z M567.9,621.3c0-4.8-1.2-8.5-3.6-11
		c-2.4-2.6-5.5-3.8-9.4-3.8c-7.8,0-15,5.4-21.6,16.3c-6.6,10.9-9.9,21.7-9.9,32.4c0,4.9,1.3,8.7,3.8,11.3c2.6,2.7,5.8,4,9.7,4
		c7.5,0,14.5-5.4,21.1-16.2C564.7,643.4,567.9,632.5,567.9,621.3z M581,626.8c0,7.7-2.1,15.3-6.3,22.9c-4.2,7.5-10.1,13.5-17.6,17.9
		c-7.5,4.4-14.8,6.6-21.9,6.6c-7.3,0-13.2-2.2-17.8-6.7c-4.6-4.5-6.9-10.3-6.9-17.5c0-7.5,2.2-15.1,6.7-22.7
		c4.5-7.6,10.5-13.6,18-18c7.5-4.4,14.8-6.6,21.8-6.6c7,0,12.8,2.2,17.3,6.7C578.7,613.9,581,619.7,581,626.8z M441.8,664.3
		c3.3,3.8,7.8,5.7,13.4,5.7c2.8,0,5.6-0.7,8.5-2.2c2.9-1.5,5.7-3.7,8.5-6.6c2.8-2.9,5.3-6.3,7.5-10.1c2.2-3.8,4.2-8.3,5.9-13.5
		c1.7-5.2,2.6-10.3,2.6-15.4c0-4.1-1-7.3-3-9.5c-2-2.2-4.3-3.3-7-3.3c-5.8,0-11.6,3.2-17.3,9.6c-5.7,6.4-9.8,13.9-12.4,22.4
		L441.8,664.3z M460.1,602.7l-5.3,17.7c5.8-6.6,10.9-11.2,15.5-13.8c4.5-2.6,9.2-3.9,13.9-3.9c4.7,0,8.7,1.8,12.1,5.4
		c3.4,3.6,5,8.4,5,14.1c0,11.3-4.8,22.8-14.3,34.5c-9.5,11.7-20.6,17.5-33.2,17.5c-2.6,0-5-0.3-7-0.8c-2-0.5-4.4-1.5-6.9-2.9
		l-5.9,19.9c-1.2,3.9-1.7,6.5-1.7,7.7c0,1.1,0.3,2.1,0.9,2.9c0.6,0.8,1.6,1.4,3,1.9c1.4,0.5,4.1,0.7,8.2,0.7l-0.7,2.8h-37.5l0.8-2.8
		c4.9-0.2,8.2-1,10-2.5c1.7-1.5,3.5-5.4,5.4-12l20.1-67.5c1.2-4.3,1.9-7,1.9-8c0-1.4-0.4-2.5-1.3-3.2c-0.8-0.8-2.1-1.2-3.8-1.2
		c-1.5,0-3.7,0.2-6.5,0.5v-3L460.1,602.7z M371.1,639.7c8-0.9,14.6-2.4,19.6-4.5c6.7-2.8,11.7-6.2,15-10.2c3.3-3.9,5-7.7,5-11.2
		c0-2.2-0.7-3.9-2.1-5.3c-1.4-1.3-3.5-2-6.2-2c-5.5,0-11.4,2.8-17.6,8.4C378.6,620.5,374,628.7,371.1,639.7z M370.5,643.4
		c-0.3,2.6-0.5,4.7-0.5,6.4c0,4.6,1.7,8.4,5.1,11.6c3.4,3.2,7.6,4.8,12.4,4.8c3.9,0,7.6-0.8,11.2-2.3c3.6-1.5,8.9-4.8,16-10l1.6,2.2
		c-12.6,12.1-24.6,18.1-36,18.1c-7.8,0-13.6-2.4-17.5-7.1c-3.9-4.7-5.9-10-5.9-15.7c0-7.7,2.4-15.5,7.3-23.5
		c4.9-8,11-14.2,18.4-18.7c7.4-4.4,15-6.7,22.8-6.7c5.6,0,9.8,1.1,12.5,3.3c2.7,2.2,4,4.8,4,7.9c0,4.3-1.8,8.4-5.3,12.3
		c-4.7,5.1-11.6,9.2-20.7,12.4C390,640.6,381.5,642.3,370.5,643.4z M344.8,655.6c-5.5,6.4-11.1,11.1-16.7,14.1
		c-5.6,3-11.6,4.5-17.8,4.5c-7.6,0-13.4-2.1-17.7-6.2c-4.2-4.1-6.3-9.6-6.3-16.6c0-7.9,2.3-15.6,6.8-23.2
		c4.5-7.6,10.6-13.8,18.3-18.5c7.7-4.8,15.2-7.1,22.6-7.1c5.8,0,10.1,1.2,13,3.5c2.8,2.3,4.3,5.2,4.3,8.6c0,3.2-1,5.9-3,8.2
		c-1.5,1.8-3.3,2.6-5.5,2.6c-1.6,0-3-0.5-4.1-1.6c-1.1-1-1.6-2.3-1.6-3.8c0-1,0.2-1.9,0.6-2.7c0.4-0.8,1.2-1.8,2.5-2.9
		c1.2-1.2,2-2,2.2-2.5c0.3-0.5,0.4-1.1,0.4-1.6c0-1.1-0.5-2-1.5-2.7c-1.6-1-3.7-1.5-6.6-1.5c-5.3,0-10.4,1.8-15.6,5.3
		c-5.1,3.5-9.5,8.6-13.2,15.1c-4.4,7.9-6.6,15.8-6.6,23.7c0,5.2,1.5,9.4,4.7,12.4c3.1,3.1,7.3,4.6,12.7,4.6c4.1,0,8.2-1,12.3-3
		c4-2,8.6-5.6,13.6-10.8L344.8,655.6z M207,665.8c5.8,0.7,10.4,1.1,13.6,1.1c8.4,0,15.8-2.4,22.3-7.3c6.5-4.9,9.7-11.5,9.7-19.8
		c0-6.4-2-11.3-6.1-14.9c-4-3.6-10.6-5.3-19.6-5.3c-1.7,0-3.9,0.1-6.4,0.3L207,665.8z M222.3,614.1c3.5,0.1,5.9,0.2,7.5,0.2
		c11,0,19.1-2.3,24.5-6.9c5.3-4.6,8-10.4,8-17.4c0-5.3-1.6-9.4-4.9-12.3c-3.3-2.9-8.6-4.4-15.8-4.4c-1.9,0-4.4,0.3-7.3,0.9
		L222.3,614.1z M205.9,570.6l1.1-2.8h38.7c6.5,0,12.3,1,17.4,2.9c5.1,2,8.9,4.7,11.5,8.2c2.5,3.5,3.8,7.2,3.8,11.1
		c0,6-2.4,11.5-7.1,16.3c-4.7,4.9-12.5,8.4-23.2,10.8c7.1,2.4,12.4,5.5,15.7,9.4c3.4,3.9,5.1,8.2,5.1,12.9c0,5.2-1.4,10.2-4.1,14.9
		c-2.8,4.7-6.3,8.4-10.6,11.1c-4.3,2.6-9.5,4.6-15.6,5.8c-4.4,0.9-11.1,1.3-20.3,1.3h-39.5l1-2.8c4.1-0.1,7-0.5,8.4-1.2
		c2.1-0.9,3.6-2,4.5-3.5c1.3-1.9,3-6.4,5.1-13.4l18.8-63.5c1.6-5.3,2.5-9.1,2.5-11.3c0-1.9-0.8-3.4-2.2-4.5
		c-1.5-1.1-4.2-1.7-8.3-1.7C207.6,570.7,206.7,570.7,205.9,570.6z"/>
	<path class="st8" d="M1769.9,655.6c-5.5,6.4-11.1,11.1-16.7,14.1c-5.6,3-11.6,4.5-17.8,4.5c-7.5,0-13.4-2.1-17.7-6.2
		c-4.2-4.1-6.3-9.6-6.3-16.6c0-7.9,2.3-15.6,6.8-23.2c4.5-7.6,10.6-13.8,18.3-18.5c7.7-4.8,15.2-7.1,22.6-7.1c5.8,0,10.1,1.2,13,3.5
		c2.8,2.3,4.3,5.2,4.3,8.6c0,3.2-1,5.9-3,8.2c-1.5,1.8-3.3,2.6-5.5,2.6c-1.6,0-3-0.5-4.1-1.6c-1.1-1-1.6-2.3-1.6-3.8
		c0-1,0.2-1.9,0.6-2.7c0.4-0.8,1.2-1.8,2.5-2.9c1.2-1.2,2-2,2.2-2.5c0.3-0.5,0.4-1.1,0.4-1.6c0-1.1-0.5-2-1.5-2.7
		c-1.5-1-3.8-1.5-6.6-1.5c-5.3,0-10.5,1.8-15.6,5.3c-5.1,3.5-9.5,8.6-13.2,15.1c-4.4,7.9-6.6,15.8-6.6,23.7c0,5.2,1.5,9.4,4.7,12.4
		c3.1,3.1,7.3,4.6,12.7,4.6c4.1,0,8.2-1,12.2-3c4-2,8.6-5.6,13.6-10.8"/>
	<path class="st10" d="M117.7,567.3H153l-0.8,2.8c-5,0.7-9.3,2.2-13,4.5c-3.7,2.3-8.8,6.8-15.2,13.7l-27.1,27.7l7.6,27.9
		c0.7,2.7,2.1,6.8,4,12.4c1.2,3.6,2.5,6.1,3.7,7.6c1.2,1.5,2.8,2.6,4.7,3.4c1.9,0.8,4.7,1.3,8.5,1.4l-0.8,2.8H83.6l0.8-2.8
		c4.2-0.2,7.2-0.9,9.1-2.4c1.4-1,2.1-2.4,2.1-4c0-1.4-0.7-4.6-2-9.5l-7.3-26.2l-24.5,24.7c-4.8,4.9-7.6,8.1-8.5,9.6
		c-0.6,0.9-0.8,1.8-0.8,2.7c0,1.5,0.8,2.8,2.3,3.8c0.7,0.4,2.9,0.8,6.5,1.3l-0.8,2.8H25.8l0.8-2.8c4.4-0.4,7.9-1.4,10.7-3
		c4-2.4,9.6-7.2,16.8-14.4l30.3-30.5l-8.3-30.1c-2.5-9.2-4.7-14.9-6.6-17c-1.9-2.1-5.1-3.3-9.8-3.7l0.8-2.8h37.3l-0.9,2.8
		c-3.4,0-5.8,0.2-7,0.7c-1.2,0.4-2.1,1.1-2.8,2c-0.6,0.9-1,1.9-1,3c0,1.2,0.6,4.1,1.8,8.6l7.1,25.7l16.4-16.3
		c6.5-6.5,10.9-11.7,13.3-15.6c0.9-1.4,1.3-2.6,1.3-3.7c0-1.2-0.5-2.1-1.5-2.8c-1.4-0.9-4-1.5-7.8-1.6L117.7,567.3z"/>
</g>
</svg>
