<svg xmlns="http://www.w3.org/2000/svg" width="501" height="89" viewBox="0 0 501 89" fill="none">
    <path d="M114.693 63.8257V66.1577H109.998V76.3937H107.071V63.8726L114.693 63.8257Z" fill="#1C3664" stroke="#1C3664" stroke-width="0.25"/>
    <path d="M121.783 63.998C123.057 63.799 124.345 63.71 125.634 63.7319C126.989 63.6201 128.341 63.9735 129.468 64.7336C129.898 65.0857 130.242 65.5306 130.475 66.0347C130.708 66.5389 130.824 67.0894 130.814 67.6448C130.838 68.196 130.748 68.7463 130.548 69.2609C130.349 69.7754 130.045 70.243 129.656 70.6342C128.511 71.5751 127.05 72.0452 125.571 71.9489C125.248 71.9668 124.924 71.9668 124.601 71.9489V76.4408H121.783V63.998ZM124.601 69.6951C124.918 69.733 125.238 69.733 125.555 69.6951C127.121 69.6951 127.997 68.9282 127.997 67.6448C127.997 66.3614 127.199 65.7979 125.79 65.7979C125.391 65.7925 124.992 65.8292 124.601 65.9075V69.6951Z" fill="#1C3664" stroke="#1C3664" stroke-width="0.25"/>
    <path d="M140.08 63.8257L141.911 68.2394L142.788 70.6497C142.944 70.1019 143.148 69.2724 143.476 68.2081L144.838 63.8257H147.812L145.558 69.9297C144.96 71.7019 144.129 73.3862 143.085 74.9382C142.7 75.4622 142.195 75.8863 141.612 76.175C141.029 76.4636 140.386 76.6084 139.736 76.5972C139.263 76.6131 138.791 76.5442 138.343 76.3937L138.546 74.1243C138.855 74.1897 139.17 74.2212 139.485 74.2182C139.853 74.2166 140.211 74.1035 140.513 73.8939C140.814 73.6843 141.046 73.3881 141.175 73.0443C141.225 72.9558 141.251 72.8561 141.251 72.7548C141.251 72.6534 141.225 72.5538 141.175 72.4652L136.934 63.8257H140.08Z" fill="#1C3664" stroke="#1C3664" stroke-width="0.25"/>
    <path d="M164.778 63.8257V76.3468H161.914V66.1577H157.469V76.3937H154.604V63.8726L164.778 63.8257Z" fill="#1C3664" stroke="#1C3664" stroke-width="0.25"/>
    <path d="M182.996 63.8257V76.3468H180.132V66.1577H175.687V76.3937H172.823V63.8726L182.996 63.8257Z" fill="#1C3664" stroke="#1C3664" stroke-width="0.25"/>
    <path d="M193.968 73.1707L193.075 76.3949H190.133L193.968 63.8738H197.708L201.605 76.3949H198.475L197.505 73.1707H193.968ZM197.098 71.0421L196.315 68.3814C196.096 67.6301 195.861 66.7067 195.674 65.9554C195.486 66.7067 195.298 67.6458 195.094 68.3814L194.343 71.0421H197.098Z" fill="#1C3664" stroke="#1C3664" stroke-width="0.25"/>
    <path d="M221.044 63.8257V69.0532H221.279L224.754 63.8257H228.213L223.815 69.3976C224.525 69.5976 225.166 69.9875 225.671 70.5253C226.176 71.0631 226.524 71.7284 226.679 72.4496C227.089 73.7908 227.575 75.1077 228.135 76.3937H225.004C224.609 75.5025 224.284 74.5814 224.034 73.6391C223.596 72.2148 223.017 71.1349 221.498 71.1349H220.951V76.3937H218.133V63.8726L221.044 63.8257Z" fill="#1C3664" stroke="#1C3664" stroke-width="0.25"/>
    <path d="M246.29 69.977C246.29 74.109 243.802 76.5976 240.123 76.5976C236.445 76.5976 234.207 73.7803 234.207 70.2118C234.138 69.3685 234.245 68.52 234.521 67.7203C234.798 66.9207 235.238 66.1875 235.814 65.5675C236.39 64.9475 237.088 64.4543 237.865 64.1194C238.642 63.7846 239.481 63.6153 240.327 63.6226C241.149 63.6041 241.965 63.7591 242.723 64.0772C243.481 64.3954 244.164 64.8696 244.727 65.4691C245.289 66.0686 245.719 66.7798 245.988 67.5565C246.258 68.3332 246.361 69.158 246.29 69.977V69.977ZM237.212 70.1492C237.212 72.6065 238.37 74.3438 240.264 74.3438C242.158 74.3438 243.285 72.5125 243.285 70.0709C243.285 67.6293 242.205 65.8764 240.249 65.8764C238.292 65.8764 237.212 67.7076 237.212 70.1492Z" fill="#1C3664" stroke="#1C3664" stroke-width="0.25"/>
    <path d="M264.289 71.5899C264.289 70.0248 264.18 68.2405 264.18 66.4249C263.788 67.9901 263.272 69.8213 262.787 71.2925L261.222 76.1914H258.999L257.653 71.3238C257.246 69.8526 256.823 68.0527 256.526 66.4249C256.526 68.1153 256.401 70.0561 256.307 71.6212L256.088 76.3949H253.458L254.257 63.8738H258.044L259.281 68.0683C259.672 69.5239 260.063 71.0891 260.345 72.5603C260.705 71.1047 261.128 69.43 261.535 68.0527L262.881 63.8738H266.59L267.279 76.3949H264.508L264.289 71.5899Z" fill="#1C3664" stroke="#1C3664" stroke-width="0.25"/>
    <path d="M285.184 63.8257V76.3468H282.335V66.1577H277.875V76.3937H275.026V63.8726L285.184 63.8257Z" fill="#1C3664" stroke="#1C3664" stroke-width="0.25"/>
    <path d="M296.171 73.1707L295.279 76.3949H292.321L296.171 63.8738H299.896L303.793 76.3949H300.741L299.771 73.1707H296.171ZM299.301 71.0421L298.519 68.3814C298.284 67.6301 298.065 66.7067 297.877 65.9554C297.689 66.7067 297.501 67.6458 297.298 68.3814L296.547 71.0421H299.301Z" fill="#1C3664" stroke="#1C3664" stroke-width="0.25"/>
    <path d="M313.92 63.8257V68.662H318.615V63.8257H321.448V76.3468H318.615V71.1349H313.92V76.3937H311.071V63.8726L313.92 63.8257Z" fill="#1C3664" stroke="#1C3664" stroke-width="0.25"/>
    <path d="M332.122 63.8257V67.5507C332.122 69.5697 332.122 71.5575 331.966 73.2478H332.044C332.701 71.7766 333.531 70.1175 334.282 68.7715L336.99 63.8257H339.901V76.3468H337.287V72.6844C337.263 70.9186 337.331 69.1528 337.491 67.3942V67.3942C336.888 68.9321 336.182 70.4276 335.378 71.8705L332.811 76.3937H329.571V63.8726L332.122 63.8257Z" fill="#1C3664" stroke="#1C3664" stroke-width="0.25"/>
    <path d="M350.591 63.8264V67.5514C350.591 69.5704 350.591 71.5582 350.45 73.2485C351.107 71.7773 352.015 70.1182 352.688 68.7722L355.396 63.8264H358.417V76.3475H355.803V72.6851C355.803 70.7443 355.803 69.0227 356.006 67.3949C355.347 68.9373 354.584 70.4329 353.721 71.8712L351.17 76.3945H347.914V63.8733L350.591 63.8264ZM352.344 60.9465C352.344 61.6821 352.579 62.0891 353.173 62.0891C353.768 62.0891 353.972 61.6821 354.05 60.9465H355.944C355.834 62.5117 354.785 63.2473 353.126 63.2473C352.792 63.2988 352.451 63.2781 352.126 63.1866C351.801 63.0951 351.499 62.9349 351.241 62.7169C350.983 62.4988 350.775 62.228 350.63 61.9226C350.485 61.6172 350.408 61.2844 350.403 60.9465H352.344Z" fill="#1C3664" stroke="#1C3664" stroke-width="0.25"/>
    <path d="M132.927 12.5212H140.174V50.2254H133.271V32.868C133.271 30.7081 133.381 27.2022 133.6 22.3973H133.491C132.145 24.5676 129.906 27.9535 126.776 32.555L114.412 50.2254H107.149V12.5212H114.067V29.8473C114.067 32.602 113.958 36.1079 113.739 40.2868H113.848C115.053 38.2991 117.26 34.9653 120.5 30.2856L132.927 12.5212Z" fill="#1C3664" stroke="#1C3664" stroke-width="0.5"/>
    <path d="M167.595 17.5928C165.816 17.5777 164.049 17.8907 162.383 18.5162C160.833 19.113 159.434 20.0426 158.282 21.2395C157.103 22.5012 156.197 23.9932 155.622 25.6219C154.955 27.5379 154.631 29.5566 154.667 31.5851C154.626 33.5769 154.922 35.5613 155.543 37.4544C156.056 39.0257 156.912 40.4637 158.048 41.6646C159.163 42.8152 160.529 43.6935 162.039 44.2314C163.761 44.8179 165.572 45.1038 167.391 45.0766C168.858 45.0743 170.323 44.9645 171.774 44.7479C173.191 44.5297 174.588 44.2 175.953 43.7619V49.7094C174.55 50.1034 173.123 50.4015 171.68 50.6015C170.125 50.8221 168.556 50.9319 166.985 50.9302C164.112 50.987 161.254 50.5202 158.548 49.5529C156.256 48.7347 154.176 47.4138 152.46 45.687C150.772 44.0006 149.483 41.9577 148.688 39.7082C147.845 37.2348 147.427 34.6364 147.452 32.0233C147.426 29.2913 147.871 26.5753 148.766 23.9942C149.59 21.6292 150.877 19.4527 152.554 17.5928C154.273 15.7319 156.385 14.2776 158.736 13.3356C161.406 12.2599 164.263 11.7278 167.141 11.7704C168.66 11.7596 170.177 11.8643 171.68 12.0835C172.995 12.2697 174.289 12.5788 175.546 13.0069V18.8762C174.171 18.4368 172.763 18.1071 171.336 17.8901C170.097 17.7031 168.847 17.6037 167.595 17.5928V17.5928Z" fill="#1C3664" stroke="#1C3664" stroke-width="0.5"/>
    <path d="M198.444 50.2254H191.526V18.234H179.333V12.5212H210.636V18.2966H198.459L198.444 50.2254Z" fill="#1C3664" stroke="#1C3664" stroke-width="0.5"/>
    <path d="M249.686 31.3027C249.72 33.9931 249.302 36.67 248.45 39.2223C247.706 41.5368 246.485 43.6695 244.866 45.4829C243.267 47.2439 241.293 48.6238 239.09 49.5209C234.051 51.4477 228.478 51.4477 223.439 49.5209C221.234 48.6202 219.256 47.241 217.648 45.4829C216.04 43.6616 214.82 41.5312 214.064 39.2223C213.231 36.6664 212.823 33.9908 212.859 31.3027C212.83 28.6138 213.242 25.9384 214.08 23.3831C214.831 21.0718 216.051 18.9405 217.664 17.1226C219.271 15.3644 221.249 13.9852 223.455 13.0845C228.494 11.1577 234.067 11.1577 239.106 13.0845C241.312 14.0109 243.281 15.4233 244.866 17.2165C246.489 19.0268 247.711 21.1605 248.45 23.477C249.29 25.9997 249.708 28.6439 249.686 31.3027V31.3027ZM242.596 31.3027C242.642 29.2617 242.356 27.2268 241.751 25.2769C241.265 23.7028 240.472 22.2401 239.419 20.9728C238.447 19.8491 237.225 18.9698 235.851 18.406C232.945 17.2826 229.725 17.2826 226.82 18.406C225.45 18.9694 224.232 19.8489 223.267 20.9728C222.205 22.2362 221.406 23.6997 220.919 25.2769C220.322 27.2285 220.037 29.2621 220.074 31.3027C220.037 33.3433 220.322 35.3769 220.919 37.3285C221.403 38.9025 222.201 40.3616 223.267 41.617C224.236 42.7401 225.452 43.6239 226.82 44.1994C229.725 45.3228 232.945 45.3228 235.851 44.1994C237.223 43.624 238.444 42.7404 239.419 41.617C240.474 40.3569 241.267 38.8989 241.751 37.3285C242.356 35.3786 242.642 33.3437 242.596 31.3027V31.3027Z" fill="#1C3664" stroke="#1C3664" stroke-width="0.5"/>
    <path d="M257.027 50.2254V12.5212H263.945V29.7378H264.054L278.313 12.5212H286.89L271.144 31.3029L288.189 50.3663H279.33L264.054 33.3063H263.945V50.3663L257.027 50.2254Z" fill="#1C3664" stroke="#1C3664" stroke-width="0.5"/>
    <path d="M289.879 33.0562H302.4V39.1289H289.879V33.0562Z" fill="#1C3664" stroke="#1C3664" stroke-width="0.5"/>
    <path d="M331.809 40.5998H317.582L313.888 50.2254H306.517L321.558 12.5212H327.818L342.797 50.288H335.487L331.809 40.5998ZM324.641 21.5364C323.326 25.5015 322.147 28.8039 321.104 31.4438L319.82 34.8088H329.587L328.288 31.4438C327.27 28.7674 326.081 25.4649 324.751 21.5364H324.641Z" fill="#1C3664" stroke="#1C3664" stroke-width="0.5"/>
    <path d="M365.147 41.3511C364.415 42.9352 363.524 44.4403 362.486 45.843C361.647 46.986 360.633 47.9896 359.481 48.8168C358.399 49.5458 357.196 50.0759 355.928 50.3819C354.509 50.7277 353.053 50.8959 351.593 50.8828C350.967 50.8828 350.278 50.8515 349.527 50.7889C348.817 50.7171 348.112 50.6074 347.414 50.4602V44.6066C348.681 44.9067 349.977 45.0642 351.28 45.0761C352.071 45.0925 352.862 44.9976 353.627 44.7944C354.334 44.6001 354.994 44.2646 355.568 43.8083C356.243 43.266 356.829 42.6218 357.305 41.8989C357.965 40.9127 358.526 39.8643 358.98 38.7686L344.33 12.5212H352L362.611 31.8507L371.47 12.5212H378.967L365.147 41.3511Z" fill="#1C3664" stroke="#1C3664" stroke-width="0.5"/>
    <path d="M379.029 44.4344C380.526 42.512 381.896 40.4939 383.13 38.393C384.469 36.1251 385.626 33.7542 386.589 31.3029C387.651 28.5216 388.525 25.6718 389.203 22.7729C389.96 19.3919 390.514 15.9685 390.862 12.5212H410.426V44.4344H414.918V56.2199H408.016V50.2254H383.6V56.2199H376.713V44.4344H379.029ZM396.669 18.234C396.321 20.9076 395.835 23.5614 395.213 26.1849C394.656 28.4529 393.96 30.6847 393.131 32.868C392.351 34.899 391.436 36.8755 390.392 38.7843C389.359 40.6468 388.232 42.478 386.996 44.2935V44.4031H403.508V18.234H396.669Z" fill="#1C3664" stroke="#1C3664" stroke-width="0.5"/>
    <path d="M448.584 12.5212H455.846V50.2254H448.928V32.868C448.928 30.7081 449.038 27.2022 449.273 22.3973H449.195C447.89 24.5885 445.631 27.9848 442.418 32.5863L430.116 50.2567H422.853V12.5212H429.787V29.8473C429.787 32.602 429.662 36.1079 429.443 40.2868H429.552C430.752 38.3043 432.975 34.9705 436.22 30.2856L448.584 12.5212Z" fill="#1C3664" stroke="#1C3664" stroke-width="0.5"/>
    <path d="M499.999 31.3023C500.024 33.9921 499.606 36.6678 498.762 39.2219C498.019 41.5364 496.798 43.6691 495.178 45.4825C493.573 47.2438 491.595 48.6235 489.387 49.5205C484.348 51.4473 478.775 51.4473 473.736 49.5205C471.533 48.5885 469.565 47.1769 467.976 45.3885C466.368 43.5672 465.148 41.4369 464.392 39.128C463.553 36.573 463.141 33.8974 463.171 31.2084C463.142 28.5195 463.554 25.8441 464.392 23.2888C465.166 21.0441 466.385 18.9787 467.976 17.2161C469.584 15.4579 471.562 14.0787 473.767 13.178C478.806 11.2512 484.379 11.2512 489.419 13.178C491.626 14.075 493.605 15.4547 495.21 17.2161C496.833 19.0264 498.055 21.1601 498.794 23.4766C499.616 26.0029 500.023 28.6457 499.999 31.3023V31.3023ZM492.846 31.3023C492.884 29.2617 492.598 27.2281 492.001 25.2765C491.514 23.6993 490.716 22.2358 489.653 20.9724C488.691 19.8459 487.472 18.9658 486.1 18.4056C483.195 17.2822 479.975 17.2822 477.07 18.4056C475.698 18.9658 474.48 19.8459 473.517 20.9724C472.454 22.2358 471.656 23.6993 471.169 25.2765C470.572 27.2281 470.287 29.2617 470.324 31.3023C470.287 33.3429 470.572 35.3765 471.169 37.3281C471.652 38.9021 472.451 40.3612 473.517 41.6166C474.483 42.7431 475.7 43.6276 477.07 44.199C479.975 45.3224 483.195 45.3224 486.1 44.199C487.47 43.6276 488.687 42.7431 489.653 41.6166C490.719 40.3612 491.518 38.9021 492.001 37.3281C492.598 35.3765 492.884 33.3429 492.846 31.3023V31.3023Z" fill="#1C3664" stroke="#1C3664" stroke-width="0.5"/>
    <path d="M89.0407 57.785C89.0376 59.5674 88.5063 61.3088 87.5138 62.7893C86.5213 64.2698 85.1122 65.4228 83.4647 66.1028C81.8171 66.7827 80.0049 66.959 78.2572 66.6094C76.5094 66.2598 74.9045 65.3999 73.6453 64.1385C72.3861 62.8771 71.529 61.2707 71.1824 59.5224C70.8358 57.774 71.0153 55.9622 71.6981 54.3158C72.3809 52.6694 73.5364 51.2623 75.0186 50.2724C76.5008 49.2825 78.2432 48.7542 80.0255 48.7542C81.2107 48.7541 82.3843 48.9879 83.4791 49.4419C84.5739 49.8959 85.5684 50.5614 86.4058 51.4002C87.2431 52.239 87.9068 53.2346 88.359 54.3302C88.8111 55.4258 89.0428 56.5998 89.0407 57.785V57.785Z" fill="#BFBFCE"/>
    <path d="M87.6477 24.1193C87.6477 26.8063 86.851 29.4329 85.3582 31.667C83.8654 33.9011 81.7437 35.6424 79.2613 36.6706C76.7788 37.6988 74.0473 37.9679 71.412 37.4437C68.7767 36.9195 66.356 35.6256 64.456 33.7257C62.5561 31.8257 61.2622 29.405 60.738 26.7697C60.2138 24.1344 60.4828 21.4028 61.5111 18.9204C62.5393 16.438 64.2806 14.3163 66.5147 12.8235C68.7488 11.3307 71.3754 10.5339 74.0623 10.5339C77.6654 10.5339 81.1209 11.9653 83.6687 14.513C86.2164 17.0608 87.6477 20.5163 87.6477 24.1193V24.1193Z" fill="#CC2036"/>
    <path d="M52.933 12.5211C52.933 14.9975 52.1986 17.4184 50.8228 19.4775C49.4469 21.5365 47.4914 23.1414 45.2035 24.0891C42.9155 25.0368 40.398 25.2847 37.9691 24.8016C35.5403 24.3185 33.3092 23.126 31.5581 21.3749C29.807 19.6238 28.6145 17.3927 28.1313 14.9638C27.6482 12.535 27.8962 10.0174 28.8439 7.72948C29.7916 5.44155 31.3964 3.48602 33.4555 2.11019C35.5146 0.73435 37.9354 0 40.4119 0C43.7327 0 46.9174 1.31918 49.2656 3.66735C51.6138 6.01551 52.933 9.2003 52.933 12.5211Z" fill="#1C3664"/>
    <path d="M23.4771 33.3054C23.4771 35.6271 22.7886 37.8966 21.4988 39.827C20.2089 41.7574 18.3756 43.262 16.2307 44.1504C14.0857 45.0389 11.7255 45.2713 9.44847 44.8184C7.17141 44.3655 5.07981 43.2475 3.43814 41.6058C1.79648 39.9642 0.678492 37.8726 0.225558 35.5955C-0.227376 33.3185 0.00508614 30.9582 0.893548 28.8133C1.78201 26.6683 3.28657 24.835 5.21696 23.5452C7.14735 22.2553 9.41688 21.5669 11.7385 21.5669C14.8518 21.5669 17.8375 22.8036 20.0389 25.005C22.2403 27.2064 23.4771 30.1922 23.4771 33.3054Z" fill="#445078"/>
    <path d="M28.7359 65.7362C28.7359 67.9031 28.0934 70.0213 26.8895 71.823C25.6857 73.6247 23.9746 75.029 21.9726 75.8582C19.9707 76.6875 17.7678 76.9044 15.6426 76.4817C13.5173 76.059 11.5651 75.0155 10.0329 73.4833C8.5007 71.9511 7.45725 69.9989 7.03451 67.8736C6.61177 65.7484 6.82874 63.5455 7.65797 61.5436C8.4872 59.5416 9.89145 57.8305 11.6932 56.6267C13.4949 55.4228 15.6131 54.7803 17.78 54.7803C20.6857 54.7803 23.4724 55.9346 25.527 57.9892C27.5816 60.0438 28.7359 62.8305 28.7359 65.7362V65.7362Z" fill="#6A6D8F"/>
    <path d="M60.8369 78.8046C60.8307 80.7627 60.2444 82.6751 59.152 84.3003C58.0596 85.9254 56.5102 87.1904 54.6993 87.9354C52.8885 88.6805 50.8974 88.8722 48.9776 88.4864C47.0579 88.1006 45.2955 87.1546 43.9131 85.7678C42.5306 84.381 41.5901 82.6156 41.2104 80.6946C40.8307 78.7737 41.0287 76.7832 41.7794 74.9747C42.5302 73.1662 43.8001 71.6208 45.4286 70.5335C47.0572 69.4463 48.9714 68.866 50.9296 68.866C52.2327 68.868 53.5226 69.1267 54.7258 69.6273C55.9289 70.1279 57.0216 70.8605 57.9416 71.7834C58.8616 72.7063 59.5908 73.8013 60.0876 75.006C60.5843 76.2107 60.839 77.5015 60.8369 78.8046V78.8046Z" fill="#9091AB"/>
</svg>