<svg width="97" height="72" viewBox="0 0 97 72" fill="none" xmlns="http://www.w3.org/2000/svg">
<path d="M15.0806 64.5117H16.4072L17.7337 67.863C17.8734 68.2819 18.0828 68.8404 18.0828 68.8404C18.0828 68.8404 18.2923 68.2819 18.4319 67.863L19.7584 64.5117H21.085L21.6435 71.2142H20.3868L20.1075 67.4441C20.0377 67.0252 20.1075 66.3968 20.1075 66.3968C20.1075 66.3968 19.8981 67.0252 19.7584 67.4441L18.6414 70.0273H17.5941L16.477 67.4441C16.3374 67.0252 16.1279 66.3968 16.1279 66.3968C16.1279 66.3968 16.1279 67.0252 16.1279 67.4441L15.8486 71.2142H14.5919L15.0806 64.5117Z" fill="#A7A9AC"/>
<path d="M24.3665 64.5117H28.2064V65.559H25.5534V71.2142H24.2966V64.5117H24.3665Z" fill="#A7A9AC"/>
<path d="M30.5802 64.5117H36.026V71.2142H34.7693V65.559H31.7671V71.2142H30.5104V64.5117H30.5802Z" fill="#A7A9AC"/>
<path d="M39.4471 69.9575C39.5867 70.0972 39.866 70.3066 40.2151 70.3066C40.5642 70.3066 40.7736 70.0971 40.9133 69.7481L38.2602 64.5117H39.5867L41.0529 67.5139C41.2624 67.9328 41.402 68.4215 41.402 68.4215C41.402 68.4215 41.5416 68.0026 41.6813 67.5139L42.7285 64.5117H43.9853L41.8907 69.8179C41.6114 70.5161 41.1227 71.3539 40.1453 71.3539C39.6565 71.3539 39.2376 71.1444 38.8187 70.8652L39.4471 69.9575Z" fill="#A7A9AC"/>
<path d="M27.4384 23.9475C29.3933 23.9475 30.9293 25.4835 30.9293 27.3686C30.9293 29.3235 29.4631 30.8595 27.4384 30.8595C25.4835 30.8595 23.9475 29.3235 23.9475 27.3686C23.9475 25.4835 25.4835 23.9475 27.4384 23.9475ZM27.4384 29.8122C28.6951 29.8122 29.6726 28.7649 29.6726 27.4384C29.6726 26.1119 28.6951 25.1344 27.4384 25.1344C26.1817 25.1344 25.2042 26.1119 25.2042 27.4384C25.2042 28.7649 26.1817 29.8122 27.4384 29.8122Z" fill="#EE3524"/>
<path d="M43.0078 24.0872H41.7511V30.7897H43.0078V24.0872Z" fill="#4D4D4F"/>
<path d="M46.8478 24.0872H45.5213L43.2871 27.2988L45.6609 30.8595H47.1271L44.6136 27.2988L46.8478 24.0872Z" fill="#4D4D4F"/>
<path d="M75.124 24.0872H73.8673V30.7897H75.124V24.0872Z" fill="#4D4D4F"/>
<path d="M78.964 24.0872H77.6375L75.4033 27.2988L77.7771 30.8595H79.2433L76.7299 27.2988L78.964 24.0872Z" fill="#4D4D4F"/>
<path d="M63.9531 37.562H62.6964V44.2645H63.9531V37.562Z" fill="#4D4D4F"/>
<path d="M67.7931 37.562H66.3968L64.2324 40.7736L66.6062 44.2645H68.0724L65.559 40.7038L67.7931 37.562Z" fill="#4D4D4F"/>
<path d="M15.0806 24.0872H16.4072L17.7337 27.4384C17.8734 27.8573 18.0828 28.4159 18.0828 28.4159C18.0828 28.4159 18.2923 27.8573 18.4319 27.4384L19.7584 24.0872H21.085L21.6435 30.7897H20.3868L20.1075 27.0195C20.0377 26.6006 20.1075 25.9722 20.1075 25.9722C20.1075 25.9722 19.8981 26.6006 19.7584 27.0195L18.6414 29.6028H17.5941L16.477 27.0195C16.3374 26.6006 16.1279 25.9722 16.1279 25.9722C16.1279 25.9722 16.1279 26.6006 16.1279 27.0195L15.8486 30.7897H14.5919L15.0806 24.0872Z" fill="#4D4D4F"/>
<path d="M36.6544 23.9475C37.562 23.9475 38.4696 24.2268 39.1678 24.8551L38.6093 25.7628C38.1205 25.3439 37.4224 25.0646 36.794 25.0646C35.3278 25.0646 34.5598 26.1119 34.5598 27.3686C34.5598 28.6253 35.3976 29.7424 36.794 29.7424C37.4922 29.7424 38.2602 29.3933 38.7489 28.9046L39.3773 29.8122C38.8187 30.3708 37.9111 30.9293 36.7242 30.9293C34.6296 30.9293 33.2333 29.3933 33.2333 27.4384C33.1635 25.4835 34.6296 23.9475 36.6544 23.9475Z" fill="#4D4D4F"/>
<path d="M52.1539 23.9475C54.1088 23.9475 55.6448 25.4835 55.6448 27.3686C55.6448 29.3235 54.1786 30.8595 52.1539 30.8595C50.199 30.8595 48.663 29.3235 48.663 27.3686C48.663 25.4835 50.199 23.9475 52.1539 23.9475ZM52.1539 29.8122C53.4106 29.8122 54.3881 28.7649 54.3881 27.4384C54.3881 26.1119 53.4106 25.1344 52.1539 25.1344C50.8972 25.1344 49.9197 26.1119 49.9197 27.4384C49.9197 28.7649 50.8972 29.8122 52.1539 29.8122Z" fill="#4D4D4F"/>
<path d="M58.2979 24.0872H60.6717C61.9284 24.0872 62.7663 24.7155 62.7663 25.8326C62.7663 26.461 62.487 27.0195 61.9284 27.2988C62.6964 27.5082 63.0455 28.2064 63.0455 28.9046C63.0455 30.2311 61.9983 30.8595 60.7415 30.8595H58.2979V24.0872ZM60.6717 26.8101C61.2303 26.8101 61.5095 26.461 61.5095 25.9722C61.5095 25.4835 61.2303 25.1344 60.6717 25.1344H59.4848V26.8101H60.6717ZM60.8114 29.7424C61.4397 29.7424 61.7888 29.3235 61.7888 28.765C61.7888 28.2064 61.4397 27.7875 60.8114 27.7875H59.4848V29.7424H60.8114Z" fill="#4D4D4F"/>
<path d="M68.7706 23.9475C69.6782 23.9475 70.5858 24.2268 71.284 24.8551L70.7255 25.7628C70.2367 25.3439 69.5386 25.0646 68.9102 25.0646C67.444 25.0646 66.676 26.1119 66.676 27.3686C66.676 28.6253 67.5138 29.7424 68.9102 29.7424C69.6084 29.7424 70.3764 29.3933 70.8651 28.9046L71.4935 29.8122C70.9349 30.3708 70.0273 30.9293 68.8404 30.9293C66.7459 30.9293 65.3495 29.3933 65.3495 27.4384C65.2797 25.4835 66.7459 23.9475 68.7706 23.9475Z" fill="#4D4D4F"/>
<path d="M81.3378 24.0872H82.5946V27.997C82.5946 28.4159 82.5247 29.0442 82.5247 29.0442C82.5247 29.0442 82.8738 28.4159 83.0833 27.997L85.5967 24.0872H86.7836V30.7897H85.5967V26.8799C85.5967 26.461 85.6665 25.8326 85.6665 25.8326C85.6665 25.8326 85.3873 26.461 85.108 26.8799L82.5247 30.7897H81.3378V24.0872Z" fill="#4D4D4F"/>
<path d="M89.9254 24.0872H91.1821V27.997C91.1821 28.4159 91.1123 29.0442 91.1123 29.0442C91.1123 29.0442 91.4614 28.4159 91.6709 27.997L94.1843 24.0872H95.3712V30.7897H94.1843V26.8799C94.1843 26.461 94.2541 25.8326 94.2541 25.8326C94.2541 25.8326 93.9749 26.461 93.6956 26.8799L91.1123 30.7897H89.9254V24.0872ZM91.1821 22.4813V22.3417H92.0898V22.4813C92.0898 22.9002 92.4389 23.1097 92.7181 23.1097C92.9974 23.1097 93.3465 22.9002 93.3465 22.4813V22.3417H94.2541V22.4813C94.2541 23.3192 93.5559 23.8079 92.7181 23.8079C91.8803 23.8079 91.1821 23.3192 91.1821 22.4813Z" fill="#4D4D4F"/>
<path d="M14.8014 37.562H18.6414V38.6092H15.9883V44.2645H14.7316V37.562H14.8014Z" fill="#4D4D4F"/>
<path d="M23.8777 37.4223C25.8326 37.4223 27.3686 38.9583 27.3686 40.8434C27.3686 42.7983 25.9024 44.3343 23.8777 44.3343C21.9228 44.3343 20.3868 42.7983 20.3868 40.8434C20.3868 38.9583 21.853 37.4223 23.8777 37.4223ZM23.8777 43.287C25.1344 43.287 26.1118 42.2398 26.1118 40.9132C26.1118 39.5867 25.1344 38.6092 23.8777 38.6092C22.621 38.6092 21.6435 39.5867 21.6435 40.9132C21.6435 42.2398 22.621 43.287 23.8777 43.287Z" fill="#4D4D4F"/>
<path d="M29.9518 37.562H32.5351C33.7918 37.562 34.6995 38.4696 34.6995 39.7263C34.6995 41.0529 33.7918 41.9605 32.5351 41.9605H31.1387V44.2645H29.882V37.562H29.9518ZM32.3256 40.9132C33.0238 40.9132 33.4427 40.4245 33.4427 39.7263C33.4427 39.0281 33.0238 38.6092 32.3256 38.6092H31.1387V40.9132H32.3256Z" fill="#4D4D4F"/>
<path d="M40.2849 37.4223C42.2398 37.4223 43.7758 38.9583 43.7758 40.8434C43.7758 42.7983 42.3096 44.3343 40.2849 44.3343C38.33 44.3343 36.794 42.7983 36.794 40.8434C36.794 38.9583 38.33 37.4223 40.2849 37.4223ZM40.2849 43.287C41.5416 43.287 42.5191 42.2398 42.5191 40.9132C42.5191 39.5867 41.5416 38.6092 40.2849 38.6092C39.0282 38.6092 38.0507 39.5867 38.0507 40.9132C38.0507 42.2398 39.0282 43.287 40.2849 43.287Z" fill="#4D4D4F"/>
<path d="M46.1496 43.2172C46.9874 41.9605 47.127 40.3547 47.127 39.0281V37.562H51.3161V43.2172H52.0841V45.591H50.967V44.2645H46.5685V45.591H45.4514V43.2172H46.1496ZM50.0594 43.2172V38.6092H48.2441V39.098C48.2441 40.4245 48.1045 42.1001 47.4063 43.2172H50.0594Z" fill="#4D4D4F"/>
<path d="M57.5997 37.4223C58.5074 37.4223 59.415 37.7016 60.1132 38.33L59.5546 39.2376C59.0659 38.8187 58.3677 38.5394 57.7394 38.5394C56.2732 38.5394 55.5052 39.5867 55.5052 40.8434C55.5052 42.1001 56.343 43.2172 57.7394 43.2172C58.4376 43.2172 59.2056 42.8681 59.6943 42.3794L60.3226 43.287C59.7641 43.8456 58.8565 44.4041 57.6696 44.4041C55.575 44.4041 54.1787 42.8681 54.1787 40.9132C54.1088 38.9583 55.575 37.4223 57.5997 37.4223Z" fill="#4D4D4F"/>
<path d="M73.0993 37.4223C75.0542 37.4223 76.5902 38.9583 76.5902 40.8434C76.5902 42.7983 75.124 44.3343 73.0993 44.3343C71.1444 44.3343 69.6084 42.7983 69.6084 40.8434C69.6084 38.9583 71.0746 37.4223 73.0993 37.4223ZM73.0993 43.287C74.356 43.287 75.3335 42.2398 75.3335 40.9132C75.3335 39.5867 74.356 38.6092 73.0993 38.6092C71.8426 38.6092 70.8651 39.5867 70.8651 40.9132C70.8651 42.2398 71.8426 43.287 73.0993 43.287Z" fill="#4D4D4F"/>
<path d="M79.2433 37.562H80.5V41.4718C80.5 41.8907 80.4302 42.519 80.4302 42.519C80.4302 42.519 80.7793 41.8907 80.9887 41.4718L83.5022 37.6318H84.6891V44.3343H83.5022V40.4245C83.5022 40.0056 83.572 39.3772 83.572 39.3772C83.572 39.3772 83.2927 40.0056 83.0135 40.4245L80.4302 44.3343H79.2433V37.562ZM80.4302 35.9562V35.8165H81.3378V35.9562C81.3378 36.3751 81.6869 36.5845 81.9662 36.5845C82.2455 36.5845 82.5945 36.3751 82.5945 35.9562V35.8165H83.5022V35.9562C83.5022 36.794 82.804 37.2827 81.9662 37.2827C81.1982 37.2827 80.4302 36.794 80.4302 35.9562Z" fill="#4D4D4F"/>
<path d="M15.1505 56.4827C15.2901 56.6223 15.5694 56.8318 15.9185 56.8318C16.2676 56.8318 16.477 56.6223 16.6166 56.2732L13.9636 51.1067H15.2901L16.7563 54.1089C16.9657 54.5278 17.1054 55.0165 17.1054 55.0165C17.1054 55.0165 17.245 54.5976 17.3846 54.1089L18.4319 51.1067H19.6886L17.5941 56.4129C17.3148 57.111 16.8261 57.9488 15.8486 57.9488C15.3599 57.9488 14.941 57.7394 14.5221 57.4601L15.1505 56.4827Z" fill="#4D4D4F"/>
<path d="M21.9926 51.0368H23.2493V53.8994H26.3213V51.0368H27.5082V57.7393H26.3213V54.9466H23.2493V57.7393H21.9926V51.0368Z" fill="#4D4D4F"/>
<path d="M30.5802 51.0368H31.8369V54.9466C31.8369 55.3655 31.7671 55.9939 31.7671 55.9939C31.7671 55.9939 32.1162 55.3655 32.3256 54.9466L34.8391 51.0368H36.026V57.7393H34.8391V53.8994C34.8391 53.4805 34.9089 52.8521 34.9089 52.8521C34.9089 52.8521 34.6296 53.4805 34.3504 53.8994L31.7671 57.7393H30.5802V51.0368Z" fill="#4D4D4F"/>
<path d="M39.1678 51.0368H41.5416C42.7983 51.0368 43.6361 51.6652 43.6361 52.7823C43.6361 53.4106 43.3569 53.9692 42.7983 54.2485C43.5663 54.4579 43.9154 55.1561 43.9154 55.8543C43.9154 57.1808 42.8681 57.8092 41.6114 57.8092H39.1678V51.0368ZM41.5416 53.7597C42.1001 53.7597 42.3794 53.4106 42.3794 52.9219C42.3794 52.4332 42.1001 52.0841 41.5416 52.0841H40.3547V53.7597H41.5416ZM41.6812 56.6921C42.3096 56.6921 42.6587 56.2732 42.6587 55.7146C42.6587 55.1561 42.3096 54.7372 41.6812 54.7372H40.3547V56.6921H41.6812Z" fill="#4D4D4F"/>
<path d="M46.5685 51.0368H50.6179V52.0841H47.8252V53.8296H50.0594V54.8768H47.8252V56.6921H50.7576V57.7393H46.5685V51.0368Z" fill="#4D4D4F"/>
<path d="M53.3408 51.0368H55.9241C57.1808 51.0368 58.0884 51.9445 58.0884 53.2012C58.0884 54.5277 57.1808 55.4354 55.9241 55.4354H54.5277V57.7393H53.271V51.0368H53.3408ZM55.7146 54.3881C56.4128 54.3881 56.8317 53.8994 56.8317 53.2012C56.8317 52.503 56.4128 52.0841 55.7146 52.0841H54.5277V54.3881H55.7146Z" fill="#4D4D4F"/>
<path d="M63.6739 50.8972C64.5815 50.8972 65.4892 51.1765 66.1873 51.8049L65.6288 52.7125C65.1401 52.2936 64.4419 52.0143 63.8135 52.0143C62.3474 52.0143 61.5794 53.0616 61.5794 54.3183C61.5794 55.575 62.4172 56.6921 63.8135 56.6921C64.5117 56.6921 65.2797 56.343 65.7684 55.8543L66.3968 56.762C65.8382 57.3205 64.9306 57.879 63.7437 57.879C61.6492 57.879 60.2528 56.343 60.2528 54.3881C60.183 52.4332 61.6492 50.8972 63.6739 50.8972Z" fill="#4D4D4F"/>
<path d="M68.7706 51.0368H70.0273V54.9466C70.0273 55.3655 69.9575 55.9939 69.9575 55.9939C69.9575 55.9939 70.3066 55.3655 70.516 54.9466L73.0294 51.0368H74.2164V57.7393H73.0294V53.8994C73.0294 53.4805 73.0993 52.8521 73.0993 52.8521C73.0993 52.8521 72.82 53.4805 72.5407 53.8994L69.9575 57.7393H68.7706V51.0368Z" fill="#4D4D4F"/>
<path d="M78.8942 52.0841H76.66V51.0368H82.3153V52.0841H80.0811V57.7393H78.8942V52.0841Z" fill="#4D4D4F"/>
<path d="M84.6891 51.0368H88.7385V52.0841H85.9458V53.8296H88.18V54.8768H85.876V56.6921H88.8083V57.7393H84.6193V51.0368H84.6891Z" fill="#4D4D4F"/>
<path d="M92.9974 52.0841H90.7632V51.0368H96.4184V52.0841H94.1843V57.7393H92.9974V52.0841Z" fill="#4D4D4F"/>
<path d="M9.07632 44.0551C5.0967 39.6566 2.65308 33.8617 2.65308 27.4384C2.65308 13.7541 13.7541 2.65308 27.4384 2.65308C37.8413 2.65308 46.778 9.14614 50.4085 18.2225L52.9219 17.245C48.8725 7.19124 38.9584 0 27.4384 0C12.2879 0 0 12.3578 0 27.4384C0 34.49 2.65308 40.9831 7.12142 45.8005L9.07632 44.0551Z" fill="#EE3524"/>
</svg>
